<?xml version="1.0" standalone="no"?><!DOCTYPE svg PUBLIC "-//W3C//DTD SVG 1.1//EN" "http://www.w3.org/Graphics/SVG/1.1/DTD/svg11.dtd" ><svg xmlns="http://www.w3.org/2000/svg"><metadata></metadata><defs><font id="FontForge 2.0 : Dejima Mincho : 30-12-2009" horiz-adv-x="1000"><font-face font-family="Dejima" font-weight="500" font-stretch="normal" units-per-em="1000" panose-1="2 0 6 3 0 0 0 0 0 0" ascent="813" descent="-213" x-height="0" bbox="0 -202 1003 801" underline-thickness="50" underline-position="-125" unicode-range="U+00d1-9ede" /><missing-glyph horiz-adv-x="364" d="M33 0 l0 666 l265 0 l0 -666 l-265 0 ZM66 33 l199 0 l0 600 l-199 0 l0 -600 Z" /><glyph glyph-name="Ntilde" unicode="ñ&#x2014;" d="M180 423 l633 0 l0 -78 l-633 0 l0 78 Z" /><glyph glyph-name="uni3001" unicode="&#x3001;" d="M400 -47 q-34 -18 -75 21 q-20 20 -36.5 59.5 q-16.5 39.5 -23.5 51.5 q-37 62 -74 115 q55 -10 88 -22 q33 -12 71 -39 q33 -24 51.5 -48.5 q18.5 -24.5 28.5 -61.5 q6 -24 -1.5 -44.5 q-7.5 -20.5 -28.5 -31.5 Z" /><glyph glyph-name="uni4E00" unicode="&#x4e00;" d="M57 375 l717 0 q11 10 30 37 q19 27 33 32 q7 -1 16.5 -7 q9.5 -6 21 -17 q11.5 -11 20.5 -20.5 q9 -9.5 22 -24 q13 -14.5 19 -21.5 q6 -13 -3 -21 q-9 -8 -24 -8 l-852 0 l0 50 Z" /><glyph glyph-name="uni4E09" unicode="&#x4e09;" d="M90 660 l651 0 q38 60 63 69 q7 -1 16.5 -7 q9.5 -6 21 -17 q11.5 -11 20.5 -20.5 q9 -9.5 22 -24 q13 -14.5 19 -21.5 q6 -13 -3 -21 q-9 -8 -24 -8 l-786 0 l0 50 ZM171 312 l480 0 q11 10 30 37 q19 27 33 32 q7 -1 16.5 -7 q9.5 -6 21 -17 q11.5 -11 20.5 -20.5 q9 -9.5 22 -24 q13 -14.5 19 -21.5 q6 -13 -3 -21 q-9 -8 -24 -8 l-615 0 l0 50 ZM51 -57 l744 0 q38 60 63 69 q7 -1 16.5 -7 q9.5 -6 21 -17 q11.5 -11 20.5 -20.5 q9 -9.5 22 -24 q13 -14.5 19 -21.5 q6 -13 -3 -21 q-9 -8 -24 -8 l-879 0 l0 50 Z" /><glyph glyph-name="uni4E2D" unicode="&#x4e2d;" d="M455 774 q79 -16 111 -51 q5 -10 2.5 -15 q-2.5 -5 -11.5 -15.5 q-9 -10.5 -12 -17.5 l0 -129 l220 0 q5 4 12.5 14.5 q7.5 10.5 14 15.5 q6.5 5 15.5 3 q42 -12 69 -63 q3 -6 0 -10.5 q-3 -4.5 -10.5 -10 q-7.5 -5.5 -10.5 -9.5 l0 -276 q-5 -19 -8.5 -27.5 q-3.5 -8.5 -12.5 -17 q-9 -8.5 -24 -9.5 q-25 2 -40 42 l-225 0 l0 -291 q-5 -19 -8.5 -27.5 q-3.5 -8.5 -12.5 -17 q-9 -8.5 -24 -9.5 q-27 2 -45 54 l0 291 l-223 0 q-6 -23 -14.5 -34.5 q-8.5 -11.5 -28.5 -13.5 q-27 2 -45 54 l0 378 q56 -11 93 -36 l218 0 l0 228 ZM242 496 q-6 -7 -8 -13 l0 -235 l221 0 l0 248 l-213 0 ZM765 248 l0 248 l-220 0 l0 -248 l220 0 Z" /><glyph glyph-name="uni4E4B" unicode="&#x4e4b;" d="M663 523 l-570 0 l0 50 l348 0 l0 213 q15 -7 38.5 -13.5 q23.5 -6.5 41 -14 q17.5 -7.5 31.5 -23.5 q5 -10 2.5 -15 q-2.5 -5 -11.5 -15.5 q-9 -10.5 -12 -17.5 l0 -114 l135 0 q10 6 23 20.5 q13 14.5 24 21.5 q11 7 25 3 q46 -12 66 -81 q2 -8 -3 -13 q-5 -5 -15.5 -10.5 q-10.5 -5.5 -14.5 -9.5 q-29 -29 -70 -71 q-41 -42 -74.5 -75.5 q-33.5 -33.5 -71.5 -69.5 q-132 -125 -219 -195 q-10 -8 -20.5 -15 q-10.5 -7 -17 -10.5 q-6.5 -3.5 -19.5 -11 q-13 -7.5 -18 -10.5 l18 -10 q14 -7 43.5 -26 q29.5 -19 50 -27.5 q20.5 -8.5 47.5 -12.5 q67 -9 127 -10 q60 -1 135 2 q75 3 128 2 l159 36 q-16 -10 -38 -25 q-22 -15 -40 -26.5 q-18 -11.5 -39 -23.5 q-14 -8 -35 -24 q-21 -16 -38.5 -24.5 q-17.5 -8.5 -43.5 -11.5 l-294 0 q-21 3 -38.5 8 q-17.5 5 -36.5 15.5 q-19 10.5 -29 16.5 q-10 6 -34 23.5 q-24 17.5 -33 23.5 q-14 10 -27.5 21.5 q-13.5 11.5 -19.5 18 q-6 6.5 -21.5 23.5 q-15.5 17 -19.5 21 q0 -26 -5 -51 q-10 -50 -51 -99 q-33 -40 -57 -30 q-20 8 -29 26.5 q-9 18.5 -4 39.5 q6 27 35.5 58.5 q29.5 31.5 36.5 43.5 q13 20 23.5 38.5 q10.5 18.5 23.5 42 q13 23.5 22 39.5 q0 -20 2 -44 l39 -27 q110 99 121 110 l246 246 q15 15 27 29.5 q12 14.5 26 33 q14 18.5 25 31.5 Z" /><glyph glyph-name="uni4E8C" unicode="&#x4e8c;" d="M120 621 l585 0 q11 10 30 37 q19 27 33 32 q7 -1 16.5 -7 q9.5 -6 21 -17 q11.5 -11 20.5 -20.5 q9 -9.5 22 -24 q13 -14.5 19 -21.5 q6 -13 -3 -21 q-9 -8 -24 -8 l-720 0 l0 50 ZM0 -33 l813 0 q11 10 30 37 q19 27 33 32 q7 -1 16.5 -7 q9.5 -6 21 -17 q11.5 -11 20.5 -20.5 q9 -9.5 22 -24 q13 -14.5 19 -21.5 q6 -13 -3 -21 q-9 -8 -24 -8 l-948 0 l0 50 Z" /><glyph glyph-name="uni4E94" unicode="&#x4e94;" d="M99 666 l624 0 q38 60 63 69 q7 -1 16.5 -7 q9.5 -6 21 -17 q11.5 -11 20.5 -20.5 q9 -9.5 22 -24 q13 -14.5 19 -21.5 q6 -13 -3 -21 q-9 -8 -24 -8 l-333 0 q-11 -75 -18 -118 l-18 -109 l159 0 q5 4 12.5 14.5 q7.5 10.5 14 15.5 q6.5 5 15.5 3 q42 -12 69 -63 q3 -6 0 -10.5 q-3 -4.5 -10.5 -10 q-7.5 -5.5 -10.5 -9.5 l0 -371 l78 0 q38 60 63 69 q7 -1 16.5 -7 q9.5 -6 21 -17 q11.5 -11 20.5 -20.5 q9 -9.5 22 -24 q13 -14.5 19 -21.5 q6 -13 -3 -21 q-9 -8 -24 -8 l-933 0 l0 50 l305 0 q33 159 49 252 l22 129 l-226 0 l0 50 l234 0 l18 112 l18 115 l-339 0 l0 50 ZM648 -42 l0 381 l-168 0 l-21 -120 l-49 -261 l238 0 Z" /><glyph glyph-name="uni4EBA" unicode="&#x4eba;" d="M455 459 l0 315 q79 -16 111 -51 q5 -10 2.5 -15 q-2.5 -5 -11.5 -15.5 q-9 -10.5 -12 -17.5 l0 -234 q0 -38 -4 -78 q19 -57 38 -90 q34 -61 66 -101.5 q32 -40.5 86 -96.5 q11 -12 23.5 -22.5 q12.5 -10.5 20.5 -17.5 q8 -7 23 -17 q15 -10 21.5 -13.5 q6.5 -3.5 26 -15.5 q19.5 -12 26.5 -16 q17 -10 43 -22 q26 -12 44 -19 l18 -7 q-38 -12 -60 -24 q-10 -5 -21 -19 q-11 -14 -21 -21 q-10 -7 -21 -2 q-56 26 -135 96 q-85 77 -141 168 q-29 47 -56 126 q-6 -27 -15 -51 q-19 -53 -43.5 -87.5 q-24.5 -34.5 -73.5 -86.5 q-41 -44 -76 -71 q-35 -27 -90 -58 q-52 -30 -147 -48 q94 63 149 114 q44 40 69.5 68.5 q25.5 28.5 55.5 69.5 q60 84 80 153 q24 82 24 207 Z" /><glyph glyph-name="uni4ECB" unicode="&#x4ecb;" d="M339 184 l0 266 q79 -16 111 -51 q5 -10 2.5 -15 q-2.5 -5 -11.5 -15.5 q-9 -10.5 -12 -17.5 l0 -182 q0 -46 -19 -98 q-19 -52 -41 -79 q-59 -72 -129 -101 q-62 -25 -144 -41 q91 61 147 115 q43 42 70 94 q17 33 21.5 54.5 q4.5 21.5 4.5 70.5 ZM594 445 q79 -16 111 -51 q5 -10 2.5 -15 q-2.5 -5 -11.5 -15.5 q-9 -10.5 -12 -17.5 l0 -439 q-5 -19 -8.5 -27.5 q-3.5 -8.5 -12.5 -17 q-9 -8.5 -24 -9.5 q-27 2 -45 54 l0 538 ZM468 768 q61 -36 87 -71 q4 -5 -3 -11 l36 -26 q27 -18 67.5 -46 q40.5 -28 63 -43.5 q22.5 -15.5 58 -38 q35.5 -22.5 72.5 -43.5 q23 -13 58.5 -29 q35.5 -16 58.5 -25 l24 -9 l-48 -39 q-7 -6 -16 -20 q-9 -14 -17 -20.5 q-8 -6.5 -18 -1.5 q-49 26 -195 132 q-53 39 -141 114 l-51 46 q-5 -6 -23.5 -27 q-18.5 -21 -26 -29.5 q-7.5 -8.5 -24 -25.5 q-16.5 -17 -33.5 -32 q-134 -121 -217 -165 q-79 -42 -162 -52 q83 64 138 112 q74 65 132 126 q64 66 124 141 q11 13 25 34 q14 21 23 35 l8 14 Z" /><glyph glyph-name="uni4EE5" unicode="&#x4ee5;" d="M372 642 q50 -17 80 -33.5 q30 -16.5 64 -47.5 q46 -45 54 -108 q2 -18 -7 -32.5 q-9 -14.5 -26 -19.5 q-36 -10 -63 27 q-18 25 -30.5 68.5 q-12.5 43.5 -20.5 61.5 q-7 16 -15 28.5 q-8 12.5 -18.5 28 q-10.5 15.5 -17.5 27.5 ZM684 732 q82 -21 114 -60 q7 -9 -8.5 -24 q-15.5 -15 -15.5 -24 l0 -414 q0 -12 -1 -23 q65 -58 82 -79 q36 -45 72 -114 q23 -45 5 -81 q-6 -11 -24 -16.5 q-18 -5.5 -32 4.5 q-21 18 -34.5 39 q-13.5 21 -27 49.5 q-13.5 28.5 -25.5 46.5 l-42 65 q-19 -42 -54 -86 q-35 -44 -70 -68.5 q-35 -24.5 -97 -53.5 q-45 -21 -82 -28.5 q-37 -7.5 -99 -11.5 q60 27 92 45 q32 18 73 48 q79 60 117 118 q19 30 38 76.5 q19 46.5 19 78.5 l0 513 ZM264 89 l45 19 l234 108 q-57 -53 -117 -102 q-49 -40 -87 -66 l-177 -117 q-4 -2 -12.5 -10 q-8.5 -8 -12 -9.5 q-3.5 -1.5 -11.5 1.5 q-16 13 -31 38 q-15 25 -22 42.5 q-7 17.5 -7 18.5 l108 42 l0 675 q79 -16 111 -51 q5 -10 2.5 -15 q-2.5 -5 -11.5 -15.5 q-9 -10.5 -12 -17.5 l0 -541 Z" /><glyph glyph-name="uni4F4D" unicode="&#x4f4d;" d="M27 264 l72 117 l90 150 l69 129 l45 93 q70 -29 99 -66 q4 -5 0 -9.5 q-4 -4.5 -12.5 -10.5 q-8.5 -6 -11.5 -10 l-108 -153 l0 -618 q-5 -19 -8.5 -27.5 q-3.5 -8.5 -12.5 -17 q-9 -8.5 -24 -9.5 q-27 2 -45 54 l0 497 q-14 -16 -30 -32 q-68 -66 -123 -87 ZM459 129 q-10 108 -24 195 q-2 14 -30 156 q36 -41 56.5 -72 q20.5 -31 42.5 -78 q33 -72 56 -186 q20 -103 13 -159 q-7 -53 -45 -61 q-18 -4 -31 9 q-13 13 -17 34 q-11 59 -21 162 ZM660 531 l129 0 q38 60 63 69 q7 -1 16.5 -7 q9.5 -6 21 -17 q11.5 -11 20.5 -20.5 q9 -9.5 22 -24 q13 -14.5 19 -21.5 q6 -13 -3 -21 q-9 -8 -24 -8 l-573 0 l0 50 l219 0 l0 240 q79 -16 111 -51 q5 -10 2.5 -15 q-2.5 -5 -11.5 -15.5 q-9 -10.5 -12 -17.5 l0 -141 ZM744 -90 l64 0 q36 60 61 69 q7 -1 16.5 -7 q9.5 -6 21 -17 q11.5 -11 20.5 -20.5 q9 -9.5 22 -24 q13 -14.5 19 -21.5 q6 -13 -3 -21 q-9 -8 -24 -8 l-605 0 l0 50 l347 0 l46 553 q109 -27 117 -49 q3 -7 -11.5 -14 q-14.5 -7 -15.5 -14 q-35 -175 -75 -476 Z" /><glyph glyph-name="uni4F5C" unicode="&#x4f5c;" d="M318 759 q70 -35 96 -75 q4 -6 0.5 -11.5 q-3.5 -5.5 -12.5 -12.5 q-9 -7 -12 -12 l-60 -84 l0 -681 q-5 -19 -8.5 -27.5 q-3.5 -8.5 -12.5 -17 q-9 -8.5 -24 -9.5 q-27 2 -45 54 l0 561 l-12 -15 q-41 -49 -114 -111 q-35 -29 -78 -51 q53 75 93 141 q73 121 135 237 l54 114 ZM546 762 q75 -18 108 -51 q3 -8 1 -11.5 q-2 -3.5 -10.5 -11.5 q-8.5 -8 -11.5 -13 q-9 -15 -33.5 -58 q-24.5 -43 -40.5 -68 l286 0 q22 31 46 40 q24 -9 62 -61 q6 -13 -2.5 -21 q-8.5 -8 -23.5 -8 l-246 0 l0 -175 l150 0 q22 31 46 40 q24 -9 62 -61 q6 -13 -2.5 -21 q-8.5 -8 -23.5 -8 l-232 0 l0 -148 l150 0 q22 31 46 40 q24 -9 62 -61 q6 -13 -2.5 -21 q-8.5 -8 -23.5 -8 l-232 0 l0 -193 q-5 -19 -8.5 -27.5 q-3.5 -8.5 -12.5 -17 q-9 -8.5 -24 -9.5 q-27 2 -45 54 l0 616 l-64 0 q-30 -47 -56 -73 q-30 -30 -47 -44 q-17 -14 -55 -37 q45 80 81 159 q39 87 78 189 l18 69 Z" /><glyph glyph-name="uni4F7F" unicode="&#x4f7f;" d="M297 783 q69 -35 93 -75 q3 -6 -3.5 -7.5 q-6.5 -1.5 -17.5 -3.5 q-11 -2 -15 -7 q-22 -25 -49.5 -66.5 q-27.5 -41.5 -43.5 -61.5 l0 -679 q-5 -19 -8.5 -27.5 q-3.5 -8.5 -12.5 -17 q-9 -8.5 -24 -9.5 q-27 2 -45 54 l0 573 q-26 -27 -57 -55 q-43 -39 -90 -53 l108 162 l111 174 l54 99 ZM651 577 l0 -100 l135 0 q5 4 12.5 14.5 q7.5 10.5 14 15.5 q6.5 5 15.5 3 q42 -12 69 -63 q3 -6 0 -10.5 q-3 -4.5 -10.5 -10 q-7.5 -5.5 -10.5 -9.5 l0 -180 q-5 -19 -8.5 -27.5 q-3.5 -8.5 -12.5 -17 q-9 -8.5 -24 -9.5 q-25 2 -42 46 l-138 0 q-2 -67 -35 -146 q27 -23 62 -47 q58 -40 144 -75 q25 -10 62 -21.5 q37 -11.5 62 -17.5 l24 -6 q-41 -27 -64 -48 q-4 -4 -7.5 -12.5 q-3.5 -8.5 -6.5 -13.5 q-3 -5 -10 -4 q-80 15 -156 63 q-95 61 -148 112 l-9 -13 q-29 -39 -57.5 -63 q-28.5 -24 -73.5 -48 q-69 -36 -168 -48 q99 62 135.5 93.5 q36.5 31.5 86.5 98.5 q16 22 28 44 q-39 50 -84 134 q-5 -17 -14 -26 q-9 -9 -26 -11 q-27 2 -45 54 l0 282 q52 -11 88 -33 l122 0 l0 100 l-246 0 l0 50 l246 0 l0 156 q79 -16 111 -51 q5 -10 2.5 -15 q-2.5 -5 -11.5 -15.5 q-9 -10.5 -12 -17.5 l0 -57 l141 0 q38 60 63 69 q7 -1 16.5 -7 q9.5 -6 21 -17 q11.5 -11 20.5 -20.5 q9 -9.5 22 -24 q13 -14.5 19 -21.5 q6 -13 -3 -21 q-9 -8 -24 -8 l-276 0 ZM651 427 l0 -148 l135 0 l0 148 l-135 0 ZM561 427 l-109 0 q-8 -9 -11 -16 l0 -132 l120 0 l0 148 ZM561 229 l-84 0 q37 -48 63 -74 l9 -9 q11 41 12 83 Z" /><glyph glyph-name="uni4F86" unicode="&#x4f86;" d="M453 771 q15 -7 38.5 -13.5 q23.5 -6.5 41 -14 q17.5 -7.5 31.5 -23.5 q5 -10 2.5 -15 q-2.5 -5 -11.5 -15.5 q-9 -10.5 -12 -17.5 l0 -39 l216 0 q11 10 30 37 q19 27 33 32 q7 -1 16.5 -7 q9.5 -6 21 -17 q11.5 -11 20.5 -20.5 q9 -9.5 22 -24 q13 -14.5 19 -21.5 q6 -13 -3 -21 q-9 -8 -24 -8 l-351 0 l0 -320 l18 -17 l17 -15 l58 117 q41 87 55 121 q8 19 19 49 q11 30 14 38 q13 -11 33 -23.5 q20 -12.5 34.5 -24 q14.5 -11.5 26.5 -28.5 q3 -4 0 -7.5 q-3 -3.5 -10 -7.5 q-7 -4 -10 -7 q-16 -21 -40 -55 q38 -23 58 -40 q8 -7 24.5 -20 q16.5 -13 24 -19.5 q7.5 -6.5 18 -19.5 q10.5 -13 17.5 -28 q8 -16 4 -34 q-4 -18 -19 -26 q-23 -6 -34 -1.5 q-11 4.5 -32 19.5 q-20 15 -42 43.5 q-22 28.5 -30 37.5 q-9 9 -31 29 q-13 -16 -27 -31 q-32 -35 -52 -53.5 q-20 -18.5 -50 -37.5 l46 -39 q90 -75 135 -108 q49 -36 96 -63 q8 -5 81 -39 l-81 -51 q-4 -3 -9.5 -9.5 q-5.5 -6.5 -10 -10 q-4.5 -3.5 -10.5 -1.5 q-14 4 -23.5 10 q-9.5 6 -24 20 q-14.5 14 -18.5 18 q-105 90 -150 135 q-33 33 -75 84 l0 -294 q-5 -19 -8.5 -27.5 q-3.5 -8.5 -12.5 -17 q-9 -8.5 -24 -9.5 q-27 2 -45 54 l0 277 q-62 -60 -81 -76 q-60 -49 -126 -90 q-60 -37 -111 -60 q-18 -8 -34 -13.5 q-16 -5.5 -36.5 -11.5 q-20.5 -6 -34.5 -11 l96 78 q156 131 174 147 q36 33 93 96 q15 16 60 71 l0 302 l-378 0 l0 50 l378 0 l0 138 ZM264 558 q14 -8 35.5 -16.5 q21.5 -8.5 37 -17 q15.5 -8.5 29.5 -23.5 q4 -4 0 -8 q-4 -4 -12 -9 q-8 -5 -11 -10 q-9 -14 -44 -78 q2 -1 12 -6 q10 -5 12.5 -6 q2.5 -1 11 -5.5 q8.5 -4.5 12.5 -7 q4 -2.5 10.5 -7 q6.5 -4.5 12 -9 q5.5 -4.5 11.5 -10.5 q27 -27 18 -63 q-8 -34 -42 -36 q-20 -1 -43 25 q-3 3 -5 5 q-10 10 -19 28.5 q-9 18.5 -14 25.5 l-9 13 l-3 -4 q-56 -78 -108 -126 q-18 -17 -36 -29.5 q-18 -12.5 -41.5 -26.5 q-23.5 -14 -39.5 -25 q7 11 40.5 59.5 q33.5 48.5 52.5 81.5 q46 80 102 204 q6 14 10.5 26.5 q4.5 12.5 10 27.5 q5.5 15 9.5 27 Z" /><glyph glyph-name="uni4F8B" unicode="&#x4f8b;" d="M216 768 q12 -8 31.5 -16.5 q19.5 -8.5 33 -17.5 q13.5 -9 25.5 -23 q3 -9 2 -12 q-1 -3 -8 -11.5 q-7 -8.5 -9 -12.5 l-75 -137 l0 -661 q-5 -19 -8.5 -27.5 q-3.5 -8.5 -12.5 -17 q-9 -8.5 -24 -9.5 q-27 2 -45 54 l0 514 q-18 -25 -42 -49 q-11 -11 -22 -18 q-11 -7 -25.5 -15 q-14.5 -8 -24.5 -15 q71 137 84 165 q28 59 60 138 q15 37 33 90 q6 17 14 42 q8 25 13 39 ZM306 675 l270 0 q22 31 46 40 q24 -9 62 -61 q6 -13 -2.5 -21 q-8.5 -8 -23.5 -8 l-138 0 q-33 -80 -37 -88 q-30 -66 -30 -66 l87 0 q6 5 14 15.5 q8 10.5 15 15.5 q7 5 16 2 q40 -12 60 -66 q3 -9 -8 -21 q-11 -12 -13 -18 q-9 -30 -21 -83 q-12 -53 -24 -88 q-35 -98 -72 -159 q-37 -62 -90 -111 q-49 -46 -105 -72 q-16 -8 -30.5 -11.5 q-14.5 -3.5 -33.5 -6.5 q-19 -3 -32 -6 q16 14 39.5 32 q23.5 18 41.5 33 q18 15 36 34 q59 62 90 117 q12 21 22 42 q-17 3 -37 36 q-10 19 -15.5 50 q-5.5 31 -11.5 46 q-8 20 -26 50 q-11 -16 -25 -32 q-15 -18 -30 -31 q-15 -13 -35.5 -28.5 q-20.5 -15.5 -33.5 -27.5 l75 156 q57 121 75 165 q9 21 44 121 l-119 0 l0 50 ZM651 594 q15 -7 38.5 -13.5 q23.5 -6.5 41 -14 q17.5 -7.5 31.5 -23.5 q5 -10 2.5 -15 q-2.5 -5 -11.5 -15.5 q-9 -10.5 -12 -17.5 l0 -393 q-5 -19 -8.5 -27.5 q-3.5 -8.5 -12.5 -17 q-9 -8.5 -24 -9.5 q-27 2 -45 54 l0 492 ZM825 -69 l0 816 q15 -7 38.5 -13.5 q23.5 -6.5 41 -14 q17.5 -7.5 31.5 -23.5 q5 -10 2.5 -15 q-2.5 -5 -11.5 -15.5 q-9 -10.5 -12 -17.5 l0 -733 q-6 -25 -11.5 -40 q-5.5 -15 -20.5 -30.5 q-15 -15.5 -37 -16.5 q-17 -1 -26.5 6 q-9.5 7 -17.5 20.5 q-8 13.5 -16 19.5 l-75 57 l114 0 ZM427 421 l-4 -7 q-39 -69 -44 -76 q5 -4 18.5 -14 q13.5 -10 19.5 -15 q6 -5 15.5 -15 q9.5 -10 17.5 -21 q25 -36 31 -66 l20 51 q12 31 27 90 q4 16 8.5 40 q4.5 24 6.5 33 l-116 0 Z" /><glyph glyph-name="uni5012" unicode="&#x5012;" d="M198 759 q16 -10 39.5 -21.5 q23.5 -11.5 41 -22.5 q17.5 -11 33.5 -28 q4 -4 -1 -9 l283 0 q23 36 48 45 q14 -2 22.5 -26.5 q8.5 -24.5 22.5 -39.5 q6 -13 -3 -21 q-9 -8 -24 -8 l-148 0 q-11 -52 -17 -70 q-11 -33 -38 -106 q19 1 56 3 q37 2 58 3 q0 8 -1 16 q-2 14 -5 26 q-3 12 -8 26.5 q-5 14.5 -8 25.5 q10 -11 26 -24.5 q16 -13.5 27.5 -25.5 q11.5 -12 21.5 -28 q12 -20 17.5 -31 q5.5 -11 9 -27.5 q3.5 -16.5 0.5 -34.5 q-3 -17 -16.5 -26.5 q-13.5 -9.5 -31.5 -9.5 q-21 0 -30 36 q-5 18 -3 41 q-112 -23 -135 -29 q-16 -4 -50 -15.5 q-34 -11.5 -55 -14.5 q-9 -1 -16 -9.5 q-7 -8.5 -9 -12 q-2 -3.5 -8 0.5 q-13 17 -19 34.5 q-6 17.5 -10.5 40.5 q-4.5 23 -9.5 39 q17 -1 40.5 -2.5 q23.5 -1.5 42.5 -2.5 q19 -1 40 -1 q9 0 17 0 l26 178 l-130 0 l0 38 q-2 -1 -3 -3 l-69 -110 l0 -670 q-5 -19 -8.5 -27.5 q-3.5 -8.5 -12.5 -17 q-9 -8.5 -24 -9.5 q-27 2 -45 54 l0 524 q-16 -26 -33 -50 q-12 -17 -24 -31.5 q-12 -14.5 -27.5 -31.5 q-15.5 -17 -26.5 -30 l51 117 q50 118 60 147 q15 42 45 147 q4 14 7.5 27 q3.5 13 7 29.5 q3.5 16.5 6.5 27.5 ZM318 -78 q-12 12 -19.5 36.5 q-7.5 24.5 -9 38.5 q-1.5 14 -1.5 18 q68 5 132 10 l0 153 l-126 0 l0 50 l126 0 l0 150 q15 -7 38.5 -13.5 q23.5 -6.5 41 -14 q17.5 -7.5 31.5 -23.5 q5 -10 2.5 -15 q-2.5 -5 -11.5 -15.5 q-9 -10.5 -12 -17.5 l0 -51 l39 0 q23 36 48 45 q14 -2 22.5 -26.5 q8.5 -24.5 22.5 -39.5 q6 -13 -3 -21 q-9 -8 -24 -8 l-105 0 l0 -145 q28 3 75 9 q47 6 69 9 q-20 -10 -47.5 -25 q-27.5 -15 -50.5 -27 q-23 -12 -49 -23 q-63 -27 -135 -48 q-5 -2 -14.5 -5.5 q-9.5 -3.5 -15 -5.5 q-5.5 -2 -12.5 -1 q-7 1 -12 6 ZM678 594 q15 -7 38.5 -13.5 q23.5 -6.5 41 -14 q17.5 -7.5 31.5 -23.5 q5 -10 2.5 -15 q-2.5 -5 -11.5 -15.5 q-9 -10.5 -12 -17.5 l0 -441 q-5 -19 -8.5 -27.5 q-3.5 -8.5 -12.5 -17 q-9 -8.5 -24 -9.5 q-27 2 -45 54 l0 540 ZM738 -54 l93 0 l0 804 q15 -7 39 -13.5 q24 -6.5 41 -14 q17 -7.5 31 -23.5 q5 -10 2.5 -15 q-2.5 -5 -11.5 -15.5 q-9 -10.5 -12 -17.5 l0 -741 q-21 -56 -43 -70 q-9 -6 -20 -8 q-13 -2 -19 8 q-6 10 -12 27 q-6 17 -14 25 q-12 11 -23.5 19.5 q-11.5 8.5 -26.5 18 q-15 9.5 -25 16.5 Z" /><glyph glyph-name="uni5225" unicode="&#x5225;" d="M610 696 q79 -16 111 -51 q5 -10 2.5 -15 q-2.5 -5 -11.5 -15.5 q-9 -10.5 -12 -17.5 l0 -444 q-5 -19 -8.5 -27.5 q-3.5 -8.5 -12.5 -17 q-9 -8.5 -24 -9.5 q-27 2 -45 54 l0 543 ZM825 -45 l0 831 q79 -16 111 -51 q5 -10 2.5 -15 q-2.5 -5 -11.5 -15.5 q-9 -10.5 -12 -17.5 l0 -726 q0 -79 -66 -108 q-12 -5 -20 4 q-8 9 -16.5 26 q-8.5 17 -17.5 24 q-13 10 -25.5 17 q-12.5 7 -28.5 15.5 q-16 8.5 -27 15.5 l111 0 ZM406 62 l0 148 l-83 0 q-4 -44 -21 -93 q-22 -64 -41.5 -100.5 q-19.5 -36.5 -56.5 -76.5 q-29 -31 -56.5 -45 q-27.5 -14 -78.5 -28 q56 65 82 112 q49 90 67 159 q18 69 18 162 l0 95 l-22 0 q-6 -23 -15 -34 q-9 -11 -28 -13 q-27 2 -45 54 l0 336 q61 -12 97 -39 l173 0 q5 4 12.5 14.5 q7.5 10.5 14 15.5 q6.5 5 15.5 3 q42 -12 69 -63 q3 -6 0 -10.5 q-3 -4.5 -10.5 -10 q-7.5 -5.5 -10.5 -9.5 l0 -213 q-5 -19 -8.5 -27.5 q-3.5 -8.5 -12.5 -17 q-9 -8.5 -24 -9.5 q-19 2 -31 23 l-84 0 l0 -107 q0 -16 0 -28 l80 0 q5 4 12.5 14.5 q7.5 10.5 14 15.5 q6.5 5 15.5 3 q42 -12 69 -63 q3 -6 0 -10.5 q-3 -4.5 -10.5 -10 q-7.5 -5.5 -10.5 -9.5 l0 -126 q0 -51 -4 -80.5 q-4 -29.5 -21 -65.5 q-25 -55 -74 -73 q-8 -3 -13.5 2 q-5.5 5 -11.5 15.5 q-6 10.5 -11 15.5 l-75 66 l69 0 q29 0 40 28 q11 28 11 80 ZM222 649 q-4 -5 -6 -10 l0 -194 l180 0 l0 204 l-174 0 Z" /><glyph glyph-name="uni5230" unicode="&#x5230;" d="M87 690 l426 0 q23 36 48 45 q14 -2 22.5 -26.5 q8.5 -24.5 22.5 -39.5 q6 -13 -3 -21 q-9 -8 -24 -8 l-179 0 l-46 -82 l-39 -75 l-20 -36 l5 0 q47 0 191 2 q-3 17 -8 31 q-5 13 -11 23.5 q-6 10.5 -14.5 23.5 q-8.5 13 -13.5 22 q14 -10 35 -22 q21 -12 37 -23 q16 -11 30 -27 q18 -21 26 -31.5 q8 -10.5 15.5 -29 q7.5 -18.5 6.5 -38.5 q-1 -21 -16.5 -34 q-15.5 -13 -37.5 -14 q-6 0 -11 2 q-5 2 -8 8 q-3 6 -5 10 q-2 4 -5 12.5 q-3 8.5 -4 12.5 q-4 10 -7 21 l-119 -14 q13 -7 24 -19 q5 -10 2.5 -15 q-2.5 -5 -11.5 -15.5 q-9 -10.5 -12 -17.5 l0 -123 l96 0 q23 36 48 45 q14 -2 22.5 -26.5 q8.5 -24.5 22.5 -39.5 q6 -13 -3 -21 q-9 -8 -24 -8 l-162 0 l0 -160 q32 1 66 3 q32 1 61 3.5 q29 2.5 64.5 6 q35.5 3.5 60.5 5.5 l-90 -60 l-177 -36 q-29 -5 -74 -9 q-45 -4 -73 -9 q-8 -1 -20 -8.5 q-12 -7.5 -17.5 -9.5 q-5.5 -2 -16.5 3 q-16 13 -25 29 q-9 16 -16.5 39 q-7.5 23 -15.5 37 q43 1 108.5 2.5 q65.5 1.5 74.5 1.5 l0 162 l-165 0 l0 50 l165 0 l0 179 l-12 -2 q-7 -1 -105 -21 q-6 -1 -16 -6.5 q-10 -5.5 -14.5 -6.5 q-4.5 -1 -11.5 4 q-12 16 -20 44 q-8 28 -11 47 l-2 20 q64 -2 128 -2 q37 84 49 119 q5 16 15 73 l-207 0 l0 50 ZM641 648 q15 -7 38.5 -13.5 q23.5 -6.5 41 -14 q17.5 -7.5 31.5 -23.5 q5 -10 2.5 -15 q-2.5 -5 -11.5 -15.5 q-9 -10.5 -12 -17.5 l0 -438 q-5 -19 -8.5 -27.5 q-3.5 -8.5 -12.5 -17 q-9 -8.5 -24 -9.5 q-27 2 -45 54 l0 537 ZM705 -66 l114 0 l0 810 q15 -7 39 -13.5 q24 -6.5 41 -14 q17 -7.5 31 -23.5 q5 -10 2.5 -15 q-2.5 -5 -11.5 -15.5 q-9 -10.5 -12 -17.5 l0 -744 q-5 -26 -23.5 -45.5 q-18.5 -19.5 -45.5 -23.5 q-12 -2 -18 8 q-6 10 -12 25 q-6 15 -15 21 q-14 11 -28 18 q-14 7 -32 15 q-18 8 -30 15 Z" /><glyph glyph-name="uni524D" unicode="&#x524d;" d="M282 792 q72 -18 118 -55 q44 -35 44 -82 q0 -29 -33 -34 q-27 -4 -50 22 q-13 16 -24 44.5 q-11 28.5 -16 38.5 q-8 15 -21 36 q-13 21 -18 30 ZM600 795 q74 -19 111 -48 q3 -5 1 -7.5 q-2 -2.5 -9.5 -8 q-7.5 -5.5 -9.5 -8.5 l-48 -66 l-29 -39 l146 0 q11 10 30 37 q19 27 33 32 q7 -1 16.5 -7 q9.5 -6 21 -17 q11.5 -11 20.5 -20.5 q9 -9.5 22 -24 q13 -14.5 19 -21.5 q6 -13 -3 -21 q-9 -8 -24 -8 l-810 0 l0 50 l468 0 l21 81 l24 96 ZM552 471 q79 -16 111 -51 q5 -10 2.5 -15 q-2.5 -5 -11.5 -15.5 q-9 -10.5 -12 -17.5 l0 -291 q-5 -19 -8.5 -27.5 q-3.5 -8.5 -12.5 -17 q-9 -8.5 -24 -9.5 q-27 2 -45 54 l0 390 ZM726 -55 q12 0 16.5 6 q4.5 6 4.5 27 l0 559 q79 -16 111 -51 q5 -10 2.5 -15 q-2.5 -5 -11.5 -15.5 q-9 -10.5 -12 -17.5 l0 -498 q0 -17 -19 -55 q-19 -38 -41 -40 q-14 -1 -27.5 20 q-13.5 21 -20.5 26 q-14 11 -26.5 19 q-12.5 8 -29.5 18 q-17 10 -28 17 l81 0 ZM246 471 l120 0 q5 4 12.5 14.5 q7.5 10.5 14 15.5 q6.5 5 15.5 3 q42 -12 69 -63 q3 -6 0 -10.5 q-3 -4.5 -10.5 -10 q-7.5 -5.5 -10.5 -9.5 l0 -497 q0 -23 -13 -43 q-13 -20 -35 -21 q-13 -1 -20.5 6.5 q-7.5 7.5 -14 21.5 q-6.5 14 -13.5 20 q-13 12 -32.5 28.5 q-19.5 16.5 -24.5 20.5 l63 0 l0 151 l-117 0 l0 -194 q-5 -19 -8.5 -27.5 q-3.5 -8.5 -12.5 -17 q-9 -8.5 -24 -9.5 q-27 2 -45 54 l0 599 q50 -10 87 -32 ZM261 421 q-9 -10 -12 -17 l0 -105 l117 0 l0 122 l-105 0 ZM249 249 l0 -101 l117 0 l0 101 l-117 0 Z" /><glyph glyph-name="uni529B" unicode="&#x529b;" d="M783 276 l0 235 l-216 0 l0 -28 q0 -79 -12 -137.5 q-12 -58.5 -42 -141.5 q-22 -60 -46.5 -100 q-24.5 -40 -73.5 -104 q-30 -39 -56 -63 q-26 -24 -67 -51 q-51 -32 -117 -42 q64 47 96 90 q8 11 32.5 42.5 q24.5 31.5 32 41.5 q7.5 10 25.5 35.5 q18 25.5 27 41.5 q9 16 22.5 40.5 q13.5 24.5 25.5 50.5 q63 137 63 243 l0 82 l-309 0 l0 50 l309 0 l0 228 q79 -16 111 -51 q5 -10 2.5 -15 q-2.5 -5 -11.5 -15.5 q-9 -10.5 -12 -17.5 l0 -129 l216 0 q5 4 12.5 14.5 q7.5 10.5 14 15.5 q6.5 5 15.5 3 q42 -12 69 -63 q3 -6 0 -10.5 q-3 -4.5 -10.5 -10 q-7.5 -5.5 -10.5 -9.5 l0 -213 q-1 -31 -4.5 -79 q-3.5 -48 -19 -144 q-15.5 -96 -36.5 -131 q-34 -55 -51 -69 q-19 -15 -45 -21 q-18 -4 -36 22 q-18 26 -27 32 q-17 11 -32.5 18.5 q-15.5 7.5 -35.5 16.5 q-20 9 -34 16 l96 0 q46 0 69 27 q33 37 48 105 q18 84 18 195 Z" /><glyph glyph-name="uni5341" unicode="&#x5341;" d="M455 786 q79 -16 111 -51 q5 -10 2.5 -15 q-2.5 -5 -11.5 -15.5 q-9 -10.5 -12 -17.5 l0 -255 l252 0 q11 10 30 37 q19 27 33 32 q7 -1 16.5 -7 q9.5 -6 21 -17 q11.5 -11 20.5 -20.5 q9 -9.5 22 -24 q13 -14.5 19 -21.5 q6 -13 -3 -21 q-9 -8 -24 -8 l-387 0 l0 -493 q-5 -19 -8.5 -27.5 q-3.5 -8.5 -12.5 -17 q-9 -8.5 -24 -9.5 q-27 2 -45 54 l0 493 l-411 0 l0 50 l411 0 l0 354 Z" /><glyph glyph-name="uni55AE" unicode="&#x55ae;" d="M231 691 q-9 -10 -12 -17 l0 -92 l129 0 l0 109 l-117 0 ZM217 741 l131 0 q6 4 13 14.5 q7 10.5 13.5 15.5 q6.5 5 15.5 3 q42 -11 69 -63 q3 -6 -0.5 -10.5 q-3.5 -4.5 -10.5 -10 q-7 -5.5 -10 -9.5 l0 -113 q-5 -19 -8.5 -27.5 q-3.5 -8.5 -12.5 -17 q-9 -8.5 -24 -9.5 q-17 1 -28 18 l-151 0 q-5 -18 -14 -27 q-9 -9 -26 -11 q-27 2 -45 54 l0 225 q15 -7 44.5 -15.5 q29.5 -8.5 43.5 -16.5 ZM648 700 q-16 -21 -18 -25 l0 -85 l150 0 l0 110 l-132 0 ZM611 750 l169 0 q5 4 12.5 14.5 q7.5 10.5 14 15.5 q6.5 5 15.5 3 q42 -12 69 -63 q3 -6 0 -10.5 q-3 -4.5 -10.5 -10 q-7.5 -5.5 -10.5 -9.5 l0 -117 q-5 -19 -8.5 -27.5 q-3.5 -8.5 -12.5 -17 q-9 -8.5 -24 -9.5 q-18 2 -30 21 l-175 0 q-11 -22 -35 -24 q-27 2 -45 54 l0 204 q15 -7 39 -14 q24 -7 32 -10 ZM328 409 q-14 -16 -16 -22 l0 -59 l156 0 l0 81 l-140 0 ZM301 459 l410 0 q6 4 13 14.5 q7 10.5 13.5 15.5 q6.5 5 15.5 3 q42 -11 69 -63 q3 -6 -0.5 -10.5 q-3.5 -4.5 -10.5 -10 q-7 -5.5 -10 -9.5 l0 -207 q-5 -19 -8.5 -27.5 q-3.5 -8.5 -12.5 -17 q-9 -8.5 -24 -9.5 q-18 1 -30 20 l-168 0 l0 -89 l240 0 q11 10 30 37 q19 27 33 32 q7 -1 16.5 -7 q9.5 -6 21 -17 q11.5 -11 20.5 -20.5 q9 -9.5 22 -24 q13 -14.5 19 -21.5 q6 -13 -3 -21 q-9 -8 -24 -8 l-375 0 l0 -130 q-5 -19 -8.5 -27.5 q-3.5 -8.5 -12.5 -17 q-9 -8.5 -24 -9.5 q-27 2 -45 54 l0 130 l-408 0 l0 50 l408 0 l0 89 l-163 0 q-10 -29 -38 -32 q-27 2 -45 54 l0 306 q15 -7 41 -14.5 q26 -7.5 38 -12.5 ZM312 278 l0 -70 l156 0 l0 70 l-156 0 ZM711 278 l-153 0 l0 -70 l153 0 l0 70 ZM711 328 l0 81 l-153 0 l0 -81 l153 0 Z" /><glyph glyph-name="uni5728" unicode="&#x5728;" d="M408 762 q68 -20 99 -51 q3 -6 1 -9.5 q-2 -3.5 -9.5 -10 q-7.5 -6.5 -9.5 -10.5 l-36 -78 l270 0 q11 10 30 37 q19 27 33 32 q7 -1 16.5 -7 q9.5 -6 21 -17 q11.5 -11 20.5 -20.5 q9 -9.5 22 -24 q13 -14.5 19 -21.5 q6 -13 -3 -21 q-9 -8 -24 -8 l-427 0 q-30 -67 -56 -118 l-34 -67 q5 -4 2.5 -11 q-2.5 -7 -6.5 -11.5 q-4 -4.5 -10 -11.5 q-6 -7 -8 -13 l0 -450 q-5 -19 -8.5 -27.5 q-3.5 -8.5 -12.5 -17 q-9 -8.5 -24 -9.5 q-27 2 -45 54 l0 323 q-36 -46 -97 -101 q-36 -32 -90 -54 q86 117 138 207 q28 49 49 90 l0 84 q16 -3 36 -10 l47 103 l17 40 l-287 0 l0 50 l307 0 q31 80 59 159 ZM645 211 l0 -291 l120 0 q11 10 30 37 q19 27 33 32 q7 -1 16.5 -7 q9.5 -6 21 -17 q11.5 -11 20.5 -20.5 q9 -9.5 22 -24 q13 -14.5 19 -21.5 q6 -13 -3 -21 q-9 -8 -24 -8 l-567 0 l0 50 l222 0 l0 291 l-162 0 l0 50 l162 0 l0 250 q79 -16 111 -51 q5 -10 2.5 -15 q-2.5 -5 -11.5 -15.5 q-9 -10.5 -12 -17.5 l0 -151 l132 0 q22 31 46 40 q24 -9 62 -61 q6 -13 -2.5 -21 q-8.5 -8 -23.5 -8 l-214 0 Z" /><glyph glyph-name="uni5730" unicode="&#x5730;" d="M111 -42 q-4 -2 -9 -8 q-5 -6 -7.5 -8 q-2.5 -2 -7.5 1 q-13 16 -26.5 43 q-13.5 27 -20.5 46 l-7 19 l150 24 l0 298 l-129 0 l0 50 l129 0 l0 315 q79 -16 111 -51 q5 -10 2.5 -15 q-2.5 -5 -11.5 -15.5 q-9 -10.5 -12 -17.5 l0 -216 l21 0 q22 31 46 40 q24 -9 62 -61 q6 -13 -2.5 -21 q-8.5 -8 -23.5 -8 l-103 0 l0 -284 l138 22 q-56 -42 -102 -66 q-43 -22 -107 -48.5 q-64 -26.5 -91 -38.5 ZM843 -114 l-363 0 q-49 9 -57 48 l0 312 l-96 -63 l0 63 l96 63 l0 309 q79 -16 111 -51 q5 -10 2.5 -15 q-2.5 -5 -11.5 -15.5 q-9 -10.5 -12 -17.5 l0 -150 l84 55 l0 329 q79 -16 111 -51 q5 -10 2.5 -15 q-2.5 -5 -11.5 -15.5 q-9 -10.5 -12 -17.5 l0 -170 l90 59 q4 7 7.5 20.5 q3.5 13.5 8 20.5 q4.5 7 14.5 7 q44 -1 81 -51 q3 -9 1.5 -12.5 q-1.5 -3.5 -8 -12.5 q-6.5 -9 -8.5 -14 l0 -279 q0 -64 -57 -90 q-10 -4 -17.5 2.5 q-7.5 6.5 -15.5 20 q-8 13.5 -15 19.5 q-31 26 -42 33 l-39 25 l0 -145 q-5 -19 -8.5 -27.5 q-3.5 -8.5 -12.5 -17 q-9 -8.5 -24 -9.5 q-27 2 -45 54 l0 272 l-84 -55 l0 -302 q0 -15 11.5 -25 q11.5 -10 24.5 -11 l282 0 q25 29 27 34 q11 23 24.5 57.5 q13.5 34.5 21.5 57.5 l8 23 q-1 -98 12 -159 q2 -10 18.5 -22.5 q16.5 -12.5 14.5 -22.5 q-10 -48 -114 -48 ZM687 417 l0 -168 l96 0 l0 231 l-96 -63 Z" /><glyph glyph-name="uni57FA" unicode="&#x57fa;" d="M402 264 l195 0 l0 79 l-195 0 l0 -79 ZM402 601 l0 -79 l195 0 l0 79 l-195 0 ZM402 651 l195 0 l0 147 q15 -7 38.5 -13.5 q23.5 -6.5 41 -14 q17.5 -7.5 31.5 -23.5 q5 -10 2.5 -15 q-2.5 -5 -11.5 -15.5 q-9 -10.5 -12 -17.5 l0 -48 l57 0 q11 10 30 37 q19 27 33 32 q7 -1 16.5 -7 q9.5 -6 21 -17 q11.5 -11 20.5 -20.5 q9 -9.5 22 -24 q13 -14.5 19 -21.5 q6 -13 -3 -21 q-9 -8 -24 -8 l-192 0 l0 -337 l84 0 q11 10 30 37 q19 27 33 32 q7 -1 16.5 -7 q9.5 -6 21 -17 q11.5 -11 20.5 -20.5 q9 -9.5 22 -24 q13 -14.5 19 -21.5 q6 -13 -3 -21 q-9 -8 -24 -8 l-207 0 q6 -6 16.5 -16.5 q10.5 -10.5 16.5 -16.5 q6 -6 16 -14.5 q10 -8.5 20 -16.5 q64 -49 114 -75 q17 -9 32.5 -14.5 q15.5 -5.5 35.5 -11 q20 -5.5 34 -10.5 l-66 -42 q-6 -4 -10.5 -13.5 q-4.5 -9.5 -9.5 -15.5 q-5 -6 -13 -4 q-21 4 -40.5 14 q-19.5 10 -28 17.5 q-8.5 7.5 -33.5 28.5 q-15 13 -28 25.5 q-13 12.5 -22 21.5 q-9 9 -22.5 24 q-13.5 15 -19.5 22 q-6 7 -22.5 26.5 q-16.5 19.5 -23.5 27.5 q-9 10 -27 43 l-229 0 q-60 -67 -86 -91 q-4 -4 -22.5 -20.5 q-18.5 -16.5 -22 -20 q-3.5 -3.5 -18.5 -16.5 q-15 -13 -21 -17.5 q-6 -4.5 -19 -15 q-13 -10.5 -22 -16.5 q-9 -6 -22 -15 q-13 -9 -27 -17 q-18 -11 -35.5 -17 q-17.5 -6 -40 -11.5 q-22.5 -5.5 -38.5 -10.5 q21 19 52 44.5 q31 25.5 55 46.5 q24 21 49 47 q17 17 33 35 q16 18 26 29.5 q10 11.5 27.5 33 q17.5 21.5 26.5 32.5 l-257 0 l0 50 l285 0 l0 337 l-192 0 l0 50 l192 0 l0 144 q15 -7 38.5 -13.5 q23.5 -6.5 41 -14 q17.5 -7.5 31.5 -23.5 q5 -10 2.5 -15 q-2.5 -5 -11.5 -15.5 q-9 -10.5 -12 -17.5 l0 -45 ZM402 472 l0 -79 l195 0 l0 79 l-195 0 ZM531 25 l0 -115 l141 0 q11 10 30 37 q19 27 33 32 q7 -1 16.5 -7 q9.5 -6 21 -17 q11.5 -11 20.5 -20.5 q9 -9.5 22 -24 q13 -14.5 19 -21.5 q6 -13 -3 -21 q-9 -8 -24 -8 l-657 0 l0 50 l291 0 l0 115 l-180 0 l0 50 l180 0 l0 135 q15 -7 38.5 -13.5 q23.5 -6.5 41 -14 q17.5 -7.5 31.5 -23.5 q5 -10 2.5 -15 q-2.5 -5 -11.5 -15.5 q-9 -10.5 -12 -17.5 l0 -36 l87 0 q22 31 46 40 q24 -9 62 -61 q6 -13 -2.5 -21 q-8.5 -8 -23.5 -8 l-169 0 Z" /><glyph glyph-name="uni5927" unicode="&#x5927;" d="M445 436 l-390 0 l0 50 l390 0 l0 294 q79 -16 111 -51 q5 -10 2.5 -15 q-2.5 -5 -11.5 -15.5 q-9 -10.5 -12 -17.5 l0 -195 l283 0 q38 60 63 69 q7 -1 16.5 -7 q9.5 -6 21 -17 q11.5 -11 20.5 -20.5 q9 -9.5 22 -24 q13 -14.5 19 -21.5 q6 -13 -3 -21 q-9 -8 -24 -8 l-396 0 q26 -100 52 -154 q44 -92 121 -183 q28 -33 53 -54 q25 -21 69 -51 q21 -15 54 -32 q33 -17 56 -27 l22 -10 q-61 -17 -96 -36 q-6 -3 -13 -18.5 q-7 -15.5 -16 -14.5 q-31 1 -66 36 q-89 88 -153 180 q-49 71 -87 165 q-14 36 -30 90 q-9 -39 -30 -93 q-24 -62 -48 -103.5 q-24 -41.5 -66 -91.5 q-48 -56 -86 -89.5 q-38 -33.5 -97 -69.5 q-54 -33 -153 -45 q123 87 201 165 q76 76 123 159 q36 64 63 162 q14 52 15 115 Z" /><glyph glyph-name="uni5929" unicode="&#x5929;" d="M54 696 l744 0 q11 10 30 37 q19 27 33 32 q7 -1 16.5 -7 q9.5 -6 21 -17 q11.5 -11 20.5 -20.5 q9 -9.5 22 -24 q13 -14.5 19 -21.5 q6 -13 -3 -21 q-9 -8 -24 -8 l-396 0 l0 -250 l219 0 q11 10 30 37 q19 27 33 32 q7 -1 16.5 -7 q9.5 -6 21 -17 q11.5 -11 20.5 -20.5 q9 -9.5 22 -24 q13 -14.5 19 -21.5 q6 -13 -3 -21 q-9 -8 -24 -8 l-310 0 q52 -93 85 -145 q43 -67 87 -120 q57 -67 105 -108 q18 -15 35 -26 q17 -11 39 -23.5 q22 -12.5 37 -22.5 q-10 -3 -25.5 -6 q-15.5 -3 -27.5 -6 q-12 -3 -25 -9 q-9 -4 -23.5 -24 q-14.5 -20 -27.5 -15 q-19 7 -35.5 20 q-16.5 13 -24 20.5 q-7.5 7.5 -25 31 q-17.5 23.5 -23.5 30.5 q-64 80 -114 174 q-35 66 -83 185 q-7 -74 -39 -150 q-26 -60 -54.5 -99.5 q-28.5 -39.5 -78.5 -85.5 q-70 -64 -149 -95 q-85 -33 -196 -37 q97 35 166 81 q79 52 134 117 q62 73 90 147 q20 52 28.5 86.5 q8.5 34.5 10.5 79.5 l-351 0 l0 50 l351 0 l0 250 l-393 0 l0 50 Z" /><glyph glyph-name="uni5973" unicode="&#x5973;" d="M453 786 q73 -8 102 -39 q6 -11 4.5 -16.5 q-1.5 -5.5 -9.5 -18 q-8 -12.5 -10 -19.5 q-9 -33 -30 -96 l-38 -123 l329 0 q11 10 30 37 q19 27 33 32 q7 -1 16.5 -7 q9.5 -6 21 -17 q11.5 -11 20.5 -20.5 q9 -9.5 22 -24 q13 -14.5 19 -21.5 q6 -13 -3 -21 q-9 -8 -24 -8 l-186 0 q-13 -68 -24 -106 q-21 -72 -42 -123 q-19 -44 -48 -87 l-9 -14 l21 -10 q97 -47 135 -72 q4 -2 13 -8.5 q9 -6.5 12.5 -9 q3.5 -2.5 10.5 -7.5 q7 -5 10.5 -9 q3.5 -4 9 -9 q5.5 -5 10 -11 q4.5 -6 8.5 -13 q23 -38 4 -62 q-19 -23 -63 -12 q-10 2 -19.5 9.5 q-9.5 7.5 -22.5 20 q-13 12.5 -21 18.5 q-13 10 -38 30 q-25 20 -43 33 q-40 28 -74 49 q-18 -21 -40 -43 q-38 -37 -107 -78 q-60 -36 -121 -57 q-64 -23 -135 -33 q-36 -6 -93 -3 l106 43 q90 37 151 74 q72 44 118 90 q29 30 47 50 l-95 52 q-21 11 -55 27 q-21 -49 -32 -60 q-23 -23 -42 -21 q-24 3 -32 31 q-5 19 17 80 q38 99 51 135 q33 91 38 106 l-317 0 l0 50 l333 0 q20 61 41 136 q8 28 27 107 l13 69 ZM456 424 l-3 -10 q-38 -115 -54 -156 l-22 -55 q59 -23 94 -38 l78 -34 q10 15 21 34 q30 51 57 141 q13 42 22 118 l-193 0 Z" /><glyph glyph-name="uni597D" unicode="&#x597d;" d="M186 786 q24 -3 41 -0.5 q17 2.5 37 0 q20 -2.5 36 -14.5 q7 -9 4 -15 q-3 -6 -12 -18.5 q-9 -12.5 -10 -20.5 q-7 -47 -18 -162 l114 0 q6 6 13.5 20 q7.5 14 14 20.5 q6.5 6.5 17.5 4.5 q46 -10 69 -69 q3 -9 -12 -17.5 q-15 -8.5 -18 -15.5 q-16 -46 -33 -126.5 q-17 -80.5 -36 -131.5 q-27 -70 -50 -114 l44 -48 q8 -8 23.5 -23 q15.5 -15 24.5 -26.5 q9 -11.5 15 -28.5 q16 -46 -6 -78 q-11 -16 -27.5 -21 q-16.5 -5 -32.5 3 q-14 8 -22 20 q-8 12 -15 29.5 q-7 17.5 -14 28.5 l-39 59 l-18 -26 q-30 -43 -55 -69 q-25 -26 -65 -54 q-19 -13 -38.5 -20 q-19.5 -7 -44.5 -13 q-25 -6 -43 -12 q20 22 49.5 49 q29.5 27 52.5 51 q23 24 45 53 q46 62 72 106 q-16 21 -58 74 q-5 -36 -20 -57 q-27 -37 -57 -21 q-26 14 -21 63 q4 36 22 87 q18 51 23 78 q21 109 30 175 l-156 0 l0 50 l163 0 q4 34 8 75 q4 2 3.5 78 q-0.5 76 -0.5 78 ZM777 673 l-369 0 l0 50 l372 0 q8 4 18.5 15 q10.5 11 19 16.5 q8.5 5.5 19.5 1.5 q55 -19 69 -75 q2 -9 -4.5 -14 q-6.5 -5 -19 -9.5 q-12.5 -4.5 -18.5 -9.5 l-126 -99 l-7 -6 q7 -5 13 -12 q5 -10 2.5 -15 q-2.5 -5 -11.5 -15.5 q-9 -10.5 -12 -17.5 l0 -162 l117 0 q23 36 48 45 q14 -2 22.5 -26.5 q8.5 -24.5 22.5 -39.5 q6 -13 -3 -21 q-9 -8 -24 -8 l-183 0 l0 -355 q-37 -71 -81 -78 q-15 -2 -24.5 7 q-9.5 9 -19.5 25.5 q-10 16.5 -19 24.5 l-63 57 l117 0 l0 319 l-201 0 l0 50 l201 0 l0 261 q14 -7 49 -17 q42 41 53 53 q1 1 42 55 ZM259 505 q-4 -37 -10 -73 q-5 -29 -11 -57 q-6 -28 -11 -46 q-5 -18 -13.5 -50 q-8.5 -32 -13.5 -53 q7 -4 26.5 -14 q19.5 -10 32.5 -17.5 q13 -7.5 27 -17.5 l14 33 q14 32 21 59 q7 27 15 71.5 q8 44.5 12 61.5 q5 23 10 55.5 q5 32.5 8 47.5 l-107 0 Z" /><glyph glyph-name="uni59CB" unicode="&#x59cb;" d="M156 762 q71 -12 105 -39 q5 -6 3 -10 q-2 -4 -8 -12 q-6 -8 -7 -14 q-6 -40 -13 -98.5 q-7 -58.5 -9 -78.5 l82 0 q7 5 15 17.5 q8 12.5 15.5 18.5 q7.5 6 17.5 3 q25 -8 38 -24.5 q13 -16.5 25 -47.5 q3 -8 -8.5 -17 q-11.5 -9 -12.5 -16 q-7 -32 -11 -95.5 q-4 -63.5 -16 -105.5 q-30 -100 -51 -147 q43 -30 69 -69 q37 -55 24 -102 q-4 -16 -23.5 -20.5 q-19.5 -4.5 -33.5 5.5 q-20 13 -36.5 45.5 q-16.5 32.5 -26.5 44.5 l-16 17 l-11 -17 q-8 -11 -15 -20.5 q-7 -9.5 -16.5 -18.5 q-9.5 -9 -15.5 -14.5 q-6 -5.5 -18.5 -14.5 q-12.5 -9 -17.5 -12.5 q-5 -3.5 -21.5 -14 q-16.5 -10.5 -21.5 -13.5 q-17 -11 -33.5 -17.5 q-16.5 -6.5 -38.5 -13 q-22 -6.5 -36 -11.5 q17 17 44 40 q27 23 47 43 q20 20 38 46 q42 59 60 89 l-9 7 q-15 13 -71 50 q-14 -17 -37 -20 q-12 -2 -20.5 10.5 q-8.5 12.5 -6.5 25.5 q29 164 39 249 l8 70 l-89 0 l0 50 l95 0 l25 252 ZM618 759 q15 -10 39 -22 q24 -12 41.5 -23.5 q17.5 -11.5 33.5 -29.5 q4 -5 0 -9.5 q-4 -4.5 -12.5 -10 q-8.5 -5.5 -11.5 -10.5 q-42 -81 -110 -222 q60 5 220 18 q-8 24 -14 39 q-9 21 -23 50 q-14 29 -19 40 q17 -12 41.5 -27 q24.5 -15 43.5 -28 q19 -13 38 -32 q2 -2 9.5 -9.5 q7.5 -7.5 9.5 -9.5 q2 -2 8.5 -9 q6.5 -7 8.5 -9.5 q2 -2.5 6.5 -9 q4.5 -6.5 6 -10.5 q1.5 -4 4 -10.5 q2.5 -6.5 3.5 -12.5 q1 -6 1 -13 q2 -23 -12 -40.5 q-14 -17.5 -36 -19.5 q-8 -1 -14.5 1.5 q-6.5 2.5 -12 8.5 q-5.5 6 -8.5 11 q-3 5 -8 15.5 q-5 10.5 -8 14.5 q-3 6 -6 12 q-317 -68 -333 -72 q-5 -1 -12.5 -7.5 q-7.5 -6.5 -11 -9 q-3.5 -2.5 -9.5 1.5 q-15 15 -24.5 31.5 q-9.5 16.5 -18.5 39.5 q-9 23 -17 37 q96 2 105 3 l6 0 q55 173 63 201 q9 30 19.5 74 q10.5 44 13.5 58 ZM219 460 l0 -1 q-3 -17 -12.5 -75.5 q-9.5 -58.5 -14 -83.5 q-4.5 -25 -12 -62 q-7.5 -37 -13.5 -60 q10 -4 29.5 -12 q19.5 -8 33 -14 q13.5 -6 27.5 -14 q10 25 19 54 q7 21 11.5 39 q4.5 18 8 39 q3.5 21 5.5 31.5 q2 10.5 4 36.5 q2 26 2.5 33.5 q0.5 7.5 2 43 q1.5 35.5 2.5 45.5 l-93 0 ZM590 205 q-8 -9 -11 -16 l0 -216 l216 0 l0 232 l-205 0 ZM578 255 l217 0 q5 4 12.5 14.5 q7.5 10.5 14 15.5 q6.5 5 15.5 3 q42 -12 69 -63 q3 -6 0 -10.5 q-3 -4.5 -10.5 -10 q-7.5 -5.5 -10.5 -9.5 l0 -249 q-5 -19 -8.5 -27.5 q-3.5 -8.5 -12.5 -17 q-9 -8.5 -24 -9.5 q-22 2 -36 31 l-225 0 l0 -7 q-5 -19 -8.5 -27.5 q-3.5 -8.5 -12.5 -17 q-9 -8.5 -24 -9.5 q-27 2 -45 54 l0 372 q15 -7 45 -15.5 q30 -8.5 44 -17.5 Z" /><glyph glyph-name="uni5BEC" unicode="&#x5bec;" d="M405 783 q13 -4 34 -5.5 q21 -1.5 36 -6 q15 -4.5 29 -15.5 q4 -7 1.5 -11 q-2.5 -4 -12.5 -12 q-10 -8 -13 -13 l0 -78 l285 0 q6 5 14 17 q8 12 15 17.5 q7 5.5 16 1.5 q56 -25 63 -84 q1 -10 -6.5 -15.5 q-7.5 -5.5 -21 -10.5 q-13.5 -5 -20.5 -10 l-44 -8 q9 -11 14 -31 q1 -5 -2.5 -8.5 q-3.5 -3.5 -11 -6.5 q-7.5 -3 -10.5 -6 l-180 0 l0 -87 q-5 -4 -11 -12 l71 0 q7 3 15.5 11 q8.5 8 16 12 q7.5 4 16.5 1 q18 -6 27.5 -18 q9.5 -12 20.5 -36 q2 -8 1 -11 q-1 -3 -5 -10.5 q-4 -7.5 -5 -11.5 l0 -258 q-4 -4 -10 -10.5 q-6 -6.5 -11 -11 q-5 -4.5 -12 -5.5 q-7 -1 -13.5 0.5 q-6.5 1.5 -14.5 5.5 q-8 4 -14 6 l0 18 l-87 0 l0 -159 q10 -27 39 -27 l174 0 q6 4 14.5 9 q8.5 5 15 9.5 q6.5 4.5 12.5 11.5 q12 14 20.5 27.5 q8.5 13.5 18.5 30.5 q10 17 18 29 q0 -17 -6 -52 q-6 -35 -3 -59 q1 -8 15.5 -16 q14.5 -8 14.5 -17 q0 -10 -5.5 -17 q-5.5 -7 -15.5 -14.5 q-10 -7.5 -15 -13.5 l-315 0 q-22 5 -33 36 l0 222 l-114 0 l0 -81 q-7 -13 -13.5 -33.5 q-6.5 -20.5 -14 -35 q-7.5 -14.5 -20.5 -27.5 q-24 -23 -47 -34 q-23 -11 -64 -23 q-28 -8 -53.5 -12 q-25.5 -4 -57.5 -6.5 q-32 -2.5 -54 -5.5 q17 9 41 21.5 q24 12.5 42.5 23.5 q18.5 11 39.5 24 q13 8 39.5 21.5 q26.5 13.5 42 26 q15.5 12.5 26.5 33.5 q9 17 10 33 q1 16 -3.5 40.5 q-4.5 24.5 -5.5 34.5 l-16 0 l0 -3 q-7 -5 -14.5 -16 q-7.5 -11 -15 -17 q-7.5 -6 -18.5 -6 q-8 0 -13.5 5.5 q-5.5 5.5 -11 17.5 q-5.5 12 -8.5 16 l0 339 q21 -3 35.5 -0.5 q14.5 2.5 32 0.5 q17.5 -2 31.5 -12 q4 -3 4 -6 l19 0 q-3 4 -7.5 12.5 q-4.5 8.5 -6.5 11.5 l0 75 l-150 0 l0 45 l150 0 l0 60 l-153 0 q4 -21 0 -42 q-8 -47 -48 -66 q-28 -13 -60 15 q-29 25 -15 51 q10 19 37.5 35.5 q27.5 16.5 37.5 27.5 q7 7 11.5 14.5 q4.5 7.5 9.5 17 q5 9.5 9 16.5 q2 -13 7 -30 l239 0 l0 141 ZM621 66 q11 -5 27 -10 q16 -5 28 -10.5 q12 -5.5 23 -15.5 q30 -27 27 -57 q-3 -27 -36 -27 q-14 0 -22.5 8 q-8.5 8 -19.5 25 q-4 6 -2.5 17 q1.5 11 -0.5 19 l-24 51 ZM754 572 l17 31 l-179 0 q3 -1 5 -3 q5 -6 4.5 -9.5 q-0.5 -3.5 -5 -12.5 q-4.5 -9 -5.5 -14 l0 -21 l135 0 q3 4 6.5 13.5 q3.5 9.5 7.5 14 q4 4.5 10 2.5 q2 -1 4 -1 ZM402 498 l0 -66 q-6 -5 -15 -17 q-9 -12 -15 -16 l155 0 q-2 2 -5 3 l0 96 l-120 0 ZM402 543 l120 0 l0 60 l-103 0 q2 -1 4 -3 q4 -6 1.5 -9 q-2.5 -3 -11 -10 q-8.5 -7 -11.5 -11 l0 -27 ZM306 369 q-2 -3 -3 -6 l0 -54 l360 0 l0 60 l-357 0 ZM303 273 l0 -57 l360 0 l0 57 l-360 0 ZM303 177 l0 -60 l360 0 l0 60 l-360 0 Z" /><glyph glyph-name="uni5C08" unicode="&#x5c08;" d="M195 153 q-9 -1 -22 -6.5 q-13 -5.5 -19 -6.5 q-6 -1 -19 4 q-13 9 -19.5 21 q-6.5 12 -11.5 29 q-5 17 -11 28 q19 1 46 2 q27 1 49 2 q22 1 46 2 q172 5 186 6 q9 64 10 80 l-142 0 q-11 -32 -39 -35 q-27 2 -45 54 l0 285 q11 -5 48 -16 q37 -11 54 -26 l132 0 q0 8 0 18 l0 40 l-402 0 l0 50 l402 0 l0 108 q15 -7 39 -13.5 q24 -6.5 41 -14 q17 -7.5 31 -23.5 q5 -10 2.5 -15 q-2.5 -5 -11.5 -15.5 q-9 -10.5 -12 -17.5 l0 -9 l222 0 q11 10 30 37 q19 27 33 32 q7 -1 16.5 -7 q9.5 -6 21 -17 q11.5 -11 20.5 -20.5 q9 -9.5 22 -24 q13 -14.5 19 -21.5 q6 -13 -3 -21 q-9 -8 -24 -8 l-357 0 l0 -58 l156 0 q6 4 13 14.5 q7 10.5 13.5 15.5 q6.5 5 15.5 3 q42 -11 69 -63 q3 -6 -0.5 -10.5 q-3.5 -4.5 -10.5 -10 q-7 -5.5 -10 -9.5 l0 -171 q-4 -15 -6.5 -22.5 q-2.5 -7.5 -8.5 -16 q-6 -8.5 -15 -11.5 q9 -7 32.5 -20 q23.5 -13 37.5 -24 q14 -11 26 -29 q24 -34 -6 -63 q-34 -33 -69 -9 q-14 10 -14 38 q-19 0 -52 0 l0 -104 l75 0 q11 10 30 37 q19 27 33 32 q7 -1 16.5 -7 q9.5 -6 21 -17 q11.5 -11 20.5 -20.5 q9 -9.5 22 -24 q13 -14.5 19 -21.5 q6 -13 -3 -21 q-9 -8 -24 -8 l-210 0 l0 -181 q-8 -6 -18.5 -17.5 q-10.5 -11.5 -20 -18 q-9.5 -6.5 -21.5 -6.5 q-17 0 -32 23 q-15 23 -22 28 q-12 10 -23 18 q-11 8 -25 17 q-14 9 -24 16 l96 0 l0 121 l-267 0 q15 -5 30 -13 q46 -25 57 -66 q13 -47 -21 -69 q-40 -26 -75 6 q-12 11 -9.5 35 q2.5 24 -2.5 40 q-5 11 -12 21 q-7 10 -11.5 15 q-4.5 5 -15 16 q-10.5 11 -13.5 15 l-248 0 l0 50 l588 0 l0 102 q-32 -1 -66 -3 q-94 -6 -348 -30 ZM298 526 q-3 -4 -4 -7 l0 -44 l143 0 q1 23 1 51 l-140 0 ZM528 526 q1 -18 -1 -51 l157 0 l0 51 l-156 0 ZM294 425 l0 -61 l139 0 q2 32 3 61 l-142 0 ZM684 425 l-162 0 q-4 -28 -8 -61 l170 0 l0 61 ZM507 314 q-6 -38 -13 -78 q32 0 67 1 q24 0 48 1 l0 76 l-102 0 ZM699 312 l0 -75 q33 0 47 0 l-12 55 q-2 -1 -5 -1 q-18 1 -30 21 Z" /><glyph glyph-name="uni5C0F" unicode="&#x5c0f;" d="M333 -48 l96 0 q48 0 48 48 l0 774 q79 -16 111 -51 q5 -10 2.5 -15 q-2.5 -5 -11.5 -15.5 q-9 -10.5 -12 -17.5 l0 -699 q0 -68 -33 -117 q-26 -39 -63 -27 q-16 6 -27.5 30.5 q-11.5 24.5 -20.5 32.5 q-14 12 -27.5 21 q-13.5 9 -32 18.5 q-18.5 9.5 -30.5 17.5 ZM300 492 q69 -19 99 -51 q3 -8 2 -11.5 q-1 -3.5 -9.5 -12 q-8.5 -8.5 -10.5 -12.5 q-10 -16 -25 -43 q-15 -27 -27 -46 q-12 -19 -29 -40 q-65 -80 -138 -144 q-47 -41 -108 -69 q56 72 102 144 q49 78 93 165 q10 20 23 50 q13 30 20 50 l8 20 ZM807 387 q36 -25 58 -49.5 q22 -24.5 47 -64.5 q33 -52 27 -95 q-6 -42 -47 -50 q-30 -6 -59 30 q-17 22 -31 59.5 q-14 37.5 -22 52.5 q-10 18 -60 93 l-69 96 q101 -33 156 -72 Z" /><glyph glyph-name="uni5DDE" unicode="&#x5dde;" d="M164 495 q28 -104 26 -163 q-2 -68 -27 -109 q-25 -39 -59 -31 q-33 7 -33 51 q0 18 7.5 39 q7.5 21 23.5 50.5 q16 29.5 20 39.5 q30 67 42 123 ZM236 198 l0 579 q79 -16 111 -51 q5 -10 2.5 -15 q-2.5 -5 -11.5 -15.5 q-9 -10.5 -12 -17.5 l0 -486 q0 -52 -10 -91 q-10 -39 -35 -92 q-35 -76 -102 -135 q-27 -24 -52.5 -36 q-25.5 -12 -67.5 -24 q60 63 93 114 q42 65 60 123 q24 78 24 147 ZM370 494 q43 -28 62 -47 q19 -19 36 -53 q39 -79 10 -116 q-12 -15 -30 -16.5 q-18 -1.5 -29 11.5 q-13 15 -17.5 30.5 q-4.5 15.5 -6 40 q-1.5 24.5 -3.5 37.5 l-22 113 ZM511 714 q79 -16 111 -51 q5 -10 2.5 -15 q-2.5 -5 -11.5 -15.5 q-9 -10.5 -12 -17.5 l0 -702 q-5 -19 -8.5 -27.5 q-3.5 -8.5 -12.5 -17 q-9 -8.5 -24 -9.5 q-27 2 -45 54 l0 801 ZM647 486 q42 -23 64 -42 q22 -19 43 -53 q15 -25 18 -53 q3 -28 -8 -47 q-9 -16 -28 -18 q-19 -2 -32 10 q-13 12 -18.5 25 q-5.5 13 -9 37 q-3.5 24 -5.5 33 l-24 108 ZM804 771 q79 -16 111 -51 q5 -10 2.5 -15 q-2.5 -5 -11.5 -15.5 q-9 -10.5 -12 -17.5 l0 -804 q-5 -19 -8.5 -27.5 q-3.5 -8.5 -12.5 -17 q-9 -8.5 -24 -9.5 q-27 2 -45 54 l0 903 Z" /><glyph glyph-name="uni5E55" unicode="&#x5e55;" d="M345 792 q15 -7 39 -13.5 q24 -6.5 41 -14 q17 -7.5 31 -23.5 q3 -4 4 -7.5 q1 -3.5 -1.5 -7.5 q-2.5 -4 -5 -7.5 q-2.5 -3.5 -6.5 -8.5 q-4 -5 -7 -8 l127 0 l0 93 q15 -7 38.5 -13.5 q23.5 -6.5 41 -14 q17.5 -7.5 31.5 -23.5 q6 -3 4 -10 q-2 -7 -4.5 -10 q-2.5 -3 -8.5 -10.5 q-6 -7.5 -9 -11.5 l111 0 q11 10 30 37 q19 27 33 32 q7 -1 16.5 -7 q9.5 -6 21 -17 q11.5 -11 20.5 -20.5 q9 -9.5 22 -24 q13 -14.5 19 -21.5 q6 -13 -3 -21 q-9 -8 -24 -8 l-249 0 l0 -52 q-7 -24 -12 -33 l45 0 q5 4 12.5 14.5 q7.5 10.5 14 15.5 q6.5 5 15.5 3 q42 -12 69 -63 q3 -6 0 -10.5 q-3 -4.5 -10.5 -10 q-7.5 -5.5 -10.5 -9.5 l0 -159 q-5 -19 -8.5 -27.5 q-3.5 -8.5 -12.5 -17 q-9 -8.5 -24 -9.5 q-15 1 -26 15 l-269 0 l-23 -36 l369 0 q11 10 30 37 q19 27 33 32 q7 -1 16.5 -7 q9.5 -6 21 -17 q11.5 -11 20.5 -20.5 q9 -9.5 22 -24 q13 -14.5 19 -21.5 q6 -13 -3 -21 q-9 -8 -24 -8 l-194 0 q10 -19 23 -31 q57 -53 129 -93 q15 -8 29 -12.5 q14 -4.5 32.5 -9 q18.5 -4.5 31.5 -8.5 q-9 -6 -23 -14 q-14 -8 -24.5 -15 q-10.5 -7 -21.5 -16 q-6 -5 -10 -16.5 q-4 -11.5 -8 -18 q-4 -6.5 -12 -4.5 q-16 5 -30 13.5 q-14 8.5 -21.5 15.5 q-7.5 7 -22 22.5 q-14.5 15.5 -22.5 23.5 q-15 14 -27 28 l0 -205 q-8 -5 -17.5 -16.5 q-9.5 -11.5 -18.5 -17.5 q-9 -6 -21 -5 q-16 2 -29.5 24 q-13.5 22 -18.5 27 q-11 10 -27 24 q-16 14 -24 21 l66 0 l0 166 l-111 0 l0 -235 q-5 -19 -8.5 -27.5 q-3.5 -8.5 -12.5 -17 q-9 -8.5 -24 -9.5 q-27 2 -45 54 l0 235 l-86 0 q-13 -16 -16 -22 l0 -171 q-5 -19 -8.5 -27.5 q-3.5 -8.5 -12.5 -17 q-9 -8.5 -24 -9.5 q-27 2 -45 54 l0 180 q-52 -52 -102 -81 q-20 -12 -39.5 -18.5 q-19.5 -6.5 -44 -13.5 q-24.5 -7 -42.5 -13 q18 15 44 36 q26 21 46.5 38.5 q20.5 17.5 41.5 39.5 q65 69 118 142 l-208 0 l0 50 l240 0 q4 8 16 36 l-14 0 q-11 -16 -32 -18 q-27 2 -45 54 l0 249 q15 -7 41 -14.5 q26 -7.5 37 -12.5 l36 0 q-7 11 -15 33 l0 52 l-243 0 l0 50 l243 0 l0 90 ZM352 517 q-13 -16 -16 -22 l0 -25 l354 0 l0 47 l-338 0 ZM423 567 l159 0 q-7 11 -15 33 l0 52 l-132 0 l0 -52 q-7 -24 -12 -33 ZM336 359 l354 0 l0 61 l-354 0 l0 -61 ZM381 223 q-31 -40 -49 -62 q7 -2 13 -5 l114 0 l0 67 l-78 0 ZM549 223 l0 -67 l111 0 q4 3 7 7 q3 4 7 9 q4 5 5 7 q-11 16 -29 44 l-101 0 Z" /><glyph glyph-name="uni5E74" unicode="&#x5e74;" d="M123 402 q-34 -35 -90 -66 q44 68 81 138 q63 116 111 222 q8 17 17 42.5 q9 25.5 14 42.5 l5 17 q81 -15 114 -51 q4 -9 1 -13.5 q-3 -4.5 -13.5 -13.5 q-10.5 -9 -14.5 -15 q-12 -19 -34 -56 l442 0 q11 10 30 37 q19 27 33 32 q7 -1 16.5 -7 q9.5 -6 21 -17 q11.5 -11 20.5 -20.5 q9 -9.5 22 -24 q13 -14.5 19 -21.5 q6 -13 -3 -21 q-9 -8 -24 -8 l-291 0 l0 -185 l96 0 q11 10 30 37 q19 27 33 32 q7 -1 16.5 -7 q9.5 -6 21 -17 q11.5 -11 20.5 -20.5 q9 -9.5 22 -24 q13 -14.5 19 -21.5 q6 -13 -3 -21 q-9 -8 -24 -8 l-231 0 l0 -190 l216 0 q11 10 30 37 q19 27 33 32 q7 -1 16.5 -7 q9.5 -6 21 -17 q11.5 -11 20.5 -20.5 q9 -9.5 22 -24 q13 -14.5 19 -21.5 q6 -13 -3 -21 q-9 -8 -24 -8 l-351 0 l0 -259 q-5 -19 -8.5 -27.5 q-3.5 -8.5 -12.5 -17 q-9 -8.5 -24 -9.5 q-27 2 -45 54 l0 259 l-465 0 l0 50 l231 0 l0 271 q49 -10 85 -31 l149 0 l0 185 l-227 0 l-16 -23 q-82 -110 -144 -174 ZM510 174 l0 190 l-132 0 q-9 -11 -12 -18 l0 -172 l144 0 Z" /><glyph glyph-name="uni5E7E" unicode="&#x5e7e;" d="M303 792 q13 -7 32 -15.5 q19 -8.5 33.5 -17 q14.5 -8.5 27.5 -21.5 q4 -4 0.5 -6.5 q-3.5 -2.5 -11 -5.5 q-7.5 -3 -10.5 -6 l-130 -133 l10 -11 q24 -28 28 -52 l11 16 l75 111 q8 -10 23 -24 q15 -14 24.5 -26 q9.5 -12 15.5 -28 q2 -5 -1.5 -8.5 q-3.5 -3.5 -11.5 -6.5 q-8 -3 -11 -6 l-137 -142 l103 5 q0 11 -1 39 q-1 28 -1 41 q11 -15 29.5 -35.5 q18.5 -20.5 31 -38 q12.5 -17.5 20.5 -40.5 q16 -44 -15 -72 q-12 -11 -31 -8.5 q-19 2.5 -23 17.5 q-4 14 -7 42 q-148 -25 -197 -36 q-6 -2 -14.5 -9.5 q-8.5 -7.5 -12.5 -10 q-4 -2.5 -12 1.5 q-12 13 -18 28 q-6 15 -9.5 35 q-3.5 20 -8.5 33 l96 5 l42 60 q-7 1 -12 4 q-16 10 -24.5 23.5 q-8.5 13.5 -16 36 q-7.5 22.5 -13.5 33.5 q-12 24 -42 99 q49 -26 69 -40 q32 43 48 70 q2 3 51 99 ZM189 99 l0 171 q15 -7 41 -14.5 q26 -7.5 37 -12.5 l212 0 l-2 12 l0 537 q15 -7 38.5 -13.5 q23.5 -6.5 41 -14 q17.5 -7.5 31.5 -23.5 q5 -10 2.5 -15 q-2.5 -5 -11.5 -15.5 q-9 -10.5 -12 -17.5 l0 -450 l141 0 q-4 9 -8.5 28 q-4.5 19 -6.5 26 q-6 18 -11 37 l-25 -4 q0 0 -15 -11 q-6 -3 -9 0 q-49 54 -55 99 l88 0 l31 46 q-12 4 -19.5 13.5 q-7.5 9.5 -15 26 q-7.5 16.5 -12.5 24.5 q-17 25 -37.5 64.5 q-20.5 39.5 -28.5 53.5 q37 -7 66 -20 l62 163 q11 -9 28.5 -20 q17.5 -11 30 -21.5 q12.5 -10.5 22.5 -25.5 q3 -4 -0.5 -8 q-3.5 -4 -10 -8 q-6.5 -4 -9.5 -7 l-78 -104 q37 -34 48 -59 l7 11 q14 22 63 111 q11 -10 28.5 -24.5 q17.5 -14.5 29.5 -26.5 q12 -12 22 -29 q3 -4 -1.5 -5 q-4.5 -1 -12.5 -1.5 q-8 -0.5 -11 -3.5 q-32 -36 -121 -151 l88 0 q-2 15 -2.5 39.5 q-0.5 24.5 -1.5 34.5 q32 -24 42.5 -32.5 q10.5 -8.5 26 -28 q15.5 -19.5 25.5 -43.5 q13 -35 -28 -61 q-22 -16 -44 14 q-6 8 -9 16 q-44 -3 -108 -13 q2 -1 8 -5 q6 -4 8 -5.5 q2 -1.5 7 -5 q5 -3.5 7 -5.5 q2 -2 6 -6 q4 -4 6.5 -7.5 q2.5 -3.5 5.5 -8 q3 -4.5 5 -9.5 q6 -13 7 -26 q3 4 10.5 14.5 q7.5 10.5 11 15 q3.5 4.5 9.5 10 q6 5.5 13 7.5 q7 -1 16.5 -7 q9.5 -6 21 -17 q11.5 -11 20.5 -20.5 q9 -9.5 22 -24 q13 -14.5 19 -21.5 q6 -13 -3 -21 q-9 -8 -24 -8 l-151 0 q9 -7 24 -17 q15 -10 25 -19 q10 -9 18 -22 q3 -4 -0.5 -7 q-3.5 -3 -10.5 -6 q-7 -3 -10 -5 q-16 -12 -55.5 -42 q-39.5 -30 -64.5 -48 q39 -37 77.5 -63.5 q38.5 -26.5 48.5 -23.5 l111 123 l-53 -152 q4 -9 12.5 -21 q8.5 -12 13 -21.5 q4.5 -9.5 0.5 -21.5 q-5 -15 -20.5 -20.5 q-15.5 -5.5 -33.5 -0.5 q-41 11 -68.5 26 q-27.5 15 -69.5 46 q-59 43 -91 78 q-53 -37 -101 -60 q-85 -40 -177 -57 q-53 -10 -126 0 q15 6 69.5 26 q54.5 20 89.5 37 q84 41 171 96 l26 17 q-31 42 -47.5 76 q-16.5 34 -28.5 82 l-195 0 q-13 -16 -16 -22 l0 -36 q6 -1 23 -4.5 q17 -3.5 24.5 -5 q7.5 -1.5 20.5 -6.5 q13 -5 25 -11 q28 -15 43.5 -27.5 q15.5 -12.5 25.5 -35.5 q19 -42 -12 -60 q-24 -14 -66 15 q-15 10 -29 33 q-14 23 -25 33 q-13 11 -30 20 q-13 -46 -25.5 -75.5 q-12.5 -29.5 -37.5 -61.5 q-13 -17 -29 -29.5 q-16 -12.5 -27 -18 q-11 -5.5 -37 -18.5 q-16 -8 -30.5 -11.5 q-14.5 -3.5 -33.5 -6.5 q-19 -3 -32 -6 q15 14 37 33 q22 19 38.5 35 q16.5 16 32.5 37 q29 39 38 61.5 q9 22.5 16 73.5 ZM576 193 q17 -51 59 -108 l55 44 q13 10 23 19.5 q10 9.5 23 23 q13 13.5 21 21.5 l-181 0 Z" /><glyph glyph-name="uni5EA6" unicode="&#x5ea6;" d="M144 210 l0 480 q47 -10 83 -30 l271 0 l0 140 q79 -16 111 -51 q5 -10 2.5 -15 q-2.5 -5 -11.5 -15.5 q-9 -10.5 -12 -17.5 l0 -41 l195 0 q38 60 63 69 q7 -1 16.5 -7 q9.5 -6 21 -17 q11.5 -11 20.5 -20.5 q9 -9.5 22 -24 q13 -14.5 19 -21.5 q6 -13 -3 -21 q-9 -8 -24 -8 l-215 0 l0 -122 l50 0 q38 60 63 69 q7 -1 16.5 -7 q9.5 -6 21 -17 q11.5 -11 20.5 -20.5 q9 -9.5 22 -24 q13 -14.5 19 -21.5 q6 -13 -3 -21 q-9 -8 -24 -8 l-185 0 l0 -135 q-5 -19 -8.5 -27.5 q-3.5 -8.5 -12.5 -17 q-9 -8.5 -24 -9.5 q-22 2 -36 31 l-136 0 q-11 -31 -39 -34 q-27 2 -45 54 l0 138 l-156 0 l0 50 l156 0 l0 122 l-155 0 q-10 -12 -13 -19 l0 -363 q0 -93 -21 -165 q-13 -45 -25.5 -72.5 q-12.5 -27.5 -37.5 -59.5 q-53 -69 -117 -102 q61 105 87 192 q24 82 24 189 ZM492 438 l0 -108 l121 0 l0 108 l-121 0 ZM492 610 l0 -122 l121 0 l0 122 l-121 0 ZM370 163 l-78 0 l0 50 l392 0 q8 5 19.5 16.5 q11.5 11.5 21 16.5 q9.5 5 20.5 0 q49 -22 63 -87 q2 -8 -4 -13 q-6 -5 -17 -10 q-11 -5 -15 -10 q-12 -14 -36 -48 q-24 -34 -45 -54 q-25 -24 -46 -41 q68 -37 148 -67 q22 -8 54 -16.5 q32 -8.5 53 -12.5 l22 -4 q-46 -21 -75 -36 q-4 -2 -17 -14 q-13 -12 -23 -10 q-92 16 -167 60 q-42 25 -72 48 l-15 -9 q-58 -34 -132 -57 q-60 -18 -153 -31 q-67 -9 -135 -5 q99 20 162 45 q101 40 165 81 q26 16 46 31 l-26 26 q-47 50 -110 151 ZM564 32 q19 17 46 43 q14 13 30 35 q16 22 26 38 l9 15 l-244 0 q44 -54 74 -82 q33 -31 59 -49 Z" /><glyph glyph-name="uni5F97" unicode="&#x5f97;" d="M285 780 q55 -44 78 -81 q2 -4 -0.5 -6 q-2.5 -2 -9 -4.5 q-6.5 -2.5 -8.5 -4.5 q-63 -54 -77 -68 q-54 -51 -127 -97 q-59 -37 -111 -51 q51 54 108 120 q37 44 99 126 l48 66 ZM300 558 q52 -47 66 -87 q2 -6 -2 -9 q-4 -3 -12.5 -6 q-8.5 -3 -12.5 -6 q-14 -13 -34.5 -34.5 q-20.5 -21.5 -34.5 -34.5 l0 -483 q-5 -19 -8.5 -27.5 q-3.5 -8.5 -12.5 -17 q-9 -8.5 -24 -9.5 q-27 2 -45 54 l0 406 l-15 -10 q-89 -61 -138 -78 l114 138 l105 132 l54 72 ZM366 324 l399 0 q11 11 25 30.5 q14 19.5 18 24.5 q-2 -1 -4 -1 q-19 2 -32 24 l-236 0 q-11 -27 -38 -30 q-27 2 -45 54 l0 348 q56 -11 93 -36 l213 0 q5 4 12.5 14.5 q7.5 10.5 14 15.5 q6.5 5 15.5 3 q42 -12 69 -63 q3 -6 0 -10.5 q-3 -4.5 -10.5 -10 q-7.5 -5.5 -10.5 -9.5 l0 -246 q-8 -30 -16 -40 q9 -3 22 -14 q13 -11 22.5 -21 q9.5 -10 26.5 -29 q17 -19 23 -25 q6 -13 -3 -21 q-9 -8 -24 -8 l-120 0 l0 -94 l36 0 q11 10 30 37 q19 27 33 32 q7 -1 16.5 -7 q9.5 -6 21 -17 q11.5 -11 20.5 -20.5 q9 -9.5 22 -24 q13 -14.5 19 -21.5 q6 -13 -3 -21 q-9 -8 -24 -8 l-171 0 l0 -184 q0 -47 -14 -68.5 q-14 -21.5 -49 -39.5 q-12 -6 -21 1 q-9 7 -19.5 22.5 q-10.5 15.5 -19.5 21.5 q-11 7 -84 54 l117 0 l0 193 l-222 0 q22 -12 45 -33 q27 -24 39.5 -41 q12.5 -17 17.5 -44 q7 -42 -32 -57 q-25 -9 -51 27 q-11 16 -17.5 31.5 q-6.5 15.5 -13 36 q-6.5 20.5 -12.5 34.5 l-20 46 l-100 0 l0 50 l366 0 l0 94 l-324 0 l0 50 ZM551 688 q-6 -7 -8 -13 l0 -78 l216 0 l0 91 l-208 0 ZM543 547 l0 -95 l216 0 l0 95 l-216 0 Z" /><glyph glyph-name="uni5F9E" unicode="&#x5f9e;" d="M273 783 q13 -11 33.5 -24.5 q20.5 -13.5 35 -26 q14.5 -12.5 27.5 -30.5 q3 -5 0 -8.5 q-3 -3.5 -10.5 -8 q-7.5 -4.5 -10.5 -7.5 q-8 -9 -24 -26 q-16 -17 -27.5 -28.5 q-11.5 -11.5 -26.5 -23.5 q-5 -4 -21 -18 q-16 -14 -21.5 -18 q-5.5 -4 -18 -13.5 q-12.5 -9.5 -23.5 -15.5 q-11 -6 -24 -13 q-20 -10 -39 -15.5 q-19 -5.5 -43 -10.5 q-24 -5 -41 -10 q15 11 37.5 26 q22.5 15 39.5 28 q17 13 34 30 q47 48 90 123 q8 14 13 28 q5 14 10.5 32 q5.5 18 9.5 30 ZM285 549 q10 -12 27.5 -26.5 q17.5 -14.5 29.5 -28 q12 -13.5 18 -32.5 q2 -7 -4 -11 q-6 -4 -16.5 -7.5 q-10.5 -3.5 -15.5 -8.5 q-15 -16 -30 -35 l0 -559 q-7 -5 -17 -16.5 q-10 -11.5 -18 -17 q-8 -5.5 -19 -2.5 q-10 3 -13.5 11.5 q-3.5 8.5 -4 23 q-0.5 14.5 -3.5 22.5 l0 441 q-20 -28 -42 -42 q-20 -13 -40 -20.5 q-20 -7.5 -45.5 -14 q-25.5 -6.5 -43.5 -13.5 l72 72 q12 13 30 32.5 q18 19.5 28 30.5 q10 11 24 28.5 q14 17.5 26 37.5 q13 22 22 42.5 q9 20.5 18 47.5 q9 27 17 45 ZM513 768 q11 -6 28.5 -12.5 q17.5 -6.5 30 -13 q12.5 -6.5 22.5 -19.5 q4 -3 1.5 -7.5 q-2.5 -4.5 -6 -7 q-3.5 -2.5 -8.5 -7 q-5 -4.5 -8 -8.5 l-38 -93 q6 -3 16.5 -8 q10.5 -5 16.5 -8 q6 -3 14 -9 q8 -6 15 -14 q31 -36 36 -53 q3 -12 0 -25 q-6 -30 -57 -30 q-13 0 -21 27 q-3 9 0.5 29 q3.5 20 -3.5 28 q-4 6 -8.5 8.5 q-4.5 2.5 -14.5 4.5 q-10 2 -13 3 q-2 -6 -7.5 -21.5 q-5.5 -15.5 -8.5 -22.5 q-3 -7 -8 -19.5 q-5 -12.5 -11 -23 q-6 -10.5 -13 -22.5 q-20 -33 -72 -75 q-9 -8 -18.5 -13 q-9.5 -5 -21.5 -10.5 q-12 -5.5 -20 -9.5 q9 13 23.5 31.5 q14.5 18.5 25 34 q10.5 15.5 20.5 33.5 q10 19 17.5 36 q7.5 17 16 40.5 q8.5 23.5 14.5 37.5 l36 93 l24 126 ZM744 777 q13 -8 35 -16.5 q22 -8.5 37 -18 q15 -9.5 27 -25.5 q3 -10 0.5 -13.5 q-2.5 -3.5 -13 -12 q-10.5 -8.5 -14.5 -13.5 q-2 -13 -3 -32.5 q-1 -19.5 -3.5 -35 q-2.5 -15.5 -8.5 -31.5 q-3 -8 -6 -15 q3 -1 11 -5.5 q8 -4.5 11 -6.5 q3 -2 10 -6.5 q7 -4.5 11 -7.5 q4 -3 9.5 -8 q5.5 -5 10.5 -11 q33 -36 33 -72 q0 -36 -33 -45 q-26 -7 -48 24 q-6 9 -5 26.5 q1 17.5 -4 27.5 q-4 6 -9 11.5 q-5 5.5 -7.5 7.5 q-2.5 2 -10.5 7.5 q-8 5.5 -10 6.5 l-26 -33 q-9 -11 -17.5 -19.5 q-8.5 -8.5 -22.5 -20.5 q-14 -12 -20 -17 l-36 -34 q3 0 12 -1 q9 -1 12.5 -1.5 q3.5 -0.5 11 -2 q7.5 -1.5 11.5 -3.5 q4 -2 9.5 -4.5 q5.5 -2.5 10 -7 q4.5 -4.5 8.5 -9.5 q5 -14 1.5 -20 q-3.5 -6 -18 -19 q-14.5 -13 -19.5 -21 l0 -87 l111 0 q8 8 17.5 25 q9.5 17 19 26 q9.5 9 23.5 6 q7 -1 14 -4.5 q7 -3.5 11.5 -6 q4.5 -2.5 10 -9 q5.5 -6.5 8 -9.5 q2.5 -3 7 -12 q4.5 -9 6 -12 q1.5 -3 6.5 -14.5 q5 -11.5 6 -13.5 q2 -5 -1.5 -8.5 q-3.5 -3.5 -11.5 -6.5 q-8 -3 -11 -6 l-216 0 l0 -219 l162 0 l123 36 q-9 -10 -22.5 -23.5 q-13.5 -13.5 -23 -25 q-9.5 -11.5 -17.5 -26.5 q-5 -10 -6.5 -19.5 q-1.5 -9.5 -1.5 -22 q0 -12.5 -1 -21.5 l-234 0 q-11 4 -26.5 9 q-15.5 5 -27.5 10.5 q-12 5.5 -24 13.5 q-21 14 -46 41.5 q-25 27.5 -35 36.5 q-12 11 -36 30 q-8 -14 -18 -27 q-24 -30 -40 -46 q-16 -16 -41 -32 q-8 -5 -16.5 -6.5 q-8.5 -1.5 -19.5 -1.5 q-11 0 -18 -1 q7 8 16.5 19 q9.5 11 17 20.5 q7.5 9.5 14.5 20.5 q12 19 20.5 37 q8.5 18 18.5 41 q10 23 18 39 l0 261 q15 -4 38.5 -4.5 q23.5 -0.5 40.5 -5 q17 -4.5 32 -17.5 q7 -4 4 -11 q-3 -7 -8.5 -11.5 q-5.5 -4.5 -13.5 -12 q-8 -7.5 -12 -13.5 l0 -189 l-2 -4 q35 -38 59 -56 q17 -13 54 -28 l0 402 q-6 -4 -12 -8 q-7 -4 -14 -6 q-7 -2 -16 -3 q-9 -1 -15 -3 l81 93 q47 58 63 87 q4 7 22 35 q18 28 26 46 l0 174 Z" /><glyph glyph-name="uni6027" unicode="&#x6027;" d="M176 771 q79 -16 111 -51 q5 -10 2.5 -15 q-2.5 -5 -11.5 -15.5 q-9 -10.5 -12 -17.5 l0 -104 q39 -17 66 -43 q36 -34 45 -72 q11 -45 -12 -63 q-14 -10 -30.5 -8.5 q-16.5 1.5 -28.5 14.5 q-10 10 -13 22 q-3 12 -4.5 28.5 q-1.5 16.5 -4.5 27.5 l-18 59 l0 -656 q-5 -19 -8.5 -27.5 q-3.5 -8.5 -12.5 -17 q-9 -8.5 -24 -9.5 q-27 2 -45 54 l0 894 ZM119 525 q25 -72 24 -132 q-1 -41 -6.5 -65.5 q-5.5 -24.5 -23.5 -51.5 q-24 -35 -64 -21 q-11 4 -17.5 18 q-6.5 14 -5.5 30 q2 21 22 50.5 q20 29.5 26 42.5 q30 71 45 129 ZM434 666 q72 -20 105 -51 q3 -6 0.5 -9 q-2.5 -3 -9.5 -9.5 q-7 -6.5 -9 -11.5 q-8 -23 -18 -59 q-10 -36 -13 -46 l112 0 l0 273 q79 -16 111 -51 q5 -10 2.5 -15 q-2.5 -5 -11.5 -15.5 q-9 -10.5 -12 -17.5 l0 -174 l123 0 q22 31 46 40 q24 -9 62 -61 q6 -13 -2.5 -21 q-8.5 -8 -23.5 -8 l-205 0 l0 -208 l96 0 q22 31 46 40 q24 -9 62 -61 q6 -13 -2.5 -21 q-8.5 -8 -23.5 -8 l-178 0 l0 -253 l126 0 q11 10 30 37 q19 27 33 32 q7 -1 16.5 -7 q9.5 -6 21 -17 q11.5 -11 20.5 -20.5 q9 -9.5 22 -24 q13 -14.5 19 -21.5 q6 -13 -3 -21 q-9 -8 -24 -8 l-636 0 l0 50 l285 0 l0 253 l-191 0 l0 50 l191 0 l0 208 l-130 0 q-24 -60 -65 -115 q-38 -52 -105 -99 q37 73 66 153 q25 68 45 159 q5 24 10.5 58.5 q5.5 34.5 8.5 57.5 l2 22 Z" /><glyph glyph-name="uni6211" unicode="&#x6211;" d="M468 759 q49 -54 63 -97 q2 -5 -5 -5 q-3 0 -9 1 q-12 1 -16 0 q-19 -5 -52.5 -17 q-33.5 -12 -57.5 -18 q-10 -2 -19 -4 l0 -148 l198 0 l0 312 q79 -16 111 -51 q5 -10 2.5 -15 q-2.5 -5 -11.5 -15.5 q-9 -10.5 -12 -17.5 l0 -213 l129 0 q11 11 29.5 36.5 q18.5 25.5 30.5 31.5 q-24 -9 -45 16 q-10 12 -15.5 24 q-5.5 12 -10.5 29.5 q-5 17.5 -10 29.5 q-9 20 -21 50 q-12 30 -15 38 q76 -25 117 -63 q32 -29 33 -75 q2 -34 -30 -48 q7 -1 16.5 -7 q9.5 -6 21 -17 q11.5 -11 20.5 -20.5 q9 -9.5 22 -24 q13 -14.5 19 -21.5 q6 -13 -3 -21 q-9 -8 -24 -8 l-264 0 l0 -112 q0 -75 21 -132 l2 -6 q44 59 82 117 q9 14 20 35 q11 21 18 35 l7 14 q62 -36 87 -72 q3 -4 0 -8 q-3 -4 -10.5 -8 q-7.5 -4 -10.5 -8 l-78 -99 q-8 -10 -33 -41.5 q-25 -31.5 -40 -48.5 q10 -15 31 -45 q9 -13 26.5 -28.5 q17.5 -15.5 29.5 -25.5 l13 -9 q32 30 51 51 l81 90 q-4 -20 -33 -105 l-27 -72 q24 -25 24 -45 q0 -34 -24 -45 q-33 -14 -66 6 q-76 43 -132 108 q-26 30 -42 54 q-23 -19 -63 -48 q-49 -35 -99 -57 q-38 -18 -87 -27 q86 68 147 129 q34 34 64 71 q-6 14 -13 31 q-36 96 -36 186 l0 115 l-198 0 l0 -153 l42 6 q80 12 144 14 q-41 -27 -73 -43 q-29 -15 -77 -32 l-36 -12 l0 -213 q-1 -72 -21 -111 q-11 -23 -24 -34 q-13 -11 -36 -11 q-17 0 -35.5 24 q-18.5 24 -27.5 30 q-16 11 -31 20 q-15 9 -33.5 19 q-18.5 10 -31.5 18 l120 0 q31 0 30 72 l0 158 l-18 -5 q-15 -4 -46.5 -12 q-31.5 -8 -52.5 -15 q-6 -2 -15.5 -10 q-9.5 -8 -13.5 -10.5 q-4 -2.5 -13 2.5 q-15 15 -28 43 q-13 28 -18 48 l-5 20 q88 8 144 15 l66 8 l0 164 l-225 0 l0 50 l225 0 l0 134 q-68 -8 -120 -8 q-68 0 -123 9 q99 27 185 56 q70 24 166 61 l78 36 Z" /><glyph glyph-name="uni6280" unicode="&#x6280;" d="M288 523 l0 -160 l123 51 q-3 -4 -17.5 -20.5 q-14.5 -16.5 -18 -20.5 q-3.5 -4 -15 -16.5 q-11.5 -12.5 -18 -18.5 q-6.5 -6 -17.5 -16 q-11 -10 -22 -19 l-15 -12 l0 -402 q-12 -26 -18 -36.5 q-6 -10.5 -19.5 -22 q-13.5 -11.5 -31.5 -13.5 q-13 -2 -20.5 8 q-7.5 10 -14.5 26 q-7 16 -16 23 q-16 13 -31 22 q-15 9 -35.5 20 q-20.5 11 -32.5 18 l129 0 l0 295 q-36 -23 -60 -40 q-4 -3 -9 -10.5 q-5 -7.5 -9.5 -11 q-4.5 -3.5 -8.5 0.5 q-47 39 -66 96 l153 62 l0 197 l-168 0 l0 50 l168 0 l0 218 q15 -7 38.5 -13.5 q23.5 -6.5 41 -14 q17.5 -7.5 31.5 -23.5 q5 -10 2.5 -15 q-2.5 -5 -11.5 -15.5 q-9 -10.5 -12 -17.5 l0 -119 l21 0 q22 31 46 40 q24 -9 62 -61 q6 -13 -2.5 -21 q-8.5 -8 -23.5 -8 l-103 0 ZM675 517 l0 -142 l90 0 q7 5 16 16.5 q9 11.5 17 17.5 q8 6 18 2 q43 -14 63 -75 q3 -8 -1 -13.5 q-4 -5.5 -12 -12.5 q-8 -7 -11 -13 q-10 -18 -33 -63.5 q-23 -45.5 -42 -74.5 q-5 -7 -14.5 -22.5 q-9.5 -15.5 -14 -22 q-4.5 -6.5 -12.5 -18 q-8 -11.5 -13.5 -19 q-5.5 -7.5 -13.5 -17 q-8 -9.5 -17 -18.5 l49 -36 q45 -32 120 -63 q18 -8 34.5 -12.5 q16.5 -4.5 37.5 -9 q21 -4.5 36 -8.5 l-78 -48 q-6 -4 -14 -12 q-8 -8 -15 -12 q-7 -4 -16 -3 q-20 3 -38 10.5 q-18 7.5 -27.5 14 q-9.5 6.5 -33.5 23.5 q-69 50 -115 98 q-74 -68 -152 -107 q-42 -21 -75.5 -27 q-33.5 -6 -92.5 -9 q20 13 56 35.5 q36 22.5 64 41.5 q28 19 57 43 q46 38 87 85 q-35 43 -69 107 q-43 80 -72 172 l-42 0 l0 50 l189 0 l0 142 l-162 0 l0 50 l162 0 l0 216 q15 -7 38.5 -13.5 q23.5 -6.5 41 -14 q17.5 -7.5 31.5 -23.5 q5 -10 2.5 -15 q-2.5 -5 -11.5 -15.5 q-9 -10.5 -12 -17.5 l0 -117 l153 0 q22 31 46 40 q24 -9 62 -61 q6 -13 -2.5 -21 q-8.5 -8 -23.5 -8 l-235 0 ZM628 102 q26 32 56 81 q14 24 25.5 46 q11.5 22 25.5 49.5 q14 27.5 24 46.5 l-265 0 q9 -18 28.5 -59.5 q19.5 -41.5 35.5 -69.5 q16 -28 39 -58 q15 -20 31 -36 Z" /><glyph glyph-name="uni6307" unicode="&#x6307;" d="M879 406 l-334 0 q-49 9 -57 48 l0 324 q15 -7 38.5 -13.5 q23.5 -6.5 41 -14 q17.5 -7.5 31.5 -23.5 q5 -10 2.5 -15 q-2.5 -5 -11.5 -15.5 q-9 -10.5 -12 -17.5 l0 -39 q72 23 102 36 q13 5 126 63 q9 -12 24.5 -27.5 q15.5 -15.5 25.5 -28.5 q10 -13 16 -31 q2 -6 -4 -7.5 q-6 -1.5 -14 -0.5 q-8 1 -15 -1 l-261 -61 l0 -60 q0 -15 11.5 -25 q11.5 -10 24.5 -11 l183 0 q5 5 12.5 10 q7.5 5 12 8 q4.5 3 10.5 8.5 q6 5.5 11 12.5 q10 13 17.5 26 q7.5 13 15.5 29.5 q8 16.5 15 28.5 q0 -5 -0.5 -58 q-0.5 -53 5.5 -58 q2 -10 17 -22 q15 -12 13 -23 q-4 -18 -18.5 -30.5 q-14.5 -12.5 -28.5 -11.5 ZM104 160 q-13 14 -20 30 q-7 16 -13 37 q-6 21 -12 35 q7 2 30 6.5 q23 4.5 39 8.5 l105 27 l0 199 l-171 0 l0 50 l171 0 l0 234 q15 -7 38.5 -13.5 q23.5 -6.5 41 -14 q17.5 -7.5 31.5 -23.5 q5 -10 2.5 -15 q-2.5 -5 -11.5 -15.5 q-9 -10.5 -12 -17.5 l0 -135 l48 0 q22 31 46 40 q24 -9 62 -61 q6 -13 -2.5 -21 q-8.5 -8 -23.5 -8 l-130 0 l0 -176 l135 34 l-135 -84 l0 -375 q-20 -64 -69 -69 q-19 -2 -37.5 23.5 q-18.5 25.5 -25.5 30.5 q-3 2 -87 54 l129 0 l0 283 q-15 -9 -30 -16.5 q-15 -7.5 -33.5 -16.5 q-18.5 -9 -32.5 -16 q-5 -2 -12.5 -9 q-7.5 -7 -11 -8.5 q-3.5 -1.5 -9.5 2.5 ZM590 269 q-9 -11 -12 -18 l0 -119 l195 0 l0 137 l-183 0 ZM574 319 l199 0 q5 4 12.5 14.5 q7.5 10.5 14 15.5 q6.5 5 15.5 3 q42 -12 69 -63 q3 -6 0 -10.5 q-3 -4.5 -10.5 -10 q-7.5 -5.5 -10.5 -9.5 l0 -349 q-5 -19 -8.5 -27.5 q-3.5 -8.5 -12.5 -17 q-9 -8.5 -24 -9.5 q-22 2 -36 31 l-209 0 q-6 -17 -14.5 -26 q-8.5 -9 -25.5 -11 q-27 2 -45 54 l0 446 q15 -7 44 -15 q29 -8 42 -16 ZM578 82 l0 -145 l195 0 l0 145 l-195 0 Z" /><glyph glyph-name="uni63A8" unicode="&#x63a8;" d="M474 756 q73 -24 102 -60 q3 -9 1 -13.5 q-2 -4.5 -10.5 -13.5 q-8.5 -9 -11.5 -15 q-19 -38 -48 -101 l0 -16 l138 0 l29 195 q80 -27 121 -60 q4 -3 -0.5 -5.5 q-4.5 -2.5 -13 -5.5 q-8.5 -3 -10.5 -7 q-16 -26 -61 -117 l145 0 q22 31 46 40 q24 -9 62 -61 q6 -13 -2.5 -21 q-8.5 -8 -23.5 -8 l-205 0 l0 -151 l90 0 q22 31 46 40 q24 -9 62 -61 q6 -13 -2.5 -21 q-8.5 -8 -23.5 -8 l-172 0 l0 -142 l69 0 q22 31 46 40 q24 -9 62 -61 q6 -13 -2.5 -21 q-8.5 -8 -23.5 -8 l-151 0 l0 -163 l114 0 q22 31 46 40 q24 -9 62 -61 q6 -13 -2.5 -21 q-8.5 -8 -23.5 -8 l-424 0 q-6 -20 -14.5 -30.5 q-8.5 -10.5 -27.5 -12.5 q-27 2 -45 54 l0 487 q-33 -53 -93 -109 l32 93 q-36 -49 -77 -88 l0 -359 q0 -44 -17 -63 q-17 -19 -55 -33 q-11 -4 -19 4 q-8 8 -16 24 q-8 16 -16 23 q-12 10 -23 18.5 q-11 8.5 -25 18.5 q-14 10 -24 17 l105 0 l0 279 q-65 -43 -87 -60 q-6 -5 -12 -17 q-6 -12 -11.5 -18 q-5.5 -6 -12.5 -1 q-16 11 -28.5 36 q-12.5 25 -17.5 44 l-5 19 q100 43 174 80 l0 203 l-165 0 l0 50 l165 0 l0 231 q79 -16 111 -51 q5 -10 2.5 -15 q-2.5 -5 -11.5 -15.5 q-9 -10.5 -12 -17.5 l0 -132 l21 0 q22 31 46 40 q24 -9 62 -61 q1 -2 2 -5 q29 78 40 119 q6 21 12 51.5 q6 30.5 9 51.5 l3 20 ZM279 490 l0 -156 q33 18 85 50 l29 84 l10 28 q-8 -6 -21 -6 l-103 0 ZM507 487 l0 -151 l135 0 l0 151 l-135 0 ZM507 286 l0 -142 l135 0 l0 142 l-135 0 ZM507 94 l0 -163 l135 0 l0 163 l-135 0 Z" /><glyph glyph-name="uni6539" unicode="&#x6539;" d="M79 664 l224 0 q5 4 12.5 14.5 q7.5 10.5 14 15.5 q6.5 5 15.5 3 q42 -12 69 -63 q3 -6 0 -10.5 q-3 -4.5 -10.5 -10 q-7.5 -5.5 -10.5 -9.5 l0 -216 q-5 -19 -8.5 -27.5 q-3.5 -8.5 -12.5 -17 q-9 -8.5 -24 -9.5 q-20 2 -33 25 l-118 0 q-10 -12 -13 -19 l0 -229 q0 -15 11.5 -25 q11.5 -10 24.5 -11 l122 0 q28 51 30 57 q6 16 10.5 31 q4.5 15 9 34 q4.5 19 8.5 32 q2 -17 7 -65 q5 -48 10 -77 q2 -12 20.5 -24.5 q18.5 -12.5 18.5 -23.5 q0 -16 -14.5 -27.5 q-14.5 -11.5 -32.5 -16.5 l-258 0 q-49 9 -57 48 l0 396 q15 -7 43 -15 q28 -8 41 -15 l125 0 l0 205 l-224 0 l0 50 ZM547 772 q14 -7 36 -15.5 q22 -8.5 38 -16.5 q16 -8 31 -22 q3 -6 0.5 -8.5 q-2.5 -2.5 -9.5 -8.5 q-7 -6 -9 -10 q-15 -32 -34.5 -79.5 q-19.5 -47.5 -24.5 -58.5 l263 0 q22 31 46 40 q24 -9 62 -61 q6 -13 -2.5 -21 q-8.5 -8 -23.5 -8 l-107 0 q-1 -10 -4 -35.5 q-3 -25.5 -4 -36 q-1 -10.5 -4 -32.5 q-3 -22 -5.5 -35.5 q-2.5 -13.5 -6.5 -33.5 q-4 -20 -9 -38.5 q-5 -18.5 -11 -38.5 q-21 -70 -55 -122 l12 -17 q46 -61 129 -126 q17 -13 33.5 -22.5 q16.5 -9.5 38.5 -19.5 q22 -10 36 -18 q-12 -5 -28 -11 q-16 -6 -29 -11 q-13 -5 -27 -11 q-9 -4 -22.5 -16 q-13.5 -12 -19.5 -15.5 q-6 -3.5 -20 2.5 q-18 15 -34.5 31 q-16.5 16 -27 28 q-10.5 12 -25 33 q-14.5 21 -20.5 30 q-6 9 -23 37 q-17 28 -23 38 q-33 -41 -63 -68.5 q-30 -27.5 -76 -57.5 q-41 -27 -75.5 -39.5 q-34.5 -12.5 -92.5 -26.5 q-46 -10 -78.5 -12.5 q-32.5 -2.5 -94.5 -1.5 q31 13 77 29 q46 16 81 31 q35 15 72 38 q65 39 102.5 70 q37.5 31 77.5 83 q13 17 24 33 q-19 36 -84 180 q-14 33 -33 92 q-18 -27 -50 -70 q-11 -14 -22 -25.5 q-11 -11.5 -25.5 -25.5 q-14.5 -14 -24.5 -24 q6 15 33 74.5 q27 59.5 42 99.5 q31 84 66 210 q7 26 15.5 65.5 q8.5 39.5 11.5 54.5 ZM552 503 l-8 -16 l-10 -18 q44 -101 69 -148 q52 -98 56 -106 q16 34 37 100 q8 26 13.5 51 q5.5 25 7.5 40.5 q2 15.5 5 46 q3 30.5 6 50.5 l-176 0 Z" /><glyph glyph-name="uni6578" unicode="&#x6578;" d="M612 795 q16 -4 40.5 -5.5 q24.5 -1.5 42.5 -6 q18 -4.5 34 -18.5 q7 -4 4.5 -11.5 q-2.5 -7.5 -7.5 -12.5 q-5 -5 -13 -13 q-8 -8 -11 -14 q-6 -18 -15.5 -42 q-9.5 -24 -16.5 -43.5 q-7 -19.5 -14 -40.5 l232 0 q23 36 48 45 q14 -2 22.5 -26.5 q8.5 -24.5 22.5 -39.5 q6 -13 -3 -21 q-9 -8 -24 -8 l-78 0 l-27 -121 q-9 -37 -20.5 -93.5 q-11.5 -56.5 -22 -99.5 q-10.5 -43 -26.5 -92 l-9 -27 q18 -30 45 -69 q11 -16 24.5 -29 q13.5 -13 23.5 -20.5 q10 -7.5 29.5 -20 q19.5 -12.5 30.5 -20.5 q12 -9 24 -15.5 q12 -6.5 27 -13.5 q15 -7 25 -13 q-8 -6 -19.5 -14 q-11.5 -8 -20.5 -15 q-9 -7 -18 -16 q-6 -6 -11 -20 q-5 -14 -10 -22 q-5 -8 -15 -6 q-13 2 -23.5 6 q-10.5 4 -20.5 12.5 q-10 8.5 -15 13.5 q-5 5 -17 18.5 q-12 13.5 -17 18.5 q-28 30 -63 99 l-19 38 q-12 -21 -29 -44 q-44 -62 -102 -93 q-46 -25 -126 -30 q18 14 44.5 32 q26.5 18 46.5 34.5 q20 16.5 38 38.5 q58 72 89 145 q-13 31 -26 68 q-28 81 -45 183 q-8 48 -10 87 q-13 -28 -41 -51 q-7 -6 -15 -10.5 q-8 -4.5 -13 -7 q-5 -2.5 -15 -6.5 q-10 -4 -15 -6 q9 -12 19 -30 q3 -6 0 -10.5 q-3 -4.5 -10.5 -10 q-7.5 -5.5 -10.5 -9.5 l0 -60 q-10 -35 -21 -45 q3 2 6 3 q7 -1 16.5 -7 q9.5 -6 21 -17 q11.5 -11 20.5 -20.5 q9 -9.5 22 -24 q13 -14.5 19 -21.5 q6 -13 -3 -21 q-9 -8 -24 -8 l-79 0 q-19 -30 -32 -49 q-8 -12 -20.5 -31.5 q-12.5 -19.5 -16.5 -26.5 q24 -15 46 -38 q28 -30 15 -63 q-12 -29 -48 -18 q-15 5 -30.5 24 q-15.5 19 -20.5 24 l-13 12 q-16 -14 -53 -30 q-77 -34 -123 -42 q-21 -4 -40 -4 q-19 0 -42.5 2 q-23.5 2 -40.5 2 q20 7 50.5 13.5 q30.5 6.5 53.5 14.5 q23 8 46 23 q49 32 89 71 q-12 9 -26 19 q-10 7 -38 18 q-15 -26 -37 -42 q-26 -19 -60 -6 q-12 4 -18.5 14.5 q-6.5 10.5 -2.5 21.5 q7 19 29.5 40 q22.5 21 30.5 32 l13 19 l-172 0 l0 50 l202 0 l20 36 q7 14 21 45 l-68 0 q-6 -23 -14.5 -34.5 q-8.5 -11.5 -28.5 -13.5 q-27 2 -45 54 l0 174 q15 -7 43 -15 q28 -8 41 -15 l66 0 l0 66 l-69 0 q-10 -25 -36 -27 q-27 2 -45 54 l0 88 l-114 0 l0 50 l114 0 l0 174 q13 -6 47.5 -16 q34.5 -10 50.5 -23 l52 0 l0 75 q15 -7 38.5 -13.5 q23.5 -6.5 41 -14 q17.5 -7.5 31.5 -23.5 q9 -9 -3 -24 l33 0 q5 4 12.5 14.5 q7.5 10.5 14 15.5 q6.5 5 15.5 3 q42 -12 69 -63 q3 -6 0 -10.5 q-3 -4.5 -10.5 -10 q-7.5 -5.5 -10.5 -9.5 l0 -42 q24 31 39 36 q18 -3 57 -44 l9 50 q12 69 12 132 ZM204 538 l0 -65 l60 0 l0 65 l-60 0 ZM204 588 l60 0 l0 85 l-54 0 q-4 -5 -6 -10 l0 -75 ZM405 538 l-51 0 l0 -65 l51 0 l0 65 ZM405 588 l0 85 l-51 0 l0 -85 l51 0 ZM495 538 l0 -82 q-5 -19 -8.5 -27.5 q-3.5 -8.5 -12.5 -17 q-9 -8.5 -24 -9.5 q-18 2 -30 21 l-66 0 l0 -66 l66 0 q5 4 12.5 14.5 q7.5 10.5 14 15.5 q6.5 5 15.5 3 q27 -8 45 -27 q5 10 16.5 32 q11.5 22 18.5 37.5 q7 15.5 13 35.5 q12 38 20 70 l-80 0 ZM217 307 q-10 -12 -13 -19 l0 -31 l60 0 l0 50 l-47 0 ZM433 207 l-80 0 q-8 -29 -14 -42 l-20 -39 l113 0 q12 12 27 33.5 q15 21.5 24 28.5 q-8 -4 -18 -5 q-19 2 -32 24 ZM420 257 l0 50 l-66 0 l0 -50 l66 0 ZM400 76 l-108 0 l-25 -40 l-4 -7 q65 -17 86 -25 l29 32 q12 14 22 40 ZM641 538 l0 -1 q4 -23 10.5 -76.5 q6.5 -53.5 14 -90.5 q7.5 -37 21.5 -79 q20 -58 39 -100 q8 25 14 47 q6 22 12.5 50 q6.5 28 9.5 42.5 q3 14.5 10.5 54 q7.5 39.5 10.5 53.5 q5 27 8 100 l-150 0 Z" /><glyph glyph-name="uni6587" unicode="&#x6587;" d="M525 582 l240 0 q11 10 30 37 q19 27 33 32 q7 -1 16.5 -7 q9.5 -6 21 -17 q11.5 -11 20.5 -20.5 q9 -9.5 22 -24 q13 -14.5 19 -21.5 q6 -13 -3 -21 q-9 -8 -24 -8 l-164 0 q-6 -49 -13 -76 q-2 -7 -6.5 -24 q-4.5 -17 -6 -23.5 q-1.5 -6.5 -5.5 -20 q-4 -13.5 -6.5 -21 q-2.5 -7.5 -7 -19 q-4.5 -11.5 -9 -22.5 q-4.5 -11 -10.5 -23 q-49 -100 -97 -166 l7 -8 q43 -50 123 -102 q41 -27 114 -54 q24 -9 59.5 -18.5 q35.5 -9.5 58.5 -14.5 l23 -6 q-49 -17 -78 -33 q-8 -4 -26 -24 q-18 -20 -34 -18 q-14 2 -27.5 5.5 q-13.5 3.5 -22.5 7 q-9 3.5 -23 11.5 q-14 8 -20 11.5 q-6 3.5 -22.5 15 q-16.5 11.5 -22.5 15.5 q-51 35 -79 58 q-28 23 -59 62 l-22 28 q-38 -43 -113 -103 q-61 -48 -150 -93 q-45 -22 -105 -35 q-46 -10 -117 -13 q137 56 189 89 q63 40 97.5 67 q34.5 27 76.5 72 q42 46 71 87 q-34 52 -74 135 q-43 89 -90 253 l-231 0 l0 50 l357 0 l0 183 q79 -16 111 -51 q5 -10 2.5 -15 q-2.5 -5 -11.5 -15.5 q-9 -10.5 -12 -17.5 l0 -84 ZM632 532 l-284 0 q64 -140 108 -217 q43 -74 62 -103 l37 64 q10 18 17.5 34.5 q7.5 16.5 14.5 35.5 q7 19 10 29.5 q3 10.5 10.5 37 q7.5 26.5 10.5 37.5 q9 29 14 82 Z" /><glyph glyph-name="uni65BC" unicode="&#x65bc;" d="M342 75 l0 238 l-56 0 q-1 -46 -7 -79 q-17 -95 -42 -156 q-21 -51 -72 -123 q-36 -51 -72 -78 q-11 -8 -22 -12.5 q-11 -4.5 -25.5 -9 q-14.5 -4.5 -24.5 -8.5 q10 17 23.5 38.5 q13.5 21.5 24 39.5 q10.5 18 21.5 39 q19 37 45 99 q5 11 13 30.5 q8 19.5 12.5 29.5 q4.5 10 10 26.5 q5.5 16.5 9.5 33.5 q5 22 8 42 q3 20 5.5 45 q2.5 25 4.5 42 l0 211 l-159 0 l0 50 l165 0 l0 180 q15 -7 38.5 -13.5 q23.5 -6.5 41 -14 q17.5 -7.5 31.5 -23.5 q5 -10 2.5 -15 q-2.5 -5 -11.5 -15.5 q-9 -10.5 -12 -17.5 l0 -81 l78 0 q23 36 48 45 q14 -2 22.5 -26.5 q8.5 -24.5 22.5 -39.5 q6 -13 -3 -21 q-9 -8 -24 -8 l-150 0 l0 -148 q0 -6 -1 -12 l55 0 q5 4 12.5 14.5 q7.5 10.5 14 15.5 q6.5 5 15.5 3 q39 -11 63 -52 q46 88 60 118 q37 80 60 141 q7 18 60 180 q13 -8 33 -16.5 q20 -8.5 35 -17 q15 -8.5 28 -23.5 q7 -7 -6 -22 q-2 -4 -4 -5 q7 -11 18 -30 q11 -19 18 -30 q7 -11 18 -27.5 q11 -16.5 23 -32.5 q41 -56 99 -108 q23 -21 62 -47 q39 -26 49 -34 q-9 -4 -21.5 -9 q-12.5 -5 -22 -9.5 q-9.5 -4.5 -19.5 -11.5 q-6 -5 -15.5 -23 q-9.5 -18 -20.5 -16 q-12 2 -22.5 8.5 q-10.5 6.5 -15.5 11 q-5 4.5 -16 19 q-11 14.5 -15 18.5 q-49 58 -84 123 q-21 40 -62 140 q-34 -78 -59 -122 q-25 -45 -66 -93 q-33 -40 -75 -72 q-9 -7 -35 -17 l2 -4 q3 -6 0 -10.5 q-3 -4.5 -10.5 -10 q-7.5 -5.5 -10.5 -9.5 l0 -303 q-7 -13 -15 -32 q-8 -19 -16 -34 q-8 -15 -20 -30 q-2 -2 -8 -10 q-6 -8 -8 -10.5 q-2 -2.5 -8 -8.5 q-6 -6 -9.5 -8 q-3.5 -2 -9 -5.5 q-5.5 -3.5 -11 -4.5 q-5.5 -1 -12.5 -1 q-14 0 -24 21.5 q-10 21.5 -15 26.5 q-10 11 -28 25.5 q-18 14.5 -23 19.5 l72 0 q25 45 27 51 q4 12 7 24 q3 12 6 26.5 q3 14.5 5 24.5 ZM603 381 q14 -7 34 -15 q20 -8 35 -16 q15 -8 30 -20 q6 -5 21 -16 q15 -11 21 -16.5 q6 -5.5 16 -15.5 q10 -10 16 -20.5 q6 -10.5 10 -24.5 q7 -20 -3 -39 q-10 -19 -30 -27 q-26 -10 -60 30 q-13 15 -22.5 42.5 q-9.5 27.5 -13.5 35.5 q-12 23 -30 56.5 q-18 33.5 -24 45.5 ZM510 87 q11 -2 52.5 -10 q41.5 -8 67.5 -17 q17 -6 51 -17 q34 -11 50 -17 q16 -6 41.5 -18.5 q25.5 -12.5 49.5 -28.5 q48 -34 48 -81 q0 -19 -14 -32 q-14 -13 -34 -16 q-9 -1 -18.5 2 q-9.5 3 -15 7 q-5.5 4 -15 12 q-9.5 8 -14.5 12 q-17 13 -38.5 34.5 q-21.5 21.5 -33.5 31.5 q-20 16 -50.5 38 q-30.5 22 -45.5 34 l-81 66 Z" /><glyph glyph-name="uni65E5" unicode="&#x65e5;" d="M331 657 q-7 -9 -10 -15 l0 -279 l402 0 l0 294 l-392 0 ZM321 707 l402 0 q5 4 12.5 14.5 q7.5 10.5 14 15.5 q6.5 5 15.5 3 q42 -12 69 -63 q3 -6 0 -10.5 q-3 -4.5 -10.5 -10 q-7.5 -5.5 -10.5 -9.5 l0 -726 q-5 -19 -8.5 -27.5 q-3.5 -8.5 -12.5 -17 q-9 -8.5 -24 -9.5 q-27 2 -45 54 l0 18 l-402 0 l0 -15 q-5 -19 -8.5 -27.5 q-3.5 -8.5 -12.5 -17 q-9 -8.5 -24 -9.5 q-27 2 -45 54 l0 817 q53 -11 90 -34 ZM321 313 l0 -324 l402 0 l0 324 l-402 0 Z" /><glyph glyph-name="uni6642" unicode="&#x6642;" d="M178 601 q-10 -12 -13 -19 l0 -202 l123 0 l0 221 l-110 0 ZM158 651 l130 0 q5 4 12.5 14.5 q7.5 10.5 14 15.5 q6.5 5 15.5 3 q42 -12 69 -63 q3 -6 0 -10.5 q-3 -4.5 -10.5 -10 q-7.5 -5.5 -10.5 -9.5 l0 -555 q-5 -19 -8.5 -27.5 q-3.5 -8.5 -12.5 -17 q-9 -8.5 -24 -9.5 q-27 2 -45 54 l0 17 l-123 0 l0 -56 q-5 -19 -8.5 -27.5 q-3.5 -8.5 -12.5 -17 q-9 -8.5 -24 -9.5 q-27 2 -45 54 l0 684 q47 -10 83 -30 ZM165 330 l0 -227 l123 0 l0 227 l-123 0 ZM687 567 l0 -135 l129 0 q11 10 30 37 q19 27 33 32 q7 -1 16.5 -7 q9.5 -6 21 -17 q11.5 -11 20.5 -20.5 q9 -9.5 22 -24 q13 -14.5 19 -21.5 q6 -13 -3 -21 q-9 -8 -24 -8 l-147 0 l0 -121 q8 8 27 34.5 q19 26.5 33 31.5 q7 -1 16.5 -7 q9.5 -6 21 -17 q11.5 -11 20.5 -20.5 q9 -9.5 22 -24 q13 -14.5 19 -21.5 q6 -13 -3 -21 q-9 -8 -24 -8 l-132 0 l0 -244 q2 -44 -30 -93 q-27 -39 -57 -36 q-12 2 -19.5 22 q-7.5 20 -16.5 26 q-19 12 -37.5 20.5 q-18.5 8.5 -42.5 17.5 q-24 9 -40 16 l123 0 q30 0 30 63 l0 208 l-243 0 q48 -11 72.5 -22.5 q24.5 -11.5 53.5 -38.5 q42 -40 24 -90 q-7 -18 -26.5 -24.5 q-19.5 -6.5 -36.5 3.5 q-15 8 -22.5 21 q-7.5 13 -13.5 32.5 q-6 19.5 -12 30.5 l-47 88 l-61 0 l0 50 l312 0 l0 124 l-333 0 l0 50 l216 0 l0 135 l-183 0 l0 50 l183 0 l0 160 q79 -16 111 -51 q5 -10 2.5 -15 q-2.5 -5 -11.5 -15.5 q-9 -10.5 -12 -17.5 l0 -61 l99 0 q22 31 46 40 q24 -9 62 -61 q6 -13 -2.5 -21 q-8.5 -8 -23.5 -8 l-181 0 Z" /><glyph glyph-name="uni66F4" unicode="&#x66f4;" d="M108 711 l663 0 q11 10 30 37 q19 27 33 32 q7 -1 16.5 -7 q9.5 -6 21 -17 q11.5 -11 20.5 -20.5 q9 -9.5 22 -24 q13 -14.5 19 -21.5 q6 -13 -3 -21 q-9 -8 -24 -8 l-355 0 l0 -85 l175 0 q5 4 12.5 14.5 q7.5 10.5 14 15.5 q6.5 5 15.5 3 q42 -12 69 -63 q3 -6 0 -10.5 q-3 -4.5 -10.5 -10 q-7.5 -5.5 -10.5 -9.5 l0 -291 q-5 -19 -8.5 -27.5 q-3.5 -8.5 -12.5 -17 q-9 -8.5 -24 -9.5 q-24 2 -39 38 l-186 0 q-1 -5 -5 -17 q-4 -12 -6 -17.5 q-2 -5.5 -6.5 -15 q-4.5 -9.5 -9.5 -18.5 q-17 -28 -29 -45 l5 -3 q73 -43 102 -54 q92 -35 207 -63 q27 -6 50.5 -10 q23.5 -4 54.5 -7.5 q31 -3.5 51 -6.5 q-14 -7 -34.5 -17 q-20.5 -10 -37 -18 q-16.5 -8 -33.5 -19 q-7 -4 -19.5 -19 q-12.5 -15 -25.5 -17 q-7 -3 -19.5 -0.5 q-12.5 2.5 -17 4 q-4.5 1.5 -16.5 7 q-12 5.5 -19 7.5 q-39 14 -81 36 q-10 5 -33 16.5 q-23 11.5 -32.5 16.5 q-9.5 5 -27 15 q-17.5 10 -33.5 21 q-51 34 -81 59 q-11 -12 -24 -26 q-40 -41 -93 -69 q-63 -33 -144 -54 q-21 -5 -40.5 -7.5 q-19.5 -2.5 -44 -4 q-24.5 -1.5 -41.5 -3.5 q11 5 45 19 q34 14 57 26 q56 29 87 51 q34 25 82.5 64.5 q48.5 39.5 61.5 49.5 l-15 15 q-14 13 -27 28 q-13 15 -20 23.5 q-7 8.5 -21 26.5 q-14 18 -20 26 l-8 0 q-11 -24 -36 -26 q-27 2 -45 54 l0 378 q13 -6 47.5 -16 q34.5 -10 50.5 -23 l159 0 l0 85 l-353 0 l0 50 ZM300 526 q-4 -5 -6 -10 l0 -86 l167 0 l0 96 l-161 0 ZM294 380 l0 -121 l167 0 l0 121 l-167 0 ZM726 380 l-175 0 l0 -121 l175 0 l0 121 ZM726 430 l0 96 l-175 0 l0 -96 l175 0 ZM456 209 l-141 0 l102 -62 l13 -9 q16 29 26 71 Z" /><glyph glyph-name="uni66F8" unicode="&#x66f8;" d="M711 532 l-174 0 l0 -47 l174 0 l0 47 ZM801 532 l0 -55 q-10 -36 -22 -45 q9 -3 23 -14 q14 -11 23.5 -21 q9.5 -10 27.5 -29.5 q18 -19.5 23 -25.5 q6 -13 -3 -21 q-9 -8 -24 -8 l-312 0 l0 -58 l282 0 q11 10 30 37 q19 27 33 32 q7 -1 16.5 -7 q9.5 -6 21 -17 q11.5 -11 20.5 -20.5 q9 -9.5 22 -24 q13 -14.5 19 -21.5 q6 -13 -3 -21 q-9 -8 -24 -8 l-918 0 l0 50 l411 0 l0 58 l-336 0 l0 50 l336 0 l0 72 l-294 0 l0 50 l294 0 l0 47 l-408 0 l0 50 l408 0 l0 67 l-294 0 l0 50 l294 0 l0 99 q79 -16 111 -51 q5 -10 2.5 -15 q-2.5 -5 -11.5 -15.5 q-9 -10.5 -12 -17.5 l174 0 q5 4 12.5 14.5 q7.5 10.5 14 15.5 q6.5 5 15.5 3 q42 -12 69 -63 q3 -6 0 -10.5 q-3 -4.5 -10.5 -10 q-7.5 -5.5 -10.5 -9.5 l0 -57 l9 0 q11 10 30 37 q19 27 33 32 q7 -1 16.5 -7 q9.5 -6 21 -17 q11.5 -11 20.5 -20.5 q9 -9.5 22 -24 q13 -14.5 19 -21.5 q6 -13 -3 -21 q-9 -8 -24 -8 l-144 0 ZM711 582 l0 67 l-174 0 l0 -67 l174 0 ZM732 435 l-195 0 l0 -72 l177 0 q12 12 27 33.5 q15 21.5 23 27.5 q-4 -1 -8 -1 q-14 1 -24 12 ZM283 103 q-2 -2 -6.5 -7.5 q-4.5 -5.5 -7.5 -10 q-3 -4.5 -5 -8.5 l0 -40 l462 0 l0 66 l-443 0 ZM244 153 l482 0 q5 4 12.5 14.5 q7.5 10.5 14 15.5 q6.5 5 15.5 3 q42 -12 69 -63 q3 -6 0 -10.5 q-3 -4.5 -10.5 -10 q-7.5 -5.5 -10.5 -9.5 l0 -219 q-5 -19 -8.5 -27.5 q-3.5 -8.5 -12.5 -17 q-9 -8.5 -24 -9.5 q-27 2 -45 54 l0 6 l-462 0 l0 -6 q-5 -19 -8.5 -27.5 q-3.5 -8.5 -12.5 -17 q-9 -8.5 -24 -9.5 q-27 2 -45 54 l0 302 q36 -7 70 -23 ZM264 -13 l0 -57 l462 0 l0 57 l-462 0 Z" /><glyph glyph-name="uni6708" unicode="&#x6708;" d="M294 273 l0 504 q15 -7 41 -14.5 q26 -7.5 37 -12.5 l333 0 q5 4 12.5 14.5 q7.5 10.5 14 15.5 q6.5 5 15.5 3 q42 -12 69 -63 q3 -6 0 -10.5 q-3 -4.5 -10.5 -10 q-7.5 -5.5 -10.5 -9.5 l0 -720 q-8 -50 -45 -87 q-42 -41 -81 -36 q-14 2 -22.5 23.5 q-8.5 21.5 -16.5 27.5 q-16 13 -31.5 22 q-15.5 9 -36.5 19.5 q-21 10.5 -34 18.5 l129 0 q41 17 48 42 l0 247 l-322 0 q-6 -118 -41 -193 q-2 -4 -8.5 -18 q-6.5 -14 -8.5 -18 q-2 -4 -8 -15 q-6 -11 -8.5 -16 q-2.5 -5 -8.5 -14 q-6 -9 -10.5 -15 q-4.5 -6 -11.5 -14 q-7 -8 -14 -16 q-31 -32 -56 -49.5 q-25 -17.5 -70 -37.5 q9 14 23.5 36 q14.5 22 25 39.5 q10.5 17.5 20.5 38.5 q49 100 66 159 q15 53 21 159 ZM400 700 q-13 -16 -16 -22 l0 -158 l321 0 l0 180 l-305 0 ZM384 470 l0 -173 l321 0 l0 173 l-321 0 Z" /><glyph glyph-name="uni671F" unicode="&#x671f;" d="M253 563 l0 -109 l135 0 l0 109 l-135 0 ZM253 613 l135 0 l0 162 q15 -7 38.5 -13.5 q23.5 -6.5 41 -14 q17.5 -7.5 31.5 -23.5 q5 -10 2.5 -15 q-2.5 -5 -11.5 -15.5 q-9 -10.5 -12 -17.5 l0 -54 q36 52 57 60 q10 -2 25.5 -14.5 q15.5 -12.5 25.5 -23 q10 -10.5 30 -32.5 l0 129 q15 -7 45 -15.5 q30 -8.5 44 -17.5 l145 0 q5 4 12.5 14.5 q7.5 10.5 14 15.5 q6.5 5 15.5 3 q42 -12 69 -63 q3 -6 0 -10.5 q-3 -4.5 -10.5 -10 q-7.5 -5.5 -10.5 -9.5 l0 -723 q-1 -23 -23 -54.5 q-22 -31.5 -53 -41.5 q-12 -4 -21 4.5 q-9 8.5 -18 24.5 q-9 16 -18 22 q-4 3 -95 57 l110 0 q19 0 23.5 7.5 q4.5 7.5 4.5 25.5 l0 224 l-144 0 l0 -74 q0 -109 -64 -201 q-20 -29 -45 -49 q-25 -20 -74 -47 q46 90 75 183 q10 32 15 65 q-3 0 -6 0 l-223 0 q47 -21 83 -49 q36 -29 75 -91 q14 -22 -4.5 -52 q-18.5 -30 -42.5 -23 q-23 7 -36 23 q-13 16 -24.5 45 q-11.5 29 -20.5 43 q-11 18 -20 33.5 q-9 15.5 -19.5 37.5 q-10.5 22 -16.5 33 l-131 0 q67 -37 91 -73 q4 -6 -0.5 -9.5 q-4.5 -3.5 -15 -7.5 q-10.5 -4 -14.5 -7 q-16 -12 -43 -32.5 q-27 -20.5 -47 -35 q-20 -14.5 -45 -28.5 q-49 -28 -119 -48 q55 53 107 120 q33 44 81 121 l-206 0 l0 50 l147 0 l0 442 l-147 0 l0 50 l147 0 l0 165 q15 -7 38.5 -13.5 q23.5 -6.5 41 -14 q17.5 -7.5 31.5 -23.5 q5 -10 2.5 -15 q-2.5 -5 -11.5 -15.5 q-9 -10.5 -12 -17.5 l0 -66 ZM478 563 l0 -433 q36 52 57 60 q10 -2 25.5 -14.5 q15.5 -12.5 25.5 -23 q10 -10.5 30 -32.5 l0 444 q-4 -1 -9 -1 l-129 0 ZM253 121 l135 0 l0 118 l-135 0 l0 -118 ZM253 404 l0 -115 l135 0 l0 115 l-135 0 ZM717 658 q-8 -9 -11 -16 l0 -183 l144 0 l0 199 l-133 0 ZM706 409 l0 -165 l144 0 l0 165 l-144 0 Z" /><glyph glyph-name="uni672A" unicode="&#x672a;" d="M447 789 q15 -7 38.5 -13.5 q23.5 -6.5 41 -14 q17.5 -7.5 31.5 -23.5 q5 -10 2.5 -15 q-2.5 -5 -11.5 -15.5 q-9 -10.5 -12 -17.5 l0 -144 l165 0 q11 10 30 37 q19 27 33 32 q7 -1 16.5 -7 q9.5 -6 21 -17 q11.5 -11 20.5 -20.5 q9 -9.5 22 -24 q13 -14.5 19 -21.5 q6 -13 -3 -21 q-9 -8 -24 -8 l-300 0 l0 -148 l261 0 q11 10 30 37 q19 27 33 32 q7 -1 16.5 -7 q9.5 -6 21 -17 q11.5 -11 20.5 -20.5 q9 -9.5 22 -24 q13 -14.5 19 -21.5 q6 -13 -3 -21 q-9 -8 -24 -8 l-329 0 q26 -51 44 -73 q54 -68 135 -141 q46 -42 96 -69 q17 -9 32.5 -15 q15.5 -6 35.5 -12.5 q20 -6.5 34 -11.5 q-14 -6 -33.5 -13.5 q-19.5 -7.5 -35.5 -13.5 q-16 -6 -33 -15 q-7 -4 -23.5 -22 q-16.5 -18 -30.5 -14 q-10 3 -19 7 q-9 4 -17.5 10 q-8.5 6 -13.5 9.5 q-5 3.5 -14 13 q-9 9.5 -11.5 12.5 q-2.5 3 -13 16 q-10.5 13 -13.5 16 q-69 82 -162 231 q-13 21 -24 45 l0 -396 q-5 -19 -8.5 -27.5 q-3.5 -8.5 -12.5 -17 q-9 -8.5 -24 -9.5 q-27 2 -45 54 l0 348 q-19 -32 -37 -54 q-4 -5 -20 -25 q-16 -20 -19.5 -24.5 q-3.5 -4.5 -16.5 -20 q-13 -15.5 -19 -22.5 q-6 -7 -17.5 -19.5 q-11.5 -12.5 -22 -22.5 q-10.5 -10 -23.5 -22 q-7 -7 -14.5 -13.5 q-7.5 -6.5 -13 -11 q-5.5 -4.5 -14 -11 q-8.5 -6.5 -12.5 -9.5 q-4 -3 -14 -10 q-10 -7 -12.5 -9 q-2.5 -2 -14.5 -9.5 q-12 -7.5 -14 -8.5 q-2 -1 -16 -10 q-14 -9 -16 -10 q-14 -9 -26.5 -15 q-12.5 -6 -29.5 -12.5 q-17 -6.5 -28 -11.5 q19 19 46 45.5 q27 26.5 48.5 48 q21.5 21.5 43.5 47.5 q67 78 132 171 q20 28 77 127 l-322 0 l0 50 l375 0 l0 148 l-303 0 l0 50 l303 0 l0 243 Z" /><glyph glyph-name="uni6821" unicode="&#x6821;" d="M203 787 q15 -7 38.5 -13.5 q23.5 -6.5 41 -14 q17.5 -7.5 31.5 -23.5 q5 -10 2.5 -15 q-2.5 -5 -11.5 -15.5 q-9 -10.5 -12 -17.5 l0 -84 l37 0 q22 31 46 40 q20 -8 52 -48 l0 38 l192 0 l0 153 q15 -7 38.5 -13.5 q23.5 -6.5 41 -14 q17.5 -7.5 31.5 -23.5 q5 -10 2.5 -15 q-2.5 -5 -11.5 -15.5 q-9 -10.5 -12 -17.5 l0 -54 l133 0 q22 31 46 40 q24 -9 62 -61 q6 -13 -2.5 -21 q-8.5 -8 -23.5 -8 l-488 0 l1 -1 q6 -13 -2.5 -21 q-8.5 -8 -23.5 -8 l-119 0 l0 -81 q37 -24 54 -43 q43 -47 54 -87 q12 -39 -12 -60 q-21 -19 -48 6 q-15 14 -25.5 42.5 q-10.5 28.5 -16.5 38.5 q-3 5 -6 9 l0 -498 q-5 -19 -8.5 -27.5 q-3.5 -8.5 -12.5 -17 q-9 -8.5 -24 -9.5 q-27 2 -45 54 l0 441 q-14 -20 -30 -36 q-9 -9 -30.5 -29.5 q-21.5 -20.5 -29.5 -27.5 q-8 -7 -24.5 -19.5 q-16.5 -12.5 -32 -21 q-15.5 -8.5 -36.5 -16.5 q17 30 45.5 76.5 q28.5 46.5 49.5 82.5 q21 36 43 78 q18 34 45 99 l0 46 l-156 0 l0 50 l156 0 l0 183 ZM518 547 q12 -9 30.5 -19 q18.5 -10 32 -19.5 q13.5 -9.5 24.5 -24.5 q3 -8 1 -11 q-2 -3 -9.5 -10 q-7.5 -7 -9.5 -12 q-12 -17 -27.5 -42 q-15.5 -25 -29.5 -44 q-14 -19 -31 -38 l79 -83 q27 -30 61 -75 l8 12 q16 24 30.5 50.5 q14.5 26.5 22 42.5 q7.5 16 21 49 q13.5 33 19.5 47 q12 -10 31.5 -21.5 q19.5 -11.5 33 -23 q13.5 -11.5 25.5 -27.5 q3 -4 -0.5 -7.5 q-3.5 -3.5 -12 -7 q-8.5 -3.5 -11.5 -6.5 q-12 -22 -27 -53 q-15 -31 -29 -55.5 q-14 -24.5 -33 -48.5 l-19 -25 q27 -31 60 -58 q30 -25 60.5 -41 q30.5 -16 70.5 -33 q40 -17 67 -31 l-72 -33 q-10 -4 -24 -15 q-14 -11 -25.5 -16 q-11.5 -5 -25.5 -2 q-15 3 -27.5 10.5 q-12.5 7.5 -18 12.5 q-5.5 5 -20 22 q-14.5 17 -18.5 21 q-42 46 -80 98 q-43 -49 -100 -86 q-103 -67 -222 -81 q17 12 42.5 28 q25.5 16 45 29.5 q19.5 13.5 38.5 32.5 q94 92 143 154 q-36 52 -65 107 q-19 37 -43 98 q-27 -27 -49.5 -43.5 q-22.5 -16.5 -60.5 -36.5 q101 202 117 237 q7 17 15 42.5 q8 25.5 12 35.5 ZM690 555 q17 -8 41 -17 q24 -9 42.5 -17.5 q18.5 -8.5 38.5 -21.5 q51 -33 78 -72 q29 -42 27 -81 q-1 -17 -10 -30 q-9 -13 -23 -12 q-13 1 -21 7.5 q-8 6.5 -19 23 q-11 16.5 -14 20.5 q-20 25 -45 64.5 q-25 39.5 -36 55.5 q-10 14 -19 26.5 q-9 12.5 -20.5 27.5 q-11.5 15 -19.5 26 Z" /><glyph glyph-name="uni6B0A" unicode="&#x6b0a;" d="M177 771 q15 -7 38.5 -13.5 q23.5 -6.5 41 -14 q17.5 -7.5 31.5 -23.5 q5 -10 2.5 -15 q-2.5 -5 -11.5 -15.5 q-9 -10.5 -12 -17.5 l0 -147 l9 0 q22 31 46 40 q20 -7 50 -45 l0 47 q15 -7 41 -14.5 q26 -7.5 37 -12.5 l78 0 q5 4 16 19 q-7 -3 -16 -4 q-27 2 -45 54 l0 1 l-159 0 l0 50 l159 0 l0 117 q15 -7 38.5 -13.5 q23.5 -6.5 41 -14 q17.5 -7.5 31.5 -23.5 q5 -10 2.5 -15 q-2.5 -5 -11.5 -15.5 q-9 -10.5 -12 -17.5 l0 -18 l87 0 l0 126 q15 -7 38.5 -13.5 q23.5 -6.5 41 -14 q17.5 -7.5 31.5 -23.5 q5 -10 2.5 -15 q-2.5 -5 -11.5 -15.5 q-9 -10.5 -12 -17.5 l0 -27 l63 0 q11 10 30 37 q19 27 33 32 q7 -1 16.5 -7 q9.5 -6 21 -17 q11.5 -11 20.5 -20.5 q9 -9.5 22 -24 q13 -14.5 19 -21.5 q6 -13 -3 -21 q-9 -8 -24 -8 l-199 0 q-4 -17 -7.5 -26 q-3.5 -9 -13 -17 q-9.5 -8 -23.5 -9 q-16 1 -26 14.5 q-10 13.5 -18 37.5 l-88 0 l0 -1 q-7 -27 -14 -36 q5 1 11 0 q23 -7 38 -20.5 q15 -13.5 28 -37.5 l0 46 q15 -7 39 -14 q24 -7 32 -10 l97 0 q5 4 12.5 14.5 q7.5 10.5 14 15.5 q6.5 5 15.5 3 q42 -12 69 -63 q3 -6 0 -10.5 q-3 -4.5 -10.5 -10 q-7.5 -5.5 -10.5 -9.5 l0 -93 q-5 -19 -8.5 -27.5 q-3.5 -8.5 -12.5 -17 q-9 -8.5 -24 -9.5 q-19 2 -31 23 l-103 0 q-3 -7 -8 -12 q43 -4 67 -20 q4 -6 1.5 -9.5 q-2.5 -3.5 -12.5 -11 q-10 -7.5 -13 -12.5 l-16 -39 l82 0 q22 31 46 40 q24 -9 62 -61 q6 -13 -2.5 -21 q-8.5 -8 -23.5 -8 l-166 0 l0 -58 l45 0 q22 31 46 40 q24 -9 62 -61 q6 -13 -2.5 -21 q-8.5 -8 -23.5 -8 l-127 0 l0 -64 l60 0 q22 31 46 40 q24 -9 62 -61 q6 -13 -2.5 -21 q-8.5 -8 -23.5 -8 l-142 0 l0 -76 l102 0 q22 31 46 40 q24 -9 62 -61 q6 -13 -2.5 -21 q-8.5 -8 -23.5 -8 l-383 0 q-7 -24 -15.5 -35.5 q-8.5 -11.5 -28.5 -13.5 q-27 2 -45 54 l0 291 q-14 -12 -30 -24 q-16 -12 -31.5 -20.5 q-15.5 -8.5 -36 -17.5 q-20.5 -9 -34.5 -16 q84 105 90 114 q21 29 54 87 q11 18 25 46 q14 28 20 38 q11 -5 29 -11 q18 -6 31 -12.5 q13 -6.5 24 -18.5 q3 -7 1.5 -10 q-1.5 -3 -8 -10.5 q-6.5 -7.5 -8.5 -12.5 l-26 -30 l108 0 l10 89 q-13 11 -26 46 l0 112 q-1 -1 -8 -6.5 q-7 -5.5 -10 -9.5 l0 -87 q-5 -19 -8.5 -27.5 q-3.5 -8.5 -12.5 -17 q-9 -8.5 -24 -9.5 q-19 2 -31 23 l-92 0 q-11 -18 -33 -20 q-27 2 -45 54 l0 81 q-6 -2 -14 -2 l-91 0 l0 -74 q29 -10 48 -23 q39 -27 50 -42 q6 -9 10 -21 q14 -39 -15 -66 q-20 -20 -51 3 q-10 8 -15.5 28 q-5.5 20 -11.5 29 q-7 9 -15 17 l0 -461 q-5 -19 -8.5 -27.5 q-3.5 -8.5 -12.5 -17 q-9 -8.5 -24 -9.5 q-27 2 -45 54 l0 340 l-9 -13 q-53 -74 -87 -105 q-10 -9 -20.5 -15 q-10.5 -6 -25 -12.5 q-14.5 -6.5 -23.5 -11.5 l72 144 q35 78 69 168 q12 31 24 69 l0 46 l-138 0 l0 50 l138 0 l0 246 ZM478 490 q-13 -16 -16 -22 l0 -56 l66 0 l0 78 l-50 0 ZM744 487 q-16 -21 -18 -25 l0 -59 l78 0 l0 84 l-60 0 ZM534 -99 l108 0 l0 76 l-108 0 l0 -76 ZM534 27 l108 0 l0 64 l-108 0 l0 -64 ZM534 141 l108 0 l0 58 l-108 0 l0 -58 Z" /><glyph glyph-name="uni6B63" unicode="&#x6b63;" d="M105 675 l625 0 q11 10 30 37 q19 27 33 32 q7 -1 16.5 -7 q9.5 -6 21 -17 q11.5 -11 20.5 -20.5 q9 -9.5 22 -24 q13 -14.5 19 -21.5 q6 -13 -3 -21 q-9 -8 -24 -8 l-320 0 l0 -298 l171 0 q22 31 46 40 q24 -9 62 -61 q6 -13 -2.5 -21 q-8.5 -8 -23.5 -8 l-253 0 l0 -334 l259 0 q11 10 30 37 q19 27 33 32 q7 -1 16.5 -7 q9.5 -6 21 -17 q11.5 -11 20.5 -20.5 q9 -9.5 22 -24 q13 -14.5 19 -21.5 q6 -13 -3 -21 q-9 -8 -24 -8 l-906 0 l0 50 l162 0 l0 516 q79 -16 111 -51 q5 -10 2.5 -15 q-2.5 -5 -11.5 -15.5 q-9 -10.5 -12 -17.5 l0 -417 l170 0 l0 682 l-350 0 l0 50 Z" /><glyph glyph-name="uni6CBB" unicode="&#x6cbb;" d="M188 757 q81 -15 124 -48 q48 -38 40 -78 q-4 -17 -19.5 -27.5 q-15.5 -10.5 -32.5 -5.5 q-6 2 -11 5 q-5 3 -8.5 5.5 q-3.5 2.5 -8 8 q-4.5 5.5 -7 8 q-2.5 2.5 -7 10.5 q-4.5 8 -5.5 10.5 q-1 2.5 -6.5 12.5 q-5.5 10 -6.5 12 q-20 39 -52 87 ZM71 533 q62 -14 99 -37 q45 -27 58 -61 q6 -16 2.5 -33.5 q-3.5 -17.5 -15.5 -24.5 q-22 -12 -55 9 q-27 20 -47 74 q-12 29 -42 73 ZM93 109 l96 12 q12 31 29 79 q17 48 31 84 q14 36 33 77 q68 146 144 276 q-67 -195 -111 -357 q-10 -36 -21 -88.5 q-11 -52.5 -18 -87.5 l-6 -34 q3 -11 8 -29.5 q5 -18.5 12 -62.5 q7 -44 4 -73 q-6 -71 -48 -72 q-25 -1 -40.5 18 q-15.5 19 -25.5 51 q-8 28 -9 53 q-1 25 1.5 57.5 q2.5 32.5 1.5 54.5 l-81 42 ZM741 693 q4 -5 0 -9 q-4 -4 -12.5 -8.5 q-8.5 -4.5 -11.5 -9.5 l-141 -226 q60 2 102 4 q53 3 144 9 q-3 14 -6 26 q-2 7 -33 103 q44 -30 67 -49.5 q23 -19.5 47 -52.5 q22 -31 32.5 -56 q10.5 -25 12.5 -59 q1 -18 -8.5 -31.5 q-9.5 -13.5 -26.5 -16.5 q-31 -5 -52 32 q-13 23 -20 48 l-340 -55 q-7 -1 -19.5 -6 q-12.5 -5 -17 -5.5 q-4.5 -0.5 -14.5 5.5 q-12 13 -19.5 38 q-7.5 25 -8.5 43 l-2 18 q36 1 84 2 l138 325 q73 -32 105 -69 ZM553 187 q-8 -9 -11 -16 l0 -201 l258 0 l0 217 l-247 0 ZM540 237 l260 0 q5 4 12.5 14.5 q7.5 10.5 14 15.5 q6.5 5 15.5 3 q42 -12 69 -63 q3 -6 0 -10.5 q-3 -4.5 -10.5 -10 q-7.5 -5.5 -10.5 -9.5 l0 -267 q-5 -19 -8.5 -27.5 q-3.5 -8.5 -12.5 -17 q-9 -8.5 -24 -9.5 q-27 2 -45 54 l0 10 l-258 0 l0 -10 q-5 -19 -8.5 -27.5 q-3.5 -8.5 -12.5 -17 q-9 -8.5 -24 -9.5 q-27 2 -45 54 l0 360 q52 -11 88 -33 Z" /><glyph glyph-name="uni6D3B" unicode="&#x6d3b;" d="M207 783 q45 -14 71 -27 q26 -13 52 -39 q41 -41 27 -84 q-6 -17 -26 -21.5 q-20 -4.5 -36 5.5 q-11 6 -19 16 q-8 10 -11.5 17.5 q-3.5 7.5 -9 22.5 q-5.5 15 -9.5 23 l-39 87 ZM96 567 q84 -20 126 -63 q37 -39 20 -86 q-6 -16 -24.5 -21 q-18.5 -5 -34.5 4 q-10 6 -17.5 15 q-7.5 9 -10.5 15.5 q-3 6.5 -8.5 21.5 q-5.5 15 -8.5 21 l-42 93 ZM95 120 l81 15 l49 119 l54 126 l75 171 l-42 -222 l-43 -221 q20 -47 25 -79 q12 -77 7 -120 q-7 -58 -52 -66 q-22 -4 -39 9 q-17 13 -24 36 q-9 31 -11 77 q-2 46 1 77 l3 30 l-84 48 ZM825 774 q56 -48 69 -90 q3 -10 -12 -13 q22 4 -24 -2 q-101 -14 -168 -20 l0 -172 l117 0 q38 60 63 69 q7 -1 16.5 -7 q9.5 -6 21 -17 q11.5 -11 20.5 -20.5 q9 -9.5 22 -24 q13 -14.5 19 -21.5 q6 -13 -3 -21 q-9 -8 -24 -8 l-252 0 l0 -187 l108 0 q5 4 12.5 14.5 q7.5 10.5 14 15.5 q6.5 5 15.5 3 q42 -12 69 -63 q3 -6 0 -10.5 q-3 -4.5 -10.5 -10 q-7.5 -5.5 -10.5 -9.5 l0 -252 q-5 -19 -8.5 -27.5 q-3.5 -8.5 -12.5 -17 q-9 -8.5 -24 -9.5 q-16 1 -26 14.5 q-10 13.5 -18 37.5 l-286 0 l0 -13 q-5 -19 -8.5 -27.5 q-3.5 -8.5 -12.5 -17 q-9 -8.5 -24 -9.5 q-27 2 -45 54 l0 360 q52 -11 88 -33 l89 0 l0 187 l-228 0 l0 50 l228 0 l0 164 l-33 -2 q-82 -5 -189 -1 q77 28 189 58 q110 29 162 45 l96 33 ZM524 190 q-8 -9 -11 -16 l0 -198 l285 0 l0 214 l-274 0 Z" /><glyph glyph-name="uni6E90" unicode="&#x6e90;" d="M132 771 q51 -9 81 -21.5 q30 -12.5 66 -41.5 q35 -28 21 -71 q-4 -14 -19.5 -18.5 q-15.5 -4.5 -28.5 2.5 q-12 5 -19.5 13.5 q-7.5 8.5 -15 22 q-7.5 13.5 -13.5 21.5 l-72 93 ZM33 543 q39 -10 54 -14.5 q15 -4.5 39.5 -17.5 q24.5 -13 44.5 -32 q35 -35 13 -83 q-7 -15 -25 -18.5 q-18 -3.5 -33 6.5 q-12 8 -18.5 19 q-6.5 11 -12 28 q-5.5 17 -11.5 27 l-51 85 ZM39 138 l81 24 l153 369 q-14 -112 -27 -183 q-15 -84 -45 -213 q27 -81 30 -135 q3 -74 -18 -117 q-8 -16 -22.5 -23 q-14.5 -7 -28.5 -1 q-38 18 -48 69 q-5 42 -4.5 59.5 q0.5 17.5 4 54 q3.5 36.5 3.5 60.5 l-78 36 ZM327 192 l0 555 q47 -10 83 -30 l352 0 q11 10 30 37 q19 27 33 32 q7 -1 16.5 -7 q9.5 -6 21 -17 q11.5 -11 20.5 -20.5 q9 -9.5 22 -24 q13 -14.5 19 -21.5 q6 -13 -3 -21 q-9 -8 -24 -8 l-188 0 l-30 -115 l101 0 q5 4 12.5 14.5 q7.5 10.5 14 15.5 q6.5 5 15.5 3 q42 -12 69 -63 q3 -6 0 -10.5 q-3 -4.5 -10.5 -10 q-7.5 -5.5 -10.5 -9.5 l0 -237 q-5 -19 -8.5 -27.5 q-3.5 -8.5 -12.5 -17 q-9 -8.5 -24 -9.5 q-18 2 -30 21 l-84 0 l0 -297 q0 -19 -3.5 -31.5 q-3.5 -12.5 -8 -18.5 q-4.5 -6 -16.5 -21 q-29 -35 -53 -28 q-14 5 -22.5 27 q-8.5 22 -16.5 30 q-11 10 -22.5 17.5 q-11.5 7.5 -25.5 15.5 q-14 8 -24 15 l102 0 l0 291 l-78 0 q-11 -30 -39 -33 q-27 2 -45 54 l0 342 q52 -11 88 -33 l58 0 l5 115 l-180 0 q-10 -12 -13 -19 l0 -471 q0 -103 -54 -198 q-25 -43 -50 -66.5 q-25 -23.5 -79 -56.5 q32 62 46.5 95.5 q14.5 33.5 28.5 84.5 q18 66 18 156 ZM489 174 q62 -32 89 -66 q2 -6 0.5 -8.5 q-1.5 -2.5 -8.5 -7.5 q-7 -5 -9 -8 q-40 -48 -66 -75 q-38 -38 -57 -51 q-36 -25 -78 -39 q29 43 63 111 q12 24 28.5 60.5 q16.5 36.5 26.5 59.5 l11 24 ZM765 162 q39 -16 61 -28.5 q22 -12.5 47 -37.5 q26 -26 38.5 -46 q12.5 -20 15.5 -50 q2 -21 -7.5 -38 q-9.5 -17 -28.5 -22 q-32 -9 -60 33 q-12 18 -18 50.5 q-6 32.5 -9 42.5 q-17 49 -39 96 ZM560 502 q-8 -9 -11 -16 l0 -82 l231 0 l0 98 l-220 0 ZM549 354 l0 -82 l231 0 l0 82 l-231 0 Z" /><glyph glyph-name="uni6E96" unicode="&#x6e96;" d="M171 738 q17 -5 43.5 -8.5 q26.5 -3.5 46.5 -9 q20 -5.5 39 -18.5 q34 -23 15 -66 q-7 -14 -23 -19 q-16 -5 -31 1 q-12 4 -20.5 23.5 q-8.5 19.5 -12.5 24.5 q-12 17 -32 41 q-20 24 -25 31 ZM81 615 q15 -7 38 -15 q23 -8 40 -16 q17 -8 33 -23 q39 -35 27 -75 q-5 -17 -23 -22.5 q-18 -5.5 -34 1.5 q-10 4 -14.5 13 q-4.5 9 -8 22.5 q-3.5 13.5 -7.5 21.5 l-51 93 ZM87 327 l84 12 q7 13 27 48 q20 35 33 60 q13 25 42 87 l-39 -216 q4 -6 10.5 -16.5 q6.5 -10.5 15 -35.5 q8.5 -25 4.5 -41 q-5 -21 -23.5 -32.5 q-18.5 -11.5 -36.5 -3.5 q-14 7 -20 19 q-6 12 -10 31.5 q-4 19.5 -9 30.5 l-78 57 ZM402 777 q13 -6 32.5 -11.5 q19.5 -5.5 34.5 -12 q15 -6.5 29 -18.5 q3 -6 2.5 -8 q-0.5 -2 -6.5 -9 q-6 -7 -8 -10 l-45 -75 l0 -27 l128 0 q33 69 37 78 q4 9 39 108 q14 -10 36 -21.5 q22 -11.5 38.5 -22.5 q16.5 -11 30.5 -28 q4 -4 -0.5 -7 q-4.5 -3 -14 -6.5 q-9.5 -3.5 -12.5 -7.5 q-16 -18 -76 -93 l139 0 q23 36 48 45 q14 -2 22.5 -26.5 q8.5 -24.5 22.5 -39.5 q6 -13 -3 -21 q-9 -8 -24 -8 l-168 0 l0 -73 l66 0 q23 36 48 45 q14 -2 22.5 -26.5 q8.5 -24.5 22.5 -39.5 q6 -13 -3 -21 q-9 -8 -24 -8 l-132 0 l0 -76 l72 0 q23 36 48 45 q14 -2 22.5 -26.5 q8.5 -24.5 22.5 -39.5 q6 -13 -3 -21 q-9 -8 -24 -8 l-138 0 l0 -67 l111 0 q23 36 48 45 q14 -2 22.5 -26.5 q8.5 -24.5 22.5 -39.5 q6 -13 -3 -21 q-9 -8 -24 -8 l-330 0 l0 -94 l216 0 q11 10 30 37 q19 27 33 32 q7 -1 16.5 -7 q9.5 -6 21 -17 q11.5 -11 20.5 -20.5 q9 -9.5 22 -24 q13 -14.5 19 -21.5 q6 -13 -3 -21 q-9 -8 -24 -8 l-351 0 l0 -166 q-5 -19 -8.5 -27.5 q-3.5 -8.5 -12.5 -17 q-9 -8.5 -24 -9.5 q-27 2 -45 54 l0 166 l-399 0 l0 50 l399 0 l0 94 l-11 0 q-10 -20 -34 -22 q-27 2 -45 54 l0 265 q-8 -11 -18 -22 q-7 -8 -15.5 -13.5 q-8.5 -5.5 -20 -10 q-11.5 -4.5 -18.5 -9.5 l81 228 l42 117 ZM441 556 l0 -73 l153 0 l0 73 l-153 0 ZM441 240 l153 0 l0 67 l-153 0 l0 -67 ZM441 433 l0 -76 l153 0 l0 76 l-153 0 Z" /><glyph glyph-name="uni70BA" unicode="&#x70ba;" d="M828 84 l0 113 l-516 0 q-38 -82 -90 -155 q-67 -94 -153 -135 q84 118 153 279 q65 150 125 352 l-198 0 l0 50 l87 0 q-13 18 -18 52 q-5 34 -8 44 q-4 15 -12 36 q-8 21 -12 32 q25 -10 36 -15 q11 -5 25.5 -14.5 q14.5 -9.5 28.5 -23.5 q29 -29 35 -72 q3 -25 -3 -39 l54 0 q20 76 34 182 q77 -10 114 -38 q4 -6 1.5 -9.5 q-2.5 -3.5 -11 -11 q-8.5 -7.5 -11.5 -12.5 l-34 -111 l106 0 q5 4 12.5 14.5 q7.5 10.5 14 15.5 q6.5 5 15.5 3 q42 -12 69 -63 q3 -6 0 -10.5 q-3 -4.5 -10.5 -10 q-7.5 -5.5 -10.5 -9.5 l0 -130 l45 0 q5 4 12.5 14.5 q7.5 10.5 14 15.5 q6.5 5 15.5 3 q42 -12 69 -63 q3 -6 0 -10.5 q-3 -4.5 -10.5 -10 q-7.5 -5.5 -10.5 -9.5 l0 -91 l42 0 q5 4 12.5 14.5 q7.5 10.5 14 15.5 q6.5 5 15.5 3 q42 -12 69 -63 q3 -6 0 -10.5 q-3 -4.5 -10.5 -10 q-7.5 -5.5 -10.5 -9.5 l0 -82 q0 -120 -69 -189 q-33 -33 -59.5 -51 q-26.5 -18 -63.5 -27 q-9 -2 -14 5 q-5 7 -10 19.5 q-5 12.5 -12 17.5 q-16 14 -43 30.5 q-27 16.5 -35 22.5 l117 0 q7 0 13.5 1.5 q6.5 1.5 12.5 6 q6 4.5 10 7.5 q4 3 10 11.5 q6 8.5 8 11.5 q2 3 9 14 q7 11 9 13 q27 41 27 86 ZM318 131 q26 -66 23 -113 q-3 -54 -35 -85 q-26 -25 -60 -7 q-22 12 -15 47 q3 16 19 36 q16 20 20 27 q28 51 48 95 ZM411 151 q35 -30 56 -70 q21 -41 19 -75 q-4 -48 -30 -59 q-17 -7 -34.5 -0.5 q-17.5 6.5 -25.5 23.5 q-4 16 -2.5 26 q1.5 10 7 33 q5.5 23 6.5 37 q4 44 4 85 ZM525 168 q45 -28 66 -60 q31 -47 30 -84 q-2 -48 -33 -63 q-16 -7 -31 0 q-15 7 -23 23 q-7 20 -6.5 30 q0.5 10 3.5 29 q3 19 2 32 q-3 45 -8 93 ZM669 99 l-27 93 q47 -21 72 -48 q40 -45 45 -82 q6 -40 -24 -59 q-26 -15 -47 16 q-8 12 -11 24.5 q-3 12.5 -4 28.5 q-1 16 -4 27 ZM561 398 l0 140 l-121 0 q-6 -17 -20 -65.5 q-14 -48.5 -23 -74.5 l164 0 ZM696 247 l0 101 l-318 0 l-9 -22 l-34 -79 l361 0 Z" /><glyph glyph-name="uni71DF" unicode="&#x71df;" d="M246 768 q11 -3 28 -4.5 q17 -1.5 29 -5 q12 -3.5 21 -14.5 q4 -11 2 -15.5 q-2 -4.5 -11 -15 q-9 -10.5 -12 -17.5 l0 -73 q24 8 39 19 q6 4 9.5 10 q3.5 6 7.5 13.5 q4 7.5 7 12.5 q7 -8 20 -18 q13 -10 21 -19.5 q8 -9.5 10 -22.5 q1 -6 -1 -11 q-2 -5 -10 -9 q-8 -4 -11 -5 q-3 -1 -14 -5 q-10 -4 -21.5 -6 q-11.5 -2 -18 -3 q-6.5 -1 -19.5 -2 q-13 -1 -19 -2 l0 -47 q11 -3 32.5 -7 q21.5 -4 36.5 -9.5 q15 -5.5 30 -16.5 q25 -18 18 -54 q-4 -21 -33 -21 q-19 0 -42 24 q-7 7 -11.5 22.5 q-4.5 15.5 -12.5 22.5 q-7 6 -26 7 q-10 -30 -22 -43 q-28 -30 -78 -51 q-8 -3 -15.5 -4 q-7.5 -1 -19 0 q-11.5 1 -16.5 1 q11 13 29 29 q18 16 31 30.5 q13 14.5 24 33.5 q5 9 8.5 19 q3.5 10 4.5 16.5 q1 6.5 2.5 19.5 q1.5 13 2.5 20 l0 201 ZM147 669 q4 -13 12.5 -32 q8.5 -19 13.5 -34 q5 -15 7 -33 q6 -56 -12 -87 q-15 -26 -48 -15 q-36 12 -36 42 q0 12 15 24 q15 12 18 21 q8 19 12.5 36.5 q4.5 17.5 9 39.5 q4.5 22 8.5 38 ZM546 774 q9 -3 24.5 -4 q15.5 -1 26 -4.5 q10.5 -3.5 18.5 -12.5 q4 -9 3 -13.5 q-1 -4.5 -7 -15 q-6 -10.5 -8 -16.5 l0 -182 q58 -12 72 -16 q8 -2 26.5 -5.5 q18.5 -3.5 29 -8.5 q10.5 -5 19.5 -16 q12 -14 11.5 -33 q-0.5 -19 -14.5 -30 q-5 -4 -11 -5.5 q-6 -1.5 -10 -2 q-4 -0.5 -11.5 2 q-7.5 2.5 -10 3.5 q-2.5 1 -12 5.5 q-9.5 4.5 -11.5 5.5 q-11 5 -21 19.5 q-10 14.5 -18 19.5 q-10 7 -46 25 q-6 -16 -14 -25 q-16 -17 -51 -33 q-10 -5 -20 -7.5 q-10 -2.5 -22 -5.5 q-12 -3 -21 -5 q7 11 18 25.5 q11 14.5 19 26.5 q8 12 17 26 q7 11 13.5 28.5 q6.5 17.5 10.5 25.5 l0 228 ZM480 678 q2 -11 7 -26.5 q5 -15.5 8 -28 q3 -12.5 3 -26.5 q0 -3 0 -12.5 q0 -9.5 0 -12.5 q0 -3 -0.5 -10.5 q-0.5 -7.5 -1.5 -11.5 q-1 -4 -2.5 -9.5 q-1.5 -5.5 -4 -11 q-2.5 -5.5 -6.5 -10.5 q-7 -9 -18.5 -8.5 q-11.5 0.5 -20.5 8.5 q-22 20 -18 51 q1 11 13.5 23 q12.5 12 16.5 19 l24 66 ZM714 714 q9 -11 25.5 -24 q16.5 -13 27.5 -25 q11 -12 16 -29 q2 -8 -2.5 -12 q-4.5 -4 -17 -8.5 q-12.5 -4.5 -16.5 -6.5 q-29 -16 -66 -27 q-10 -3 -30 -3 q4 6 10.5 13.5 q6.5 7.5 11 14 q4.5 6.5 8.5 14.5 q7 15 12 29.5 q5 14.5 11 32.5 q6 18 10 31 ZM111 327 q3 -22 3 -45 q0 -7 1 -20 q1 -13 1 -20 q0 -7 -2.5 -16.5 q-2.5 -9.5 -8.5 -18.5 q-29 -44 -63 -36 q-33 8 -27 57 q2 16 19.5 32.5 q17.5 16.5 22.5 27.5 q9 21 15 40.5 q6 19.5 12.5 44 q6.5 24.5 11.5 41.5 q2 -18 8 -48 l652 0 q7 6 14.5 19 q7.5 13 15 19.5 q7.5 6.5 18.5 3.5 q50 -13 69 -72 q3 -8 -3 -12.5 q-6 -4.5 -17 -9 q-11 -4.5 -16 -8.5 l-96 -30 l15 51 l-645 0 ZM255 234 l0 -66 l360 0 l0 66 l-360 0 ZM263 279 l355 0 q5 4 12 12.5 q7 8.5 13 12.5 q6 4 14 2 q17 -4 26.5 -15.5 q9.5 -11.5 18.5 -32.5 q2 -5 0 -9 q-2 -4 -6 -9 q-4 -5 -6 -9 l0 -93 q-2 -1 -14 -13 q-12 -12 -22 -14 q-7 -1 -13 0.5 q-6 1.5 -13.5 5.5 q-7.5 4 -12.5 6 l-153 0 q-15 -23 -24 -39 q-2 -4 -20 -45 l278 0 q5 6 10 17.5 q5 11.5 10.5 18 q5.5 6.5 15.5 6.5 q20 0 33 -12 q13 -12 27 -36 q2 -8 1 -11 q-1 -3 -6 -10.5 q-5 -7.5 -7 -11.5 l0 -123 q-4 -6 -9 -17 q-5 -11 -10 -18 q-5 -7 -14 -10 q-7 -2 -12.5 1 q-5.5 3 -12 10 q-6.5 7 -11.5 10 l0 12 l-486 0 l0 -6 q-4 -5 -9 -15.5 q-5 -10.5 -10 -16.5 q-5 -6 -14 -7 q-8 -1 -14 3.5 q-6 4.5 -13 13.5 q-7 9 -12 13 l0 204 q10 -2 26 -2.5 q16 -0.5 27.5 -2.5 q11.5 -2 21.5 -10 l150 0 l0 84 l-123 0 l0 -3 q-5 -2 -12.5 -7 q-7.5 -5 -13.5 -7 q-6 -2 -13 -1 q-10 2 -16 12.5 q-6 10.5 -11 14.5 l0 168 q6 -2 33.5 -6.5 q27.5 -4.5 40.5 -14.5 ZM229 0 q-3 -9 -4 -15 l0 -81 l486 0 l0 96 l-482 0 Z" /><glyph glyph-name="uni73ED" unicode="&#x73ed;" d="M60 663 l273 0 q23 36 48 45 q14 -2 22.5 -26.5 q8.5 -24.5 22.5 -39.5 q6 -13 -3 -21 q-9 -8 -24 -8 l-117 0 l0 -215 l39 0 q23 36 48 45 q7 -1 11 -4.5 q4 -3.5 6 -7.5 q2 -4 4 -12 q1 -3 2 -4 q4 14 12 40.5 q8 26.5 13 42.5 q3 -17 9 -41 q6 -24 10 -43.5 q4 -19.5 5 -41.5 q3 -23 1 -44 q-2 -21 -13 -40 q-25 -45 -54 -36 q-29 9 -27 60 q1 17 13 36 l-79 0 l0 -234 q38 5 98.5 14.5 q60.5 9.5 80.5 11.5 q2 10 4.5 31.5 q2.5 21.5 5.5 35.5 l0 555 q15 -7 39 -13.5 q24 -6.5 41 -14 q17 -7.5 31 -23.5 q5 -10 2.5 -15 q-2.5 -5 -11.5 -15.5 q-9 -10.5 -12 -17.5 l0 -435 q-2 -16 -4.5 -42 q-2.5 -26 -4.5 -40 q-2 -14 -8 -34 q-6 -20 -16 -40 q-24 -46 -50 -76 q-26 -30 -73 -71 q-8 -7 -17 -13 q-9 -6 -14.5 -9 q-5.5 -3 -17 -7.5 q-11.5 -4.5 -15.5 -6 q-4 -1.5 -19 -6.5 q-15 -5 -19 -6 q-12 -4 -24 -5.5 q-12 -1.5 -26.5 -2 q-14.5 -0.5 -24.5 -1.5 q18 15 43.5 34 q25.5 19 45.5 36 q20 17 40 38 q60 65 93 132 q7 15 11 31 q-20 -12 -48.5 -31 q-28.5 -19 -52 -33 q-23.5 -14 -51.5 -27 q-33 -15 -84 -29 q-51 -14 -66 -19 q-7 -2 -18 -10.5 q-11 -8.5 -16 -10.5 q-5 -2 -14 3 q-14 15 -20 32 q-6 17 -10 40.5 q-4 23.5 -9 38.5 q25 2 63.5 5.5 q38.5 3.5 56.5 5.5 l0 244 l-114 0 l0 50 l114 0 l0 215 l-132 0 l0 50 ZM582 678 l273 0 q23 36 48 45 q14 -2 22.5 -26.5 q8.5 -24.5 22.5 -39.5 q6 -13 -3 -21 q-9 -8 -24 -8 l-153 0 l0 -286 l81 0 q23 36 48 45 q14 -2 22.5 -26.5 q8.5 -24.5 22.5 -39.5 q6 -13 -3 -21 q-9 -8 -24 -8 l-147 0 l0 -328 l96 0 q23 36 48 45 q14 -2 22.5 -26.5 q8.5 -24.5 22.5 -39.5 q6 -13 -3 -21 q-9 -8 -24 -8 l-453 0 l0 50 l201 0 l0 328 l-99 0 l0 50 l99 0 l0 286 l-96 0 l0 50 Z" /><glyph glyph-name="uni751F" unicode="&#x751f;" d="M225 669 q77 -19 114 -51 q4 -7 1.5 -10.5 q-2.5 -3.5 -10 -10.5 q-7.5 -7 -9.5 -12 q-7 -17 -33 -84 l179 0 l0 264 q79 -16 111 -51 q5 -10 2.5 -15 q-2.5 -5 -11.5 -15.5 q-9 -10.5 -12 -17.5 l0 -165 l163 0 q11 10 30 37 q19 27 33 32 q7 -1 16.5 -7 q9.5 -6 21 -17 q11.5 -11 20.5 -20.5 q9 -9.5 22 -24 q13 -14.5 19 -21.5 q6 -13 -3 -21 q-9 -8 -24 -8 l-298 0 l0 -220 l127 0 q11 10 30 37 q19 27 33 32 q7 -1 16.5 -7 q9.5 -6 21 -17 q11.5 -11 20.5 -20.5 q9 -9.5 22 -24 q13 -14.5 19 -21.5 q6 -13 -3 -21 q-9 -8 -24 -8 l-262 0 l0 -247 l250 0 q11 10 30 37 q19 27 33 32 q7 -1 16.5 -7 q9.5 -6 21 -17 q11.5 -11 20.5 -20.5 q9 -9.5 22 -24 q13 -14.5 19 -21.5 q6 -13 -3 -21 q-9 -8 -24 -8 l-870 0 l0 50 l395 0 l0 247 l-272 0 l0 50 l272 0 l0 220 l-200 0 l-6 -13 q-4 -8 -16.5 -33.5 q-12.5 -25.5 -17 -34 q-4.5 -8.5 -14.5 -26.5 q-10 -18 -19.5 -32 q-9.5 -14 -22.5 -30 q-27 -33 -43.5 -47.5 q-16.5 -14.5 -61.5 -42.5 q10 23 27.5 57.5 q17.5 34.5 29.5 61 q12 26.5 24 58.5 q26 67 54 177 l24 123 Z" /><glyph glyph-name="uni7522" unicode="&#x7522;" d="M153 489 q13 -2 32 -2.5 q19 -0.5 33.5 -3.5 q14.5 -3 27.5 -12 q5 -7 4 -11 q-1 -4 -7.5 -13.5 q-6.5 -9.5 -8.5 -14.5 l230 125 l-113 58 l-66 36 l-126 0 l0 48 l297 0 l0 99 q12 -2 30.5 -3 q18.5 -1 32.5 -4 q14 -3 27 -11 q4 -6 4 -9 q0 -3 -4.5 -11.5 q-4.5 -8.5 -5.5 -12.5 l0 -48 l222 0 q7 9 14 28.5 q7 19.5 15 29.5 q8 10 22 8 q10 -2 19 -7 q9 -5 14 -9.5 q5 -4.5 11.5 -15.5 q6.5 -11 8.5 -16 q2 -5 8 -19.5 q6 -14.5 8 -19.5 q2 -5 -1 -9.5 q-3 -4.5 -10 -9 q-7 -4.5 -10 -8.5 l-164 0 q-35 -43 -61 -63 q-24 -18 -48 -32 q61 -25 108 -55 q19 -12 29 -19.5 q10 -7.5 19.5 -21 q9.5 -13.5 9.5 -28.5 l68 0 q7 8 14 25.5 q7 17.5 14 26 q7 8.5 20 5.5 q15 -4 27 -14 q12 -10 16.5 -17.5 q4.5 -7.5 15 -28.5 q10.5 -21 13.5 -27 q2 -4 -1 -6 q-3 -2 -9 -4.5 q-6 -2.5 -8 -4.5 l-690 0 l0 -237 q-8 -23 -17.5 -55.5 q-9.5 -32.5 -18 -58.5 q-8.5 -26 -21.5 -54 q-25 -57 -57 -87 q-11 -10 -22.5 -16 q-11.5 -6 -27 -12 q-15.5 -6 -25.5 -11 q11 20 29.5 46.5 q18.5 26.5 31.5 48.5 q13 22 23 49 q12 32 16 81.5 q4 49.5 8 68.5 l0 339 ZM351 354 q13 -6 33.5 -11 q20.5 -5 35.5 -11.5 q15 -6.5 27 -19.5 q4 -8 1 -11.5 q-3 -3.5 -12.5 -11.5 q-9.5 -8 -12.5 -13 q-5 -9 -9 -18 l126 0 l0 120 q12 -3 31 -3.5 q19 -0.5 33 -3.5 q14 -3 26 -14 q5 -9 3 -13.5 q-2 -4.5 -10.5 -15 q-8.5 -10.5 -10.5 -16.5 l0 -54 l147 0 q6 7 12.5 22 q6.5 15 13.5 23 q7 8 19 6 q18 -3 31.5 -14 q13.5 -11 20.5 -22 q7 -11 17 -33 q3 -5 -1 -9 q-4 -4 -12 -8 q-8 -4 -11 -7 l-237 0 l0 -153 l96 0 q6 9 11.5 27.5 q5.5 18.5 12.5 28.5 q7 10 21 10 q11 0 19.5 -4 q8.5 -4 15 -13.5 q6.5 -9.5 10 -15.5 q3.5 -6 10 -21.5 q6.5 -15.5 8.5 -20.5 q2 -5 -0.5 -8.5 q-2.5 -3.5 -9 -8 q-6.5 -4.5 -8.5 -7.5 l-186 0 l0 -120 l-72 0 l0 120 l-192 0 l0 33 l192 0 l0 153 l-144 0 q-16 -36 -36 -60 q-11 -12 -23.5 -19.5 q-12.5 -7.5 -29.5 -14.5 q-17 -7 -28 -14 q7 19 17.5 46 q10.5 27 18.5 48.5 q8 21.5 15 46.5 q5 18 8.5 34 q3.5 16 6.5 36.5 q3 20.5 6 34.5 ZM177 -93 l636 0 q8 7 17 21 q9 14 18 22 q9 8 22 8 q24 0 38.5 -15 q14.5 -15 30.5 -45 q3 -6 0 -10.5 q-3 -4.5 -10.5 -10 q-7.5 -5.5 -10.5 -9.5 l-741 0 l0 39 ZM609 651 l-226 0 q49 -27 79 -42 q25 -12 53 -24 q46 26 79 51 q9 7 15 15 ZM525 525 l-24 -12 q-65 -31 -120 -48 q-25 -8 -47.5 -13 q-22.5 -5 -51 -10.5 q-28.5 -5.5 -48.5 -9.5 l450 0 q-30 13 -69 39 q-39 26 -57 36 l-33 18 Z" /><glyph glyph-name="uni7528" unicode="&#x7528;" d="M188 234 l0 522 q15 -7 43 -15 q28 -8 41 -15 l466 0 q5 4 12.5 14.5 q7.5 10.5 14 15.5 q6.5 5 15.5 3 q42 -12 69 -63 q3 -6 0 -10.5 q-3 -4.5 -10.5 -10 q-7.5 -5.5 -10.5 -9.5 l0 -699 q0 -25 -8.5 -42 q-8.5 -17 -27.5 -42 q-29 -36 -60 -36 q-17 0 -30.5 24 q-13.5 24 -20.5 30 q-12 10 -23 18 q-11 8 -25 17 q-14 9 -24 16 l96 0 q33 0 33 48 l0 195 l-193 0 l0 -288 q-5 -19 -8.5 -27.5 q-3.5 -8.5 -12.5 -17 q-9 -8.5 -24 -9.5 q-27 2 -45 54 l0 288 l-177 0 q-2 -68 -14 -122 q-12 -51 -23.5 -80.5 q-11.5 -29.5 -36.5 -62.5 q-25 -33 -48.5 -51 q-23.5 -18 -71.5 -44 q8 15 20 36 q12 21 20.5 38 q8.5 17 16.5 37 q23 60 35 130 q12 80 12 158 ZM291 676 q-10 -12 -13 -19 l0 -176 l177 0 l0 195 l-164 0 ZM278 431 l0 -186 l177 0 l0 186 l-177 0 ZM738 431 l-193 0 l0 -186 l193 0 l0 186 ZM738 481 l0 195 l-193 0 l0 -195 l193 0 Z" /><glyph glyph-name="uni7537" unicode="&#x7537;" d="M765 87 l0 88 l-225 0 q-6 -25 -24 -64 q-24 -54 -60 -96 q-48 -56 -104 -96 q-45 -32 -90 -45 q-60 -18 -141 -24 q72 30 116 60 q72 50 114 97 q57 66 79 122 q9 23 15 46 l-307 0 l0 50 l318 0 q4 29 4 60 l0 62 l-157 0 q-5 -18 -8.5 -26.5 q-3.5 -8.5 -13 -17 q-9.5 -8.5 -23.5 -9.5 q-27 2 -45 54 l0 414 q43 -9 78 -27 l468 0 q5 4 12.5 14.5 q7.5 10.5 14 15.5 q6.5 5 15.5 3 q42 -12 69 -63 q3 -6 0 -10.5 q-3 -4.5 -10.5 -10 q-7.5 -5.5 -10.5 -9.5 l0 -297 q-5 -19 -8.5 -27.5 q-3.5 -8.5 -12.5 -17 q-9 -8.5 -24 -9.5 q-19 2 -31 23 l-223 0 l0 -68 q0 -31 -2 -54 l217 0 q6 4 13 14.5 q7 10.5 13.5 15.5 q6.5 5 15.5 3 q42 -11 69 -63 q3 -6 -0.5 -10.5 q-3.5 -4.5 -10.5 -10 q-7 -5.5 -10 -9.5 l0 -63 q0 -90 -15 -120 q-32 -63 -71 -101 q-36 -34 -67 -31 q-10 1 -16 7.5 q-6 6.5 -11.5 17.5 q-5.5 11 -11.5 17 q-4 4 -10 11.5 q-6 7.5 -11 12.5 q-5 5 -12 9 q-12 7 -23.5 11.5 q-11.5 4.5 -26.5 9.5 q-15 5 -25 9 l138 0 q34 0 56 45 q16 32 16 87 ZM319 685 q-13 -16 -16 -22 l0 -94 l180 0 l0 116 l-164 0 ZM303 519 l0 -122 l180 0 l0 122 l-180 0 ZM759 519 l-186 0 l0 -122 l186 0 l0 122 ZM759 569 l0 116 l-186 0 l0 -116 l186 0 Z" /></font>
</defs>
</svg>
