<?xml version="1.0" standalone="no"?><!DOCTYPE svg PUBLIC "-//W3C//DTD SVG 1.1//EN" "http://www.w3.org/Graphics/SVG/1.1/DTD/svg11.dtd" ><svg xmlns="http://www.w3.org/2000/svg"><metadata></metadata><defs><font id="I.MingCP: Version 7.01" horiz-adv-x="2048"><font-face font-family="I.MingCP" font-weight="400" font-stretch="normal" units-per-em="2048" panose-1="0 0 0 0 0 0 0 0 0 0" ascent="1802" descent="-246" x-height="0" bbox="-111 -455 2048 1802" underline-thickness="104" underline-position="-246" unicode-range="U+0027-ff33" /><missing-glyph horiz-adv-x="2048" d="M1843 -205 l-1638 0 l0 1966 l1638 0 l0 -1966 ZM1669 1655 l-1288 0 l645 -793 l643 793 ZM1737 -16 l0 1585 l-643 -793 l643 -792 ZM957 776 l-646 797 l0 -1591 l646 794 ZM1667 -98 l-641 790 l-643 -790 l1284 0 Z" /><glyph glyph-name="quotesingle" unicode="&#39;" d="M174 1020 l-27 215 q-14 109 -14 176 q0 96 84 96 q84 0 84 -96 q0 -67 -14 -176 l-27 -215 l-86 0 Z" /><glyph glyph-name="parenleft" unicode="(" d="M614 -422 l-59 -33 q-371 457 -371 1014 q0 557 371 1014 l59 -35 q-291 -432 -291 -981 q0 -544 291 -979 Z" /><glyph glyph-name="parenright" unicode=")" d="M192 1573 q371 -456 371 -1014 q0 -557 -371 -1014 l-59 33 q291 435 291 979 q0 546 -291 981 l59 35 Z" /><glyph glyph-name="comma" unicode="," d="M250 33 q-113 3 -113 96 q0 105 106 105 q121 0 121 -139 q0 -232 -229 -312 l-39 72 q144 46 154 178 Z" /><glyph glyph-name="hyphen" unicode="-­&#x2010;&#x2011;" d="M524 544 l-442 0 l0 111 l442 0 l0 -111 Z" /><glyph glyph-name="period" unicode="." d="M245 231 q48 0 80 -33 q33 -33 33 -79 q0 -45 -33 -78 q-33 -33 -80 -33 q-44 0 -77 33 q-33 32 -33 78 q0 46 33 79 q33 33 77 33 Z" /><glyph glyph-name="slash" unicode="/" d="M875 1491 l-680 -1798 l-86 33 l678 1798 l88 -33 Z" /><glyph glyph-name="zero" unicode="0" d="M628 1515 q255 0 387 -238 q119 -207 119 -536 q0 -329 -123 -541 q-132 -231 -377 -231 q-246 0 -378 231 q-121 214 -121 543 q0 455 211 657 q121 115 282 115 ZM636 1443 q-147 0 -237 -158 q-108 -195 -108 -543 q0 -291 78 -475 q94 -223 267 -223 q178 0 270 232 q72 180 72 464 q0 302 -78 486 q-91 217 -264 217 Z" /><glyph glyph-name="one" unicode="1" d="M990 20 l-698 0 l0 64 q169 0 213 20 q70 30 70 131 l0 989 q0 109 -107 109 l-202 0 l0 57 q326 35 452 133 l0 -1288 q0 -93 62 -127 q43 -24 210 -24 l0 -64 Z" /><glyph glyph-name="two" unicode="2" d="M1120 440 l-49 -420 l-899 0 l0 82 q68 292 416 576 l33 27 q167 128 222 204 q78 106 78 225 q0 164 -106 246 q-78 59 -187 59 q-174 0 -253 -112 q-42 -60 -45 -125 q98 -3 98 -96 q0 -100 -98 -100 q-121 0 -121 137 q0 139 115 253 q118 119 311 119 q181 0 303 -94 q143 -110 143 -297 q0 -129 -76 -235 q-70 -101 -276 -234 l-57 -37 q-333 -213 -391 -473 l542 0 q127 0 166 57 q37 49 72 238 l59 0 Z" /><glyph glyph-name="three" unicode="3" d="M715 776 q373 -74 373 -381 q0 -168 -117 -285 q-140 -143 -381 -143 q-187 0 -317 102 q-117 92 -117 219 q0 146 123 146 q104 0 104 -103 q0 -94 -88 -94 q-14 0 -24 2 q9 -56 55 -103 q92 -86 248 -86 q157 0 260 103 q98 98 98 246 q0 139 -92 231 q-100 101 -274 101 l-103 0 l0 82 l103 0 q143 0 235 92 q98 98 98 247 q0 122 -80 199 q-84 84 -215 84 q-133 0 -227 -76 q-53 -40 -71 -98 q96 0 96 -92 q0 -102 -102 -102 q-113 0 -113 131 q0 126 139 225 q128 90 293 90 q213 0 332 -119 q98 -98 98 -243 q0 -293 -334 -361 l0 -14 Z" /><glyph glyph-name="four" unicode="4" d="M1185 420 l-265 0 l0 -183 q0 -98 39 -125 q37 -25 164 -35 l0 -57 l-555 0 l0 57 q118 7 158 25 q64 27 64 135 l0 183 l-705 0 l0 98 l758 969 l77 0 l0 -979 l265 0 l0 -88 ZM790 508 l0 770 l-601 -770 l601 0 Z" /><glyph glyph-name="five" unicode="5" d="M333 817 q127 127 324 127 q234 0 367 -170 q96 -128 96 -293 q0 -289 -203 -430 q-124 -84 -287 -84 q-135 0 -252 61 q-188 102 -188 277 q0 133 125 133 q104 0 104 -103 q0 -39 -29 -67 q-28 -29 -63 -29 q-12 0 -22 2 q12 -73 96 -129 q89 -62 213 -62 q145 0 237 92 q111 111 111 318 q0 164 -76 271 q-96 133 -256 133 q-218 0 -325 -223 l-80 10 l76 813 l753 0 l-28 -127 l-639 0 l-54 -520 Z" /><glyph glyph-name="six" unicode="6" d="M321 714 q123 228 367 228 q223 0 355 -168 q96 -128 96 -322 q0 -221 -137 -358 q-130 -127 -322 -127 q-211 0 -344 151 q-158 182 -158 557 q0 473 205 697 q131 143 327 143 q137 0 234 -59 q127 -81 127 -184 q0 -115 -107 -115 q-104 0 -104 96 q0 68 68 98 q-64 88 -207 88 q-175 0 -283 -182 q-117 -197 -123 -543 l6 0 ZM680 862 q-129 0 -221 -92 q-113 -113 -113 -312 q0 -180 94 -299 q93 -115 234 -115 q167 0 254 152 q61 104 61 256 q0 209 -109 324 q-82 86 -200 86 Z" /><glyph glyph-name="seven" unicode="7" d="M1162 1368 q-409 -574 -461 -1280 q-9 -102 -96 -102 q-76 0 -76 96 q0 201 221 696 q148 324 301 561 l-571 0 q-111 0 -144 -51 q-40 -59 -73 -248 l-68 0 l43 424 l924 0 l0 -96 Z" /><glyph glyph-name="eight" unicode="8" d="M749 794 q369 -163 369 -424 q0 -195 -158 -309 q-137 -100 -336 -100 q-208 0 -346 110 q-137 110 -137 289 q0 263 344 420 q-293 142 -293 366 q0 144 109 252 q126 127 332 127 q188 0 309 -96 q125 -101 125 -260 q0 -236 -318 -375 ZM657 839 q283 111 283 340 q0 137 -109 215 q-84 59 -192 59 q-137 0 -230 -90 q-80 -80 -80 -195 q0 -115 92 -198 q49 -45 121 -80 q106 -54 115 -51 ZM579 739 l-30 -12 q-275 -124 -275 -369 q0 -130 88 -218 q100 -100 260 -100 q171 0 271 100 q82 82 82 210 q0 141 -121 243 q-53 45 -144 89 q-121 60 -131 57 Z" /><glyph glyph-name="nine" unicode="9" d="M958 790 q-116 -223 -375 -223 q-200 0 -319 125 q-127 133 -127 344 q0 220 135 352 q130 127 326 127 q500 0 500 -700 q0 -444 -182 -672 q-143 -176 -355 -176 q-171 0 -291 104 q-76 67 -76 143 q0 117 108 117 q109 0 109 -100 q0 -72 -61 -96 q59 -85 199 -85 q181 0 288 174 q121 196 127 566 l-6 0 ZM602 1445 q-146 0 -235 -123 q-78 -112 -78 -278 q0 -169 72 -278 q83 -123 235 -123 q133 0 223 90 q109 111 109 305 q0 176 -90 290 q-92 117 -236 117 Z" /><glyph glyph-name="colon" unicode=":" d="M298 1020 q48 0 80 -33 q33 -33 33 -79 q0 -45 -33 -78 q-32 -33 -80 -33 q-110 0 -110 111 q0 112 110 112 ZM298 231 q48 0 80 -33 q33 -33 33 -79 q0 -45 -33 -78 q-33 -33 -80 -33 q-44 0 -77 33 q-33 32 -33 78 q0 46 33 79 q33 33 77 33 Z" /><glyph glyph-name="at" unicode="@" d="M1489 164 q-244 -174 -561 -174 q-365 0 -577 209 q-197 197 -197 506 q0 323 229 553 q238 237 590 237 q331 0 531 -196 q180 -174 180 -451 q0 -222 -129 -385 q-151 -184 -375 -184 q-152 0 -152 131 q0 26 3 41 q-129 -162 -279 -162 q-225 0 -225 268 q0 273 176 486 q145 176 323 176 q96 0 166 -74 l15 47 l125 0 q-31 -91 -89 -311 q-98 -391 -98 -457 q0 -65 70 -65 q168 0 285 166 q104 147 104 333 q0 256 -186 418 q-177 151 -447 151 q-301 0 -494 -217 q-178 -199 -178 -497 q0 -301 176 -477 q170 -170 459 -170 q303 0 516 157 l39 -59 ZM1031 1160 q-150 0 -260 -242 q-90 -198 -90 -405 q0 -156 92 -156 q164 0 278 299 q88 231 88 361 q0 143 -108 143 Z" /><glyph glyph-name="A" unicode="a" d="M1499 20 l-536 0 l0 57 q180 0 180 72 q0 52 -20 98 l-115 279 l-578 0 l-111 -289 q-22 -61 -22 -90 q0 -70 178 -70 l0 -57 l-481 0 l0 57 l12 0 q149 0 213 162 l498 1248 l55 0 l508 -1260 q58 -143 219 -150 l0 -57 ZM981 604 l-262 657 l-260 -657 l522 0 Z" /><glyph glyph-name="B" unicode="b" d="M901 776 q434 -74 434 -360 q0 -396 -606 -396 l-627 0 l0 58 q101 6 148 24 q61 28 61 135 l0 1006 q0 97 -39 124 q-38 30 -170 39 l0 58 l637 0 q199 0 334 -66 q180 -88 180 -280 q0 -271 -352 -336 l0 -6 ZM450 811 l219 0 q430 0 430 299 q0 288 -399 288 l-70 0 q-56 0 -86 -8 q-94 -18 -94 -147 l0 -432 ZM450 737 l0 -487 q0 -164 180 -164 l66 0 q481 0 481 321 q0 330 -512 330 l-215 0 Z" /><glyph glyph-name="C" unicode="c" d="M1429 475 q-65 -245 -225 -375 q-161 -131 -383 -131 q-291 0 -481 190 q-217 214 -217 576 q0 361 221 586 q194 194 479 194 q225 0 395 -120 q42 -29 58 -29 q31 0 35 84 l63 0 l0 -412 l-61 0 q-29 147 -119 250 q-138 154 -360 154 q-298 0 -443 -258 q-102 -187 -102 -433 q0 -294 153 -481 q158 -195 406 -195 q380 0 506 425 l75 -25 Z" /><glyph glyph-name="D" unicode="d" d="M102 1464 l624 0 q318 0 504 -138 q264 -193 264 -581 q0 -487 -387 -659 q-150 -66 -391 -66 l-614 0 l0 58 q101 6 148 24 q61 28 61 135 l0 1005 q0 98 -39 125 q-38 30 -170 39 l0 58 ZM710 1398 l-74 0 q-54 0 -98 -10 q-84 -22 -84 -146 l0 -1003 q0 -98 59 -126 q41 -21 123 -21 l74 0 q258 0 383 88 q235 162 235 575 q0 643 -618 643 Z" /><glyph glyph-name="E" unicode="e" d="M1306 463 l-30 -443 l-1174 0 l0 58 q113 9 150 26 q59 25 59 134 l0 1007 q0 95 -39 122 q-38 30 -170 39 l0 58 l1149 0 l25 -407 l-62 0 q-12 175 -77 253 q-73 88 -326 88 l-181 0 q-84 0 -133 -22 q-47 -26 -47 -131 l0 -442 l217 0 q123 0 166 55 q40 53 50 156 l59 0 l0 -500 l-59 0 q-10 101 -41 149 q-44 68 -175 68 l-217 0 l0 -489 q0 -97 41 -125 q45 -29 139 -29 l181 0 q242 0 323 72 q96 83 111 303 l61 0 Z" /><glyph glyph-name="F" unicode="f" d="M1278 1059 l-62 0 q-9 146 -59 231 q-68 108 -351 108 l-176 0 q-88 0 -133 -22 q-47 -29 -47 -131 l0 -446 l219 0 q127 0 166 57 q40 59 49 156 l60 0 l0 -498 l-60 0 q-9 99 -41 147 q-43 68 -174 68 l-219 0 l0 -492 q0 -100 61 -131 q43 -23 164 -29 l0 -57 l-573 0 l0 57 q107 7 148 25 q61 28 61 135 l0 1006 q0 97 -39 124 q-38 30 -170 39 l0 58 l1151 0 l25 -405 Z" /><glyph glyph-name="G" unicode="g" d="M1567 631 q-99 -9 -133 -25 q-60 -25 -60 -135 l0 -444 l-45 0 l-63 118 q-168 -174 -437 -174 q-303 0 -497 194 q-209 213 -209 568 q0 365 223 588 q195 194 477 194 q225 0 396 -120 q41 -29 57 -29 q31 0 35 84 l63 0 l0 -403 l-61 0 q-28 140 -119 239 q-137 156 -360 156 q-298 0 -443 -258 q-102 -186 -102 -439 q0 -303 156 -495 q157 -195 399 -195 q227 0 344 141 q51 61 51 154 l0 121 q0 104 -51 131 q-36 19 -158 29 l0 57 l537 0 l0 -57 Z" /><glyph glyph-name="H" unicode="h" d="M1579 20 l-564 0 l0 57 q111 7 148 25 q60 28 60 135 l0 490 l-771 0 l0 -490 q0 -104 51 -131 q42 -22 158 -29 l0 -57 l-559 0 l0 57 q104 7 148 25 q61 28 61 135 l0 1006 q0 105 -53 133 q-40 21 -156 31 l0 57 l559 0 l0 -57 q-101 -7 -147 -27 q-62 -25 -62 -137 l0 -434 l771 0 l0 432 q0 102 -62 133 q-44 23 -156 33 l0 57 l574 0 l0 -57 q-120 -10 -164 -33 q-51 -27 -51 -133 l0 -1004 q0 -101 57 -131 q43 -23 158 -29 l0 -57 Z" /><glyph glyph-name="I" unicode="i" d="M671 20 l-565 0 l0 57 q109 7 152 25 q57 24 57 135 l0 1006 q0 106 -51 133 q-47 22 -158 31 l0 57 l565 0 l0 -57 q-102 -7 -145 -27 q-66 -28 -66 -137 l0 -1006 q0 -103 55 -131 q46 -23 156 -29 l0 -57 Z" /><glyph glyph-name="J" unicode="j" d="M882 1407 q-94 -7 -141 -27 q-59 -25 -59 -137 l0 -879 q0 -411 -347 -411 q-124 0 -215 65 q-104 77 -104 176 q0 125 113 125 q106 0 106 -100 q0 -88 -82 -100 q34 -92 172 -92 q138 0 187 127 q25 64 25 247 l0 842 q0 105 -54 133 q-46 25 -166 31 l0 57 l565 0 l0 -57 Z" /><glyph glyph-name="K" unicode="k" d="M1493 20 l-560 0 l0 57 q164 0 164 54 q0 24 -72 114 l-426 523 l-139 -131 l0 -400 q0 -101 57 -131 q42 -23 160 -29 l0 -57 l-565 0 l0 57 q106 6 150 25 q59 25 59 135 l0 1002 q0 104 -59 135 q-44 23 -160 33 l0 57 l575 0 l0 -57 q-107 -7 -154 -27 q-63 -27 -63 -139 l0 -512 l573 551 q41 41 41 67 q0 57 -155 60 l0 57 l502 0 l0 -57 q-152 -13 -277 -131 l-446 -422 l536 -646 q104 -121 259 -131 l0 -57 Z" /><glyph glyph-name="L" unicode="l" d="M1244 459 l-28 -439 l-1106 0 l0 58 q102 6 148 24 q61 28 61 136 l0 1003 q0 103 -57 133 q-44 23 -160 33 l0 57 l571 0 l0 -57 q-116 -10 -160 -33 q-51 -27 -51 -133 l0 -1001 q0 -90 33 -117 q41 -35 139 -35 l125 0 q255 0 336 96 q71 90 92 275 l57 0 Z" /><glyph glyph-name="M" unicode="m" d="M1858 20 l-555 0 l0 57 q108 7 148 25 q59 25 59 139 l0 1123 l-6 0 l-517 -1344 l-71 0 l-515 1342 l-8 0 l0 -1123 q0 -105 53 -133 q46 -23 148 -29 l0 -57 l-506 0 l0 57 q99 7 146 25 q59 28 59 137 l0 1000 q0 111 -53 139 q-36 19 -160 29 l0 57 l428 0 l471 -1223 l467 1223 l412 0 l0 -57 q-99 -6 -148 -29 q-61 -28 -61 -137 l0 -1000 q0 -107 53 -135 q42 -22 156 -29 l0 -57 Z" /><glyph glyph-name="N" unicode="n" d="M1610 1407 q-100 -7 -140 -25 q-59 -28 -59 -135 l0 -1247 l-88 0 l-924 1298 l-6 0 l0 -1059 q0 -105 53 -133 q46 -23 148 -29 l0 -57 l-506 0 l0 57 q99 7 146 25 q59 28 59 137 l0 1000 q0 111 -53 139 q-36 19 -160 29 l0 57 l370 0 l855 -1204 l6 0 l0 987 q0 103 -53 131 q-46 23 -156 29 l0 57 l508 0 l0 -57 Z" /><glyph glyph-name="O" unicode="o" d="M825 1515 q285 0 480 -195 q221 -224 221 -571 q0 -366 -223 -590 q-193 -192 -478 -192 q-284 0 -479 195 q-223 223 -223 583 q0 351 221 575 q195 195 481 195 ZM825 1443 q-250 0 -397 -205 q-135 -187 -135 -489 q0 -267 104 -448 q144 -254 428 -254 q246 0 394 203 q137 186 137 493 q0 327 -154 518 q-145 182 -377 182 Z" /><glyph glyph-name="P" unicode="p" d="M102 1464 l641 0 q318 0 452 -150 q88 -97 88 -237 q0 -418 -573 -418 l-258 0 l0 -422 q0 -101 57 -131 q42 -23 162 -29 l0 -57 l-569 0 l0 57 q107 7 148 25 q61 28 61 135 l0 1003 q0 100 -39 127 q-38 30 -170 39 l0 58 ZM452 737 l199 0 q472 0 472 327 q0 332 -425 332 l-64 0 q-54 0 -98 -10 q-84 -22 -84 -146 l0 -503 Z" /><glyph glyph-name="R" unicode="r" d="M1439 20 l-293 0 q-131 332 -270 530 q-113 156 -279 156 l-145 0 l0 -469 q0 -102 59 -133 q41 -21 156 -27 l0 -57 l-565 0 l0 57 q107 6 148 25 q61 28 61 135 l0 1003 q0 101 -39 127 q-38 30 -170 39 l0 58 l649 0 q210 0 334 -70 q178 -101 178 -291 q0 -207 -172 -309 q-104 -58 -246 -67 l0 -7 q120 -43 232 -219 q48 -78 165 -303 q62 -121 197 -121 l0 -57 ZM452 778 l184 0 q473 0 473 311 q0 309 -397 309 l-78 0 q-54 0 -98 -10 q-84 -22 -84 -146 l0 -464 Z" /><glyph glyph-name="S" unicode="s" d="M1014 1053 q-16 154 -111 256 q-108 117 -293 117 q-149 0 -236 -96 q-70 -76 -70 -183 q0 -183 267 -278 l51 -19 q324 -117 418 -223 q88 -100 88 -239 q0 -211 -170 -322 q-124 -82 -295 -82 q-187 0 -348 102 q-46 31 -72 31 q-37 0 -37 -92 l-63 0 l0 477 l59 0 q22 -188 121 -297 q130 -139 340 -139 q139 0 221 76 q88 79 88 215 q0 102 -74 182 q-67 71 -280 158 l-39 16 q-223 86 -293 139 q-129 99 -129 260 q0 182 135 289 q123 99 312 99 q165 0 326 -89 q34 -19 49 -19 q29 0 32 83 l64 0 l0 -422 l-61 0 Z" /><glyph glyph-name="T" unicode="t" d="M1267 1085 l-62 0 q-9 104 -49 186 q-58 125 -282 125 l-168 0 l0 -1159 q0 -100 55 -131 q42 -23 162 -29 l0 -57 l-575 0 l0 57 q117 7 160 25 q57 24 57 135 l0 1159 l-154 0 q-215 0 -280 -115 q-44 -72 -60 -196 l-57 0 l29 379 l1203 0 l21 -379 Z" /><glyph glyph-name="U" unicode="u" d="M1595 1407 q-95 -6 -141 -25 q-63 -27 -63 -139 l0 -643 q0 -627 -557 -627 q-576 0 -576 615 l0 653 q0 104 -59 135 q-47 22 -158 31 l0 57 l573 0 l0 -57 q-112 -6 -162 -33 q-51 -27 -51 -133 l0 -633 q0 -533 447 -533 q443 0 443 533 l0 635 q0 107 -53 135 q-42 23 -150 29 l0 57 l507 0 l0 -57 Z" /><glyph glyph-name="V" unicode="v" d="M1485 1407 q-163 -3 -227 -164 l-489 -1266 l-62 0 l-488 1268 q-58 156 -225 162 l0 57 l541 0 l0 -57 q-178 -3 -178 -74 q0 -39 22 -100 l383 -1020 l390 1032 q22 61 22 92 q0 67 -176 70 l0 57 l487 0 l0 -57 Z" /><glyph glyph-name="W" unicode="w" d="M1980 1405 q-48 0 -88 -13 q-83 -21 -123 -157 l-380 -1247 l-66 0 l-313 1060 l-7 0 l-344 -1060 l-65 0 l-387 1236 q-44 139 -115 164 q-36 13 -92 17 l0 59 l530 0 l0 -57 q-112 -3 -149 -21 q-39 -18 -39 -69 q0 -41 20 -105 l291 -958 l6 0 l308 942 l-13 47 q-34 130 -110 151 q-41 10 -101 13 l0 57 l525 0 l0 -57 q-88 -4 -121 -8 q-70 -13 -70 -78 q0 -28 19 -92 l282 -965 l7 0 l286 971 q16 59 16 86 q0 83 -192 86 l0 57 l485 0 l0 -59 Z" /><glyph glyph-name="X" unicode="x" d="M1481 20 l-557 0 l0 57 q170 0 170 62 q0 39 -51 108 l-320 433 l-338 -453 q-47 -66 -47 -94 q0 -56 178 -56 l0 -57 l-516 0 l0 57 q161 3 291 177 l373 501 l-340 465 q-134 184 -289 187 l0 57 l557 0 l0 -57 q-172 -3 -172 -64 q0 -33 55 -111 l283 -387 l303 408 q49 65 49 98 q0 53 -178 56 l0 57 l514 0 l0 -57 q-157 -3 -289 -179 l-342 -454 l377 -512 q132 -182 289 -185 l0 -57 Z" /><glyph glyph-name="Y" unicode="y" d="M1415 1407 q-153 -3 -262 -181 l-377 -622 l0 -367 q0 -97 59 -131 q42 -23 158 -29 l0 -57 l-573 0 l0 57 q118 7 158 25 q57 27 57 135 l0 348 l-391 660 q-97 159 -250 162 l0 57 l561 0 l0 -57 q-178 -3 -178 -68 q0 -42 37 -107 l311 -546 l344 583 q20 33 20 62 q0 70 -190 76 l0 57 l516 0 l0 -57 Z" /><glyph glyph-name="underscore" unicode="_&#x332;" d="M1024 -250 l-1024 0 l0 102 l1024 0 l0 -102 Z" /><glyph glyph-name="a" unicode="a" d="M1079 96 q-45 -106 -147 -106 q-144 0 -150 176 q-125 -180 -348 -180 q-135 0 -225 72 q-96 77 -96 209 q0 322 551 356 l104 6 l0 37 q0 307 -242 307 q-161 0 -219 -106 q58 -9 58 -74 q0 -88 -90 -88 q-99 0 -99 100 q0 84 94 154 q112 84 267 84 q360 0 360 -359 l0 -416 q0 -204 70 -204 q43 0 73 61 l39 -29 ZM768 277 l0 280 l-86 -4 q-426 -21 -426 -274 q0 -94 59 -154 q58 -57 146 -57 q119 0 215 74 q64 52 92 135 Z" /><glyph glyph-name="b" unicode="b" d="M340 834 q125 205 344 205 q170 0 291 -121 q145 -145 145 -395 q0 -252 -147 -400 q-125 -125 -293 -125 q-213 0 -336 172 l-67 -166 l-70 0 l0 1272 q0 94 -45 112 q-31 13 -131 13 l0 63 q174 3 309 31 l0 -661 ZM340 639 l0 -266 q0 -128 133 -223 q91 -66 193 -66 q155 0 241 148 q68 113 68 286 q0 232 -119 351 q-86 86 -200 86 q-151 0 -253 -142 q-63 -84 -63 -174 Z" /><glyph glyph-name="c" unicode="c" d="M1010 248 q-135 -260 -414 -260 q-204 0 -338 137 q-141 145 -141 383 q0 250 150 400 q132 135 335 135 q172 0 287 -90 q88 -70 88 -150 q0 -104 -94 -104 q-90 0 -90 84 q0 58 49 79 q-74 111 -233 111 q-179 0 -268 -160 q-72 -128 -72 -295 q0 -188 98 -311 q98 -125 254 -125 q210 0 330 211 l59 -45 Z" /><glyph glyph-name="d" unicode="d" d="M1209 20 l-308 0 l-10 176 q-119 -198 -338 -198 q-174 0 -293 118 q-143 144 -143 398 q0 255 147 402 q123 123 291 123 q214 0 340 -179 l0 414 q0 96 -47 114 q-31 13 -135 13 l0 63 q168 0 315 31 l0 -1286 q0 -96 56 -117 q40 -15 125 -15 l0 -57 ZM895 416 l0 270 q0 113 -125 201 q-89 68 -196 68 q-141 0 -228 -121 q-84 -121 -84 -313 q0 -207 96 -328 q89 -111 224 -111 q146 0 241 133 q72 100 72 201 Z" /><glyph glyph-name="e" unicode="e" d="M1032 543 l-772 0 l0 -35 q0 -201 123 -328 q103 -102 250 -102 q220 0 340 213 l55 -43 q-131 -260 -419 -260 q-213 0 -353 139 q-139 143 -139 383 q0 254 147 402 q128 131 326 131 q192 0 311 -123 q131 -131 131 -340 l0 -37 ZM893 621 q-6 176 -102 272 q-83 80 -203 80 q-143 0 -238 -125 q-68 -89 -83 -227 l626 0 Z" /><glyph glyph-name="f" unicode="f" d="M243 1008 l0 139 q0 172 96 268 q84 84 215 84 q128 0 205 -61 q43 -37 43 -86 q0 -90 -82 -90 q-88 0 -88 79 q0 36 25 64 q-33 33 -96 33 q-183 0 -183 -291 l0 -139 l283 0 l0 -76 l-283 0 l0 -726 q0 -88 47 -110 q43 -19 140 -19 l0 -57 l-498 0 l0 57 q69 0 108 13 q68 21 68 116 l0 726 l-190 0 l0 76 l190 0 Z" /><glyph glyph-name="g" unicode="g" d="M762 998 q110 129 225 129 q100 0 100 -86 q0 -76 -74 -76 q-66 0 -69 78 q-81 -10 -127 -74 q137 -91 137 -270 q0 -187 -158 -277 q-99 -57 -227 -57 q-83 0 -178 25 q-74 -31 -74 -86 q0 -102 227 -117 l115 -8 q387 -28 387 -277 q0 -130 -117 -213 q-130 -94 -362 -94 q-202 0 -334 74 q-133 74 -133 204 q0 198 297 244 l0 6 q-195 44 -195 158 q0 100 123 137 q-186 83 -186 271 q0 166 139 268 q112 82 268 82 q124 0 216 -41 ZM544 967 q-118 0 -194 -76 q-76 -75 -76 -198 q0 -258 272 -258 q138 0 213 82 q64 69 64 184 q0 112 -74 186 q-77 80 -205 80 ZM555 80 q-320 0 -320 -194 q0 -107 102 -166 q88 -51 228 -51 q200 0 295 98 q51 51 51 121 q0 192 -356 192 Z" /><glyph glyph-name="h" unicode="h" d="M1226 20 l-493 0 l0 57 q65 0 113 11 q65 18 65 119 l0 430 q0 310 -227 310 q-222 0 -314 -246 l0 -494 q0 -92 47 -111 q47 -19 132 -19 l0 -57 l-494 0 l0 57 q72 0 115 13 q65 18 65 117 l0 1069 q0 94 -47 112 q-31 13 -131 13 l0 63 q169 3 313 31 l0 -659 q132 199 343 199 q335 0 335 -369 l0 -459 q0 -92 47 -111 q46 -19 131 -19 l0 -57 Z" /><glyph glyph-name="i" unicode="i" d="M323 1470 q44 0 74 -31 q31 -31 31 -74 q0 -102 -105 -102 q-102 0 -102 102 q0 105 102 105 ZM565 20 l-487 0 l0 57 q67 0 110 13 q68 18 68 117 l0 612 q0 97 -49 115 q-31 12 -129 12 l0 62 q167 3 313 33 l0 -834 q0 -92 47 -111 q46 -19 127 -19 l0 -57 Z" /><glyph glyph-name="j" unicode="j" d="M323 1470 q43 0 74 -31 q31 -31 31 -74 q0 -102 -105 -102 q-102 0 -102 102 q0 105 102 105 ZM389 1041 l0 -1100 q0 -348 -287 -348 q-94 0 -158 51 q-55 46 -55 101 q0 98 96 98 q88 0 88 -84 q0 -58 -55 -76 q28 -35 84 -35 q154 0 154 275 l0 897 q0 96 -49 114 q-34 13 -130 13 l0 61 q167 3 312 33 Z" /><glyph glyph-name="k" unicode="k" d="M1145 20 l-426 0 l0 57 q106 0 106 43 q0 21 -47 80 l-285 343 l-123 -103 l0 -233 q0 -92 47 -111 q47 -19 138 -19 l0 -57 l-500 0 l0 57 q72 0 115 13 q65 18 65 117 l0 1069 q0 94 -47 112 q-31 13 -131 13 l0 63 q169 3 313 31 l0 -969 l357 298 q64 51 64 81 q0 40 -134 43 l0 60 l442 0 l0 -60 q-111 -9 -241 -114 l-270 -220 l327 -391 q121 -146 230 -146 l0 -57 Z" /><glyph glyph-name="l" unicode="l" d="M553 20 l-498 0 l0 57 q66 0 113 13 q69 15 69 116 l0 1070 q0 93 -47 112 q-31 13 -133 13 l0 63 q165 3 315 31 l0 -1289 q0 -93 56 -114 q40 -15 125 -15 l0 -57 Z" /><glyph glyph-name="m" unicode="m" d="M1807 20 l-496 0 l0 57 q78 0 127 17 q53 15 53 113 l0 426 q0 162 -35 226 q-52 90 -163 90 q-200 0 -283 -248 l0 -494 q0 -93 45 -111 q46 -19 135 -19 l0 -57 l-498 0 l0 57 q72 0 115 13 q66 18 66 117 l0 428 q0 169 -33 226 q-52 88 -160 88 q-202 0 -285 -246 l0 -496 q0 -93 45 -111 q47 -19 134 -19 l0 -57 l-496 0 l0 57 q73 0 113 13 q67 18 67 117 l0 612 q0 97 -49 115 q-34 12 -131 12 l0 62 q181 3 311 33 l0 -207 q114 201 313 201 q243 0 285 -224 q111 224 334 224 q307 0 307 -369 l0 -459 q0 -97 58 -115 q40 -15 119 -15 l2 0 l0 -57 Z" /><glyph glyph-name="n" unicode="n" d="M1249 20 l-493 0 l0 57 q66 0 110 11 q68 18 68 119 l0 430 q0 310 -227 310 q-223 0 -312 -246 l0 -494 q0 -94 56 -115 q40 -15 121 -15 l0 -57 l-494 0 l0 57 q73 0 113 13 q67 18 67 117 l0 612 q0 97 -49 115 q-34 12 -131 12 l0 62 q176 3 309 33 l0 -215 q126 209 349 209 q335 0 335 -369 l0 -459 q0 -93 59 -115 q37 -15 119 -15 l0 -57 Z" /><glyph glyph-name="o" unicode="o" d="M603 1047 q202 0 339 -137 q148 -148 148 -387 q0 -252 -148 -400 q-138 -135 -339 -135 q-203 0 -339 135 q-147 148 -147 396 q0 243 150 393 q135 135 336 135 ZM603 975 q-152 0 -244 -129 q-90 -124 -90 -328 q0 -214 98 -337 q90 -115 236 -115 q182 0 268 160 q67 126 67 290 q0 216 -98 342 q-92 117 -237 117 Z" /><glyph glyph-name="p" unicode="p" d="M372 842 q126 197 341 197 q174 0 293 -119 q143 -143 143 -397 q0 -250 -147 -398 q-122 -125 -291 -125 q-217 0 -335 176 l0 -342 q0 -84 45 -108 q35 -21 142 -21 l0 -57 l-506 0 l0 57 q87 4 127 17 q55 15 55 112 l0 983 q0 102 -47 117 q-34 13 -131 13 l0 61 q181 3 311 33 l0 -199 ZM376 656 l0 -320 q0 -96 121 -186 q91 -66 197 -66 q158 0 244 148 q66 115 66 287 q0 234 -119 350 q-84 84 -199 84 q-148 0 -246 -137 q-64 -88 -64 -160 Z" /><glyph glyph-name="r" unicode="r" d="M385 780 q46 111 144 193 q86 68 182 68 q117 0 117 -105 q0 -94 -86 -94 q-86 0 -86 84 q0 7 4 29 q-80 -7 -164 -103 q-67 -78 -101 -190 l0 -455 q0 -93 45 -111 q47 -19 140 -19 l0 -57 l-502 0 l0 57 q73 0 113 13 q67 18 67 117 l0 612 q0 97 -49 115 q-34 12 -129 12 l0 62 q175 3 305 33 l0 -261 Z" /><glyph glyph-name="s" unicode="s" d="M764 705 q-16 116 -82 182 q-86 86 -207 86 q-100 0 -166 -65 q-47 -51 -47 -119 q0 -120 207 -185 l53 -16 q171 -55 242 -109 q102 -77 102 -204 q0 -152 -115 -230 q-89 -61 -219 -61 q-115 0 -245 71 q-45 27 -68 27 q-33 0 -33 -72 l-59 0 l0 375 l63 0 q10 -144 88 -223 q100 -102 250 -102 q213 0 213 188 q0 84 -63 135 q-43 34 -199 88 l-61 21 q-141 47 -189 86 q-90 71 -90 186 q0 112 84 193 q92 86 240 86 q128 0 229 -62 q29 -16 49 -16 q23 0 29 59 l51 0 l0 -319 l-57 0 Z" /><glyph glyph-name="t" unicode="t" d="M682 113 q-104 -138 -244 -138 q-227 0 -227 258 l0 699 l-174 0 l0 64 q127 3 178 77 q45 63 70 213 l61 0 l0 -278 l303 0 l0 -76 l-303 0 l0 -660 q0 -209 127 -209 q91 0 164 95 l45 -45 Z" /><glyph glyph-name="u" unicode="u" d="M1217 20 l-304 0 l-10 166 q-123 -206 -346 -206 q-338 0 -338 366 l0 473 q0 100 -45 115 q-34 9 -131 12 l0 62 q172 3 311 33 l0 -664 q0 -311 227 -311 q107 0 197 71 q89 74 123 201 l0 484 q0 91 -49 112 q-28 12 -129 12 l0 62 q155 3 311 33 l0 -834 q0 -93 60 -115 q40 -15 123 -15 l0 -57 Z" /><glyph glyph-name="v" unicode="v" d="M1106 951 q-126 -3 -172 -117 l-348 -861 l-72 0 l-340 838 q-36 89 -78 117 q-30 19 -98 23 l0 57 l434 0 l0 -57 q-133 -3 -133 -76 q0 -21 14 -56 l259 -680 l266 678 q16 43 16 62 q0 69 -147 72 l0 57 l399 0 l0 -57 Z" /><glyph glyph-name="w" unicode="w" d="M1610 951 q-129 -3 -166 -111 l-307 -867 l-66 0 l-254 717 l-282 -717 l-70 0 l-293 838 q-46 137 -174 140 l0 57 l428 0 l0 -57 q-135 -3 -135 -72 q0 -24 14 -62 l230 -659 l243 631 l-8 22 q-27 87 -57 111 q-31 25 -115 29 l0 57 l420 0 l0 -57 q-133 -3 -133 -72 q0 -17 16 -66 l226 -655 l221 659 q14 40 14 68 q0 63 -147 66 l0 57 l395 0 l0 -57 Z" /><glyph glyph-name="x" unicode="x" d="M1073 20 l-440 0 l0 57 q122 0 122 41 q0 19 -49 87 l-190 258 l-229 -279 q-35 -44 -35 -66 q0 -41 139 -41 l0 -57 l-391 0 l0 57 q111 0 219 134 l250 307 l-225 293 q-55 73 -94 105 q-42 29 -123 32 l0 60 l434 0 l0 -60 q-121 -3 -121 -43 q0 -21 49 -86 l168 -223 l203 250 q34 44 34 64 q0 35 -145 38 l0 60 l393 0 l0 -60 q-58 0 -92 -18 q-45 -21 -123 -115 l-225 -270 l248 -328 q99 -136 223 -140 l0 -57 Z" /><glyph glyph-name="y" unicode="y" d="M1106 951 q-128 -3 -174 -117 l-424 -1055 q-71 -178 -213 -178 q-148 0 -148 117 q0 98 99 98 q88 0 88 -88 q0 -14 -2 -20 l-4 -19 q71 3 116 125 l80 215 l-348 782 q-36 82 -72 111 q-31 26 -106 29 l0 57 l434 0 l0 -57 q-133 -3 -133 -68 q0 -19 16 -61 l273 -641 l250 637 q14 34 14 57 q0 73 -141 76 l0 57 l395 0 l0 -57 Z" /><glyph glyph-name="z" unicode="z" d="M885 336 l-17 -316 l-800 0 l0 60 l628 865 l-253 0 q-168 0 -224 -56 q-46 -43 -61 -187 l-55 0 l18 306 l733 0 l0 -59 l-628 -863 l323 0 q163 0 219 53 q46 46 61 197 l56 0 Z" /><glyph glyph-name="copyright" unicode="©" d="M1431 940 l-61 0 q-25 115 -93 182 q-94 94 -223 94 q-171 0 -272 -135 q-92 -126 -92 -334 q0 -156 66 -272 q101 -176 294 -176 q266 0 352 281 l72 -27 q-40 -152 -143 -240 q-120 -104 -285 -104 q-225 0 -369 156 q-141 150 -141 380 q0 142 59 267 q138 284 453 284 q140 0 258 -82 q29 -20 39 -20 q27 0 27 61 l59 0 l0 -315 ZM1019 1585 q268 0 494 -158 q350 -248 350 -679 q0 -270 -166 -494 q-249 -342 -676 -342 q-281 0 -512 178 q-325 249 -325 660 q0 197 96 380 q174 333 535 428 q100 27 204 27 ZM1028 1497 q-227 0 -414 -123 q-338 -218 -338 -627 q0 -220 123 -407 q221 -338 627 -338 q222 0 411 125 q334 224 334 622 q0 157 -68 308 q-144 316 -475 411 q-105 29 -200 29 Z" /><glyph glyph-name="uniFF1F" unicode="&#xff1f;" d="M991 348 l0 84 q0 215 71 352 q45 83 129 176 q160 179 160 328 q0 136 -104 219 q-97 76 -246 76 q-173 0 -295 -100 q-96 -78 -96 -166 q0 -19 4 -39 q32 53 88 53 q103 0 103 -112 q0 -123 -137 -123 q-59 0 -105 43 q-55 52 -55 135 q0 139 131 245 q155 125 389 125 q201 0 343 -96 q158 -109 158 -273 q0 -173 -233 -360 q-143 -112 -185 -205 q-57 -120 -57 -288 l0 -74 l-63 0 ZM1022 180 q39 0 72 -21 q59 -37 59 -108 q0 -50 -35 -88 q-41 -41 -94 -41 q-34 0 -59 14 q-70 34 -70 115 q0 53 39 92 q37 37 88 37 Z" /><glyph glyph-name="uniFF01" unicode="&#xff01;" d="M1022 180 q39 0 72 -21 q59 -37 59 -108 q0 -50 -35 -88 q-41 -41 -94 -41 q-34 0 -59 14 q-70 34 -70 115 q0 53 39 92 q37 37 88 37 ZM997 401 q-77 932 -77 1127 q0 117 104 117 q104 0 104 -119 q0 -133 -61 -914 l-16 -211 l-54 0 Z" /><glyph glyph-name="uni3007" unicode="&#x3007;" d="M1021 1603 q395 0 630 -271 q198 -228 198 -561 q0 -359 -217 -586 q-225 -232 -608 -232 q-403 0 -633 262 q-193 221 -193 558 q0 328 195 555 q237 275 628 275 ZM1028 1530 q-330 0 -527 -230 q-174 -208 -174 -523 q0 -299 163 -504 q198 -247 535 -247 q297 0 496 200 q203 214 203 550 q0 342 -196 550 q-193 204 -500 204 Z" /><glyph glyph-name="uniFF0F" unicode="&#xff0f;" d="M1878 1694 l62 -62 l-1770 -1769 l-61 61 l1769 1770 Z" /><glyph glyph-name="uniFF08" unicode="&#xff08;" d="M1788 -147 q-457 322 -457 926 q0 385 207 681 q105 146 250 244 l78 0 q-429 -339 -429 -925 q0 -590 429 -926 l-78 0 Z" /><glyph glyph-name="uniFF09" unicode="&#xff09;" d="M182 -147 q429 339 429 923 q0 589 -429 928 l78 0 q457 -325 457 -925 q0 -383 -207 -682 q-105 -146 -250 -244 l-78 0 Z" /><glyph glyph-name="uni300A" unicode="&#x300a;" d="M1624 -147 l-528 926 l528 925 l90 0 l-528 -925 l528 -926 l-90 0 ZM1884 -147 l-528 926 l528 925 l91 0 l-529 -925 l529 -926 l-91 0 Z" /><glyph glyph-name="uni300B" unicode="&#x300b;" d="M74 -147 l528 926 l-528 925 l90 0 l528 -925 l-528 -926 l-90 0 ZM334 -147 l528 926 l-528 925 l90 0 l529 -925 l-529 -926 l-90 0 Z" /><glyph glyph-name="uni300C" unicode="&#x300c;" d="M1878 1692 l0 -90 l-416 0 l0 -1385 l-90 0 l0 1475 l506 0 Z" /><glyph glyph-name="uni300D" unicode="&#x300d;" d="M170 -135 l0 90 l416 0 l0 1384 l90 0 l0 -1474 l-506 0 Z" /><glyph glyph-name="uni203B" unicode="&#x203b;" d="M1024 842 l748 747 l63 -63 l-747 -748 l747 -747 l-63 -64 l-748 748 l-747 -748 l-64 64 l748 747 l-748 748 l64 63 l747 -747 ZM1024 1591 q60 0 107 -47 q41 -41 41 -100 q0 -40 -22 -78 q-46 -70 -126 -70 q-53 0 -94 35 q-53 47 -53 113 q0 75 63 120 q39 27 84 27 ZM358 926 q60 0 107 -47 q41 -41 41 -100 q0 -40 -22 -78 q-46 -70 -126 -70 q-53 0 -94 35 q-53 47 -53 113 q0 75 63 120 q39 27 84 27 ZM1690 926 q59 0 106 -47 q41 -41 41 -100 q0 -40 -23 -78 q-45 -70 -124 -70 q-54 0 -95 35 q-53 47 -53 113 q0 75 64 120 q38 27 84 27 ZM1024 260 q60 0 107 -47 q41 -41 41 -100 q0 -40 -22 -78 q-46 -70 -126 -70 q-53 0 -94 35 q-53 47 -53 113 q0 75 63 120 q39 27 84 27 Z" /><glyph glyph-name="uniFF23" unicode="&#xff23;" d="M1595 1110 l-49 0 q-102 397 -502 397 q-253 0 -397 -227 q-121 -189 -121 -461 q0 -295 170 -484 q156 -174 375 -174 q400 0 544 433 l56 -21 q-150 -500 -629 -500 q-309 0 -504 219 q-180 205 -180 521 q0 244 106 430 q192 330 576 330 q205 0 379 -96 q54 -29 74 -29 q36 0 51 88 l51 0 l0 -426 Z" /><glyph glyph-name="uniFF33" unicode="&#xff33;" d="M524 635 l47 0 q41 -240 164 -361 q138 -135 319 -135 q106 0 188 43 q160 83 160 260 q0 189 -284 305 l-254 105 q-142 57 -217 129 q-98 92 -98 244 q0 123 96 219 q135 129 350 129 q186 0 326 -100 q24 -19 43 -19 q38 0 53 82 l47 0 l0 -420 l-47 0 q-31 152 -123 254 q-122 137 -291 137 q-119 0 -212 -72 q-107 -82 -107 -206 q0 -152 246 -250 l245 -99 q379 -151 379 -430 q0 -189 -152 -291 q-125 -86 -331 -86 q-183 0 -377 104 q-34 19 -57 19 q-44 0 -66 -86 l-47 0 l0 525 Z" /><glyph glyph-name="SF100000" unicode="&#x2500;" d="M2048 737 l-2048 0 l0 82 l2048 0 l0 -82 Z" /><glyph glyph-name="SF110000" unicode="&#x2502;" d="M1065 -246 l-82 0 l0 2048 l82 0 l0 -2048 Z" /><glyph glyph-name="SF020000" unicode="&#x2514;" d="M2048 737 l-1065 0 l0 1065 l82 0 l0 -983 l983 0 l0 -82 Z" /><glyph glyph-name="SF080000" unicode="&#x251c;" d="M2048 737 l-983 0 l0 -983 l-82 0 l0 2048 l82 0 l0 -983 l983 0 l0 -82 Z" /><glyph glyph-name="uni4E00" unicode="&#x4e00;" d="M1604 827 l125 152 q95 -83 164 -166 l-25 -41 l-1694 0 l-18 55 l1448 0 Z" /><glyph glyph-name="uni4E03" unicode="&#x4e03;" d="M809 909 l0 -774 q0 -52 29 -65 q39 -18 334 -18 q355 0 413 25 q77 33 105 408 l57 -20 q-2 -55 -2 -125 q0 -163 25 -215 q18 -41 71 -41 q-9 -105 -106 -127 q-92 -18 -525 -18 q-420 0 -477 35 q-53 34 -53 145 l0 774 l-537 -70 l-24 56 l561 73 l0 666 q217 -9 217 -59 q0 -28 -88 -62 l0 -526 l852 112 l94 158 q92 -68 168 -147 l-16 -43 l-1098 -142 Z" /><glyph glyph-name="uni4E09" unicode="&#x4e09;" d="M1495 1389 l117 141 q83 -71 153 -153 l-22 -39 l-1448 0 l-18 51 l1218 0 ZM1393 782 l112 141 q86 -76 148 -153 l-25 -39 l-1212 0 l-23 51 l1000 0 ZM1616 104 l123 158 q95 -83 162 -166 l-25 -43 l-1687 0 l-23 51 l1450 0 Z" /><glyph glyph-name="uni4E0A" unicode="&#x4e0a;" d="M1030 864 l0 -795 l606 0 l129 164 q68 -71 154 -178 l-23 -37 l-1745 0 l-20 51 l770 0 l0 1524 q242 -9 242 -57 q0 -32 -113 -66 l0 -555 l487 0 l109 150 q71 -69 151 -164 l-22 -37 l-725 0 Z" /><glyph glyph-name="uni4E0B" unicode="&#x4e0b;" d="M1044 1069 q301 -127 485 -266 q154 -120 154 -201 q0 -70 -63 -70 q-35 0 -86 70 q-155 197 -490 404 l0 -1125 l-131 0 l0 1514 l-764 0 l-20 51 l1513 0 l117 147 q71 -55 157 -155 l-24 -43 l-848 0 l0 -326 Z" /><glyph glyph-name="uni4E0D" unicode="&#x4e0d;" d="M1186 1413 q-99 -201 -176 -315 q150 -9 150 -47 q0 -28 -84 -56 l0 -1142 l-125 0 l0 1157 q-297 -419 -768 -703 l-35 46 q605 417 885 1060 l-858 0 l-19 51 l1467 0 l116 145 q86 -70 156 -153 l-22 -43 l-687 0 ZM1252 996 q622 -295 622 -494 q0 -76 -68 -76 q-38 0 -88 78 q-134 219 -493 447 l27 45 Z" /><glyph glyph-name="uni4E14" unicode="&#x4e14;" d="M654 1518 l712 0 l80 100 q133 -108 133 -135 q0 -12 -15 -20 l-55 -39 l0 -1414 l158 0 l123 158 q97 -101 145 -164 l-23 -45 l-1786 0 l-20 51 l403 0 l0 1576 q68 -31 145 -68 ZM634 1467 l0 -437 l750 0 l0 437 l-750 0 ZM1384 10 l0 469 l-750 0 l0 -469 l750 0 ZM1384 530 l0 449 l-750 0 l0 -449 l750 0 Z" /><glyph glyph-name="uni4E16" unicode="&#x4e16;" d="M1382 475 l-360 0 l0 -176 l-121 0 l0 740 l-367 0 l0 -955 l1088 0 l115 143 q45 -36 155 -149 l-26 -45 l-1332 0 l0 -180 l-125 0 l0 1186 l-291 0 l-20 51 l311 0 l0 504 q213 -6 213 -56 q0 -27 -88 -57 l0 -391 l367 0 l0 559 q217 -9 217 -55 q0 -25 -96 -60 l0 -444 l360 0 l0 561 q211 -9 211 -55 q0 -26 -90 -58 l0 -448 l201 0 l106 141 l37 -37 q50 -46 105 -116 l-23 -39 l-426 0 l0 -728 l-121 0 l0 164 ZM1022 526 l360 0 l0 513 l-360 0 l0 -513 Z" /><glyph glyph-name="uni4E26" unicode="&#x4e26;" d="M759 1114 l-582 0 l-16 51 l993 0 q100 193 199 506 q188 -71 188 -117 q0 -32 -92 -35 q-97 -179 -227 -354 l414 0 l106 145 q77 -70 141 -153 l-18 -43 l-594 0 l0 -1110 l412 0 l114 154 q72 -62 152 -164 l-27 -41 l-1792 0 l-24 51 l653 0 l0 1110 ZM878 1114 l0 -1110 l272 0 l0 1110 l-272 0 ZM534 1657 q332 -194 332 -377 q0 -84 -74 -84 q-43 0 -67 76 q-52 179 -220 350 l29 35 ZM303 905 q297 -361 297 -614 q0 -109 -78 -109 q-54 0 -63 104 q-31 285 -197 593 l41 26 ZM1384 213 q134 338 217 735 q201 -65 201 -117 q0 -28 -86 -34 q-125 -343 -287 -609 l-45 25 Z" /><glyph glyph-name="uni4E2D" unicode="&#x4e2d;" d="M407 1200 l533 0 l0 463 q217 -9 217 -53 q0 -28 -92 -62 l0 -348 l555 0 l84 104 q133 -108 133 -137 q0 -15 -19 -24 l-57 -35 l0 -713 l-123 0 l0 140 l-573 0 l0 -682 l-125 0 l0 682 l-551 0 l0 -168 l-123 0 l0 903 q60 -25 141 -70 ZM389 1149 l0 -563 l551 0 l0 563 l-551 0 ZM1638 586 l0 563 l-573 0 l0 -563 l573 0 Z" /><glyph glyph-name="uni4E3B" unicode="&#x4e3b;" d="M1071 576 l0 -570 l553 0 l117 156 q86 -81 147 -164 l-24 -43 l-1676 0 l-22 51 l776 0 l0 570 l-567 0 l-25 51 l592 0 l0 498 l-711 0 l-24 51 l1360 0 l110 145 q89 -81 150 -155 l-27 -41 l-729 0 l0 -498 l377 0 l102 139 q71 -58 141 -147 l-24 -43 l-596 0 ZM711 1673 q186 -78 303 -182 q102 -93 102 -166 q0 -78 -74 -78 q-45 0 -75 68 q-84 179 -283 317 l27 41 Z" /><glyph glyph-name="uni4E4B" unicode="&#x4e4b;" d="M663 297 q460 367 773 860 l-1149 0 l-23 51 l637 0 l0 432 q215 -3 215 -53 q0 -29 -94 -59 l0 -320 l410 0 l84 96 q141 -132 141 -165 q0 -15 -21 -21 l-80 -26 q-352 -503 -845 -838 q184 -147 671 -147 q215 0 566 26 q-55 -67 -78 -145 l-361 0 q-554 0 -755 119 q-217 127 -269 391 q-70 -255 -215 -455 q6 -34 6 -55 q0 -43 -22 -43 q-48 0 -131 158 q233 205 334 520 l55 0 q36 -204 151 -326 Z" /><glyph glyph-name="uni4E4E" unicode="&#x4e4e;" d="M1089 1396 l0 -739 l559 0 l121 152 q81 -76 149 -158 l-26 -45 l-803 0 l0 -557 q0 -143 -102 -174 q-66 -16 -133 -16 q-4 68 -84 98 q-75 25 -250 51 l0 55 q216 -26 368 -26 q76 0 76 63 l0 506 l-809 0 l-18 51 l827 0 l0 723 q-308 -37 -733 -70 l-20 56 q887 89 1343 237 q164 -77 164 -117 q0 -20 -49 -20 q-32 0 -78 8 q-122 -22 -502 -78 ZM1636 786 q-40 0 -68 82 q-71 216 -279 395 l36 33 q222 -136 322 -264 q70 -88 70 -164 q0 -82 -81 -82 ZM298 730 l-41 27 q247 284 320 522 q187 -47 187 -84 q0 -23 -80 -39 q-138 -224 -386 -426 Z" /><glyph glyph-name="uni4E4F" unicode="&#x4e4f;" d="M676 242 q3 2 10 8 q7 5 10 8 q398 291 705 664 l-1036 0 l-21 51 l611 0 l0 393 q203 -9 203 -51 q0 -26 -86 -53 l0 -289 l321 0 l90 106 q138 -115 138 -155 q0 -15 -21 -20 l-62 -21 q-392 -424 -813 -684 q174 -137 664 -137 q240 0 526 26 q-47 -56 -69 -141 l-265 0 q-498 0 -698 59 q-294 89 -393 414 q-56 -225 -181 -408 q7 -36 7 -53 q0 -37 -19 -37 q-39 0 -133 138 q211 186 291 472 l57 0 q58 -187 164 -290 ZM207 1333 q768 95 1325 287 q141 -87 141 -122 q0 -18 -41 -18 q-23 0 -74 11 q-640 -143 -1329 -211 l-22 53 Z" /><glyph glyph-name="uni4E59" unicode="&#x4e59;" d="M1250 1430 l94 107 q153 -120 153 -160 q0 -17 -30 -27 l-72 -20 q-568 -498 -912 -903 q-90 -109 -90 -189 q0 -101 104 -116 q164 -25 498 -25 q496 0 572 35 q71 33 111 384 l55 -20 l0 -60 q0 -191 22 -245 q19 -50 78 -50 q-9 -107 -110 -128 q-152 -33 -713 -33 q-525 0 -627 45 q-125 55 -125 184 q0 144 174 342 q287 327 822 828 l-924 0 l-20 51 l940 0 Z" /><glyph glyph-name="uni4E5D" unicode="&#x4e5d;" d="M774 1067 l-547 0 l-18 51 l565 0 l0 528 q223 -3 223 -53 q0 -28 -94 -61 l0 -414 l390 0 l82 100 q137 -100 137 -135 q0 -17 -21 -28 l-57 -35 l0 -916 q0 -48 31 -61 q28 -14 116 -14 q115 0 142 27 q50 47 71 434 l60 -17 q0 -306 16 -369 q16 -49 68 -49 q-6 -101 -84 -123 q-62 -16 -246 -16 q-205 0 -254 31 q-45 27 -45 129 l0 991 l-406 0 q-9 -444 -160 -721 q-174 -318 -596 -493 l-30 47 q464 249 594 702 q57 193 63 465 Z" /><glyph glyph-name="uni4E5F" unicode="&#x4e5f;" d="M588 934 l0 -791 q0 -62 41 -77 q74 -23 508 -23 q414 0 516 25 q55 15 73 82 q29 112 41 272 l56 -20 q-3 -43 -3 -76 q0 -249 95 -246 q-10 -96 -70 -117 q-101 -37 -682 -37 q-575 0 -647 47 q-51 33 -51 160 l0 768 l-315 -84 l-25 51 l340 93 l0 567 q219 -6 219 -49 q0 -25 -96 -60 l0 -426 l414 111 l0 530 q210 3 210 -49 q0 -30 -91 -61 l0 -387 l427 114 l76 119 q139 -99 139 -131 q0 -14 -20 -28 l-54 -35 q-3 -636 -75 -748 q-55 -82 -191 -82 q-3 67 -67 88 q-48 17 -152 35 l0 55 q154 -18 225 -18 q83 0 105 78 q37 141 37 614 l-450 -121 l0 -825 l-119 0 l0 793 l-414 -111 Z" /><glyph glyph-name="uni4E86" unicode="&#x4e86;" d="M1168 1057 q26 -15 26 -29 q0 -30 -94 -57 l0 -895 q0 -190 -225 -187 q0 57 -56 84 q-58 26 -262 60 l0 55 q177 -23 348 -23 q70 0 70 60 l0 964 q71 -3 117 -12 q208 139 411 336 l-1155 0 l-22 51 l1180 0 l83 94 q154 -123 154 -163 q0 -18 -22 -21 l-76 -16 q-241 -180 -477 -301 Z" /><glyph glyph-name="uni4E8B" unicode="&#x4e8b;" d="M951 1266 l0 153 l-773 0 l-22 51 l795 0 l0 227 q213 -9 213 -51 q0 -26 -92 -57 l0 -119 l573 0 l104 139 q8 -8 39 -32 q50 -44 111 -121 l-21 -37 l-806 0 l0 -153 l432 0 l75 86 q119 -82 119 -111 q0 -12 -22 -28 l-41 -29 l0 -279 l-113 0 l0 64 l-450 0 l0 -187 l448 0 l78 84 q121 -87 121 -113 q0 -12 -23 -28 l-45 -33 l0 -147 l104 0 l97 133 q59 -56 118 -147 l-22 -37 l-297 0 l0 -396 l-117 0 l0 135 l-462 0 l0 -231 q0 -154 -207 -154 q0 61 -62 89 q-51 21 -207 49 l0 53 q159 -21 289 -21 q66 0 66 60 l0 155 l-660 0 l-25 51 l685 0 l0 210 l-822 0 l-18 51 l840 0 l0 186 l-642 0 l-22 51 l664 0 l0 187 l-453 0 l0 -80 l-113 0 l0 428 q85 -28 138 -51 l428 0 ZM951 1215 l-453 0 l0 -195 l453 0 l0 195 ZM1072 1215 l0 -195 l450 0 l0 195 l-450 0 ZM1072 494 l0 -210 l462 0 l0 210 l-462 0 ZM1072 545 l462 0 l0 186 l-462 0 l0 -186 Z" /><glyph glyph-name="uni4E8C" unicode="&#x4e8c;" d="M1417 1286 l117 141 q72 -64 155 -159 l-24 -37 l-1333 0 l-21 55 l1106 0 ZM1622 223 l123 149 q82 -72 155 -163 l-26 -41 l-1712 0 l-23 55 l1483 0 Z" /><glyph glyph-name="uni4E94" unicode="&#x4e94;" d="M777 793 l-437 0 l-22 51 l467 0 q16 92 30 184 q25 145 50 320 l6 55 l-639 0 l-19 51 l1360 0 l111 143 l24 -22 q65 -59 123 -133 l-20 -39 l-809 0 l-6 -51 q-45 -299 -74 -469 l-6 -39 l450 0 l86 104 q134 -105 134 -135 q0 -9 -13 -18 l-63 -39 l0 -717 l201 0 l106 145 q73 -70 133 -151 l-24 -45 l-1788 0 l-23 51 l516 0 l12 59 q84 392 134 695 ZM908 793 l-33 -184 q-58 -310 -103 -509 l-12 -61 l629 0 l0 754 l-481 0 Z" /><glyph glyph-name="uni4E9B" unicode="&#x4e9b;" d="M750 760 q142 29 342 82 l12 -52 q-455 -156 -858 -241 q-16 -84 -41 -84 q-40 0 -86 184 q47 6 149 23 l39 6 l0 767 q195 -6 195 -51 q0 -27 -82 -57 l0 -641 l33 6 l43 6 l80 17 l57 10 l0 911 q203 -6 203 -51 q0 -24 -86 -57 l0 -328 l145 0 l91 119 q18 -19 38 -41 q24 -26 76 -92 l-24 -37 l-326 0 l0 -399 ZM1282 1110 q223 122 416 340 q149 -95 149 -133 q0 -23 -49 -23 q-6 0 -51 4 q-203 -151 -465 -249 l0 -240 q0 -44 20 -55 q36 -23 230 -23 q168 0 194 20 q42 30 58 263 l57 -21 q0 -177 23 -213 q14 -26 65 -26 q-3 -88 -53 -109 q-47 -20 -309 -20 q-305 0 -359 35 q-45 27 -45 133 l0 852 q201 -7 201 -50 q0 -26 -82 -59 l0 -426 ZM1426 403 l108 123 q82 -71 141 -139 l-22 -35 l-1253 0 l-25 51 l1051 0 ZM1655 -15 l113 133 q12 -12 24 -20 q51 -40 133 -129 l-22 -35 l-1753 0 l-21 51 l1526 0 Z" /><glyph glyph-name="uni4E9E" unicode="&#x4e9e;" d="M723 -8 l0 508 l-309 0 l0 -144 l-117 0 l0 784 q85 -28 144 -57 l291 0 l0 394 l-550 0 l-26 51 l1501 0 l109 143 q88 -81 149 -155 l-20 -39 l-606 0 l0 -394 l315 0 l80 99 q127 -106 127 -134 q0 -17 -21 -28 l-53 -33 l0 -600 l-117 0 l0 113 l-321 0 l0 -508 l383 0 l110 145 q89 -80 150 -157 l-23 -39 l-1786 0 l-24 51 l614 0 ZM840 -8 l344 0 l0 635 q79 -36 146 -76 l290 0 l0 481 l-331 0 l0 -119 l-117 0 l0 564 l-323 0 l0 -574 l-117 0 l0 129 l-318 0 l0 -481 l293 0 l76 90 q123 -98 123 -127 q0 -14 -20 -28 l-46 -31 l0 -463 Z" /><glyph glyph-name="uni4EA4" unicode="&#x4ea4;" d="M957 344 q-155 161 -318 438 l49 29 q177 -258 332 -397 q141 174 250 450 q170 -71 170 -110 q0 -29 -92 -29 q-105 -219 -242 -383 q278 -217 746 -322 q-70 -56 -103 -129 q-465 155 -711 373 q-328 -300 -839 -414 l-29 50 q479 142 772 432 l15 12 ZM953 1346 l0 334 q211 -6 211 -56 q0 -30 -94 -57 l0 -221 l555 0 l112 141 q68 -59 152 -151 l-23 -41 l-1687 0 l-25 51 l799 0 ZM1235 1206 q514 -261 514 -446 q0 -76 -66 -76 q-37 0 -65 47 q-128 228 -412 432 l29 43 ZM217 633 q270 215 438 567 q173 -77 173 -115 q0 -29 -99 -32 q-173 -274 -477 -463 l-35 43 Z" /><glyph glyph-name="uni4EA6" unicode="&#x4ea6;" d="M797 1213 l-623 0 l-16 51 l806 0 l0 399 q215 -6 215 -49 q0 -27 -94 -57 l0 -293 l541 0 l113 143 q89 -76 153 -153 l-24 -41 l-580 0 l0 -1126 q0 -175 -217 -175 q-3 67 -66 91 q-49 19 -198 41 l0 53 q163 -14 292 -14 q70 0 70 67 l0 1063 l-249 0 l0 -88 q0 -461 -123 -744 q-137 -320 -502 -505 l-32 45 q350 228 464 620 q70 239 70 584 l0 88 ZM1415 1008 q264 -213 396 -440 q53 -98 53 -164 q0 -86 -76 -86 q-45 0 -63 63 q-95 309 -347 588 l37 39 ZM135 297 q215 267 317 701 q191 -71 191 -115 q0 -30 -92 -33 q-133 -367 -375 -587 l-41 34 Z" /><glyph glyph-name="uni4EBA" unicode="&#x4eba;" d="M1058 1507 l0 -67 q0 -957 889 -1385 q-83 -58 -119 -121 q-471 293 -651 684 q-99 212 -135 486 q-59 -455 -260 -739 q-216 -299 -650 -465 l-30 45 q471 231 659 622 q168 345 168 858 l0 195 q219 -9 219 -55 q0 -30 -90 -58 Z" /><glyph glyph-name="uni4EC0" unicode="&#x4ec0;" d="M1350 885 l0 -1032 l-125 0 l0 1032 l-545 0 l-19 51 l564 0 l0 702 q217 -6 217 -51 q0 -29 -92 -63 l0 -588 l352 0 l109 147 q96 -99 139 -157 l-21 -41 l-579 0 ZM504 1096 q107 -15 107 -45 q0 -25 -82 -55 l0 -1143 l-119 0 l0 1069 q-137 -233 -287 -408 l-43 37 q344 482 510 1137 q197 -52 197 -102 q0 -30 -92 -39 q-94 -251 -191 -451 Z" /><glyph glyph-name="uni4ECA" unicode="&#x4eca;" d="M1065 1581 q345 -435 886 -661 q-69 -54 -102 -123 q-553 316 -819 729 q-322 -524 -897 -795 l-31 45 q560 303 868 918 q176 -31 176 -68 q0 -27 -81 -45 ZM1173 950 l107 123 q71 -62 139 -133 l-23 -41 l-743 0 l-21 51 l541 0 ZM1384 602 l86 94 q123 -107 123 -135 q0 -13 -23 -26 l-51 -29 q-137 -352 -327 -664 l-115 50 q205 328 321 659 l-981 0 l-20 51 l987 0 Z" /><glyph glyph-name="uni4ECB" unicode="&#x4ecb;" d="M1059 1577 q1 -2 6 -8 q6 -7 8 -10 q314 -413 844 -623 q-72 -50 -109 -121 q-517 269 -782 709 l-8 -15 q-303 -504 -854 -766 l-31 45 q536 310 829 906 q187 -40 187 -76 q0 -26 -90 -41 ZM258 -109 q389 215 389 680 l0 365 q209 -9 209 -55 q0 -27 -86 -58 l0 -250 q0 -325 -156 -512 q-107 -125 -323 -215 l-33 45 ZM1288 -123 l0 1067 q209 -9 209 -55 q0 -27 -88 -58 l0 -954 l-121 0 Z" /><glyph glyph-name="uni4ECD" unicode="&#x4ecd;" d="M1110 1430 q-6 -524 -80 -822 q-110 -453 -460 -735 l-37 37 q301 298 397 796 q50 262 59 724 l-335 0 l-19 51 l811 0 l80 100 q129 -107 129 -137 q0 -16 -20 -24 l-60 -31 q-21 -241 -61 -457 l-4 -23 l202 0 l78 101 q132 -104 132 -129 q0 -10 -19 -25 l-51 -39 q-19 -586 -123 -770 q-73 -131 -258 -131 q0 60 -74 88 q-56 21 -248 55 l0 54 q218 -31 342 -31 q134 0 168 115 q68 230 80 661 l-240 0 q-13 -68 -32 -150 l-113 21 q77 341 111 701 l-355 0 ZM437 1090 q109 -22 109 -51 q0 -25 -80 -56 l0 -1130 l-119 0 l0 1051 q-108 -205 -242 -383 l-43 28 q304 488 449 1137 q188 -37 188 -86 q0 -31 -92 -43 q-66 -223 -170 -467 Z" /><glyph glyph-name="uni4ED6" unicode="&#x4ed6;" d="M951 975 l0 -848 q0 -62 39 -74 q52 -18 350 -18 q382 0 421 37 q53 46 68 331 l53 -16 q0 -225 19 -274 q15 -46 69 -46 q-3 -99 -92 -120 q-105 -23 -563 -23 q-369 0 -428 37 q-55 34 -55 156 l0 821 l-209 -66 l-33 43 l242 78 l0 547 q207 -3 207 -51 q0 -28 -88 -62 l0 -395 l280 90 l0 561 q201 -3 201 -49 q0 -26 -86 -59 l0 -414 l298 96 l74 113 q136 -95 136 -123 q0 -11 -19 -27 l-53 -39 l0 -632 q0 -163 -185 -160 q-3 88 -179 119 l0 51 q94 -15 186 -15 q63 0 63 66 l0 592 l-321 -102 l0 -830 l-115 0 l0 795 l-280 -90 ZM459 1094 q123 -21 123 -55 q0 -26 -84 -54 l0 -1132 l-117 0 l0 1077 q-125 -234 -266 -413 l-43 30 q303 462 451 1161 q198 -42 198 -88 q0 -28 -92 -47 q-74 -267 -170 -479 Z" /><glyph glyph-name="uni4EE3" unicode="&#x4ee3;" d="M1218 932 q72 -344 213 -551 q107 -159 229 -247 q27 -21 41 -21 q58 0 101 413 l55 -26 q-14 -187 -14 -289 q0 -183 82 -201 q-22 -102 -107 -102 q-125 0 -305 174 q-318 305 -416 836 l-459 -54 l-28 51 l477 58 q-39 239 -39 549 l0 125 q201 -3 201 -54 q0 -25 -78 -53 l0 -27 q0 -295 37 -526 l471 55 l86 148 q10 -8 20 -19 q66 -52 129 -118 l-16 -41 l-680 -80 ZM506 1104 q105 -21 105 -49 q0 -25 -82 -49 l0 -1153 l-121 0 l0 1069 q-120 -215 -285 -403 l-45 30 q348 496 514 1145 q195 -55 195 -104 q0 -28 -92 -37 q-86 -238 -189 -449 ZM1345 1540 q159 -55 248 -135 q76 -67 76 -127 q0 -82 -76 -82 q-51 0 -76 74 q-37 120 -196 227 l24 43 Z" /><glyph glyph-name="uni4EE4" unicode="&#x4ee4;" d="M1046 1593 q348 -406 907 -606 q-63 -53 -100 -125 q-557 275 -840 680 q-329 -496 -882 -768 l-31 45 q548 317 848 881 q178 -34 178 -66 q0 -22 -80 -41 ZM1001 643 l0 -790 l-121 0 l0 790 l-532 0 l-21 51 l1138 0 l83 94 q121 -93 121 -118 q0 -15 -23 -31 l-43 -33 l0 -409 q0 -115 -78 -150 q-52 -19 -121 -22 q0 60 -63 84 q-50 18 -197 43 l0 53 q175 -18 266 -18 q76 0 76 61 l0 395 l-485 0 ZM1183 1014 l99 119 q89 -73 137 -129 l-23 -41 l-766 0 l-18 51 l571 0 Z" /><glyph glyph-name="uni4EE5" unicode="&#x4ee5;" d="M1499 547 q243 -169 354 -330 q72 -106 72 -170 q0 -82 -70 -82 q-49 0 -67 55 q-82 242 -309 469 q-185 -440 -770 -600 l-31 45 q605 225 731 736 q73 297 76 929 q205 -12 205 -61 q0 -26 -80 -53 q-16 -646 -111 -938 ZM426 315 l-41 1252 q209 -3 209 -49 q0 -27 -84 -58 l37 -1095 q302 129 573 276 l23 -51 q-473 -291 -875 -473 q-3 -88 -32 -88 q-41 0 -109 176 q173 56 299 110 ZM774 1470 q209 -124 311 -270 q68 -95 68 -166 q0 -82 -74 -82 q-42 0 -73 90 q-77 217 -261 391 l29 37 Z" /><glyph glyph-name="uni4EF6" unicode="&#x4ef6;" d="M469 1090 q100 -21 100 -53 q0 -27 -82 -52 l0 -1132 l-121 0 l0 1046 q-121 -208 -268 -380 l-41 32 q325 472 493 1139 q199 -46 199 -94 q0 -31 -98 -43 q-75 -244 -182 -463 ZM1331 1102 l0 -524 l354 0 l111 149 q77 -73 141 -159 l-26 -41 l-580 0 l0 -674 l-123 0 l0 674 l-594 0 l-20 51 l614 0 l0 524 l-295 0 q-90 -261 -225 -450 l-45 26 q176 355 237 868 q199 -39 199 -82 q0 -27 -84 -49 q-37 -171 -66 -262 l279 0 l0 518 q215 -9 215 -57 q0 -29 -92 -60 l0 -401 l287 0 l100 141 q71 -60 143 -153 l-22 -39 l-508 0 Z" /><glyph glyph-name="uni4EFD" unicode="&#x4efd;" d="M1056 768 l-221 0 l-18 51 l698 0 l68 80 q125 -94 125 -125 q0 -9 -11 -16 l-45 -29 q3 -630 -96 -764 q-54 -76 -186 -88 q-3 65 -86 92 q-52 19 -209 43 l0 54 q158 -21 291 -21 q103 0 125 102 q40 197 43 621 l-349 0 q-12 -290 -88 -469 q-120 -290 -460 -446 l-31 43 q339 213 416 563 q31 136 34 309 ZM467 1094 q96 -19 96 -51 q0 -27 -78 -55 l0 -1135 l-121 0 l0 1049 q-112 -194 -266 -383 l-41 32 q336 507 483 1137 q199 -52 199 -94 q0 -28 -94 -43 q-73 -237 -178 -457 ZM571 661 q302 338 385 768 q195 -46 195 -88 q0 -27 -82 -39 q-147 -401 -459 -676 l-39 35 ZM1374 1552 l84 113 q127 -103 127 -133 q0 -15 -23 -25 l-80 -33 q135 -387 502 -634 q-65 -45 -106 -121 q-346 300 -469 782 l-324 0 l-22 51 l311 0 Z" /><glyph glyph-name="uni4F34" unicode="&#x4f34;" d="M1284 510 l416 0 l108 137 q81 -77 133 -147 l-24 -41 l-633 0 l0 -606 l-123 0 l0 606 l-539 0 l-22 51 l561 0 l0 361 l-393 0 l-21 51 l414 0 l0 743 q217 -9 217 -55 q0 -27 -94 -63 l0 -625 l254 0 l96 131 q74 -68 129 -139 l-22 -43 l-457 0 l0 -361 ZM364 910 q-122 -221 -266 -391 l-41 32 q325 500 467 1145 q192 -52 192 -96 q0 -30 -94 -45 q-68 -240 -168 -463 q115 -20 115 -53 q0 -26 -84 -54 l0 -1132 l-121 0 l0 1057 ZM1808 1026 q-27 0 -42 23 q-9 14 -25 59 q-78 211 -304 385 l35 29 q206 -98 323 -225 q89 -98 89 -169 q0 -102 -76 -102 ZM643 915 l-45 27 q180 296 256 606 q194 -77 194 -125 q0 -32 -96 -32 q-102 -228 -309 -476 Z" /><glyph glyph-name="uni4F38" unicode="&#x4f38;" d="M899 1307 l317 0 l0 383 q209 -9 209 -55 q0 -27 -88 -58 l0 -270 l359 0 l75 98 q130 -101 130 -131 q0 -14 -21 -28 l-49 -37 l0 -908 l-119 0 l0 123 l-375 0 l0 -571 l-121 0 l0 571 l-342 0 l0 -150 l-117 0 l0 1107 l16 -8 q66 -32 126 -66 ZM874 1256 l0 -347 l342 0 l0 347 l-342 0 ZM1712 475 l0 383 l-375 0 l0 -383 l375 0 ZM1712 909 l0 347 l-375 0 l0 -347 l375 0 ZM1216 858 l-342 0 l0 -383 l342 0 l0 383 ZM464 1090 q105 -22 105 -51 q0 -26 -82 -54 l0 -1132 l-117 0 l0 1061 q-123 -216 -272 -395 l-41 32 q320 470 493 1139 q191 -55 191 -98 q0 -29 -92 -41 q-83 -255 -185 -461 Z" /><glyph glyph-name="uni4F3A" unicode="&#x4f3a;" d="M911 905 l352 0 l76 91 q125 -92 125 -124 q0 -14 -17 -24 l-55 -35 l0 -530 l-113 0 l0 133 l-382 0 l0 -170 l-115 0 l0 727 q4 -1 12 -5 q12 -5 17 -7 q35 -17 100 -56 ZM897 854 l0 -387 l382 0 l0 387 l-382 0 ZM438 1096 q129 -21 129 -59 q0 -26 -84 -54 l0 -1130 l-119 0 l0 1085 q-129 -245 -262 -419 l-45 30 q301 490 444 1159 q203 -40 203 -88 q0 -29 -94 -45 q-68 -242 -172 -479 ZM1321 1208 l98 127 q65 -55 133 -135 l-25 -43 l-821 0 l-18 51 l633 0 ZM1656 1534 l85 104 q129 -104 129 -135 q0 -13 -17 -26 l-53 -37 l0 -1384 q0 -180 -221 -177 q0 58 -54 86 q-50 24 -237 52 l0 57 q187 -21 303 -21 q88 0 88 66 l0 1364 l-993 0 l-23 51 l993 0 Z" /><glyph glyph-name="uni4F3C" unicode="&#x4f3c;" d="M1543 397 q398 -230 398 -417 q0 -82 -74 -82 q-48 0 -76 78 q-70 187 -274 372 q-197 -329 -664 -491 l-31 47 q473 222 637 581 q111 246 111 584 l0 498 q203 -3 203 -54 q0 -27 -84 -55 l0 -391 q0 -388 -146 -670 ZM774 334 l0 1151 q197 -4 197 -50 q0 -29 -82 -59 l0 -1001 q239 92 444 196 l13 -53 q-315 -196 -656 -344 q-3 -86 -29 -86 q-42 0 -104 176 q82 24 217 70 ZM444 1090 q105 -18 105 -51 q0 -28 -86 -56 l0 -1130 l-115 0 l0 1046 q-126 -224 -252 -380 l-43 32 q301 447 469 1135 q191 -40 191 -88 q0 -29 -90 -41 q-77 -249 -179 -467 ZM1075 1409 q297 -202 297 -391 q0 -86 -70 -86 q-50 0 -65 84 q-41 191 -193 358 l31 35 Z" /><glyph glyph-name="uni4F46" unicode="&#x4f46;" d="M987 1495 l586 0 l76 96 q133 -108 133 -133 q0 -12 -15 -20 l-59 -41 l0 -1196 l-121 0 l0 166 l-631 0 l0 -183 l-119 0 l0 1381 q52 -19 150 -70 ZM956 1444 l0 -469 l631 0 l0 469 l-631 0 ZM1587 418 l0 506 l-631 0 l0 -506 l631 0 ZM467 1090 q102 -22 102 -51 q0 -26 -86 -54 l0 -1132 l-117 0 l0 1049 q-121 -210 -266 -385 l-43 34 q318 473 489 1139 q201 -46 201 -96 q0 -29 -98 -41 q-71 -227 -182 -463 ZM1693 -6 l109 141 q77 -65 137 -147 l-22 -45 l-1268 0 l-23 51 l1067 0 Z" /><glyph glyph-name="uni4F4D" unicode="&#x4f4d;" d="M1163 1210 l0 430 q209 -6 209 -53 q0 -30 -92 -58 l0 -319 l340 0 l108 152 q89 -86 150 -162 l-23 -41 l-1208 0 l-19 51 l535 0 ZM1275 14 l21 66 q141 468 221 974 q207 -58 207 -108 q0 -29 -88 -35 q-126 -495 -289 -897 l336 0 l113 158 q12 -10 22 -23 q72 -71 125 -145 l-22 -41 l-1330 0 l-18 51 l702 0 ZM458 1092 q113 -21 113 -53 q0 -26 -82 -54 l0 -1132 l-121 0 l0 1059 q-123 -222 -266 -395 l-41 32 q301 448 471 1145 q195 -46 195 -94 q0 -29 -91 -41 q-76 -243 -178 -467 ZM800 1014 q303 -468 303 -764 q0 -127 -78 -127 q-59 0 -65 125 q-22 330 -205 740 l45 26 Z" /><glyph glyph-name="uni4F4F" unicode="&#x4f4f;" d="M1294 569 l0 -582 l403 0 l105 150 q70 -65 141 -160 l-24 -41 l-1301 0 l-24 51 l575 0 l0 582 l-446 0 l-23 51 l469 0 l0 492 l-502 0 l-24 51 l1001 0 l99 139 q85 -79 135 -149 l-23 -41 l-561 0 l0 -492 l287 0 l96 135 q70 -67 131 -147 l-22 -39 l-492 0 ZM464 1090 q103 -16 103 -49 q0 -25 -80 -56 l0 -1132 l-121 0 l0 1053 q-126 -214 -268 -387 l-41 32 q321 469 487 1139 q197 -52 197 -96 q0 -28 -94 -43 q-75 -240 -183 -461 ZM993 1686 q342 -170 342 -332 q0 -80 -74 -80 q-51 0 -76 80 q-49 151 -223 288 l31 44 Z" /><glyph glyph-name="uni4F50" unicode="&#x4f50;" d="M1006 676 q-159 -422 -430 -709 l-41 37 q350 452 485 1172 l-397 0 l-19 51 l426 0 q31 173 56 451 q209 -25 209 -70 q0 -27 -89 -51 q-22 -173 -49 -330 l545 0 l107 141 q75 -67 145 -153 l-24 -39 l-783 0 q-46 -224 -123 -449 l609 0 l100 133 q65 -57 131 -145 l-20 -39 l-416 0 l0 -670 l297 0 l102 139 q83 -83 135 -147 l-22 -43 l-1137 0 l-20 51 l522 0 l0 670 l-299 0 ZM459 1092 q103 -25 103 -53 q0 -26 -80 -54 l0 -1132 l-117 0 l0 1042 q-109 -207 -244 -387 l-45 31 q299 474 449 1157 q195 -46 195 -90 q0 -29 -95 -47 q-71 -255 -166 -467 Z" /><glyph glyph-name="uni4F55" unicode="&#x4f55;" d="M884 1038 l304 0 l78 94 q119 -94 119 -125 q0 -9 -17 -22 l-49 -35 l0 -626 l-115 0 l0 137 l-342 0 l0 -160 l-115 0 l0 807 q74 -32 137 -70 ZM862 987 l0 -475 l342 0 l0 475 l-342 0 ZM1741 1381 l0 -1329 q0 -175 -207 -172 q-3 56 -84 84 q-53 19 -230 45 l0 55 q174 -20 326 -20 q74 0 74 65 l0 1272 l-945 0 l-22 51 l1086 0 l104 141 q74 -62 146 -151 l-23 -41 l-225 0 ZM448 1090 q103 -22 103 -51 q0 -26 -80 -54 l0 -1132 l-121 0 l0 1040 q-112 -206 -252 -379 l-43 29 q309 461 469 1149 q193 -49 193 -92 q0 -26 -93 -41 q-71 -243 -176 -469 Z" /><glyph glyph-name="uni4F5C" unicode="&#x4f5c;" d="M1273 1237 l0 -354 l350 0 l109 135 q58 -47 121 -123 l16 -20 l-21 -43 l-575 0 l0 -382 l365 0 l114 146 q80 -73 146 -158 l-23 -39 l-602 0 l0 -546 l-121 0 l0 1384 l-164 0 q-113 -298 -336 -569 l-43 31 q272 428 379 999 q193 -46 193 -88 q0 -28 -84 -43 q-31 -120 -88 -279 l698 0 l111 148 q76 -71 143 -158 l-22 -41 l-666 0 ZM507 1092 q107 -21 107 -53 q0 -26 -82 -54 l0 -1132 l-117 0 l0 1063 q-128 -220 -268 -397 l-43 30 q330 500 483 1141 q197 -46 197 -90 q0 -30 -94 -45 q-84 -273 -183 -463 Z" /><glyph glyph-name="uni4F60" unicode="&#x4f60;" d="M1378 1233 l0 -1192 q0 -172 -207 -172 q-3 62 -63 86 q-46 18 -201 43 l0 55 q138 -16 284 -16 q66 0 66 61 l0 1135 l-301 0 q-105 -221 -266 -424 l-43 31 q222 352 323 864 q197 -37 197 -82 q0 -27 -90 -45 q-45 -163 -98 -293 l747 0 l78 113 q147 -129 147 -166 q0 -16 -22 -23 l-60 -18 q-59 -111 -167 -252 l-43 23 q47 118 84 272 l-365 0 ZM460 1094 q101 -15 101 -49 q0 -26 -78 -57 l0 -1135 l-121 0 l0 1053 q-120 -212 -264 -387 l-41 32 q310 470 479 1137 q197 -43 197 -90 q0 -29 -92 -47 q-75 -243 -181 -457 ZM1542 952 q362 -390 362 -647 q0 -108 -82 -108 q-49 0 -67 108 q-44 296 -252 619 l39 28 ZM680 158 q181 354 258 788 q190 -52 190 -94 q0 -29 -82 -41 q-101 -381 -319 -682 l-47 29 Z" /><glyph glyph-name="uni4F73" unicode="&#x4f73;" d="M1304 430 l0 -412 l401 0 l111 139 q75 -69 141 -149 l-24 -41 l-1317 0 l-23 51 l588 0 l0 412 l-453 0 l-20 51 l473 0 l0 326 q211 -10 211 -54 q0 -27 -88 -57 l0 -215 l311 0 l99 133 q76 -64 135 -141 l-25 -43 l-520 0 ZM1181 911 l0 367 l-418 0 l-22 51 l440 0 l0 363 q207 -4 207 -52 q0 -25 -84 -59 l0 -252 l295 0 l92 131 q85 -78 131 -139 l-24 -43 l-494 0 l0 -367 l383 0 l104 135 q75 -63 140 -145 l-21 -41 l-1241 0 l-21 51 l533 0 ZM463 1090 q102 -19 102 -51 q0 -26 -82 -54 l0 -1132 l-119 0 l0 1051 q-130 -223 -266 -385 l-41 32 q319 469 479 1139 q201 -46 201 -94 q0 -30 -96 -45 q-77 -249 -178 -461 Z" /><glyph glyph-name="uni4F7F" unicode="&#x4f7f;" d="M1207 1081 l0 242 l-605 0 l-18 51 l623 0 l0 315 q207 -9 207 -53 q0 -28 -88 -55 l0 -207 l384 0 l104 131 q77 -70 136 -141 l-23 -41 l-601 0 l0 -242 l318 0 l82 101 q126 -101 126 -130 q0 -12 -19 -24 l-53 -33 l0 -479 l-115 0 l0 111 l-339 0 q-3 -187 -74 -338 q282 -200 728 -277 q-68 -58 -94 -125 q-418 115 -677 326 q-168 -266 -629 -365 l-27 49 q426 126 570 392 q-97 97 -182 204 l36 37 q104 -106 180 -168 q46 120 50 265 l-356 0 l0 -111 l-116 0 l0 637 q76 -34 134 -72 l338 0 ZM1207 1030 l-356 0 l0 -352 l356 0 l0 352 ZM1326 1030 l0 -352 l339 0 l0 352 l-339 0 ZM427 1092 q111 -21 111 -53 q0 -26 -84 -54 l0 -1132 l-117 0 l0 1049 q-100 -197 -234 -371 l-45 35 q292 454 430 1122 q193 -40 193 -84 q0 -27 -90 -43 q-80 -276 -164 -469 Z" /><glyph glyph-name="uni4F86" unicode="&#x4f86;" d="M1219 631 q144 233 191 551 q188 -53 188 -96 q0 -25 -84 -37 q-27 -90 -49 -144 q322 -180 322 -325 q0 -74 -64 -74 q-46 0 -73 74 q-54 131 -208 272 q-75 -161 -184 -266 q272 -293 707 -457 q-74 -57 -107 -122 q-510 247 -782 718 l0 -872 l-121 0 l0 760 q-297 -432 -817 -678 l-33 45 q620 361 850 858 l0 436 l-782 0 l-19 51 l801 0 l0 367 q217 0 217 -47 q0 -28 -96 -62 l0 -258 l563 0 l111 145 q90 -84 147 -151 l-26 -45 l-795 0 l0 -438 q79 -127 143 -205 ZM560 909 q252 -110 252 -231 q0 -74 -66 -74 q-37 0 -67 68 q-45 103 -146 182 l-4 -12 q-104 -211 -303 -391 l-39 34 q218 267 319 693 q193 -49 193 -95 q0 -28 -90 -41 q-16 -48 -49 -133 Z" /><glyph glyph-name="uni4F8B" unicode="&#x4f8b;" d="M993 537 q-17 -14 -47 -14 q-42 0 -58 55 q-25 78 -131 153 q-89 -175 -233 -338 l-41 33 q298 421 350 1034 l-270 0 l-17 51 l607 0 l96 135 q61 -64 129 -147 l-23 -39 l-399 0 q-36 -255 -59 -340 q-2 -2 -3 -6 q-1 -5 -2 -8 l234 0 l78 98 q119 -97 119 -129 q0 -13 -23 -26 l-43 -25 q-82 -424 -231 -682 q-161 -282 -476 -487 l-36 39 q314 253 479 643 ZM1011 584 q87 225 125 471 l-258 0 q-39 -148 -100 -279 q233 -82 233 -184 l0 -8 ZM401 1102 q109 -15 109 -51 q0 -26 -88 -53 l0 -1145 l-115 0 l0 1018 q-82 -179 -205 -352 l-45 32 q255 430 363 1135 q190 -40 190 -80 q0 -25 -82 -43 q-55 -265 -127 -461 ZM1392 297 l0 1114 q197 -9 197 -53 q0 -26 -82 -53 l0 -1008 l-115 0 ZM1407 57 q161 -18 261 -18 q70 0 70 67 l0 1559 q199 -12 199 -59 q0 -24 -78 -52 l0 -1511 q0 -175 -201 -172 q0 65 -65 90 q-43 19 -186 41 l0 55 Z" /><glyph glyph-name="uni4F9B" unicode="&#x4f9b;" d="M439 1092 q111 -22 111 -53 q0 -26 -86 -54 l0 -1132 l-119 0 l0 1044 q-100 -193 -240 -376 l-43 32 q305 483 449 1135 q189 -40 189 -88 q0 -28 -93 -43 q-82 -285 -168 -465 ZM914 594 l0 547 l-293 0 l-23 51 l316 0 l0 459 q203 -10 203 -54 q0 -27 -82 -57 l0 -348 l342 0 l0 471 q207 -15 207 -64 q0 -27 -88 -55 l0 -352 l153 0 l96 135 q61 -52 134 -143 l-23 -43 l-360 0 l0 -547 l200 0 l107 141 q67 -64 135 -151 l-23 -41 l-1380 0 l-21 51 l400 0 ZM1035 594 l342 0 l0 547 l-342 0 l0 -547 ZM1358 457 q516 -283 516 -469 q0 -82 -74 -82 q-35 0 -76 72 q-126 227 -397 440 l31 39 ZM539 -80 q262 205 413 541 q177 -84 177 -121 q0 -27 -99 -27 q-172 -268 -456 -436 l-35 43 Z" /><glyph glyph-name="uni4F9D" unicode="&#x4f9d;" d="M1245 1219 q-87 -179 -187 -317 l0 -781 q188 49 388 125 l17 -53 q-310 -148 -629 -254 q-15 -80 -39 -80 q-38 0 -96 180 q32 7 113 25 q83 18 131 29 l0 665 q-166 -184 -414 -344 l-35 45 q390 292 616 760 l-526 0 l-16 51 l610 0 l0 408 q205 -3 205 -50 q0 -27 -88 -57 l0 -301 l399 0 l104 135 q65 -55 138 -147 l-21 -39 l-610 0 l6 -39 q48 -304 145 -526 l11 -23 q168 166 280 344 q146 -102 146 -147 q0 -23 -37 -23 q-15 0 -49 6 q-145 -122 -316 -233 q155 -306 459 -573 q-75 -45 -119 -105 q-385 382 -512 868 q-46 175 -74 451 ZM435 1090 q105 -22 105 -51 q0 -26 -84 -54 l0 -1132 l-117 0 l0 1036 q-108 -199 -240 -375 l-45 35 q307 480 445 1139 q190 -40 190 -86 q0 -30 -88 -45 q-71 -252 -166 -467 Z" /><glyph glyph-name="uni4FB6" unicode="&#x4fb6;" d="M989 1538 l619 0 l73 90 q123 -89 123 -121 q0 -11 -18 -26 l-49 -37 l0 -565 l-115 0 l0 106 l-258 0 q-66 -219 -141 -373 l471 0 l78 92 q127 -93 127 -123 q0 -12 -17 -22 l-49 -31 l0 -675 l-119 0 l0 157 l-813 0 l0 -157 l-121 0 l0 820 q65 -22 139 -61 l234 0 q38 176 58 373 l-240 0 l0 -115 l-115 0 l0 725 q98 -38 133 -57 ZM971 1487 l0 -451 l651 0 l0 451 l-651 0 ZM901 561 l0 -500 l813 0 l0 500 l-813 0 ZM477 1090 q109 -22 109 -51 q0 -28 -82 -56 l0 -1130 l-119 0 l0 1057 q-114 -209 -258 -393 l-45 30 q333 522 465 1153 q199 -49 199 -94 q0 -25 -90 -41 q-70 -243 -179 -475 Z" /><glyph glyph-name="uni4FBF" unicode="&#x4fbf;" d="M1686 625 l-358 0 q-10 -222 -72 -371 q281 -188 702 -250 q-52 -46 -86 -123 q-440 107 -661 291 q-200 -258 -644 -325 l-26 51 q391 86 582 356 q-88 88 -201 246 l47 30 q110 -134 193 -202 q37 107 47 297 l-346 0 l0 -99 l-117 0 l0 786 q19 -6 135 -59 l330 0 l0 250 l-498 0 l-23 51 l1012 0 l103 131 q82 -70 143 -143 l-21 -39 l-595 0 l0 -250 l335 0 l78 92 q126 -94 126 -127 q0 -12 -17 -22 l-51 -35 l0 -655 l-117 0 l0 119 ZM1686 676 l0 242 l-354 0 l0 -162 q0 -62 -2 -80 l356 0 ZM1686 969 l0 233 l-354 0 l0 -233 l354 0 ZM1211 1202 l-348 0 l0 -233 l348 0 l0 233 ZM1211 918 l-348 0 l0 -242 l346 0 q2 16 2 74 l0 168 ZM441 1092 q111 -22 111 -53 q0 -26 -86 -54 l0 -1132 l-117 0 l0 1051 q-96 -189 -238 -387 l-45 32 q311 509 447 1139 q186 -34 186 -78 q0 -28 -82 -43 q-80 -263 -176 -475 Z" /><glyph glyph-name="uni4FC2" unicode="&#x4fc2;" d="M1016 691 l8 6 q258 216 561 588 q158 -90 158 -131 q0 -23 -51 -23 q-15 0 -56 6 q-257 -257 -524 -444 q315 17 496 28 l94 6 q-83 98 -199 183 l31 37 q221 -105 332 -228 q82 -91 82 -159 q0 -70 -64 -70 q-39 0 -74 72 q-20 46 -67 112 l-21 -4 q-221 -33 -407 -47 l0 -770 l-121 0 l0 758 q-131 -12 -496 -41 q-21 -70 -43 -70 q-36 0 -70 178 q160 3 431 13 ZM977 1092 q149 182 236 340 q-223 -38 -580 -86 l-27 51 q669 104 1041 252 q152 -84 152 -118 q0 -18 -41 -18 q-27 0 -84 11 q-216 -50 -424 -84 q141 -62 141 -100 q0 -25 -56 -25 q-22 0 -36 2 q-133 -148 -275 -258 q107 -85 107 -154 q0 -71 -64 -71 q-37 0 -72 65 q-77 146 -296 279 l24 41 q152 -59 254 -127 ZM435 1092 q113 -21 113 -53 q0 -26 -84 -54 l0 -1132 l-117 0 l0 1057 q-102 -201 -242 -389 l-43 28 q310 506 449 1139 q186 -46 186 -86 q0 -30 -94 -45 q-83 -281 -168 -465 ZM1458 473 q244 -117 391 -287 q58 -63 58 -129 q0 -82 -68 -82 q-42 0 -76 76 q-79 187 -333 383 l28 39 ZM547 -31 q215 197 354 502 q165 -77 165 -119 q0 -28 -89 -28 q-160 -243 -397 -396 l-33 41 Z" /><glyph glyph-name="uni4FC3" unicode="&#x4fc3;" d="M1360 45 q155 -41 336 -41 q104 0 282 16 q-42 -54 -67 -133 l-199 0 q-650 0 -807 459 q-88 -281 -297 -494 l-39 35 q237 327 280 869 q199 -37 199 -82 q0 -25 -82 -43 q-12 -90 -37 -190 q75 -239 312 -353 l0 887 l-281 0 l0 -117 l-117 0 l0 773 q48 -18 142 -70 l631 0 l80 94 q127 -102 127 -129 q0 -14 -15 -22 l-53 -39 l0 -607 l-117 0 l0 117 l-278 0 l0 -389 l249 0 l103 131 q77 -65 141 -141 l-26 -41 l-467 0 l0 -490 ZM960 1510 l0 -484 l678 0 l0 484 l-678 0 ZM454 1092 q115 -22 115 -53 q0 -26 -84 -54 l0 -1132 l-121 0 l0 1061 q-122 -220 -262 -397 l-45 34 q308 475 465 1147 q199 -49 199 -94 q0 -28 -93 -43 q-71 -243 -174 -469 Z" /><glyph glyph-name="uni4FDD" unicode="&#x4fdd;" d="M1312 643 l0 -790 l-119 0 l0 790 l-591 0 l-22 51 l613 0 l0 312 l-281 0 l0 -119 l-117 0 l0 717 q63 -28 135 -70 l629 0 l80 98 q125 -97 125 -129 q0 -12 -17 -22 l-53 -31 l0 -551 l-115 0 l0 107 l-267 0 l0 -312 l386 0 l103 131 q53 -42 143 -139 l-25 -43 l-607 0 ZM912 1483 l0 -426 l667 0 l0 426 l-667 0 ZM432 1092 q115 -19 115 -53 q0 -26 -84 -54 l0 -1132 l-117 0 l0 1040 q-110 -223 -223 -387 l-45 29 q282 501 403 1153 q193 -40 193 -84 q0 -28 -88 -43 q-58 -218 -154 -469 ZM567 -6 q225 247 311 539 q183 -96 183 -140 q0 -28 -95 -28 q-111 -210 -358 -404 l-41 33 ZM1513 494 q403 -233 403 -427 q0 -86 -79 -86 q-51 0 -75 86 q-53 190 -280 388 l31 39 Z" /><glyph glyph-name="uni4FE0" unicode="&#x4fe0;" d="M1301 1254 l0 -291 q3 -252 78 -434 q125 230 172 625 q186 -40 186 -82 q0 -24 -80 -39 q-18 -95 -43 -166 q240 -169 240 -313 q0 -76 -64 -76 q-48 0 -63 59 q-35 147 -131 271 q-72 -199 -191 -336 q150 -313 561 -473 q-64 -53 -100 -115 q-365 190 -492 477 q-64 142 -86 316 q-46 -354 -254 -562 q-149 -152 -432 -252 l-27 43 q390 169 523 484 q88 206 88 502 l0 362 l-568 0 l-20 51 l588 0 l0 385 q213 -6 213 -55 q0 -28 -98 -62 l0 -268 l385 0 l104 145 q73 -66 144 -153 l-21 -43 l-612 0 ZM907 866 q193 -137 193 -262 q0 -72 -66 -72 q-42 0 -51 51 q-15 117 -92 228 q-81 -240 -240 -414 l-39 27 q177 269 226 719 q184 -40 184 -80 q0 -25 -78 -41 q-15 -77 -37 -156 ZM447 1092 q117 -18 117 -53 q0 -26 -84 -54 l0 -1130 l-117 0 l0 1061 q-101 -198 -244 -395 l-43 28 q297 475 439 1141 q192 -40 192 -88 q0 -28 -94 -43 q-62 -213 -166 -467 Z" /><glyph glyph-name="uni4FE1" unicode="&#x4fe1;" d="M944 465 l653 0 l75 92 q130 -95 130 -127 q0 -12 -15 -20 l-55 -37 l0 -518 l-119 0 l0 127 l-681 0 l0 -129 l-119 0 l0 673 q51 -20 131 -61 ZM932 414 l0 -381 l681 0 l0 381 l-681 0 ZM450 1092 q113 -18 113 -53 q0 -26 -82 -54 l0 -1132 l-117 0 l0 1067 q-132 -237 -270 -406 l-43 31 q310 477 467 1149 q199 -46 199 -92 q0 -30 -93 -45 q-80 -257 -174 -465 ZM1542 995 l96 117 q57 -46 115 -111 l18 -18 l-22 -39 l-914 0 l-20 51 l727 0 ZM1542 733 l100 125 q70 -64 129 -133 l-20 -43 l-918 0 l-18 51 l727 0 ZM1497 1518 l96 129 q67 -61 137 -137 l-20 -43 l-842 0 l-22 51 l651 0 ZM1722 1255 l101 135 q74 -68 139 -145 l-21 -41 l-1292 0 l-20 51 l1093 0 Z" /><glyph glyph-name="uni4FEE" unicode="&#x4fee;" d="M1036 1315 q-98 -144 -239 -258 l-37 35 q220 248 324 602 q180 -40 180 -82 q0 -27 -82 -39 q-48 -99 -70 -139 l600 0 l99 125 l22 -21 q62 -52 113 -114 l-23 -41 l-225 0 q-109 -193 -254 -338 q217 -119 524 -172 q-62 -56 -88 -119 q-307 82 -508 217 q-244 -195 -583 -299 l-29 47 q301 115 524 320 q-145 124 -248 276 ZM1069 1365 q149 -175 281 -263 q134 141 211 281 l-479 0 l-13 -18 ZM396 1092 q115 -16 115 -53 q0 -28 -86 -56 l0 -1130 l-115 0 l0 1030 q-93 -200 -201 -360 l-43 30 q251 462 367 1133 q191 -40 191 -84 q0 -28 -89 -43 q-68 -282 -139 -467 ZM830 451 q362 132 612 391 q135 -71 135 -104 q0 -25 -59 -25 q-19 0 -35 2 q-258 -210 -631 -312 l-22 48 ZM862 190 q435 141 727 437 q140 -74 140 -110 q0 -23 -58 -23 q-22 0 -37 2 q-316 -255 -749 -357 l-23 51 ZM799 -92 q590 123 991 512 q150 -76 150 -116 q0 -23 -54 -23 q-4 0 -18 1 q-18 2 -27 3 q-437 -345 -1018 -428 l-24 51 ZM603 98 l0 1229 q187 -9 187 -51 q0 -28 -76 -56 l0 -1122 l-111 0 Z" /><glyph glyph-name="uni500B" unicode="&#x500b;" d="M1118 733 l84 0 l0 301 l-311 0 l-21 51 l332 0 l0 303 q193 -3 193 -51 q0 -24 -80 -51 l0 -201 l143 0 l84 117 l31 -29 q40 -37 92 -98 l-20 -41 l-330 0 l0 -301 l90 0 l65 80 q115 -84 115 -107 q0 -11 -16 -24 l-41 -29 l0 -463 l-111 0 l0 109 l-319 0 l0 -121 l-111 0 l0 614 l27 -12 q12 -6 52 -23 q32 -14 52 -24 ZM1098 682 l0 -332 l319 0 l0 332 l-319 0 ZM838 1524 l869 0 l73 94 q128 -96 128 -123 q0 -16 -21 -30 l-47 -33 l0 -1549 l-119 0 l0 125 l-903 0 l0 -125 l-119 0 l0 1709 q54 -22 111 -52 l28 -16 ZM818 1473 l0 -1414 l903 0 l0 1414 l-903 0 ZM394 1112 q119 -15 119 -53 q0 -24 -86 -55 l0 -1151 l-115 0 l0 1053 q-96 -220 -205 -385 l-47 28 q246 480 365 1137 q190 -40 190 -84 q0 -28 -88 -43 q-57 -233 -133 -447 Z" /><glyph glyph-name="uni5011" unicode="&#x5011;" d="M824 1534 l228 0 l70 94 q121 -93 121 -118 q0 -10 -12 -19 l-49 -35 l0 -635 l-113 0 l0 113 l-261 0 l0 -1081 l-119 0 l0 1744 q2 -1 18 -8 q14 -6 25 -12 q12 -6 92 -43 ZM808 1215 l0 -230 l261 0 l0 230 l-261 0 ZM808 1266 l261 0 l0 217 l-261 0 l0 -217 ZM1452 1534 l252 0 l78 98 q122 -99 122 -125 q0 -13 -15 -22 l-51 -35 l0 -1391 q0 -148 -99 -170 q-75 -16 -117 -16 q0 60 -67 88 q-64 25 -208 45 l0 53 q163 -18 281 -18 q91 0 91 63 l0 830 l-287 0 l0 -103 l-113 0 l0 764 q51 -19 133 -61 ZM1719 1215 l-287 0 l0 -230 l287 0 l0 230 ZM1719 1266 l0 217 l-287 0 l0 -217 l287 0 ZM390 1100 q115 -18 115 -51 q0 -26 -82 -53 l0 -1143 l-117 0 l0 1040 q-86 -199 -201 -370 l-43 26 q233 458 363 1137 q186 -37 186 -78 q0 -26 -86 -47 q-61 -256 -135 -461 Z" /><glyph glyph-name="uni5012" unicode="&#x5012;" d="M991 522 l0 -311 q215 51 356 100 l9 -57 q-336 -139 -666 -232 q-13 -86 -39 -86 q-46 0 -99 189 q236 38 328 59 l0 338 l-283 0 l-20 51 l303 0 l0 348 q199 -9 199 -51 q0 -28 -88 -55 l0 -242 l127 0 l88 119 q61 -55 119 -127 l-23 -43 l-311 0 ZM415 1135 q101 -21 101 -49 q0 -26 -80 -53 l0 -1180 l-115 0 l0 1065 q-93 -198 -225 -387 l-45 33 q269 473 410 1124 q188 -46 188 -90 q0 -27 -90 -39 q-58 -209 -144 -424 ZM1204 1036 q-236 -58 -524 -102 q-15 -70 -39 -70 q-41 0 -72 182 q61 3 168 7 q58 162 105 405 l-259 0 l-22 51 l588 0 l94 125 q64 -58 123 -135 l-25 -41 l-352 0 q-88 -233 -188 -403 q187 6 383 32 q-48 98 -140 193 l31 35 q281 -179 281 -344 q0 -82 -68 -82 q-52 0 -68 82 q-2 19 -16 65 ZM1427 297 l0 1161 q189 -6 189 -49 q0 -26 -78 -53 l0 -1059 l-111 0 ZM1431 33 q127 -10 201 -10 q83 0 96 22 q6 16 6 39 l0 1581 q191 -9 191 -55 q0 -29 -78 -60 l0 -1536 q0 -152 -189 -149 q-3 60 -65 82 q-46 17 -162 33 l0 53 Z" /><glyph glyph-name="uni501A" unicode="&#x501a;" d="M462 1090 q109 -22 109 -51 q0 -28 -82 -56 l0 -1130 l-123 0 l0 1055 q-131 -221 -268 -389 l-41 32 q312 462 487 1139 q203 -49 203 -96 q0 -28 -98 -43 q-79 -243 -187 -461 ZM916 696 l286 0 l78 80 q114 -90 114 -121 q0 -11 -10 -18 l-51 -35 l0 -432 l-115 0 l0 106 l-329 0 l0 -145 l-115 0 l0 614 q71 -15 142 -49 ZM889 645 l0 -318 l329 0 l0 318 l-329 0 ZM1241 1323 q197 -42 340 -114 q141 -74 141 -143 q0 -66 -59 -66 q-29 0 -87 57 q-127 131 -356 219 q-118 -240 -522 -317 l-22 45 q394 104 465 405 l-422 0 l-25 51 l457 0 q8 52 8 115 l0 118 q186 -3 186 -43 q0 -23 -65 -45 l0 -30 q0 -57 -6 -115 l339 0 l95 119 l45 -45 q39 -40 79 -88 l-20 -37 l-549 0 q-11 -57 -22 -86 ZM1693 879 l0 -846 q0 -175 -199 -172 q-3 99 -270 127 l0 53 q154 -14 276 -14 q72 0 72 63 l0 789 l-987 0 l-25 51 l1207 0 l90 121 q62 -57 127 -135 l-23 -37 l-268 0 Z" /><glyph glyph-name="uni501F" unicode="&#x501f;" d="M969 688 l583 0 l82 92 q123 -89 123 -121 q0 -14 -20 -28 l-43 -31 l0 -747 l-121 0 l0 127 l-626 0 l0 -127 l-121 0 l0 905 q95 -43 127 -60 l16 -10 ZM1573 322 l-626 0 l0 -291 l626 0 l0 291 ZM1573 373 l0 264 l-626 0 l0 -264 l626 0 ZM1520 1292 l0 -360 l202 0 l105 137 q77 -77 135 -153 l-21 -35 l-1343 0 l-21 51 l392 0 l0 360 l-285 0 l-20 51 l305 0 l0 344 q203 -9 203 -57 q0 -29 -88 -60 l0 -227 l319 0 l0 346 q199 -3 199 -55 q0 -26 -82 -60 l0 -231 l159 0 l95 131 q49 -46 110 -125 l17 -22 l-21 -35 l-360 0 ZM1403 1292 l-319 0 l0 -360 l319 0 l0 360 ZM443 1090 q113 -21 113 -53 q0 -26 -86 -54 l0 -1130 l-117 0 l0 1051 q-103 -197 -240 -383 l-43 30 q307 500 445 1135 q191 -46 191 -92 q0 -29 -93 -41 q-71 -236 -170 -463 Z" /><glyph glyph-name="uni5047" unicode="&#x5047;" d="M855 1561 l269 0 l72 92 q115 -96 115 -125 q0 -14 -14 -22 l-47 -35 l0 -529 l-111 0 l0 107 l-292 0 l0 -361 l222 0 l86 123 q17 -16 37 -45 l492 0 l78 92 q121 -102 121 -133 q0 -10 -15 -18 l-59 -35 q-59 -255 -176 -426 q141 -160 338 -260 q-54 -44 -88 -111 q-195 122 -314 281 q-170 -198 -453 -303 l-30 43 q261 131 420 354 q-113 190 -178 465 l-99 0 q3 -9 13 -19 q3 -9 12 -18 l-23 -41 l-384 0 l0 -342 l241 0 l92 121 q69 -66 113 -131 l-23 -41 l-423 0 l0 -391 l-117 0 l0 1778 q59 -31 125 -70 ZM847 1510 l0 -410 l292 0 l0 410 l-292 0 ZM1391 715 q72 -234 172 -377 q90 170 135 377 l-307 0 ZM1696 1100 l0 410 l-328 0 l-22 51 l327 0 l78 96 q122 -96 122 -125 q0 -11 -13 -20 l-53 -41 l0 -529 l-111 0 l0 107 l-338 0 l-21 51 l359 0 ZM441 1158 q115 -22 115 -54 q0 -25 -86 -53 l0 -1198 l-117 0 l0 1098 q-99 -212 -246 -428 l-43 28 q295 518 408 1151 q191 -40 191 -84 q0 -27 -91 -43 q-61 -233 -131 -417 Z" /><glyph glyph-name="uni5049" unicode="&#x5049;" d="M1265 147 l-459 0 q-18 -84 -26 -112 l-105 10 q44 195 63 358 q177 -3 177 -41 q0 -24 -76 -45 q-7 -47 -22 -119 l448 0 l0 261 l-583 0 l-26 51 l609 0 l0 191 l-320 0 l0 -78 l-113 0 l0 446 q39 -13 127 -55 l618 0 l67 82 q126 -88 126 -115 q0 -14 -19 -26 l-47 -31 l0 -289 l-113 0 l0 66 l-211 0 l0 -191 l287 0 l88 111 q63 -54 121 -123 l-23 -39 l-473 0 l0 -261 l352 0 l97 119 q76 -67 127 -131 l-23 -39 l-553 0 l0 -294 l-115 0 l0 294 ZM1626 1210 l117 0 l86 119 q64 -68 110 -131 l-20 -39 l-1275 0 l-18 51 l389 0 q37 111 65 226 l-313 0 l-20 51 l346 0 q14 66 43 217 q182 -9 182 -51 q0 -26 -82 -47 q-14 -75 -24 -119 l288 0 l72 86 q115 -90 115 -117 q0 -11 -14 -20 l-47 -29 l0 -197 ZM447 1092 q113 -21 113 -53 q0 -26 -84 -54 l0 -1132 l-117 0 l0 1057 q-112 -217 -244 -393 l-45 32 q302 491 445 1139 q188 -43 188 -88 q0 -28 -88 -43 q-67 -232 -168 -465 ZM945 963 l0 -211 l646 0 l0 211 l-646 0 ZM1517 1210 l0 226 l-316 0 q-22 -95 -63 -226 l379 0 Z" /><glyph glyph-name="uni504F" unicode="&#x504f;" d="M1436 340 l-166 0 l0 -436 l-109 0 l0 436 l-161 0 l0 -487 l-111 0 l0 945 q58 -21 125 -53 l694 0 l70 84 q120 -90 120 -119 q0 -9 -12 -18 l-51 -35 l0 -626 q0 -157 -162 -153 q0 75 -126 102 l0 -76 l-111 0 l0 436 ZM1547 340 l0 -307 q86 -4 124 -4 q51 0 51 57 l0 254 l-175 0 ZM1000 391 l161 0 l0 303 l-161 0 l0 -303 ZM1270 391 l166 0 l0 303 l-166 0 l0 -303 ZM1547 391 l175 0 l0 303 l-175 0 l0 -303 ZM850 948 q-3 -702 -305 -1064 l-43 32 q231 383 231 1052 l0 606 q48 -19 129 -63 q480 61 811 176 q150 -91 150 -121 q0 -18 -43 -18 q-30 0 -72 8 q-483 -78 -858 -100 l0 -156 l795 0 l78 90 q115 -96 115 -121 q0 -12 -17 -22 l-49 -31 l0 -339 l-111 0 l0 71 l-811 0 ZM850 999 l811 0 l0 250 l-811 0 l0 -250 ZM336 897 q-89 -194 -219 -389 l-43 29 q277 507 383 1157 q193 -34 193 -80 q0 -29 -86 -45 q-63 -260 -146 -477 q119 -22 119 -55 q0 -26 -84 -54 l0 -1130 l-117 0 l0 1044 Z" /><glyph glyph-name="uni505C" unicode="&#x505c;" d="M936 1245 l625 0 l71 86 q124 -95 124 -121 q0 -12 -17 -22 l-49 -31 l0 -287 l-115 0 l0 70 l-653 0 l0 -80 l-115 0 l0 451 q91 -44 129 -66 ZM922 1194 l0 -203 l653 0 l0 203 l-653 0 ZM426 1092 q107 -18 107 -51 q0 -28 -80 -56 l0 -1132 l-115 0 l0 1034 q-71 -158 -211 -377 l-45 31 q274 490 393 1153 q191 -43 191 -84 q0 -28 -86 -43 q-58 -227 -154 -475 ZM1190 1442 l0 248 q203 -9 203 -51 q0 -26 -86 -54 l0 -143 l381 0 l98 131 q63 -57 131 -139 l-20 -43 l-1270 0 l-21 51 l584 0 ZM729 760 l1010 0 l75 94 q136 -116 136 -151 q0 -18 -21 -21 l-61 -14 q-52 -68 -133 -139 q2 -2 34 -39 l-22 -41 l-424 0 l0 -420 q0 -162 -205 -162 q0 58 -61 80 q-41 16 -201 45 l0 55 q147 -16 264 -16 q86 0 86 63 l0 355 l-450 0 l-21 51 l815 0 l97 111 q12 -11 29 -25 q18 -15 20 -16 q4 12 12 28 q26 56 39 111 l-1016 0 q3 -124 -37 -201 q-37 -71 -88 -71 q-29 0 -57 29 q-21 20 -21 42 q0 35 45 74 q79 76 95 260 l51 -4 q5 -26 10 -78 Z" /><glyph glyph-name="uni50B3" unicode="&#x50b3;" d="M1180 1282 l0 148 l-527 0 l-20 51 l547 0 l0 211 q205 -9 205 -51 q0 -27 -90 -58 l0 -102 l400 0 l101 127 q58 -47 141 -143 l-20 -35 l-622 0 l0 -148 l327 0 l73 86 q123 -89 123 -117 q0 -14 -18 -26 l-45 -31 l0 -412 l-113 0 l0 58 l-347 0 l0 -184 q63 2 182 6 l151 6 q-68 55 -168 106 l19 41 q382 -107 382 -245 q0 -66 -61 -66 q-28 0 -47 29 q-28 46 -68 86 q-408 -57 -927 -76 q-22 -74 -45 -74 q-42 0 -70 178 q325 0 537 7 l0 186 l-303 0 l0 -84 l-113 0 l0 577 q41 -10 134 -51 l282 0 ZM1180 1231 l-303 0 l0 -137 l303 0 l0 137 ZM1295 1231 l0 -137 l347 0 l0 137 l-347 0 ZM1295 1043 l0 -152 l347 0 l0 152 l-347 0 ZM1180 1043 l-303 0 l0 -152 l303 0 l0 152 ZM1585 340 l0 -309 q0 -171 -201 -168 q0 58 -51 82 q-37 19 -146 39 l0 53 q83 -14 201 -14 q82 0 82 53 l0 264 l-885 0 l-22 51 l907 0 l0 172 q193 -9 193 -53 q0 -25 -78 -53 l0 -66 l180 0 l84 100 q61 -50 113 -112 l-21 -39 l-356 0 ZM432 1127 q117 -22 117 -53 q0 -24 -84 -52 l0 -1169 l-117 0 l0 1092 q-100 -204 -229 -377 l-43 28 q273 448 412 1092 q188 -40 188 -88 q0 -28 -94 -43 q-67 -234 -150 -430 ZM842 324 q305 -102 305 -238 q0 -74 -70 -74 q-42 0 -67 59 q-46 114 -193 214 l25 39 Z" /><glyph glyph-name="uni50B7" unicode="&#x50b7;" d="M1550 873 l-591 0 l0 -66 l-111 0 l0 483 q-77 -98 -172 -172 l-37 37 q197 215 283 541 q174 -37 174 -78 q0 -26 -74 -35 q-21 -52 -43 -92 l659 0 l100 127 q58 -46 144 -139 l-25 -39 l-907 0 q-21 -36 -65 -99 q17 -7 98 -45 l550 0 l72 84 q122 -93 122 -117 q0 -9 -13 -18 l-53 -35 l0 -395 l-111 0 l0 58 ZM1550 924 l0 145 l-591 0 l0 -145 l591 0 ZM1550 1120 l0 125 l-591 0 l0 -125 l591 0 ZM989 541 l697 0 l71 84 q122 -93 122 -119 q0 -12 -19 -24 l-45 -31 q-16 -412 -101 -512 q-63 -79 -172 -76 q0 56 -61 84 q-39 19 -145 39 l0 53 q114 -21 211 -21 q81 0 102 70 q48 144 51 402 l-151 0 q-75 -208 -205 -344 q-155 -167 -445 -283 l-26 43 q422 225 545 584 l-179 0 q-168 -330 -575 -500 l-27 43 q330 169 473 457 l-159 0 q-129 -152 -336 -262 l-31 43 q242 168 358 407 l-342 0 l-24 51 l1153 0 l94 121 q75 -60 135 -131 l-22 -41 l-861 0 q-30 -55 -86 -137 ZM435 1092 q113 -21 113 -53 q0 -26 -84 -54 l0 -1132 l-117 0 l0 1057 q-114 -218 -242 -389 l-43 28 q308 510 445 1139 q190 -46 190 -88 q0 -31 -96 -43 q-65 -237 -166 -465 Z" /><glyph glyph-name="uni50C5" unicode="&#x50c5;" d="M1647 658 l-332 0 l0 -189 l351 0 l92 107 q59 -44 127 -119 l-23 -39 l-547 0 l0 -193 l261 0 l94 107 l22 -21 q50 -41 105 -102 l-21 -35 l-461 0 l0 -217 l398 0 l104 121 q3 -3 14 -12 q5 -4 9 -7 q56 -47 110 -114 l-22 -39 l-1309 0 l-23 51 l598 0 l0 217 l-442 0 l-21 51 l463 0 l0 193 l-516 0 l-20 51 l536 0 l0 189 l-321 0 l0 -74 l-117 0 l0 454 q46 -16 115 -47 l31 -14 l292 0 l0 189 l-110 0 l0 -79 l-115 0 l0 324 l-336 0 l-20 51 l356 0 l0 217 q199 -6 199 -47 q0 -25 -84 -53 l0 -117 l344 0 l0 221 q197 -6 197 -47 q0 -28 -82 -55 l0 -119 l174 0 l94 125 q72 -75 125 -137 l-23 -39 l-370 0 l0 -315 l-115 0 l0 70 l-113 0 l0 -189 l318 0 l76 86 q121 -90 121 -119 q0 -9 -13 -18 l-53 -35 l0 -291 l-117 0 l0 58 ZM1647 709 l0 217 l-332 0 l0 -217 l332 0 ZM1194 709 l0 217 l-321 0 l0 -217 l321 0 ZM1084 1411 l0 -194 l344 0 l0 194 l-344 0 ZM426 1088 q119 -15 119 -49 q0 -26 -84 -54 l0 -1130 l-117 0 l0 1061 q-104 -200 -233 -367 l-41 29 q290 449 426 1118 q190 -34 190 -82 q0 -29 -90 -45 q-69 -253 -170 -481 Z" /><glyph glyph-name="uni50CF" unicode="&#x50cf;" d="M1097 743 q-208 -147 -491 -233 l-22 47 q331 117 530 340 l-263 0 l0 -80 l-111 0 l0 338 q-50 -49 -146 -117 l-33 39 q260 245 424 624 q176 -46 176 -83 q0 -28 -86 -37 q-19 -36 -41 -72 l293 0 l68 84 q133 -108 133 -141 q0 -16 -27 -25 l-59 -18 q-55 -75 -164 -170 l391 0 l70 88 q124 -95 124 -123 q0 -15 -21 -26 l-49 -29 l0 -324 l-111 0 l0 72 l-312 0 q62 -221 168 -381 q126 126 212 258 q135 -89 135 -129 q0 -25 -47 -25 q-3 0 -41 5 q-101 -84 -226 -156 q145 -200 388 -350 q-74 -49 -111 -111 q-320 249 -457 604 q-45 110 -87 285 l-39 0 q-58 -65 -121 -117 q247 -286 247 -633 q0 -297 -242 -297 q-4 62 -62 87 q-42 19 -155 40 l0 56 l32 -4 q143 -21 199 -21 q75 0 96 70 q17 62 17 161 q0 23 -4 80 q-300 -235 -719 -333 l-22 47 q411 131 716 411 q-15 57 -43 113 l-11 -10 q-225 -183 -572 -279 l-25 47 q338 118 557 340 q-19 31 -56 88 ZM1682 948 l0 240 l-369 0 l0 -240 l369 0 ZM867 1239 l333 0 q81 111 131 219 l-330 0 q-80 -117 -163 -207 q13 -4 17 -6 l12 -6 ZM851 1188 l0 -240 l351 0 l0 240 l-351 0 ZM437 1092 q111 -21 111 -53 q0 -28 -84 -56 l0 -1130 l-117 0 l0 1051 q-94 -188 -240 -390 l-45 35 q314 519 445 1139 q190 -40 190 -88 q0 -26 -90 -41 q-66 -227 -170 -467 Z" /><glyph glyph-name="uni50F9" unicode="&#x50f9;" d="M929 846 l687 0 l74 84 q126 -88 126 -119 q0 -15 -21 -26 l-45 -27 l0 -608 l-115 0 l0 45 l-714 0 l0 -68 l-115 0 l0 772 q82 -33 123 -53 ZM1735 1270 l-241 0 l0 -304 l-111 0 l0 51 l-233 0 l0 -51 l-111 0 l0 304 l-225 0 l0 -334 l-111 0 l0 440 q107 -46 123 -55 l213 0 l0 170 l-402 0 l-16 51 l1091 0 l107 133 q58 -53 143 -143 l-24 -41 l-444 0 l0 -170 l224 0 l72 86 q119 -91 119 -119 q0 -14 -16 -24 l-47 -31 l0 -289 l-111 0 l0 326 ZM417 1104 q127 -12 127 -53 q0 -27 -84 -55 l0 -1143 l-117 0 l0 1100 q-104 -196 -244 -377 l-43 31 q284 437 432 1089 q189 -37 189 -84 q0 -27 -86 -43 q-76 -244 -174 -465 ZM1635 401 l-714 0 l0 -155 l714 0 l0 155 ZM1635 452 l0 148 l-714 0 l0 -148 l714 0 ZM1635 651 l0 144 l-714 0 l0 -144 l714 0 ZM547 -111 q286 87 494 261 q148 -74 148 -111 q0 -25 -56 -25 q-6 0 -51 4 q-231 -121 -506 -174 l-29 45 ZM1397 143 q539 -61 539 -209 q0 -63 -62 -63 q-23 0 -69 37 q-138 113 -434 190 l26 45 ZM1383 1270 l-233 0 l0 -202 l233 0 l0 202 ZM1150 1321 l233 0 l0 170 l-233 0 l0 -170 Z" /><glyph glyph-name="uni5115" unicode="&#x5115;" d="M372 1088 q111 -15 111 -49 q0 -28 -83 -56 l0 -1130 l-114 0 l0 1022 q-80 -184 -195 -352 l-41 26 q249 474 357 1137 q190 -34 190 -80 q0 -27 -86 -45 q-62 -260 -139 -473 ZM1735 844 q-142 -58 -323 -111 q-12 -57 -33 -57 q-34 0 -68 141 q63 9 97 12 l0 394 q90 -36 97 -39 q146 54 242 141 q117 -58 117 -90 q0 -18 -39 -18 q-21 0 -35 2 q-17 -7 -55 -20 q-35 -12 -53 -19 q64 -266 294 -416 q-48 -30 -88 -100 q-86 74 -153 180 ZM1510 848 q107 20 198 45 q-60 123 -78 270 q-25 -8 -120 -28 l0 -287 ZM1029 1395 q158 -68 158 -154 q0 -67 -62 -67 q-40 0 -49 43 q-15 83 -97 151 l23 27 l-436 0 l-19 51 l609 0 l0 242 q188 -3 188 -43 q0 -22 -74 -49 l0 -150 l433 0 l98 121 q67 -58 129 -131 l-23 -41 l-499 0 q111 -46 111 -80 q0 -20 -42 -20 q-12 0 -22 2 q-49 -61 -142 -144 q12 -6 12 -14 q0 -17 -58 -39 l0 -420 l-106 0 l0 496 q65 0 101 -6 q71 106 109 225 l-342 0 ZM857 502 l720 0 l0 164 q193 -9 193 -53 q0 -26 -75 -54 l0 -706 l-118 0 l0 352 l-735 0 q-52 -259 -334 -366 l-28 43 q256 157 256 464 l0 318 q192 -9 192 -45 q0 -22 -71 -47 l0 -70 ZM1577 451 l-720 0 l0 -101 q0 -48 -7 -94 l727 0 l0 195 ZM678 1159 l-137 0 l-27 51 l420 0 l47 49 q92 -58 92 -84 q0 -6 -8 -12 l-30 -22 q-4 -296 -54 -375 q-37 -60 -133 -60 q3 68 -117 93 l0 49 q66 -11 111 -11 q55 0 68 53 q20 82 26 269 l-147 0 q-9 -346 -299 -500 l-33 39 q215 172 221 461 Z" /><glyph glyph-name="uni512A" unicode="&#x512a;" d="M1649 926 l131 0 l74 84 q117 -107 117 -143 q0 -15 -21 -21 l-57 -14 q-62 -71 -142 -135 q86 -71 86 -139 q0 -72 -65 -72 q-46 0 -62 68 q-25 111 -147 206 l28 37 q77 -36 119 -67 q48 64 78 145 l-1118 0 q2 -10 2 -23 q0 -115 -43 -192 q-33 -64 -82 -64 q-69 0 -69 66 q0 31 29 57 q95 89 98 278 l51 -4 q5 -23 10 -67 l160 0 l0 504 q85 -37 115 -54 l178 0 q12 67 18 140 l-555 0 l-18 51 l1136 0 l103 127 q59 -51 139 -137 l-23 -41 l-632 0 q-32 -52 -86 -119 l-17 -21 l334 0 l73 84 q119 -82 119 -117 q0 -9 -12 -18 l-49 -35 l0 -364 ZM1538 926 l0 104 l-601 0 l0 -104 l601 0 ZM1538 1081 l0 101 l-601 0 l0 -101 l601 0 ZM1538 1233 l0 92 l-601 0 l0 -92 l601 0 ZM1343 138 q280 -102 645 -129 q-62 -48 -96 -125 q-378 66 -637 200 q-319 -164 -761 -225 l-29 45 q427 86 688 238 q-125 77 -227 170 q-178 -141 -406 -232 l-30 45 q333 158 509 403 q-73 13 -73 97 l0 210 q163 -6 163 -41 q0 -17 -59 -38 l0 -95 q0 -37 23 -47 q30 -10 149 -10 q181 0 213 21 q30 23 39 151 l49 -10 q3 -107 16 -125 q15 -21 56 -21 q-6 -79 -80 -92 q-72 -10 -264 -10 l-99 0 q-30 -38 -90 -102 l465 0 l66 65 q131 -100 131 -128 q0 -12 -25 -21 l-61 -18 q-110 -87 -275 -176 ZM1233 185 l12 6 q139 74 254 174 l-510 0 l-18 -16 q95 -84 262 -164 ZM375 1115 q115 -16 115 -54 q0 -26 -84 -51 l0 -1157 l-115 0 l0 1046 q-72 -168 -178 -329 l-45 28 q230 449 326 1092 q180 -31 180 -74 q0 -25 -78 -41 q-45 -236 -121 -460 ZM1131 848 q219 -46 219 -146 q0 -59 -57 -59 q-40 0 -58 45 q-26 68 -123 127 l19 33 ZM795 786 l47 -12 q0 -147 -51 -237 q-49 -86 -109 -86 q-63 0 -63 63 q0 31 49 62 q103 62 127 210 Z" /><glyph glyph-name="uni5143" unicode="&#x5143;" d="M1288 862 l0 -762 q0 -52 34 -65 q31 -10 166 -10 q137 0 185 10 q41 12 57 72 q29 132 41 313 l53 -21 q0 -234 15 -288 q15 -65 75 -62 q-3 -99 -86 -121 q-66 -14 -313 -14 q-263 0 -314 39 q-38 27 -38 117 l0 792 l-330 0 q-9 -444 -148 -659 q-151 -238 -540 -348 l-29 47 q294 115 422 286 q157 218 166 674 l-520 0 l-23 51 l1444 0 l121 156 q55 -46 160 -164 l-21 -43 l-577 0 ZM1435 1462 l119 152 q89 -83 154 -164 l-23 -39 l-1327 0 l-20 51 l1097 0 Z" /><glyph glyph-name="uni5144" unicode="&#x5144;" d="M1503 803 l-241 0 l0 -693 q0 -59 36 -71 q34 -12 196 -12 q153 0 195 16 q67 29 88 385 l58 -23 q0 -230 18 -295 q15 -64 86 -67 q-3 -89 -78 -111 q-61 -18 -319 -18 q-279 0 -340 23 q-65 28 -65 129 l0 737 l-238 0 q-18 -455 -241 -678 q-161 -164 -512 -272 l-29 51 q270 110 391 225 q225 212 258 674 l-243 0 l0 -144 l-121 0 l0 912 q17 -8 137 -70 l947 0 l84 96 q124 -95 124 -125 q0 -13 -23 -32 l-47 -37 l0 -727 l-121 0 l0 127 ZM1503 854 l0 596 l-980 0 l0 -596 l980 0 Z" /><glyph glyph-name="uni5145" unicode="&#x5145;" d="M834 752 l-7 -179 q-21 -371 -233 -546 q-148 -121 -432 -185 l-23 47 q372 130 483 355 q77 158 80 494 q-133 -13 -266 -24 q-21 -76 -45 -76 q-47 0 -86 192 q115 2 295 9 q151 167 250 453 l-674 0 l-21 51 l801 0 l0 336 q213 -3 213 -49 q0 -29 -92 -60 l0 -227 l551 0 l113 143 q70 -58 153 -153 l-24 -41 l-851 0 q-118 -235 -346 -449 q485 21 844 49 q-93 96 -276 213 l28 39 q300 -126 445 -271 q88 -88 88 -157 q0 -74 -68 -74 q-39 0 -82 80 q-26 49 -86 119 q-132 -19 -266 -36 l0 -717 q0 -52 39 -61 q37 -10 153 -10 q165 0 197 22 q47 38 72 385 l55 -21 q0 -249 23 -317 q15 -45 69 -45 q-3 -85 -69 -110 q-66 -27 -291 -27 q-268 0 -322 35 q-45 27 -45 127 l0 725 q-173 -21 -347 -39 Z" /><glyph glyph-name="uni5148" unicode="&#x5148;" d="M1082 1211 l0 -443 l552 0 l117 148 q69 -63 145 -154 l-24 -45 l-602 0 l0 -625 q0 -51 28 -64 q43 -16 191 -16 q156 0 192 12 q73 22 101 375 l55 -22 q-2 -55 -2 -129 q0 -137 22 -176 q15 -27 62 -27 q-3 -95 -78 -117 q-61 -18 -311 -18 q-308 0 -354 49 q-29 32 -29 111 l0 647 l-303 0 q-15 -357 -186 -561 q-158 -192 -512 -299 l-29 49 q393 156 522 448 q67 151 76 363 l-547 0 l-22 51 l815 0 l0 443 l-434 0 q-99 -200 -248 -359 l-43 31 q210 295 293 741 q190 -39 190 -86 q0 -26 -84 -45 q-36 -125 -84 -231 l410 0 l0 428 q211 -9 211 -53 q0 -30 -90 -64 l0 -311 l419 0 l107 141 q73 -66 139 -151 l-25 -41 l-640 0 Z" /><glyph glyph-name="uni5165" unicode="&#x5165;" d="M1032 1155 q-20 108 -23 279 l-508 0 l-20 51 l485 0 l93 121 q129 -104 129 -133 q0 -15 -29 -31 l-78 -41 q27 -404 186 -694 q216 -392 668 -668 q-72 -47 -113 -118 q-533 368 -733 972 q-242 -694 -915 -1007 l-33 45 q698 396 891 1224 Z" /><glyph glyph-name="uni5167" unicode="&#x5167;" d="M1047 1061 q-174 -401 -582 -711 l-33 43 q390 370 535 809 l-594 0 l0 -1352 l-121 0 l0 1466 q96 -40 139 -63 l611 0 q-25 147 -29 334 l-426 0 l-20 51 l422 0 l76 98 q122 -101 122 -131 q0 -15 -24 -24 l-88 -37 q6 -151 41 -291 l585 0 l77 103 q134 -109 134 -140 q0 -12 -17 -22 l-55 -33 l0 -1104 q0 -163 -215 -178 q-3 60 -80 88 q-56 15 -247 43 l0 57 q180 -18 341 -18 q80 0 80 78 l0 1075 l-589 0 q112 -381 509 -696 q-51 -41 -94 -123 q-338 280 -458 678 Z" /><glyph glyph-name="uni5168" unicode="&#x5168;" d="M1032 1483 q-185 -251 -431 -432 q-199 -146 -474 -273 l-29 51 q513 273 817 705 l-477 0 l-21 51 l494 0 l98 107 q129 -90 129 -121 q0 -13 -22 -23 l-51 -22 q325 -353 886 -568 q-56 -44 -92 -118 q-523 240 -827 643 ZM948 -2 l0 416 l-494 0 l-24 51 l518 0 l0 379 l-506 0 l-18 51 l934 0 l100 97 q84 -56 144 -107 l-25 -41 l-508 0 l0 -379 l291 0 l100 121 q76 -65 137 -135 l-20 -37 l-508 0 l0 -416 l514 0 l113 143 q90 -80 151 -153 l-22 -41 l-1604 0 l-23 51 l750 0 Z" /><glyph glyph-name="uni5169" unicode="&#x5169;" d="M1075 1180 l590 0 l80 98 q127 -102 127 -131 q0 -14 -21 -28 l-47 -33 l0 -1035 q0 -181 -205 -178 q0 60 -64 84 q-46 18 -184 37 l0 55 q147 -16 266 -16 q68 0 68 71 l0 1025 l-610 0 l0 -1223 l-117 0 l0 1223 l-598 0 l0 -1276 l-119 0 l0 1398 l25 -12 q34 -17 110 -59 l582 0 l0 282 l-832 0 l-20 51 l1575 0 l113 139 q94 -83 149 -149 l-20 -41 l-848 0 l0 -282 ZM1366 778 l0 70 l-211 0 l-18 51 l192 0 l74 97 q108 -91 108 -113 q0 -18 -20 -27 l-63 -35 q9 -206 83 -333 q48 -81 160 -187 q-64 -54 -92 -102 q-134 155 -180 332 q-65 -208 -246 -385 l-35 34 q186 229 248 598 ZM643 780 q-2 19 -2 68 l-211 0 l-17 51 l193 0 l69 99 q107 -92 107 -119 q0 -18 -21 -27 l-57 -31 q15 -237 102 -374 q56 -82 144 -158 q-68 -42 -94 -105 q-141 167 -181 338 q-89 -212 -254 -370 l-34 37 q198 250 256 591 Z" /><glyph glyph-name="uni516B" unicode="&#x516b;" d="M98 -31 q287 266 422 652 q88 253 127 604 q207 -44 207 -88 q0 -28 -86 -50 q-82 -436 -224 -700 q-144 -266 -407 -459 l-39 41 ZM1177 1483 l88 107 q127 -97 127 -127 q0 -20 -30 -35 l-74 -37 q27 -449 192 -776 q163 -317 484 -563 q-55 -36 -103 -113 q-593 482 -645 1493 l-442 0 l-19 51 l422 0 Z" /><glyph glyph-name="uni516C" unicode="&#x516c;" d="M563 131 q205 401 355 895 q194 -71 194 -110 q0 -30 -94 -39 q-139 -335 -383 -743 q569 32 852 61 q-106 185 -276 377 l34 37 q267 -214 396 -408 q88 -131 88 -213 q0 -78 -68 -78 q-43 0 -80 94 q-21 58 -61 136 q-532 -83 -1116 -138 q-22 -77 -45 -77 q-46 0 -86 194 q130 4 290 12 ZM1852 703 q-244 173 -399 393 q-127 179 -212 414 l-393 0 l-20 51 l366 0 l92 104 q123 -95 123 -122 q0 -16 -24 -25 l-76 -30 q187 -414 637 -666 q-63 -53 -94 -119 ZM152 629 l-31 37 q377 374 530 862 q175 -67 175 -107 q0 -27 -89 -30 q-184 -436 -585 -762 Z" /><glyph glyph-name="uni516D" unicode="&#x516d;" d="M952 1141 l0 475 q221 -9 221 -55 q0 -28 -96 -60 l0 -360 l553 0 l106 147 q87 -76 152 -155 l-22 -43 l-1682 0 l-23 51 l791 0 ZM131 -31 q355 322 541 875 q194 -77 194 -119 q0 -28 -98 -31 q-230 -505 -602 -764 l-35 39 ZM1214 860 q360 -283 553 -553 q111 -157 111 -246 q0 -84 -72 -84 q-51 0 -100 113 q-153 361 -528 733 l36 37 Z" /><glyph glyph-name="uni5176" unicode="&#x5176;" d="M1460 1299 l0 -910 l211 0 l110 141 q77 -64 142 -153 l-25 -39 l-1748 0 l-23 51 l461 0 l0 910 l-383 0 l-19 51 l402 0 l0 334 q203 -3 203 -49 q0 -27 -84 -58 l0 -227 l634 0 l0 340 q209 -3 209 -51 q0 -26 -90 -58 l0 -231 l160 0 l102 139 q69 -57 139 -149 l-22 -41 l-379 0 ZM707 727 l634 0 l0 271 l-634 0 l0 -271 ZM1341 676 l-634 0 l0 -287 l634 0 l0 287 ZM707 1049 l634 0 l0 250 l-634 0 l0 -250 ZM1190 262 q393 -80 583 -190 q107 -64 107 -123 q0 -70 -68 -70 q-29 0 -80 45 q-191 160 -563 291 l21 47 ZM143 -102 q341 107 609 368 q161 -76 161 -119 q0 -22 -61 -22 q-6 0 -53 4 q-264 -191 -629 -281 l-27 50 Z" /><glyph glyph-name="uni5177" unicode="&#x5177;" d="M1814 -127 q-24 0 -78 47 q-186 168 -567 305 l27 47 q688 -159 688 -327 q0 -72 -70 -72 ZM137 -160 l-31 45 q356 143 588 402 q166 -77 166 -115 q0 -27 -107 -27 q-242 -195 -616 -305 ZM612 1569 l805 0 l78 92 q127 -102 127 -127 q0 -14 -19 -26 l-49 -33 l0 -951 l-121 0 l0 97 l-837 0 l0 -107 l-121 0 l0 1119 l137 -64 ZM596 1518 l0 -240 l837 0 l0 240 l-837 0 ZM1433 672 l0 258 l-837 0 l0 -258 l837 0 ZM1433 981 l0 246 l-837 0 l0 -246 l837 0 ZM1667 420 l110 145 q76 -64 152 -153 l-27 -43 l-1763 0 l-21 51 l1549 0 Z" /><glyph glyph-name="uni517C" unicode="&#x517c;" d="M777 1001 l0 197 l-637 0 l-19 51 l656 0 l0 217 q-142 -42 -373 -85 l-18 45 q389 100 608 243 q125 -61 125 -88 q0 -22 -88 -22 q-48 -21 -133 -54 l0 -256 l233 0 l0 166 q-79 -17 -96 -20 l-23 45 q314 90 488 221 q133 -78 133 -109 q0 -22 -96 -14 q-122 -50 -287 -94 l0 -195 l447 0 l92 107 q95 -66 147 -121 l-20 -37 l-666 0 l0 -197 l246 0 l76 94 q123 -95 123 -123 q0 -14 -19 -26 l-47 -33 l0 -139 l86 0 l88 125 q83 -68 133 -137 l-20 -39 l-287 0 l0 -307 l-115 0 l0 68 l-237 0 q279 -279 674 -402 q-62 -49 -97 -123 q-349 155 -604 471 l0 -577 l-119 0 l0 631 l-233 0 l0 -631 l-121 0 l0 489 q-247 -280 -627 -426 l-30 45 q368 177 618 523 l-391 0 l-21 51 l451 0 l0 188 l-637 0 l-20 51 l657 0 l0 176 l-407 0 l-19 51 l426 0 ZM1250 535 l264 0 l0 188 l-264 0 l0 -188 ZM1250 774 l264 0 l0 176 l-264 0 l0 -176 ZM1131 1001 l0 197 l-233 0 l0 -197 l233 0 ZM898 535 l233 0 l0 188 l-233 0 l0 -188 ZM898 774 l233 0 l0 176 l-233 0 l0 -176 Z" /><glyph glyph-name="uni518D" unicode="&#x518d;" d="M498 426 l0 -573 l-119 0 l0 573 l-271 0 l-20 51 l291 0 l0 318 l-262 0 l-21 51 l283 0 l0 405 q83 -30 141 -61 l424 0 l0 287 l-782 0 l-21 51 l1514 0 l111 137 q81 -73 149 -153 l-20 -35 l-830 0 l0 -287 l440 0 l80 92 q130 -101 130 -133 q0 -15 -17 -24 l-51 -33 l0 -246 l92 0 l96 139 q72 -78 121 -151 l-22 -39 l-287 0 l0 -318 l100 0 l96 139 q72 -77 121 -151 l-22 -39 l-295 0 l0 -381 q0 -84 -49 -124 q-54 -43 -173 -46 q0 59 -67 86 q-56 22 -217 43 l0 54 q147 -15 299 -15 q86 0 86 62 l0 321 l-1028 0 ZM1065 846 l461 0 l0 293 l-461 0 l0 -293 ZM1065 795 l0 -318 l461 0 l0 318 l-461 0 ZM944 477 l0 318 l-446 0 l0 -318 l446 0 ZM944 846 l0 293 l-446 0 l0 -293 l446 0 Z" /><glyph glyph-name="uni5192" unicode="&#x5192;" d="M554 -16 l0 -131 l-119 0 l0 999 q58 -20 139 -61 l883 0 l78 90 q131 -97 131 -125 q0 -14 -19 -26 l-53 -35 l0 -842 l-121 0 l0 131 l-919 0 ZM554 35 l919 0 l0 213 l-919 0 l0 -213 ZM554 299 l919 0 l0 199 l-919 0 l0 -199 ZM554 549 l919 0 l0 191 l-919 0 l0 -191 ZM398 1497 l0 -618 l-117 0 l0 735 q72 -30 137 -66 l1188 0 l79 96 q132 -94 132 -129 q0 -12 -17 -22 l-53 -35 l0 -563 l-117 0 l0 602 l-1232 0 ZM514 1247 l-22 51 l823 0 l92 111 q77 -62 129 -123 l-22 -39 l-1000 0 ZM514 983 l-22 51 l823 0 l92 111 q77 -62 129 -123 l-22 -39 l-1000 0 Z" /><glyph glyph-name="uni51B7" unicode="&#x51b7;" d="M1175 654 l0 -801 l-121 0 l0 801 l-375 0 l-26 51 l928 0 l74 94 q125 -94 125 -127 q0 -14 -21 -26 l-47 -29 l0 -408 q0 -154 -193 -151 q0 58 -59 86 q-43 18 -187 41 l0 53 q120 -14 246 -14 q78 0 78 61 l0 369 l-422 0 ZM1236 1573 q273 -399 717 -627 q-54 -43 -100 -125 q-413 274 -645 697 l-12 -25 q-216 -440 -635 -731 l-35 41 q398 333 616 878 q176 -34 176 -71 q0 -22 -82 -37 ZM174 1538 q166 -63 247 -164 q47 -59 47 -110 q0 -84 -78 -84 q-48 0 -63 63 q-33 138 -180 260 l27 35 ZM1314 1008 l90 117 q58 -52 119 -129 l-20 -39 l-578 0 l-16 51 l405 0 ZM739 1368 l-324 -823 q-30 -77 -30 -141 q0 -40 14 -107 q24 -117 24 -229 q0 -131 -98 -131 q-63 0 -63 70 q0 11 12 94 q16 107 16 176 q0 128 -63 174 q-39 28 -121 41 l0 53 q49 -6 76 -6 q82 0 125 68 q188 293 383 792 l49 -31 Z" /><glyph glyph-name="uni51E1" unicode="&#x51e1;" d="M644 1440 l0 -537 q0 -50 -2 -98 l425 0 l101 129 q69 -64 131 -143 l-21 -37 l-638 0 q-20 -338 -134 -547 q-112 -209 -368 -354 l-35 43 q261 187 350 497 q62 212 62 508 l0 662 q59 -24 118 -58 l27 -14 l638 0 l82 102 q136 -104 136 -137 q0 -14 -19 -26 l-55 -35 l0 -1289 q0 -56 37 -65 q24 -6 129 -6 q85 0 112 10 q65 28 92 443 l56 -17 l0 -98 q0 -222 22 -277 q15 -39 64 -39 q-3 -98 -76 -117 q-62 -16 -279 -16 q-205 0 -250 39 q-32 27 -32 119 l0 1358 l-673 0 Z" /><glyph glyph-name="uni51F8" unicode="&#x51f8;" d="M384 909 l282 0 l0 681 q70 -30 152 -74 l428 0 l76 96 q125 -94 125 -121 q0 -13 -23 -32 l-45 -37 l0 -513 l277 0 l82 101 q122 -93 122 -123 q0 -14 -22 -33 l-41 -33 l0 -962 l-121 0 l0 178 l-1319 0 l0 -178 l-121 0 l0 1114 q13 -5 107 -46 l41 -18 ZM666 858 l-309 0 l0 -770 l1319 0 l0 770 l-297 0 l0 -129 l-117 0 l0 736 l-479 0 l0 -752 l-117 0 l0 145 Z" /><glyph glyph-name="uni51FA" unicode="&#x51fa;" d="M473 930 l477 0 l0 748 q209 -3 209 -56 q0 -28 -86 -59 l0 -633 l489 0 l0 514 q195 -9 195 -57 q0 -27 -78 -56 l0 -586 l-117 0 l0 134 l-489 0 l0 -785 l590 0 l0 504 q201 -9 201 -60 q0 -25 -80 -53 l0 -598 l-121 0 l0 156 l-1286 0 l0 -156 l-121 0 l0 692 q199 -3 199 -51 q0 -27 -78 -55 l0 -379 l573 0 l0 785 l-477 0 l0 -146 l-117 0 l0 693 q201 -10 201 -54 q0 -27 -84 -55 l0 -387 Z" /><glyph glyph-name="uni51FD" unicode="&#x51fd;" d="M836 1202 l160 0 l70 88 q127 -96 127 -123 q0 -14 -19 -26 l-49 -31 l0 -102 q0 -670 -53 -783 q-54 -115 -193 -112 q-3 56 -65 80 q-49 16 -158 36 l0 56 q122 -17 219 -17 q97 0 113 92 q22 164 22 791 l-188 0 q-6 -27 -29 -109 l-113 21 q61 218 91 422 l-648 0 l-18 51 l1569 0 l117 150 q82 -71 155 -162 l-22 -39 l-1033 0 q-6 -33 -12 -68 q-18 -111 -43 -215 ZM349 31 l1331 0 l0 1182 q199 -9 199 -58 q0 -26 -78 -57 l0 -1245 l-121 0 l0 127 l-1331 0 l0 -127 l-119 0 l0 1343 q197 -3 197 -51 q0 -25 -78 -53 l0 -1061 ZM492 1049 q322 -119 322 -268 q0 -72 -66 -72 q-39 0 -67 59 q-61 134 -214 240 l25 41 ZM1168 770 q149 134 303 354 q143 -94 143 -139 q0 -20 -35 -20 q-22 0 -57 8 q-123 -114 -326 -238 l-28 35 ZM906 680 l26 -43 q-174 -146 -389 -270 q-9 -84 -33 -84 q-34 0 -102 157 q273 96 498 240 ZM1192 657 q418 -169 418 -313 q0 -74 -66 -74 q-39 0 -75 64 q-88 144 -299 284 l22 39 Z" /><glyph glyph-name="uni5206" unicode="&#x5206;" d="M924 836 q-33 -377 -174 -592 q-158 -244 -496 -381 l-29 45 q359 193 486 525 q64 176 84 403 l-326 0 l-16 51 l942 0 l78 92 q120 -96 120 -123 q0 -16 -20 -30 l-43 -33 q-3 -605 -101 -784 q-67 -123 -239 -123 q0 61 -78 92 q-58 24 -215 49 l0 55 q207 -28 322 -28 q106 0 137 129 q52 212 55 653 l-487 0 ZM1852 758 q-244 172 -393 366 q-132 170 -218 392 l-393 0 l-20 51 l366 0 l92 104 q123 -95 123 -122 q0 -16 -24 -25 l-76 -30 q99 -194 274 -351 q141 -125 363 -256 q-55 -45 -94 -129 ZM152 684 l-35 41 q209 199 337 409 q107 175 185 400 q187 -72 187 -107 q0 -27 -88 -30 q-184 -399 -586 -713 Z" /><glyph glyph-name="uni5207" unicode="&#x5207;" d="M1319 1438 l0 -186 q0 -532 -141 -848 q-158 -349 -539 -547 l-35 43 q300 205 430 471 q162 326 162 887 l0 180 l-397 0 l-21 51 l916 0 l77 104 q132 -109 132 -139 q0 -13 -19 -22 l-55 -33 q0 -1094 -74 -1333 q-59 -192 -266 -201 q-3 65 -84 92 q-58 18 -227 49 l0 53 q179 -26 305 -26 q136 0 164 133 q60 305 63 1118 l0 154 l-391 0 ZM465 1016 l0 -549 q0 -47 29 -60 q30 -10 123 -10 q125 0 153 31 q38 44 53 272 q4 45 7 64 l51 -27 l0 -53 q0 -156 12 -205 q13 -60 68 -57 q-3 -89 -68 -111 q-61 -18 -270 -18 q-185 0 -230 29 q-45 30 -45 124 l0 547 l-244 -45 l-28 53 l272 50 l0 557 q199 -9 199 -49 q0 -27 -82 -60 l0 -426 l283 51 l77 150 l33 -25 q41 -30 115 -100 l-19 -43 l-489 -90 Z" /><glyph glyph-name="uni5217" unicode="&#x5217;" d="M699 502 q-15 -12 -43 -12 q-40 0 -62 61 q-42 118 -163 212 q-101 -167 -281 -332 l-41 39 q335 371 436 976 l-385 0 l-18 51 l821 0 l109 141 q26 -24 51 -51 q42 -42 88 -100 l-23 -41 l-510 0 q-1 -7 -14 -66 q-32 -146 -82 -290 l315 0 l76 96 q127 -102 127 -133 q0 -13 -20 -24 l-51 -29 q-115 -400 -283 -647 q-207 -303 -571 -496 l-35 45 q349 224 559 600 ZM719 541 q116 217 189 498 l-344 0 q-49 -132 -105 -227 q262 -124 262 -248 q0 -14 -2 -23 ZM1241 313 l0 1079 q197 -6 197 -51 q0 -24 -80 -51 l0 -977 l-117 0 ZM1287 76 q183 -17 309 -17 q80 0 80 68 l0 1505 q207 -9 207 -53 q0 -28 -88 -55 l0 -1463 q0 -178 -213 -178 q-3 69 -82 97 q-55 20 -213 38 l0 58 Z" /><glyph glyph-name="uni5225" unicode="&#x5225;" d="M627 1016 l0 -21 q0 -148 -18 -286 l289 0 l74 90 q118 -97 118 -121 q0 -10 -16 -20 l-49 -33 q-9 -475 -72 -612 q-61 -131 -223 -131 q0 62 -62 90 q-46 20 -170 41 l0 55 q152 -22 242 -22 q103 0 127 94 q44 167 47 518 l-311 0 q-93 -545 -490 -801 l-35 41 q428 360 428 1093 l0 25 l-131 0 l0 -121 l-117 0 l0 733 q45 -16 133 -59 l464 0 l74 92 q123 -92 123 -119 q0 -14 -17 -24 l-51 -35 l0 -570 l-115 0 l0 103 l-242 0 ZM375 1518 l0 -451 l494 0 l0 451 l-494 0 ZM1259 297 l0 1161 q195 -9 195 -53 q0 -22 -80 -49 l0 -1059 l-115 0 ZM1338 53 q184 -16 269 -16 q78 0 78 63 l0 1565 q197 -9 197 -55 q0 -23 -78 -51 l0 -1516 q0 -177 -207 -174 q0 65 -65 90 q-53 19 -194 37 l0 57 Z" /><glyph glyph-name="uni5229" unicode="&#x5229;" d="M562 752 q-163 -332 -412 -584 l-39 39 q298 360 436 807 l4 16 l-389 0 l-24 51 l424 0 l0 344 q-205 -45 -353 -63 l-22 49 q458 99 686 247 q142 -83 142 -123 q0 -20 -42 -20 q-27 0 -63 8 q-77 -27 -195 -59 l-32 -10 l0 -373 l186 0 l102 141 q77 -82 129 -153 l-20 -39 l-397 0 l0 -203 q381 -187 381 -347 q0 -80 -68 -80 q-49 0 -80 74 q-64 145 -233 296 l0 -917 l-121 0 l0 899 ZM1206 297 l0 1112 q195 -9 195 -53 q0 -28 -80 -56 l0 -1003 l-115 0 ZM1278 57 q155 -18 296 -18 q93 0 93 67 l0 1528 q197 -9 197 -57 q0 -26 -77 -53 l0 -1477 q0 -132 -114 -166 q-28 -7 -103 -14 q0 63 -75 90 q-66 24 -217 45 l0 55 Z" /><glyph glyph-name="uni5230" unicode="&#x5230;" d="M719 475 l0 -332 q235 39 477 92 l15 -59 q-502 -141 -947 -219 q-15 -82 -41 -82 q-45 0 -94 192 q251 24 473 58 l0 350 l-395 0 l-21 51 l416 0 l0 311 q201 -9 201 -51 q0 -26 -84 -57 l0 -203 l205 0 l94 127 q63 -52 131 -137 l-27 -41 l-403 0 ZM400 986 q84 235 127 485 l-386 0 l-20 51 l844 0 l104 127 q71 -61 135 -139 l-20 -39 l-506 0 l-6 -18 q-80 -244 -201 -463 q316 25 494 51 q-72 133 -199 266 l33 35 q195 -133 292 -276 q68 -102 68 -170 q0 -82 -67 -82 q-42 0 -70 86 q-12 46 -31 86 q-353 -77 -694 -123 q-15 -78 -39 -78 q-45 0 -82 186 q132 9 183 11 l41 4 ZM1313 297 l0 1161 q201 -9 201 -55 q0 -28 -86 -56 l0 -1050 l-115 0 ZM1374 55 q163 -18 266 -18 q80 0 80 61 l0 1567 q203 -15 203 -59 q0 -28 -84 -56 l0 -1513 q0 -168 -207 -168 q0 56 -61 84 q-53 23 -197 47 l0 55 Z" /><glyph glyph-name="uni5236" unicode="&#x5236;" d="M602 1339 l0 350 q203 0 203 -47 q0 -27 -84 -55 l0 -248 l215 0 l88 121 q74 -74 115 -131 l-23 -41 l-395 0 l0 -293 l278 0 l97 125 q65 -62 125 -133 l-25 -43 l-475 0 l0 -254 l246 0 l73 92 q123 -95 123 -125 q0 -11 -14 -20 l-49 -31 l0 -446 q0 -137 -152 -137 l-18 2 q-3 78 -146 100 l0 53 q68 -12 135 -12 q66 0 66 57 l0 416 l-264 0 l0 -786 l-119 0 l0 786 l-240 0 l0 -639 l-115 0 l0 754 q96 -39 138 -64 l217 0 l0 254 l-474 0 l-22 51 l496 0 l0 293 l-236 0 q-60 -143 -152 -260 l-43 26 q125 253 150 594 q189 -34 189 -76 q0 -21 -72 -43 q-20 -98 -53 -190 l217 0 ZM1316 297 l0 1112 q195 -6 195 -51 q0 -25 -80 -55 l0 -1006 l-115 0 ZM1372 55 q149 -13 186 -14 q51 -2 82 -2 q80 -3 80 65 l0 1561 q201 -12 201 -57 q0 -28 -82 -56 l0 -1513 q0 -153 -197 -168 q-3 62 -63 86 q-43 20 -207 45 l0 53 Z" /><glyph glyph-name="uni523B" unicode="&#x523b;" d="M805 254 q-273 -240 -674 -385 l-33 45 q618 280 958 836 q150 -86 150 -127 q0 -23 -49 -23 q-17 0 -49 4 q-120 -178 -262 -311 q352 -168 352 -317 q0 -76 -68 -76 q-43 0 -73 63 q-71 147 -252 291 ZM422 899 q93 141 163 330 l-462 0 l-17 51 l932 0 l98 133 q81 -74 133 -141 l-26 -43 l-631 0 q152 -53 152 -88 q0 -29 -86 -29 q-67 -97 -213 -244 q116 -84 116 -155 q0 -72 -65 -72 q-35 0 -72 68 q-71 135 -274 262 l24 41 q132 -49 228 -113 ZM1636 -129 q-3 57 -61 82 q-50 22 -199 43 l0 55 q147 -18 260 -18 q78 0 78 61 l0 1571 q199 -12 199 -57 q0 -24 -78 -52 l0 -1529 q0 -156 -199 -156 ZM286 1516 l-20 51 l614 0 l92 115 q75 -68 125 -131 l-22 -35 l-789 0 ZM1341 297 l0 1161 q193 -15 193 -53 q0 -26 -78 -54 l0 -1054 l-115 0 ZM176 229 l-29 45 q499 281 787 840 q153 -83 153 -124 q0 -29 -63 -29 q-19 0 -33 2 q-306 -499 -815 -734 Z" /><glyph glyph-name="uni5247" unicode="&#x5247;" d="M421 1507 l417 0 l71 94 q126 -94 126 -127 q0 -14 -15 -22 l-53 -35 l0 -1083 l-113 0 l0 92 l-455 0 l0 -107 l-115 0 l0 1258 q83 -39 137 -70 ZM399 1456 l0 -276 l455 0 l0 276 l-455 0 ZM854 477 l0 308 l-455 0 l0 -308 l455 0 ZM854 836 l0 293 l-455 0 l0 -293 l455 0 ZM731 319 q185 -84 284 -190 q68 -74 68 -131 q0 -72 -66 -72 q-49 0 -77 72 q-52 134 -238 283 l29 38 ZM96 -98 q225 169 342 409 q160 -70 160 -116 q0 -25 -59 -25 q-17 0 -31 2 q-121 -172 -375 -311 l-37 41 ZM1224 315 l0 1067 q199 -9 199 -53 q0 -27 -82 -58 l0 -956 l-117 0 ZM1288 78 q159 -19 303 -19 q65 0 65 68 l0 1491 q209 -12 209 -59 q0 -27 -88 -58 l0 -1438 q0 -181 -217 -178 q0 57 -47 82 q-44 25 -225 53 l0 58 Z" /><glyph glyph-name="uni524D" unicode="&#x524d;" d="M1144 1325 q93 192 140 367 q192 -64 192 -109 q0 -28 -92 -31 q-58 -96 -172 -227 l492 0 l108 143 q79 -73 143 -153 l-22 -41 l-1813 0 l-20 51 l1044 0 ZM410 1006 l0 -1153 l-115 0 l0 1274 q71 -30 140 -70 l372 0 l75 98 q128 -108 128 -133 q0 -12 -19 -24 l-47 -31 l0 -932 q0 -157 -193 -157 q-3 61 -63 83 q-40 17 -141 35 l0 53 q126 -12 215 -12 q67 0 67 63 l0 906 l-419 0 ZM763 1341 q-47 0 -65 78 q-28 117 -160 221 l29 39 q278 -104 278 -254 q0 -84 -82 -84 ZM1529 -125 q0 57 -63 84 q-42 17 -209 45 l0 55 q164 -16 294 -16 q68 0 68 72 l0 1032 q199 -12 199 -55 q0 -27 -80 -58 l0 -991 q0 -168 -209 -168 ZM1206 260 l0 801 q197 -13 197 -56 q0 -26 -82 -53 l0 -692 l-115 0 ZM462 807 l19 35 q134 -27 210 -76 q68 -43 68 -92 q0 -60 -53 -60 q-37 0 -59 33 q-74 102 -185 160 ZM462 467 l19 35 q134 -27 210 -76 q68 -43 68 -92 q0 -60 -53 -60 q-37 0 -59 33 q-74 102 -185 160 Z" /><glyph glyph-name="uni525B" unicode="&#x525b;" d="M326 1561 l737 0 l71 96 q126 -97 126 -125 q0 -14 -17 -24 l-51 -33 l0 -1455 q0 -152 -195 -149 q-3 58 -57 82 q-47 19 -179 37 l0 55 q133 -14 250 -14 q70 0 70 65 l0 1414 l-778 0 l0 -1657 l-117 0 l0 1778 q70 -30 140 -70 ZM739 362 l115 0 l0 547 q170 -15 170 -51 q0 -22 -70 -49 l0 -619 l-100 0 l0 121 l-335 0 l0 -149 l-102 0 l0 743 q166 -9 166 -51 q0 -24 -64 -45 l0 -447 l116 0 l0 662 l-273 0 l-19 51 l376 0 q61 200 82 373 q174 -40 174 -82 q0 -24 -72 -33 q-46 -126 -123 -258 l109 0 l65 119 q52 -78 78 -135 l-20 -35 l-273 0 l0 -662 ZM444 1437 q188 -142 188 -276 q0 -76 -67 -76 q-48 0 -54 64 q-9 139 -102 258 l35 30 ZM1371 297 l0 1161 q195 -9 195 -53 q0 -26 -82 -54 l0 -1054 l-113 0 ZM1413 53 q119 -14 247 -14 q80 0 80 61 l0 1565 q199 -12 199 -59 q0 -24 -80 -52 l0 -1529 q0 -154 -199 -154 q0 65 -61 90 q-47 16 -186 37 l0 55 Z" /><glyph glyph-name="uni5275" unicode="&#x5275;" d="M402 403 q-64 -288 -293 -495 l-39 35 q246 310 246 755 l0 416 q77 -27 139 -57 l487 0 l72 86 q116 -90 116 -117 q0 -12 -17 -22 l-43 -29 l0 -477 l-111 0 l0 67 l-532 0 q-9 -86 -23 -151 q62 -23 127 -54 l440 0 l66 80 q119 -82 119 -113 q0 -9 -12 -18 l-45 -31 l0 -399 l-109 0 l0 82 l-475 0 l0 -108 l-113 0 l0 550 ZM433 1006 l0 -162 l526 0 l0 162 l-526 0 ZM431 616 l528 0 l0 177 l-526 0 l0 -88 q0 -60 -2 -89 ZM515 309 l0 -297 l475 0 l0 297 l-475 0 ZM721 1602 q249 -102 393 -221 q109 -90 109 -154 q0 -63 -58 -63 q-31 0 -55 33 q-177 223 -416 362 q-199 -334 -573 -576 l-33 46 q353 266 547 686 q172 -34 172 -74 q0 -25 -86 -37 l0 -2 ZM778 1255 l80 96 q56 -43 115 -108 l-27 -39 l-454 0 l-19 51 l305 0 ZM1315 297 l0 1161 q195 -12 195 -55 q0 -24 -80 -52 l0 -1054 l-115 0 ZM1373 55 q143 -20 272 -20 q78 0 78 65 l0 1565 q197 -12 197 -57 q0 -24 -78 -52 l0 -1529 q0 -113 -97 -144 q-42 -11 -110 -14 q0 60 -66 88 q-49 18 -196 43 l0 55 Z" /><glyph glyph-name="uni5283" unicode="&#x5283;" d="M381 651 l588 0 l63 68 q116 -80 116 -107 q0 -10 -14 -18 l-45 -29 l0 -403 l-106 0 l0 39 l-612 0 l0 -78 l-111 0 l0 583 q44 -17 121 -55 ZM371 600 l0 -146 l245 0 l0 146 l-245 0 ZM983 252 l0 151 l-261 0 l0 -151 l261 0 ZM983 454 l0 146 l-261 0 l0 -146 l261 0 ZM616 403 l-245 0 l0 -151 l245 0 l0 151 ZM614 1290 l-498 0 l-20 51 l518 0 l0 115 l-360 0 l-21 51 l381 0 l0 184 q189 -6 189 -45 q0 -25 -78 -53 l0 -86 l246 0 l63 80 q116 -83 116 -111 q0 -14 -18 -26 l-43 -29 l0 -80 l66 0 l69 101 q46 -43 101 -113 l-25 -39 l-211 0 l0 -215 l-104 0 l0 43 l-260 0 l0 -125 l276 0 l80 78 q43 -26 100 -74 l21 -16 l-21 -39 l-456 0 l0 -125 l354 0 l82 84 q73 -46 127 -96 l-23 -39 l-1145 0 l-18 51 l512 0 l0 125 l-426 0 l-16 51 l442 0 l0 125 l-373 0 l-22 51 l395 0 l0 121 ZM725 1290 l0 -121 l260 0 l0 121 l-260 0 ZM725 1341 l260 0 l0 115 l-260 0 l0 -115 ZM1264 119 l10 -51 q-550 -99 -1069 -148 q-16 -74 -37 -74 q-46 0 -80 174 q604 28 1176 99 ZM1372 297 l0 1161 q197 -9 197 -53 q0 -26 -82 -54 l0 -1054 l-115 0 ZM1404 51 q141 -14 252 -14 q78 0 78 61 l0 1567 q197 -12 197 -59 q0 -24 -78 -52 l0 -1529 q0 -141 -191 -156 q0 64 -63 88 q-53 20 -195 41 l0 53 Z" /><glyph glyph-name="uni528D" unicode="&#x528d;" d="M766 1571 l8 -4 q286 -129 432 -273 q80 -76 80 -131 q0 -63 -59 -63 q-33 0 -82 67 q-129 181 -406 357 q-202 -378 -626 -633 l-31 39 q392 291 604 758 q172 -47 172 -82 q0 -26 -92 -35 ZM897 938 l154 0 l63 82 q106 -85 106 -111 q0 -15 -20 -26 l-37 -23 l0 -405 l-104 0 l0 86 l-181 0 l0 -101 l-104 0 l0 558 q67 -30 123 -60 ZM878 887 l0 -295 l181 0 l0 295 l-181 0 ZM368 938 l165 0 l61 74 q104 -83 104 -107 q0 -12 -14 -20 l-37 -25 l0 -401 l-104 0 l0 82 l-175 0 l0 -115 l-104 0 l0 557 q3 -1 15 -7 q9 -4 16 -7 q40 -16 73 -31 ZM368 887 l0 -295 l175 0 l0 295 l-175 0 ZM475 215 q238 -89 238 -195 q0 -65 -59 -65 q-33 0 -58 47 q-51 94 -145 166 q-109 -186 -301 -311 l-33 37 q221 203 317 534 q174 -49 174 -92 q0 -26 -94 -29 q-27 -70 -39 -92 ZM997 209 q275 -129 275 -245 q0 -68 -63 -68 q-30 0 -58 53 q-57 108 -180 209 q-96 -173 -275 -299 l-36 35 q207 194 292 534 q174 -46 174 -90 q0 -27 -88 -33 q-10 -31 -41 -96 ZM844 1171 l84 113 q50 -46 115 -123 l-23 -41 l-502 0 l-20 51 l346 0 ZM1368 297 l0 1112 q193 -9 193 -49 q0 -27 -82 -57 l0 -1006 l-111 0 ZM1378 53 q168 -16 258 -16 q76 0 76 63 l0 1565 q199 -15 199 -57 q0 -26 -82 -60 l0 -1513 q0 -126 -121 -154 q-51 -10 -78 -10 q0 65 -66 90 q-53 19 -186 39 l0 53 Z" /><glyph glyph-name="uni529B" unicode="&#x529b;" d="M840 1094 l-625 0 l-24 51 l651 0 q2 43 2 112 l0 379 q223 -3 223 -51 q0 -27 -90 -61 l0 -267 q0 -73 -2 -102 l614 0 l82 106 q135 -107 135 -139 q0 -12 -22 -28 l-47 -31 q-3 -804 -129 -1028 q-73 -130 -252 -133 q-3 64 -94 94 q-58 21 -281 62 l0 59 q231 -37 387 -37 q113 0 147 84 q96 218 93 940 l-635 0 q-28 -444 -182 -719 q-194 -347 -641 -534 l-31 47 q470 252 627 705 q75 211 94 491 Z" /><glyph glyph-name="uni529F" unicode="&#x529f;" d="M1311 1118 q-10 -450 -152 -737 q-165 -337 -582 -541 l-30 47 q427 271 559 697 q67 218 80 524 l-410 0 l-24 51 l436 0 l0 524 q207 -3 207 -47 q0 -27 -82 -57 l0 -410 l381 0 l82 111 q127 -106 127 -135 q0 -15 -17 -25 l-53 -33 l0 -88 q0 -752 -86 -970 q-59 -148 -262 -160 q-3 58 -82 88 q-57 24 -234 53 l0 53 q206 -22 324 -22 q134 0 156 115 q63 305 63 962 l-401 0 ZM549 1340 l0 -879 q147 42 370 117 l13 -51 q-376 -177 -699 -281 q-15 -77 -39 -77 q-42 0 -100 192 q170 29 334 70 l0 909 l-301 0 l-23 51 l580 0 l102 135 q86 -88 131 -151 l-24 -35 l-344 0 Z" /><glyph glyph-name="uni52A0" unicode="&#x52a0;" d="M1357 1366 l350 0 l80 102 q128 -105 128 -135 q0 -9 -13 -18 l-57 -37 l0 -1319 l-117 0 l0 174 l-395 0 l0 -203 l-119 0 l0 1505 q70 -28 143 -69 ZM1333 1315 l0 -1131 l395 0 l0 1131 l-395 0 ZM471 1188 l-330 0 l-16 51 l346 0 l0 452 q207 -9 207 -57 q0 -27 -86 -57 l0 -328 l266 0 l78 104 q128 -108 128 -134 q0 -13 -19 -25 l-51 -33 l0 -104 q-4 -800 -74 -987 q-59 -159 -242 -156 q-3 55 -43 80 q-45 26 -182 53 l0 56 q156 -25 247 -25 q100 0 121 94 q52 249 56 905 l0 121 l-285 0 q3 -899 -467 -1317 l-39 37 q269 328 348 795 q30 187 37 475 Z" /><glyph glyph-name="uni52AA" unicode="&#x52aa;" d="M416 1370 l-261 0 l-20 51 l305 0 q57 125 107 264 q176 -34 176 -73 q0 -26 -88 -41 q-42 -101 -58 -134 l-8 -16 l271 0 l67 88 q115 -99 115 -125 q0 -14 -23 -30 l-41 -27 q-62 -182 -170 -334 q170 -80 170 -149 q0 -66 -59 -66 q-27 0 -51 25 q-50 49 -121 100 q-200 -209 -559 -305 l-27 45 q314 113 490 319 q-126 68 -252 111 q-22 -35 -68 -98 l-102 45 q107 148 207 350 ZM545 1370 q-60 -123 -138 -252 q170 -38 279 -82 q94 136 160 334 l-301 0 ZM1128 1481 l-102 0 l-21 51 l670 0 l78 92 q121 -105 121 -131 q0 -16 -23 -28 l-47 -27 q-127 -242 -264 -379 q167 -134 414 -223 q-50 -43 -82 -117 q-242 112 -406 266 q-190 -146 -444 -223 l-23 43 q213 91 389 258 q-160 176 -260 418 ZM1194 1481 l10 -16 q115 -196 256 -334 q146 161 223 350 l-489 0 ZM866 469 l-622 0 l-23 51 l657 0 q22 95 31 223 q201 -9 201 -51 q0 -24 -80 -51 q-4 -29 -21 -111 l592 0 l78 88 q119 -85 119 -112 q0 -15 -23 -31 l-41 -31 q-36 -382 -155 -501 q-68 -68 -209 -68 q-3 55 -76 82 q-58 21 -233 55 l0 54 q199 -33 331 -33 q115 0 158 98 q50 115 72 348 l-623 0 q-82 -306 -315 -459 q-181 -119 -504 -172 l-29 48 q589 147 715 573 Z" /><glyph glyph-name="uni52D5" unicode="&#x52d5;" d="M1369 1106 l-261 0 l-20 51 l283 0 l0 522 q201 -6 201 -49 q0 -26 -82 -53 l0 -410 l245 0 l78 98 q119 -100 119 -122 q0 -12 -16 -25 l-45 -34 q-4 -937 -101 -1098 q-70 -117 -205 -117 q0 52 -61 80 q-45 21 -201 49 l0 57 q144 -24 242 -24 q122 0 149 125 q55 265 58 842 l0 118 l-264 0 q0 -22 -2 -37 q-16 -490 -163 -786 q-125 -253 -407 -443 l-35 41 q310 265 411 629 q62 224 75 553 l2 33 ZM685 1075 l233 0 l72 82 q111 -83 111 -107 q0 -13 -20 -28 l-35 -27 l0 -467 l-111 0 l0 62 l-250 0 l0 -195 l225 0 l91 107 q72 -60 121 -119 l-23 -39 l-414 0 l0 -197 q150 22 430 78 l11 -53 q-476 -129 -902 -195 q-16 -77 -41 -77 q-40 0 -86 180 q216 17 438 47 l31 4 l0 213 l-399 0 l-19 51 l418 0 l0 195 l-241 0 l0 -82 l-111 0 l0 628 q61 -22 127 -61 l225 0 l0 174 l-440 0 l-19 51 l459 0 l0 170 l-43 -4 q-200 -21 -375 -29 l-18 53 q499 46 844 166 q107 -88 107 -123 q0 -18 -33 -18 q-19 0 -64 10 q-131 -21 -299 -43 l0 -182 l287 0 l88 111 q65 -58 123 -127 l-20 -35 l-478 0 l0 -174 ZM935 811 l-250 0 l0 -170 l250 0 l0 170 ZM935 862 l0 162 l-250 0 l0 -162 l250 0 ZM566 1024 l-241 0 l0 -162 l241 0 l0 162 ZM325 641 l241 0 l0 170 l-241 0 l0 -170 Z" /><glyph glyph-name="uni52D8" unicode="&#x52d8;" d="M82 651 l920 0 l79 115 q56 -56 111 -129 l-20 -37 l-315 0 l0 -246 q0 -51 49 -51 q60 0 75 39 q17 53 23 156 l47 -15 q0 -171 63 -168 q-3 -72 -59 -90 q-40 -12 -141 -12 q-79 0 -113 12 q-53 19 -53 103 l0 272 l-115 0 q-3 -342 -219 -485 l-33 38 q137 133 140 428 l0 19 l-162 0 l0 -488 q0 -49 39 -58 q53 -12 236 -12 q185 0 371 21 q28 4 39 4 q35 0 49 -29 q270 421 267 1068 l-268 0 l-21 51 l289 0 l0 523 q199 0 199 -50 q0 -25 -80 -53 l0 -410 l249 0 l82 101 q117 -102 117 -131 q0 -12 -12 -21 l-51 -33 l0 -182 q0 -665 -54 -862 q-42 -158 -211 -161 q-6 94 -245 122 l0 55 q123 -20 223 -20 q107 0 125 88 q45 201 45 833 l0 160 l-268 0 q0 -886 -471 -1261 l-35 39 q30 32 53 58 q-155 -14 -366 -14 q-188 0 -276 9 q-78 8 -101 28 q-39 33 -39 127 l0 498 l-144 0 l-18 51 ZM341 1346 l-193 0 l-17 51 l210 0 l0 299 q193 -3 193 -47 q0 -27 -78 -55 l0 -197 l361 0 l0 297 q193 0 193 -47 q0 -24 -78 -55 l0 -195 l55 0 l82 115 q68 -65 111 -129 l-23 -37 l-225 0 l0 -589 l-115 0 l0 65 l-361 0 l0 -75 l-115 0 l0 599 ZM456 873 l361 0 l0 219 l-361 0 l0 -219 ZM456 1143 l361 0 l0 203 l-361 0 l0 -203 Z" /><glyph glyph-name="uni52DD" unicode="&#x52dd;" d="M1153 871 q-135 -243 -397 -412 l-37 41 q198 155 317 371 l-284 0 l-21 51 l332 0 q55 113 102 258 l-225 0 l-20 51 l260 0 q63 218 78 469 q190 -15 190 -57 q0 -24 -78 -52 q-25 -202 -71 -360 l229 0 l88 119 q68 -65 117 -133 l-19 -37 l-254 0 q56 -138 142 -258 l133 0 l88 119 q70 -65 125 -135 l-23 -35 l-284 0 q119 -149 327 -279 q-57 -50 -94 -110 q-225 175 -346 389 l-375 0 ZM1180 922 l321 0 q-50 99 -102 258 l-115 0 q-46 -141 -104 -258 ZM329 1248 q111 -27 172 -86 q48 -46 48 -97 q0 -61 -57 -61 q-43 0 -55 35 q-38 103 -108 153 l0 -381 q112 -26 173 -85 q49 -46 49 -97 q0 -61 -57 -61 q-42 0 -55 35 q-39 103 -110 155 q-4 -347 -62 -555 q-48 -173 -160 -348 l-43 28 q154 329 154 924 l0 827 q54 -21 135 -63 l224 0 l76 98 q116 -93 116 -122 q0 -17 -21 -29 l-45 -29 l0 -1469 q0 -145 -193 -145 q-3 58 -55 80 q-40 15 -135 31 l0 53 q132 -10 212 -10 q60 0 60 51 l0 1440 l-263 0 l0 -272 ZM1165 461 l-272 0 l-23 51 l301 0 q17 125 17 272 q186 -15 186 -53 q0 -23 -72 -51 q-4 -111 -8 -162 l279 0 l67 76 q115 -84 115 -113 q0 -9 -12 -18 l-43 -29 q-10 -416 -92 -502 q-53 -55 -160 -55 q-3 57 -64 78 q-43 17 -157 35 l0 55 q109 -16 208 -16 q100 0 121 84 q30 122 33 354 l-303 0 q-22 -160 -86 -274 q-123 -222 -387 -336 l-33 41 q212 123 293 276 q67 125 92 287 ZM1794 1235 q-21 0 -35 21 q-7 10 -27 51 q-55 117 -225 241 l33 35 q155 -54 249 -136 q83 -72 83 -134 q0 -78 -78 -78 ZM813 1174 l-39 22 q133 184 207 412 q160 -65 160 -107 q0 -22 -70 -22 q-105 -163 -258 -305 Z" /><glyph glyph-name="uni52E2" unicode="&#x52e2;" d="M1293 1364 l-234 0 l-22 51 l256 0 l0 280 q187 -9 187 -49 q0 -23 -72 -45 l0 -180 l161 0 l72 90 q117 -92 117 -118 q0 -13 -19 -25 l-45 -29 q0 -296 60 -487 q15 -53 24 -53 q34 0 68 299 l51 -27 q-20 -187 -20 -268 q0 -106 51 -133 q-22 -72 -88 -72 q-95 0 -166 164 q-91 210 -88 608 l-178 0 q-7 -192 -31 -305 q182 -124 182 -201 q0 -57 -55 -57 q-32 0 -72 55 q-36 49 -88 99 q-89 -205 -309 -320 q78 -19 78 -39 q0 -26 -82 -47 q-6 -52 -13 -86 l580 0 l78 88 q123 -92 123 -116 q0 -13 -21 -25 l-51 -29 q-15 -340 -129 -444 q-72 -66 -205 -66 q-3 56 -80 84 q-68 25 -247 55 l0 56 q224 -37 348 -37 q114 0 153 94 q38 90 47 289 l-604 0 q-64 -291 -323 -430 q-184 -98 -506 -144 l-21 52 q338 73 498 190 q163 120 221 322 l-663 0 l-23 51 l698 0 q18 95 21 198 l43 -4 q205 122 299 385 q-96 77 -201 138 l27 41 q117 -50 196 -93 q17 115 17 240 ZM617 1323 l231 0 l78 92 q15 -9 31 -25 q45 -34 84 -83 l-25 -35 l-270 0 l0 -86 q0 -45 69 -45 q102 0 105 111 l43 -13 q6 -92 51 -92 q-3 -63 -45 -78 q-46 -16 -170 -16 q-100 0 -123 16 q-30 22 -30 72 l0 131 l-150 0 q-27 -232 -356 -297 l-21 45 q236 73 260 252 l-254 0 l-16 51 l404 0 l0 135 l-306 0 l-20 51 l326 0 l0 184 q176 0 176 -39 q0 -21 -72 -49 l0 -96 l178 0 l78 96 q50 -50 102 -110 l-25 -37 l-333 0 l0 -135 ZM513 736 l0 143 l-314 0 l-22 51 l336 0 l0 158 q163 -6 163 -45 q0 -20 -59 -39 l0 -74 l168 0 l77 92 q53 -46 105 -106 l-23 -37 l-327 0 l0 -129 q199 28 399 68 l6 -52 q-421 -107 -804 -168 q-19 -65 -41 -65 q-38 0 -72 164 q174 11 373 35 l35 4 Z" /><glyph glyph-name="uni5305" unicode="&#x5305;" d="M578 1317 q-161 -316 -416 -545 l-39 39 q320 379 451 881 q201 -44 201 -86 q0 -28 -95 -43 q-28 -85 -78 -195 l936 0 l82 100 q127 -99 127 -129 q0 -16 -18 -28 l-47 -33 l0 -115 q-4 -525 -41 -720 q-31 -110 -101 -153 q-57 -34 -164 -36 q0 58 -51 82 q-46 22 -227 49 l0 51 q161 -18 274 -18 q128 0 150 100 q30 128 37 584 q0 111 0 215 l-981 0 ZM1151 608 l-533 0 l0 -481 q0 -65 46 -74 q76 -18 489 -18 q363 0 487 27 q58 9 80 83 q33 110 51 281 l56 -19 q-3 -67 -3 -129 q0 -115 17 -157 q16 -36 61 -39 q4 -105 -86 -129 q-107 -31 -608 -31 q-587 0 -653 35 q-55 34 -55 139 l0 1018 q65 -24 135 -61 l499 0 l76 92 q121 -90 121 -119 q0 -11 -20 -26 l-43 -31 l0 -445 l-117 0 l0 84 ZM1151 659 l0 343 l-533 0 l0 -343 l533 0 Z" /><glyph glyph-name="uni5316" unicode="&#x5316;" d="M1188 836 q296 201 518 444 q154 -108 154 -152 q0 -37 -107 -14 q-268 -224 -565 -391 l0 -621 q0 -56 35 -69 q34 -14 239 -14 q170 0 212 8 q38 8 57 37 q60 92 75 393 l56 -25 l0 -51 q0 -221 21 -280 q16 -44 65 -46 q-3 -99 -88 -124 q-87 -23 -410 -23 q-299 0 -350 45 q-35 32 -35 125 l0 577 q-138 -70 -289 -141 l-31 53 q142 76 320 187 l0 909 q211 -9 211 -55 q0 -26 -88 -60 l0 -712 ZM479 928 q-139 -231 -320 -428 l-42 35 q365 485 551 1147 q194 -53 194 -96 q0 -28 -94 -43 q-92 -245 -201 -457 q115 -17 115 -53 q0 -28 -82 -56 l0 -1124 l-121 0 l0 1075 Z" /><glyph glyph-name="uni5340" unicode="&#x5340;" d="M361 1462 l0 -1294 q0 -69 51 -78 q66 -14 647 -14 q429 0 682 26 q35 4 51 4 q72 0 72 -81 q0 -31 -113 -37 q-99 -8 -589 -8 q-774 0 -836 27 q-78 31 -78 165 l0 1290 l-141 0 l-25 51 l1602 0 l102 129 q86 -73 144 -139 l-25 -41 l-1544 0 ZM1303 295 l0 -113 l-106 0 l0 594 q66 -28 122 -59 l285 0 l70 84 q123 -89 123 -119 q0 -12 -21 -26 l-47 -31 l0 -412 l-106 0 l0 82 l-320 0 ZM1303 346 l320 0 l0 320 l-320 0 l0 -320 ZM610 295 l0 -113 l-104 0 l0 592 q80 -33 122 -57 l279 0 l66 80 q120 -84 120 -115 q0 -14 -16 -24 l-47 -31 l0 -416 l-104 0 l0 84 l-316 0 ZM610 346 l316 0 l0 320 l-316 0 l0 -320 ZM859 918 l0 -91 l-111 0 l0 546 q76 -32 139 -66 l449 0 l74 88 q126 -85 126 -119 q0 -13 -15 -22 l-53 -37 l0 -377 l-113 0 l0 78 l-496 0 ZM859 969 l496 0 l0 287 l-496 0 l0 -287 Z" /><glyph glyph-name="uni5341" unicode="&#x5341;" d="M1079 836 l0 -961 l-129 0 l0 961 l-805 0 l-18 51 l823 0 l0 766 q225 -3 225 -51 q0 -32 -96 -66 l0 -649 l582 0 l116 154 l50 -49 q43 -44 104 -115 l-23 -41 l-829 0 Z" /><glyph glyph-name="uni5347" unicode="&#x5347;" d="M783 1358 l0 -533 l512 0 l0 760 q213 -6 213 -53 q0 -27 -88 -58 l0 -649 l262 0 l113 152 q74 -69 141 -158 l-25 -45 l-485 0 l0 -866 l-125 0 l0 866 l-518 0 q-15 -647 -578 -887 l-32 46 q470 273 485 841 l-535 0 l-16 51 l551 0 l0 485 q-181 -67 -428 -124 l-21 53 q443 127 752 362 q146 -86 146 -125 q0 -22 -47 -22 q-24 0 -64 6 q-97 -53 -213 -102 Z" /><glyph glyph-name="uni534A" unicode="&#x534a;" d="M946 471 l-791 0 l-20 51 l811 0 l0 367 l-530 0 l-23 51 l553 0 l0 717 q213 -9 213 -55 q0 -29 -88 -62 l0 -600 l295 0 l108 145 q88 -84 144 -157 l-25 -39 l-522 0 l0 -367 l573 0 l121 158 q85 -85 150 -168 l-25 -41 l-819 0 l0 -618 l-125 0 l0 618 ZM1724 1014 q-30 0 -46 12 q-17 12 -42 51 q-125 200 -364 332 l30 41 q263 -80 416 -209 q84 -71 84 -143 q0 -84 -78 -84 ZM233 854 l-43 30 q250 274 359 590 q198 -76 198 -127 q0 -30 -92 -30 q-126 -228 -422 -463 Z" /><glyph glyph-name="uni535A" unicode="&#x535a;" d="M1332 688 l0 -168 l-117 0 l0 168 l-307 0 l0 -172 l-115 0 l0 758 q73 -33 131 -68 l291 0 l0 166 l-557 0 l-19 51 l576 0 l0 264 q193 -3 193 -47 q0 -24 -76 -51 l0 -166 l419 0 l86 121 q71 -62 125 -129 l-20 -43 l-610 0 l0 -166 l315 0 l73 86 q122 -93 122 -119 q0 -12 -21 -26 l-45 -31 l0 -590 l-115 0 l0 162 l-329 0 ZM1332 975 l329 0 l0 180 l-329 0 l0 -180 ZM1332 924 l0 -185 l329 0 l0 185 l-329 0 ZM1215 739 l0 185 l-307 0 l0 -185 l307 0 ZM1215 975 l0 180 l-307 0 l0 -180 l307 0 ZM1598 379 l152 0 l94 121 q73 -67 125 -131 l-23 -41 l-348 0 l0 -301 q0 -94 -51 -131 q-44 -31 -139 -31 q-3 57 -61 82 q-47 21 -150 37 l0 53 q107 -14 219 -14 q65 0 65 67 l0 238 l-818 0 l-21 51 l839 0 l0 145 q189 -5 189 -47 q0 -22 -72 -45 l0 -53 ZM355 1002 l-273 0 l-18 51 l291 0 l0 639 q197 0 197 -47 q0 -26 -78 -58 l0 -534 l82 0 l90 127 q66 -69 113 -137 l-25 -41 l-260 0 l0 -1149 l-119 0 l0 1149 ZM1647 1454 q-47 0 -59 49 q-25 90 -125 147 l22 37 q230 -52 230 -161 q0 -28 -23 -51 q-21 -21 -45 -21 ZM1061 -25 q-57 0 -70 76 q-18 99 -130 201 l28 33 q246 -108 246 -230 q0 -80 -74 -80 Z" /><glyph glyph-name="uni5361" unicode="&#x5361;" d="M1020 1274 l0 -336 l633 0 l110 143 q93 -86 146 -153 l-25 -41 l-975 0 q193 -43 193 -82 q0 -24 -82 -39 l0 -158 q308 -78 501 -194 q117 -71 117 -135 q0 -74 -64 -74 q-24 0 -84 53 q-181 172 -470 291 l0 -672 l-121 0 l0 1010 l-742 0 l-20 51 l762 0 l0 727 q209 -3 209 -51 q0 -26 -88 -60 l0 -229 l416 0 l98 131 q49 -38 121 -121 l18 -20 l-24 -41 l-629 0 Z" /><glyph glyph-name="uni5370" unicode="&#x5370;" d="M377 851 l0 -559 l346 0 l102 141 q60 -53 132 -151 l-23 -41 l-557 0 l0 -165 l-121 0 l0 1427 q82 -34 139 -64 q246 74 437 209 q133 -95 133 -139 q0 -20 -33 -20 q-22 0 -66 12 q-243 -86 -489 -125 l0 -474 l356 0 l97 133 q77 -78 127 -147 l-21 -37 l-559 0 ZM1206 1460 l456 0 l85 100 q125 -97 125 -129 q0 -12 -19 -24 l-51 -33 l0 -1005 q0 -135 -84 -166 q-52 -22 -137 -25 q-3 64 -66 88 q-56 23 -221 47 l0 56 q188 -23 317 -23 q74 0 74 70 l0 993 l-501 0 l0 -1540 l-121 0 l0 1667 l21 -11 l104 -55 l18 -10 Z" /><glyph glyph-name="uni5373" unicode="&#x5373;" d="M835 723 l-489 0 l0 -273 l442 0 l96 125 q84 -70 140 -135 l-25 -41 l-653 0 l0 -248 l442 0 l96 125 q84 -70 140 -135 l-25 -41 l-653 0 l0 -231 l-117 0 l0 1604 q92 -38 146 -72 l53 0 q71 120 129 291 q192 -61 192 -101 q0 -29 -98 -32 q-45 -61 -156 -158 l324 0 l78 100 q112 -94 112 -122 q0 -14 -18 -29 l-43 -33 l0 -676 l-113 0 l0 82 ZM835 774 l0 275 l-489 0 l0 -275 l489 0 ZM835 1100 l0 250 l-489 0 l0 -250 l489 0 ZM1284 1481 l0 -1612 l-121 0 l0 1727 q85 -37 137 -64 l385 0 l80 102 q118 -94 118 -124 q0 -14 -18 -29 l-45 -35 l0 -1067 q0 -170 -195 -182 q-3 63 -61 88 q-44 17 -182 41 l0 53 q154 -16 243 -16 q82 0 82 63 l0 1055 l-423 0 Z" /><glyph glyph-name="uni5377" unicode="&#x5377;" d="M786 899 q-58 -90 -133 -170 q40 -17 82 -37 l515 0 l68 74 q121 -90 121 -113 q0 -12 -16 -22 l-43 -27 l0 -274 q0 -115 -66 -140 q-68 -22 -133 -22 q-3 59 -66 80 q-49 18 -165 31 l0 55 q143 -15 251 -15 q68 0 68 60 l0 262 l-548 0 l0 -553 q0 -57 37 -70 q40 -12 284 -12 q314 0 389 16 q50 9 72 72 q21 68 37 217 l51 -20 q0 -165 18 -211 q16 -43 74 -43 q-3 -96 -92 -115 q-94 -20 -525 -20 q-364 0 -415 33 q-49 30 -49 141 l0 600 q-179 -173 -469 -314 l-35 44 q352 200 547 483 l6 10 l-473 0 l-23 51 l531 0 q86 146 137 283 l-274 0 l-25 49 q-104 -116 -246 -207 l-30 37 q216 204 342 508 q172 -59 172 -96 q0 -28 -92 -37 q-69 -123 -144 -203 l315 0 q59 156 99 412 q202 -34 202 -78 q0 -29 -90 -47 q-44 -187 -80 -287 l317 0 l97 119 q83 -67 139 -131 l-20 -39 l-318 0 l10 -18 q61 -119 175 -265 l274 0 l107 135 q10 -8 34 -28 q59 -52 111 -115 l-23 -43 l-458 0 q212 -228 524 -362 q-65 -56 -96 -115 q-333 181 -543 477 l-516 0 ZM819 950 l448 0 q-84 129 -143 283 l-170 0 q-65 -164 -135 -283 ZM1343 1620 q232 -101 346 -221 q76 -79 76 -141 q0 -70 -64 -70 q-39 0 -67 47 q-111 201 -318 348 l27 37 Z" /><glyph glyph-name="uni537B" unicode="&#x537b;" d="M876 10 l-434 0 l0 -149 l-117 0 l0 712 q-88 -78 -182 -143 l-37 41 q335 285 510 718 q166 -37 166 -75 q0 -26 -88 -43 q461 -220 461 -371 q0 -70 -64 -70 q-34 0 -79 70 q-108 165 -341 323 q-118 -228 -301 -407 q34 -16 82 -41 l414 0 l70 86 q123 -89 123 -119 q0 -12 -17 -22 l-49 -33 l0 -596 l-117 0 l0 119 ZM876 61 l0 463 l-434 0 l0 -463 l434 0 ZM1370 1397 l0 -1544 l-119 0 l0 1663 q24 -13 51 -23 q38 -15 93 -45 l315 0 l78 100 q125 -106 125 -139 q0 -12 -15 -20 l-53 -33 l0 -1032 q0 -183 -199 -180 q-3 64 -63 88 q-48 19 -158 37 l0 51 q127 -16 231 -16 q72 0 72 61 l0 1032 l-358 0 ZM663 1538 q201 -79 324 -168 q139 -99 139 -174 q0 -68 -61 -68 q-33 0 -78 64 q-104 156 -346 297 q-155 -331 -476 -557 l-36 39 q298 267 454 688 q172 -37 172 -76 q0 -25 -90 -41 l-2 -4 Z" /><glyph glyph-name="uni539F" unicode="&#x539f;" d="M1071 1206 l424 0 l78 92 q127 -96 127 -123 q0 -14 -23 -30 l-47 -31 l0 -602 l-117 0 l0 74 l-313 0 l0 -574 q0 -150 -203 -147 q-3 56 -43 78 q-36 18 -202 47 l0 51 q123 -14 249 -14 q53 0 66 12 q14 15 14 51 l0 496 l-343 0 l0 -86 l-115 0 l0 766 q2 -1 17 -8 q15 -7 28 -13 q62 -28 84 -39 l254 0 q35 130 52 267 l-638 0 l0 -433 q0 -787 -297 -1179 l-47 30 q217 389 217 1149 l0 543 q68 -24 141 -59 l1196 0 l109 137 q80 -64 149 -145 l-20 -43 l-646 0 q-66 -146 -151 -267 ZM1513 637 l0 244 l-775 0 l0 -244 l775 0 ZM1513 932 l0 223 l-775 0 l0 -223 l775 0 ZM1358 455 q232 -109 359 -238 q98 -98 98 -170 q0 -76 -74 -76 q-32 0 -72 70 q-107 196 -338 375 l27 39 ZM348 -53 q233 180 387 495 q166 -70 166 -108 q0 -31 -96 -31 q-150 -249 -420 -397 l-37 41 Z" /><glyph glyph-name="uni53BB" unicode="&#x53bb;" d="M1070 770 l569 0 l115 152 q28 -29 53 -51 q44 -42 100 -111 l-24 -41 l-840 0 q-166 -349 -359 -602 q48 2 116 5 q53 2 71 3 q426 22 713 57 q-122 172 -322 357 l33 41 q295 -191 452 -392 q108 -139 108 -223 q0 -82 -69 -82 q-48 0 -88 94 q-28 67 -80 152 l-38 -6 q-553 -92 -1188 -158 q-22 -77 -45 -77 q-43 0 -89 210 q178 5 279 11 l72 4 q179 310 268 606 l-700 0 l-23 51 l791 0 l0 439 l-598 0 l-21 51 l619 0 l0 391 q216 -3 216 -53 q0 -29 -91 -59 l0 -279 l411 0 l107 148 q68 -65 141 -156 l-25 -43 l-634 0 l0 -439 Z" /><glyph glyph-name="uni53C3" unicode="&#x53c3;" d="M350 317 q441 137 731 389 q139 -77 139 -110 q0 -23 -51 -23 q-23 0 -39 2 q-329 -202 -745 -307 l-35 49 ZM1109 933 q0 1 -1 2 q-14 25 -36 114 l130 0 q87 125 158 299 q109 -34 142 -52 q26 -15 26 -32 q0 -27 -86 -32 q-88 -110 -169 -181 q170 2 404 25 q-32 44 -88 90 l25 37 q265 -131 265 -266 q0 -63 -62 -63 q-39 0 -61 55 q-27 66 -50 106 q-304 -65 -517 -88 q-19 -38 -39 -42 q1 -1 1 -3 q0 -21 -74 -26 q356 -215 893 -303 q-69 -45 -108 -116 q-487 126 -834 390 q-200 -159 -427 -256 q-204 -88 -490 -154 l-25 45 q559 151 897 492 q84 -23 126 -41 ZM657 1448 q120 136 185 262 q176 -56 176 -92 q0 -30 -95 -33 q-87 -81 -174 -135 q309 2 695 26 q-80 61 -215 133 l30 37 q467 -167 467 -299 q0 -61 -61 -61 q-38 0 -80 53 q-45 56 -82 88 q-527 -64 -1063 -88 q-24 -68 -47 -68 q-38 0 -74 177 q160 -3 338 0 ZM300 980 q131 168 204 310 q109 -34 142 -53 q26 -14 26 -31 q0 -27 -86 -32 q-87 -87 -204 -192 q241 23 407 65 q-29 46 -90 92 l25 37 q223 -85 223 -195 q0 -63 -57 -63 q-41 0 -62 55 q-8 20 -14 31 q-228 -81 -557 -127 q-22 -61 -43 -61 q-21 0 -38 40 q-14 35 -36 114 l160 10 ZM312 -102 q853 129 1251 437 q139 -80 139 -116 q0 -25 -53 -25 q-31 0 -50 2 q-447 -271 -1262 -348 l-25 50 ZM366 107 q579 140 948 412 q137 -76 137 -110 q0 -23 -57 -23 q-27 0 -46 2 q-388 -227 -953 -328 l-29 47 Z" /><glyph glyph-name="uni53C8" unicode="&#x53c8;" d="M490 1424 l-244 0 l-20 51 l1198 0 l86 106 q143 -115 143 -147 q0 -14 -25 -26 l-61 -31 q-150 -501 -442 -873 q320 -289 815 -446 q-73 -63 -105 -137 q-486 201 -782 491 q-356 -371 -907 -534 l-31 49 q493 186 850 580 q-313 362 -475 917 ZM561 1424 q173 -502 476 -829 q261 334 399 829 l-875 0 Z" /><glyph glyph-name="uni53CA" unicode="&#x53ca;" d="M726 918 q-34 -278 -111 -465 q-144 -359 -491 -590 l-33 41 q344 280 461 742 q76 293 76 690 l0 143 l-369 0 l-18 51 l1026 0 l82 102 q129 -116 129 -141 q0 -13 -19 -22 l-55 -27 q-40 -252 -102 -473 l249 0 l84 104 q126 -112 126 -143 q0 -12 -21 -24 l-49 -29 q-152 -335 -349 -559 q222 -173 623 -305 q-50 -37 -102 -127 q-380 149 -602 350 q-286 -266 -818 -385 l-22 47 q246 73 460 197 q176 102 298 219 q-144 147 -226 289 q-62 105 -149 315 l-78 0 ZM732 969 l436 0 q73 238 111 510 l-526 0 l0 -143 q0 -181 -21 -367 ZM878 918 q127 -309 376 -524 q177 203 312 524 l-688 0 Z" /><glyph glyph-name="uni53CB" unicode="&#x53cb;" d="M766 799 q-175 -520 -610 -884 l-39 38 q331 328 492 764 q79 218 135 504 l-596 0 l-17 51 l621 0 q26 136 51 410 q213 -28 213 -68 q0 -28 -88 -55 q-16 -101 -32 -206 q-12 -74 -13 -81 l766 0 l115 149 q65 -52 157 -157 l-20 -43 l-1028 0 q-42 -208 -82 -338 l676 0 l80 98 q131 -103 131 -139 q0 -13 -23 -26 l-55 -29 q-169 -286 -346 -457 q290 -223 690 -332 q-66 -53 -103 -122 q-411 150 -665 376 q-3 -6 -12 -12 q-302 -259 -748 -383 l-27 45 q417 153 699 434 q-180 187 -322 463 ZM1164 408 q186 196 311 424 l-656 0 q157 -261 345 -424 Z" /><glyph glyph-name="uni53CD" unicode="&#x53cd;" d="M523 1409 l0 -418 l938 0 l84 105 q135 -120 135 -146 q0 -16 -21 -24 l-63 -33 q-146 -346 -355 -574 q261 -202 658 -305 q-61 -52 -96 -123 q-386 133 -637 345 q-299 -268 -758 -381 l-27 49 q430 139 699 413 q-229 245 -383 623 l-174 0 l0 -63 q0 -668 -371 -1020 l-41 37 q285 352 285 985 l0 646 q86 -33 147 -65 l1057 0 l115 147 q75 -64 157 -159 l-26 -39 l-1323 0 ZM1153 393 q212 246 320 547 l-705 0 q169 -345 385 -547 Z" /><glyph glyph-name="uni53D6" unicode="&#x53d6;" d="M1159 1299 l-154 0 l-24 51 l694 0 l78 104 q133 -123 133 -149 q0 -13 -19 -22 l-55 -33 q-74 -507 -268 -856 q151 -218 428 -414 q-69 -45 -113 -111 q-237 201 -377 416 q-202 -284 -493 -438 l-33 43 q262 182 461 506 q-178 338 -258 903 ZM1226 1299 q83 -498 250 -799 q149 299 211 799 l-461 0 ZM924 1477 l0 -1624 l-121 0 l0 494 q-283 -119 -574 -201 q-15 -74 -39 -74 q-50 0 -96 186 q119 17 207 33 l0 1186 l-182 0 l-23 51 l797 0 l103 133 q74 -64 137 -143 l-27 -41 l-182 0 ZM422 1151 l381 0 l0 326 l-381 0 l0 -326 ZM803 1100 l-381 0 l0 -338 l381 0 l0 338 ZM803 711 l-381 0 l0 -395 q200 40 381 92 l0 303 Z" /><glyph glyph-name="uni53D7" unicode="&#x53d7;" d="M590 643 l-160 0 l-22 51 l969 0 l75 94 q135 -119 135 -151 q0 -15 -20 -21 l-64 -20 q-155 -204 -372 -369 q286 -154 776 -215 q-76 -69 -100 -127 q-494 98 -760 273 q-322 -223 -850 -312 l-31 51 q471 96 787 330 q-179 147 -363 416 ZM664 643 q28 -33 31 -35 q167 -207 337 -321 q202 153 349 356 l-717 0 ZM1772 1092 q-47 0 -80 74 q-73 154 -250 274 l31 37 q192 -76 294 -182 q68 -68 68 -129 q0 -74 -63 -74 ZM905 1426 q229 -134 229 -280 q0 -80 -76 -80 q-52 0 -61 78 q-15 119 -123 251 l31 31 ZM586 1450 q-74 -203 -316 -412 l-39 37 q188 205 254 500 q26 -12 123 -70 q531 33 932 154 q148 -72 148 -109 q0 -18 -39 -18 q-27 0 -76 12 q-263 -47 -591 -75 q-185 -16 -396 -19 ZM363 994 l1349 0 l74 88 q141 -132 141 -168 q0 -16 -28 -22 l-66 -12 q-81 -79 -200 -164 l-37 30 q86 121 120 197 l-1354 0 q-6 -146 -63 -246 q-50 -84 -107 -84 q-73 0 -73 70 q0 31 47 69 q111 87 145 303 l49 -15 q2 -21 3 -46 Z" /><glyph glyph-name="uni53E3" unicode="&#x53e3;" d="M492 1389 l1053 0 l84 100 q135 -107 135 -141 q0 -17 -21 -28 l-49 -31 l0 -1336 l-131 0 l0 194 l-1094 0 l0 -210 l-131 0 l0 1519 q69 -27 154 -67 ZM469 1338 l0 -1140 l1094 0 l0 1140 l-1094 0 Z" /><glyph glyph-name="uni53E5" unicode="&#x53e5;" d="M596 1346 l1036 0 l84 100 q133 -114 133 -139 q0 -13 -20 -24 l-58 -35 q0 -1049 -108 -1253 q-73 -130 -262 -134 q0 62 -66 91 q-69 30 -309 67 l0 55 q248 -30 389 -30 q124 0 158 96 q78 218 78 1155 l-1078 0 q-157 -321 -411 -545 l-37 37 q294 346 432 883 q207 -34 207 -80 q0 -24 -90 -45 q-34 -101 -78 -199 ZM657 971 l394 0 l75 90 q125 -97 125 -125 q0 -12 -14 -20 l-49 -33 l0 -592 l-119 0 l0 125 l-430 0 l0 -152 l-121 0 l0 766 q75 -28 123 -51 l16 -8 ZM639 920 l0 -453 l430 0 l0 453 l-430 0 Z" /><glyph glyph-name="uni53E6" unicode="&#x53e6;" d="M1486 918 l-947 0 l0 -119 l-121 0 l0 815 q67 -25 143 -66 l907 0 l80 90 q129 -98 129 -127 q0 -14 -19 -26 l-53 -33 l0 -637 l-119 0 l0 103 ZM1486 969 l0 528 l-947 0 l0 -528 l947 0 ZM995 549 q-39 -180 -145 -323 q-214 -286 -688 -383 l-23 51 q375 118 545 303 q126 138 176 342 l-633 0 l-22 51 l665 0 q24 126 27 307 q207 -18 207 -59 q0 -24 -84 -52 q-3 -94 -17 -186 l594 0 l78 94 q125 -94 125 -125 q0 -12 -19 -24 l-53 -35 q-12 -283 -84 -454 q-70 -169 -272 -166 q0 53 -55 78 q-63 26 -258 59 l0 53 q221 -26 321 -26 q128 0 168 96 q52 132 61 399 l-614 0 Z" /><glyph glyph-name="uni53EA" unicode="&#x53ea;" d="M549 1450 l924 0 l81 102 q138 -100 138 -137 q0 -12 -19 -24 l-59 -37 l0 -838 l-121 0 l0 117 l-958 0 l0 -123 l-121 0 l0 1008 q59 -22 135 -68 ZM535 1399 l0 -715 l958 0 l0 715 l-958 0 ZM1204 522 q337 -161 527 -356 q94 -94 94 -164 q0 -80 -72 -80 q-34 0 -84 78 q-157 249 -491 479 l26 43 ZM174 -72 q339 221 549 604 q172 -89 172 -129 q0 -28 -105 -28 q-211 -310 -587 -492 l-29 45 Z" /><glyph glyph-name="uni53EB" unicode="&#x53eb;" d="M346 416 l0 -228 l-117 0 l0 1290 q80 -36 135 -73 l318 0 l78 98 q121 -96 121 -125 q0 -14 -17 -24 l-51 -33 l0 -1010 l-115 0 l0 105 l-352 0 ZM346 467 l352 0 l0 887 l-352 0 l0 -887 ZM1677 482 q-299 -144 -641 -236 q-4 -85 -31 -88 q-44 -3 -111 195 q103 17 205 37 l0 1071 q205 -10 205 -52 q0 -23 -84 -57 l0 -938 q249 53 457 131 l0 1096 q213 -9 213 -53 q0 -28 -90 -62 l0 -1669 l-123 0 l0 625 Z" /><glyph glyph-name="uni53EF" unicode="&#x53ef;" d="M562 1090 l417 0 l78 98 q129 -101 129 -127 q0 -13 -21 -28 l-55 -37 l0 -652 l-117 0 l0 137 l-454 0 l0 -188 l-121 0 l0 860 q81 -33 144 -63 ZM539 1039 l0 -507 l454 0 l0 507 l-454 0 ZM1614 1411 l0 -1366 q0 -185 -236 -182 q-3 65 -90 96 q-64 22 -246 49 l0 58 q215 -25 371 -25 q74 0 74 70 l0 1300 l-1340 0 l-18 51 l1524 0 l117 156 q99 -87 157 -164 l-24 -43 l-289 0 Z" /><glyph glyph-name="uni53F0" unicode="&#x53f0;" d="M586 635 l891 0 l78 94 q131 -100 131 -133 q0 -14 -19 -26 l-51 -33 l0 -666 l-123 0 l0 154 l-938 0 l0 -154 l-125 0 l0 834 q90 -36 156 -70 ZM555 584 l0 -508 l938 0 l0 508 l-938 0 ZM538 989 q174 271 326 678 q192 -64 192 -111 q0 -30 -98 -36 q-136 -264 -348 -529 l125 4 q280 12 561 31 l262 21 q-135 153 -319 299 l28 43 q596 -366 596 -553 q0 -74 -67 -74 q-40 0 -88 82 q-41 65 -105 147 l-51 -6 q-514 -72 -1245 -127 q-28 -80 -53 -80 q-42 0 -70 203 q31 1 99 2 q59 1 91 2 l164 4 Z" /><glyph glyph-name="uni53F2" unicode="&#x53f2;" d="M966 1286 l0 379 q217 -9 217 -51 q0 -24 -92 -58 l0 -270 l494 0 l75 94 q136 -104 136 -133 q0 -14 -17 -24 l-57 -37 l0 -563 l-119 0 l0 121 l-512 0 q-6 -267 -82 -431 q367 -226 955 -290 q-67 -55 -101 -134 q-580 111 -903 338 q-236 -315 -836 -370 l-20 53 q539 89 760 393 q-171 137 -307 328 l51 33 q122 -145 301 -281 q54 138 57 361 l-532 0 l0 -144 l-119 0 l0 749 q89 -33 152 -63 l499 0 ZM966 1235 l-532 0 l0 -440 l532 0 l0 440 ZM1091 1235 l0 -440 l512 0 l0 440 l-512 0 Z" /><glyph glyph-name="uni5404" unicode="&#x5404;" d="M969 963 q-159 147 -278 313 q-216 -240 -490 -403 l-33 39 q400 282 648 780 q178 -52 178 -94 q0 -28 -99 -37 q-64 -103 -84 -129 l541 0 l82 94 q127 -108 127 -137 q0 -14 -23 -26 l-55 -31 q-135 -181 -350 -375 q327 -230 833 -346 q-62 -45 -104 -119 q-490 155 -805 395 l-29 -20 q-215 -156 -495 -283 q8 -4 14 -6 l43 -21 q6 -3 18 -8 q12 -6 17 -8 l807 0 l61 55 q127 -83 127 -106 q0 -9 -16 -23 l-41 -30 l0 -584 l-119 0 l0 133 l-837 0 l0 -133 l-119 0 l0 713 q-164 -71 -350 -129 l-29 47 q479 175 860 479 ZM1043 1022 q165 150 313 359 l-581 0 l-45 -57 q156 -181 313 -302 ZM607 490 l0 -453 l837 0 l0 453 l-837 0 Z" /><glyph glyph-name="uni5408" unicode="&#x5408;" d="M595 580 l845 0 l82 98 q134 -105 134 -129 q0 -9 -17 -22 l-55 -39 l0 -633 l-121 0 l0 141 l-895 0 l0 -141 l-121 0 l0 791 q55 -20 148 -66 ZM568 529 l0 -482 l895 0 l0 482 l-895 0 ZM1069 1567 q371 -429 885 -647 q-66 -51 -100 -117 q-508 271 -817 708 q-300 -516 -893 -788 l-33 43 q585 342 858 915 q191 -33 191 -69 q0 -21 -91 -43 l0 -2 ZM1274 920 l99 125 q57 -47 120 -115 l21 -22 l-25 -39 l-927 0 l-27 51 l739 0 Z" /><glyph glyph-name="uni540C" unicode="&#x540c;" d="M393 1530 l1241 0 l85 98 q125 -97 125 -127 q0 -16 -21 -30 l-47 -37 l0 -1385 q0 -103 -78 -137 q-49 -20 -133 -27 q0 62 -82 86 q-63 20 -232 41 l0 57 q189 -16 330 -16 q76 0 76 68 l0 1358 l-1284 0 l0 -1600 l-119 0 l0 1721 q69 -30 139 -70 ZM777 903 l458 0 l78 91 q116 -96 116 -117 q0 -15 -20 -29 l-39 -29 l0 -553 l-117 0 l0 127 l-499 0 l0 -155 l-117 0 l0 725 q49 -20 140 -60 ZM754 852 l0 -408 l499 0 l0 408 l-499 0 ZM1303 1214 l100 127 q74 -68 133 -139 l-25 -39 l-997 0 l-22 51 l811 0 Z" /><glyph glyph-name="uni540D" unicode="&#x540d;" d="M820 625 l786 0 l84 94 q128 -96 128 -123 q0 -14 -21 -28 l-51 -39 l0 -676 l-123 0 l0 147 l-862 0 l0 -147 l-119 0 l0 664 q-221 -127 -516 -238 l-27 47 q833 356 1290 1014 l-587 0 q-99 -124 -158 -180 q13 -7 20 -8 q283 -126 283 -252 q0 -68 -66 -68 q-33 0 -67 59 q-74 132 -207 230 q-184 -178 -434 -322 l-31 41 q436 301 721 832 q181 -46 181 -91 q0 -27 -101 -36 q-43 -68 -102 -154 l544 0 l80 98 q133 -111 133 -141 q0 -15 -24 -24 l-60 -23 q-285 -403 -694 -676 ZM761 574 l0 -523 l862 0 l0 523 l-862 0 Z" /><glyph glyph-name="uni5411" unicode="&#x5411;" d="M809 1315 q64 149 103 375 q211 -49 211 -92 q0 -30 -95 -39 q-53 -109 -151 -244 l789 0 l80 102 q133 -101 133 -131 q0 -14 -21 -28 l-53 -35 l0 -1163 q0 -181 -225 -178 q-3 63 -85 88 q-65 20 -225 41 l0 57 q200 -18 334 -18 q80 0 80 69 l0 1145 l-1317 0 l0 -1411 l-121 0 l0 1527 q102 -41 146 -65 l417 0 ZM816 922 l405 0 l78 94 q127 -99 127 -127 q0 -12 -19 -24 l-53 -35 l0 -562 l-115 0 l0 131 l-450 0 l0 -159 l-115 0 l0 745 q66 -24 142 -63 ZM789 871 l0 -421 l450 0 l0 421 l-450 0 Z" /><glyph glyph-name="uni5426" unicode="&#x5426;" d="M567 575 l909 0 l78 92 q134 -99 134 -127 q0 -14 -19 -26 l-51 -35 l0 -626 l-121 0 l0 141 l-957 0 l0 -141 l-121 0 l0 790 q62 -22 148 -68 ZM540 524 l0 -479 l957 0 l0 479 l-957 0 ZM956 1211 q-320 -339 -823 -568 l-31 47 q573 291 903 777 l-829 0 l-19 51 l1471 0 l109 143 q86 -70 157 -153 l-26 -41 l-709 0 q-83 -118 -117 -158 q-8 -8 -10 -12 q119 -15 119 -45 q0 -25 -78 -54 l0 -547 l-117 0 l0 560 ZM1249 1208 q323 -117 516 -260 q109 -81 109 -141 q0 -68 -68 -68 q-32 0 -90 64 q-170 189 -492 360 l25 45 Z" /><glyph glyph-name="uni5427" unicode="&#x5427;" d="M1035 1528 l602 0 l75 96 q124 -95 124 -127 q0 -14 -17 -24 l-49 -31 l0 -836 l-117 0 l0 174 l-647 0 l0 -657 q0 -63 35 -76 q56 -16 299 -16 q299 0 348 16 q77 28 98 356 l56 -16 q0 -223 20 -272 q15 -40 78 -43 q-3 -105 -86 -129 q-64 -21 -434 -21 q-423 0 -476 31 q-55 34 -55 160 l0 1485 q79 -34 146 -70 ZM1006 1477 l0 -646 l256 0 l0 646 l-256 0 ZM1375 1477 l0 -646 l278 0 l0 646 l-278 0 ZM328 1481 l234 0 l77 100 q117 -101 117 -131 q0 -11 -16 -24 l-43 -31 l0 -1127 l-117 0 l0 172 l-272 0 l0 -231 l-115 0 l0 1344 q66 -31 135 -72 ZM308 1430 l0 -939 l272 0 l0 939 l-272 0 Z" /><glyph glyph-name="uni542B" unicode="&#x542b;" d="M591 485 l584 0 q82 146 148 324 l-859 0 l-20 51 l870 0 l72 86 q125 -101 125 -131 q0 -14 -20 -22 l-56 -23 q-57 -147 -135 -285 l152 0 l77 90 q132 -100 132 -127 q0 -12 -17 -22 l-53 -35 l0 -538 l-121 0 l0 133 l-899 0 l0 -133 l-121 0 l0 696 q6 -3 25 -11 q17 -7 28 -12 q72 -33 88 -41 ZM571 434 l0 -397 l899 0 l0 397 l-899 0 ZM1048 1575 q365 -355 899 -537 q-63 -51 -98 -120 q-513 222 -834 610 l-6 -10 q-311 -462 -876 -707 l-31 47 q565 301 860 842 q184 -46 184 -86 q0 -28 -98 -37 l0 -2 ZM1122 1118 l90 106 q74 -58 127 -120 l-23 -37 l-608 0 l-24 51 l438 0 Z" /><glyph glyph-name="uni5438" unicode="&#x5438;" d="M305 444 l0 -231 l-115 0 l0 1261 q77 -35 131 -71 l236 0 l82 100 q113 -103 113 -135 q0 -12 -17 -22 l-53 -29 l0 -1022 l-111 0 l0 149 l-266 0 ZM305 495 l266 0 l0 857 l-266 0 l0 -857 ZM954 1501 l-213 0 l-20 51 l770 0 l76 94 q122 -101 122 -129 q0 -13 -22 -26 l-55 -31 q-29 -249 -76 -483 l145 0 l74 96 q125 -106 125 -135 q0 -18 -20 -26 l-58 -29 q-103 -341 -297 -590 q197 -177 469 -285 q-68 -51 -102 -114 q-263 128 -441 315 q-203 -214 -583 -340 l-29 47 q332 134 543 375 q-100 133 -168 324 q-54 155 -78 311 l-64 0 q-28 -272 -102 -494 q-117 -347 -381 -563 l-37 39 q239 245 336 637 q86 335 86 817 l0 139 ZM1071 1501 l0 -133 q0 -195 -14 -391 l362 0 q51 271 80 524 l-428 0 ZM1425 373 q176 239 267 553 l-523 0 q80 -349 256 -553 Z" /><glyph glyph-name="uni543B" unicode="&#x543b;" d="M1071 1266 l645 0 l76 98 q127 -102 127 -129 q0 -13 -15 -22 l-55 -37 l0 -94 q0 -870 -119 -1080 q-80 -142 -248 -139 q0 52 -49 80 q-53 25 -229 61 l0 55 q197 -28 291 -28 q128 0 162 139 q77 327 77 1045 l-137 0 q-55 -391 -186 -662 q-185 -386 -604 -643 l-37 45 q449 330 618 867 q46 147 86 393 l-143 0 l-6 -31 q-139 -569 -592 -879 l-35 41 q390 329 510 869 l-160 0 q-120 -261 -299 -453 l-41 37 q267 372 357 895 q194 -37 194 -82 q0 -28 -88 -43 q-50 -179 -100 -303 ZM325 1384 l212 0 l80 101 q123 -102 123 -129 q0 -12 -15 -21 l-57 -37 l0 -1085 l-113 0 l0 149 l-250 0 l0 -231 l-117 0 l0 1325 q73 -35 137 -72 ZM305 1333 l0 -920 l250 0 l0 920 l-250 0 Z" /><glyph glyph-name="uni5448" unicode="&#x5448;" d="M553 979 l0 -107 l-119 0 l0 736 q80 -34 135 -68 l876 0 l78 94 q126 -97 126 -127 q0 -16 -21 -30 l-45 -33 l0 -541 l-117 0 l0 76 l-913 0 ZM553 1030 l913 0 l0 459 l-913 0 l0 -459 ZM1071 666 l0 -289 l397 0 l103 125 q80 -68 133 -133 l-21 -43 l-612 0 l0 -326 l596 0 l113 146 q82 -80 143 -156 l-27 -41 l-1751 0 l-22 51 l827 0 l0 326 l-614 0 l-19 51 l633 0 l0 272 q-271 -33 -576 -43 l-18 49 q738 68 1090 218 q135 -90 135 -128 q0 -20 -37 -19 q-35 1 -88 24 q-147 -47 -385 -84 Z" /><glyph glyph-name="uni544A" unicode="&#x544a;" d="M1092 1219 l0 -394 l532 0 l113 146 q87 -75 152 -158 l-23 -39 l-774 0 l0 -246 l379 0 l80 98 q131 -94 131 -127 q0 -17 -21 -28 l-53 -33 l0 -585 l-119 0 l0 139 l-933 0 l0 -139 l-119 0 l0 738 q79 -33 133 -63 l401 0 l0 246 l-793 0 l-22 51 l815 0 l0 394 l-426 0 q-107 -187 -272 -341 l-39 37 q215 268 317 703 q195 -55 195 -98 q0 -28 -88 -37 q-42 -120 -86 -213 l399 0 l0 416 q215 -9 215 -53 q0 -27 -94 -58 l0 -305 l422 0 l106 147 q81 -71 146 -157 l-23 -41 l-651 0 ZM556 43 l933 0 l0 434 l-933 0 l0 -434 Z" /><glyph glyph-name="uni5462" unicode="&#x5462;" d="M323 1448 l226 0 l75 100 q122 -99 122 -127 q0 -9 -17 -22 l-49 -35 l0 -1112 l-115 0 l0 151 l-262 0 l0 -231 l-115 0 l0 1352 q44 -22 135 -76 ZM303 1397 l0 -943 l262 0 l0 943 l-262 0 ZM1011 1536 l689 0 l75 92 q124 -95 124 -123 q0 -14 -19 -26 l-47 -31 l0 -469 l-115 0 l0 135 l-723 0 l0 -221 q0 -374 -72 -608 q-68 -220 -250 -426 l-43 30 q188 280 228 631 q18 160 18 373 l0 711 q64 -28 135 -68 ZM995 1485 l0 -320 l723 0 l0 320 l-723 0 ZM1286 465 q245 155 416 381 q143 -85 143 -126 q0 -23 -47 -23 q-4 0 -47 4 q-211 -181 -465 -302 l0 -293 q0 -54 31 -70 q39 -16 198 -16 q169 0 209 19 q63 28 78 365 l53 -17 q0 -211 21 -272 q15 -55 72 -58 q-4 -100 -89 -123 q-68 -16 -305 -16 q-299 0 -348 43 q-35 32 -35 121 l0 926 q197 -6 197 -49 q0 -27 -82 -57 l0 -437 Z" /><glyph glyph-name="uni5468" unicode="&#x5468;" d="M805 250 l0 -144 l-115 0 l0 605 q88 -38 135 -64 l422 0 l65 80 q121 -90 121 -117 q0 -14 -16 -24 l-45 -29 l0 -405 l-113 0 l0 98 l-454 0 ZM805 301 l454 0 l0 295 l-454 0 l0 -295 ZM970 877 l-406 0 l-20 51 l426 0 l0 217 l-379 0 l-16 51 l395 0 l0 229 q199 -3 199 -47 q0 -23 -84 -57 l0 -125 l254 0 l88 113 q67 -62 115 -125 l-22 -39 l-435 0 l0 -217 l272 0 l88 111 q67 -61 115 -125 l-21 -37 l-454 0 l0 -168 l-115 0 l0 168 ZM487 1489 l0 -600 q0 -353 -70 -580 q-80 -265 -284 -454 l-39 39 q268 342 268 993 l0 723 q82 -32 150 -70 l1094 0 l79 96 q132 -100 132 -133 q0 -14 -17 -24 l-53 -35 l0 -1417 q0 -165 -219 -162 q-4 63 -66 90 q-59 26 -211 47 l0 57 q200 -22 305 -22 q70 0 70 69 l0 1383 l-1139 0 Z" /><glyph glyph-name="uni547C" unicode="&#x547c;" d="M315 1407 l197 0 l77 100 q119 -97 119 -127 q0 -11 -14 -20 l-49 -31 l0 -1085 l-113 0 l0 170 l-241 0 l0 -256 l-117 0 l0 1323 q66 -31 115 -60 l26 -14 ZM291 1356 l0 -891 l241 0 l0 891 l-241 0 ZM1376 1429 l0 -780 l330 0 l104 139 q86 -77 137 -147 l-26 -43 l-545 0 l0 -545 q0 -193 -211 -190 q0 54 -55 82 q-56 26 -229 51 l0 57 q195 -22 292 -22 q80 0 80 65 l0 502 l-552 0 l-21 51 l573 0 l0 764 q-250 -34 -487 -55 l-22 53 q563 69 925 205 q156 -73 156 -111 q0 -18 -45 -18 q-22 0 -68 6 q-132 -31 -295 -56 l-41 -8 ZM1497 1307 l37 33 q260 -223 280 -426 q0 -86 -69 -86 q-53 0 -62 61 q-48 231 -186 418 ZM733 741 q161 311 216 582 q189 -58 189 -100 q0 -29 -82 -35 q-92 -230 -278 -475 l-45 28 Z" /><glyph glyph-name="uni548C" unicode="&#x548c;" d="M1273 1407 l414 0 l79 102 q124 -110 124 -137 q0 -11 -15 -20 l-51 -33 l0 -1352 l-119 0 l0 187 l-452 0 l0 -224 l-121 0 l0 1543 q51 -19 141 -66 ZM1253 1356 l0 -1151 l452 0 l0 1151 l-452 0 ZM528 715 q-165 -345 -383 -575 l-41 35 q303 391 414 825 l-373 0 l-21 51 l404 0 l0 350 l-33 -8 q-107 -24 -315 -60 l-27 49 q432 94 678 244 q142 -74 142 -109 q0 -22 -53 -22 q-7 0 -52 4 q-89 -33 -219 -68 l0 -380 l176 0 l98 139 q61 -57 131 -155 l-22 -35 l-383 0 l0 -168 q367 -179 367 -321 q0 -72 -68 -72 q-39 0 -57 37 q-69 149 -242 297 l0 -920 l-121 0 l0 862 Z" /><glyph glyph-name="uni54C1" unicode="&#x54c1;" d="M352 659 l404 0 l69 86 q125 -88 125 -117 q0 -14 -18 -26 l-43 -31 l0 -677 l-117 0 l0 133 l-442 0 l0 -156 l-115 0 l0 847 q78 -26 137 -59 ZM330 608 l0 -530 l442 0 l0 530 l-442 0 ZM1261 659 l431 0 l78 92 q118 -94 118 -123 q0 -11 -16 -24 l-45 -33 l0 -700 l-117 0 l0 156 l-467 0 l0 -156 l-117 0 l0 854 q73 -31 135 -66 ZM1243 608 l0 -530 l467 0 l0 530 l-467 0 ZM682 1513 l682 0 l75 92 q127 -93 127 -121 q0 -13 -14 -22 l-49 -33 l0 -602 l-121 0 l0 130 l-722 0 l0 -144 l-121 0 l0 768 q42 -17 127 -60 l16 -8 ZM660 1462 l0 -454 l722 0 l0 454 l-722 0 Z" /><glyph glyph-name="uni54C9" unicode="&#x54c9;" d="M1326 351 q-101 240 -138 612 l-1049 0 l-22 51 l473 0 l0 293 l-336 0 l-18 51 l354 0 l0 317 q203 -3 203 -51 q0 -28 -88 -55 l0 -211 l166 0 l98 131 q71 -71 123 -143 l-22 -39 l-365 0 l0 -293 l479 0 q-20 225 -20 676 q203 -13 203 -56 q0 -25 -86 -59 q0 -299 16 -551 l387 0 l100 135 q78 -75 133 -145 l-24 -41 l-592 0 q34 -330 104 -524 q147 209 238 455 q168 -83 168 -123 q0 -29 -92 -29 q-108 -212 -258 -405 q70 -142 188 -250 q54 -47 70 -47 q44 0 96 401 l55 -31 q-22 -216 -22 -299 q0 -148 72 -164 q-19 -96 -95 -96 q-102 0 -248 133 q-95 87 -194 250 q-222 -228 -641 -375 l-29 47 q384 163 613 435 ZM454 735 l392 0 l79 94 q121 -96 121 -125 q0 -15 -25 -30 l-41 -27 l0 -516 l-113 0 l0 111 l-438 0 l0 -160 l-115 0 l0 716 q2 0 26 -11 q20 -9 40 -17 q25 -11 74 -35 ZM429 684 l0 -391 l438 0 l0 391 l-438 0 ZM1430 1565 q307 -132 307 -289 q0 -78 -74 -78 q-50 0 -71 72 q-44 143 -187 256 l25 39 Z" /><glyph glyph-name="uni54E1" unicode="&#x54e1;" d="M505 1065 l1020 0 l73 84 q121 -90 121 -115 q0 -12 -18 -24 l-43 -29 l0 -776 l-121 0 l0 67 l-1048 0 l0 -88 l-119 0 l0 934 q49 -15 111 -43 l24 -10 ZM489 1014 l0 -187 l1048 0 l0 187 l-1048 0 ZM1537 323 l0 210 l-1048 0 l0 -210 l1048 0 ZM1537 584 l0 192 l-1048 0 l0 -192 l1048 0 ZM615 1593 l810 0 l76 84 q121 -90 121 -119 q0 -12 -17 -22 l-49 -31 l0 -336 l-117 0 l0 76 l-853 0 l0 -84 l-115 0 l0 487 q90 -30 144 -55 ZM586 1542 l0 -246 l853 0 l0 246 l-853 0 ZM104 -96 q382 102 614 293 q160 -71 160 -105 q0 -20 -53 -20 q-29 0 -47 2 q-258 -143 -645 -217 l-29 47 ZM1183 184 q715 -89 715 -245 q0 -66 -61 -66 q-22 0 -80 37 q-184 120 -598 229 l24 45 Z" /><glyph glyph-name="uni54EA" unicode="&#x54ea;" d="M473 457 l-190 0 l0 -234 l-113 0 l0 1262 q42 -19 133 -70 l152 0 l74 94 q114 -93 114 -123 q0 -13 -16 -24 l-45 -27 l0 -1018 l-109 0 l0 140 ZM473 508 l0 856 l-190 0 l0 -856 l190 0 ZM918 621 q-63 -517 -369 -758 l-37 37 q242 267 295 721 l-168 0 l-18 51 l190 0 q8 84 8 192 l0 209 l-180 0 l-18 51 l198 0 l0 371 l-184 0 l-25 51 l488 0 l78 100 q117 -95 117 -127 q0 -11 -15 -20 l-51 -35 l0 -340 l25 0 l61 113 q40 -50 84 -127 l-18 -37 l-152 0 l0 -311 l0 -90 l27 0 l59 113 q41 -51 84 -127 l-18 -37 l-152 0 q-6 -479 -56 -596 q-49 -117 -190 -117 q0 85 -176 119 l0 55 q108 -18 188 -18 q75 0 90 80 q27 154 33 477 l-198 0 ZM924 672 l192 0 l0 47 l0 354 l-184 0 l0 -209 q0 -105 -8 -192 ZM932 1124 l184 0 l0 371 l-184 0 l0 -371 ZM1684 973 q250 -227 250 -496 q0 -316 -232 -343 q-3 83 -176 112 l0 -393 l-115 0 l0 1761 q80 -34 136 -68 l196 0 l68 96 q125 -106 125 -141 q0 -15 -19 -24 l-49 -25 q-85 -278 -184 -479 ZM1626 965 q71 232 127 530 l-227 0 l0 -1196 q122 -8 158 -8 q83 0 110 57 q25 53 25 162 q0 225 -193 455 Z" /><glyph glyph-name="uni54ED" unicode="&#x54ed;" d="M434 1542 l340 0 l70 82 q117 -83 117 -113 q0 -11 -14 -20 l-47 -33 l0 -551 l-111 0 l0 125 l-377 0 l0 -164 l-113 0 l0 721 q65 -19 135 -47 ZM412 1491 l0 -408 l377 0 l0 408 l-377 0 ZM1253 1542 l346 0 l74 84 q115 -90 115 -117 q0 -11 -14 -20 l-47 -31 l0 -551 l-113 0 l0 125 l-381 0 l0 -139 l-111 0 l0 696 q69 -21 131 -47 ZM1233 1491 l0 -408 l381 0 l0 408 l-381 0 ZM1039 578 l624 0 l103 127 q82 -73 137 -141 l-18 -37 l-834 0 q199 -432 881 -524 q-67 -67 -91 -125 q-649 123 -821 583 q-120 -483 -868 -606 l-27 49 q708 154 791 623 l-738 0 l-18 51 l762 0 q4 49 4 74 l0 207 q201 -10 201 -52 q0 -24 -84 -55 l0 -96 q0 -25 -4 -78 ZM1272 866 q295 -70 295 -194 q0 -74 -68 -74 q-35 0 -59 51 q-44 91 -193 182 l25 35 Z" /><glyph glyph-name="uni54F2" unicode="&#x54f2;" d="M547 477 l942 0 l71 76 q134 -84 134 -115 q0 -14 -19 -26 l-49 -33 l0 -526 l-121 0 l0 127 l-983 0 l0 -127 l-119 0 l0 681 q54 -16 144 -57 ZM522 426 l0 -395 l983 0 l0 395 l-983 0 ZM1179 1482 q294 56 483 158 q132 -88 132 -125 q0 -18 -33 -18 q-21 0 -68 12 q-274 -59 -532 -82 l0 -245 l553 0 l94 114 q48 -39 125 -126 l-19 -39 l-317 0 l0 -541 l-117 0 l0 541 l-319 0 q-9 -376 -322 -580 l-33 41 q238 207 238 561 l0 387 q61 -19 135 -58 ZM610 1319 l0 -219 q195 31 342 55 l4 -53 q-209 -56 -346 -86 l0 -291 q0 -116 -82 -143 q-43 -15 -115 -15 q0 54 -53 76 q-32 12 -137 29 l0 53 q98 -12 211 -12 q63 0 63 59 l0 219 q-133 -28 -242 -47 q-18 -69 -43 -69 q-41 0 -75 178 q176 12 335 31 l25 2 l0 233 l-332 0 l-18 51 l350 0 l0 293 q199 -6 199 -47 q0 -25 -86 -56 l0 -190 l145 0 l86 119 q13 -10 23 -23 q49 -52 92 -110 l-25 -37 l-321 0 Z" /><glyph glyph-name="uni552E" unicode="&#x552e;" d="M404 1239 q-113 -137 -254 -243 l-35 34 q282 264 428 687 q180 -46 180 -90 q0 -26 -96 -35 q-34 -72 -84 -158 l460 0 q57 136 78 283 q193 -34 193 -78 q0 -24 -76 -39 q-52 -81 -125 -166 l498 0 l94 117 q80 -68 129 -129 l-22 -39 l-672 0 l0 -193 l377 0 l94 107 q74 -59 125 -121 l-25 -37 l-571 0 l0 -207 l377 0 l98 117 q51 -46 123 -131 l-21 -37 l-577 0 l0 -226 l500 0 l96 121 q91 -84 133 -131 l-25 -41 l-1283 0 l0 -80 l-117 0 l0 715 ZM521 1383 l0 -193 l462 0 l0 193 l-462 0 ZM521 1139 l0 -207 l462 0 l0 207 l-462 0 ZM521 881 l0 -226 l462 0 l0 226 l-462 0 ZM545 389 l945 0 l72 84 q130 -89 130 -115 q0 -14 -19 -26 l-49 -31 l0 -448 l-117 0 l0 116 l-990 0 l0 -116 l-117 0 l0 606 q70 -28 145 -70 ZM517 338 l0 -318 l990 0 l0 318 l-990 0 Z" /><glyph glyph-name="uni552F" unicode="&#x552f;" d="M923 945 q-86 -145 -182 -269 l-45 31 q276 447 387 981 q192 -55 192 -98 q0 -27 -90 -39 q-57 -183 -123 -334 l306 0 q2 4 6 16 q79 191 133 431 q186 -65 186 -109 q0 -28 -84 -37 q-70 -150 -178 -301 l283 0 l96 127 q66 -62 121 -139 l-20 -39 l-449 0 l0 -324 l166 0 l98 129 q65 -73 113 -139 l-21 -41 l-356 0 l0 -343 l166 0 l100 125 q55 -57 115 -133 l-23 -43 l-358 0 l0 -364 l266 0 l103 139 q70 -73 123 -147 l-23 -43 l-889 0 l0 -129 l-119 0 l0 1092 ZM1042 1166 l0 -324 l303 0 l0 324 l-303 0 ZM1042 791 l0 -343 l303 0 l0 343 l-303 0 ZM1042 397 l0 -364 l303 0 l0 364 l-303 0 ZM323 1384 l222 0 l78 101 q121 -100 121 -126 q0 -13 -21 -28 l-49 -33 l0 -1095 l-113 0 l0 159 l-258 0 l0 -231 l-115 0 l0 1325 q40 -19 135 -72 ZM303 1333 l0 -920 l258 0 l0 920 l-258 0 Z" /><glyph glyph-name="uni5531" unicode="&#x5531;" d="M319 1384 l207 0 l67 92 q117 -92 117 -119 q0 -13 -14 -22 l-45 -33 l0 -1093 l-111 0 l0 153 l-239 0 l0 -233 l-115 0 l0 1321 q52 -23 133 -66 ZM301 1333 l0 -920 l239 0 l0 920 l-239 0 ZM1049 1559 l567 0 l80 96 q127 -99 127 -127 q0 -9 -13 -18 l-57 -37 l0 -609 l-115 0 l0 74 l-618 0 l0 -88 l-115 0 l0 772 q60 -23 144 -63 ZM1020 1508 l0 -228 l618 0 l0 228 l-618 0 ZM1638 989 l0 240 l-618 0 l0 -240 l618 0 ZM955 698 l755 0 l78 92 q127 -102 127 -131 q0 -14 -15 -22 l-53 -35 l0 -749 l-119 0 l0 141 l-796 0 l0 -141 l-121 0 l0 910 q82 -33 144 -65 ZM1728 647 l-796 0 l0 -260 l597 0 l84 102 q65 -52 113 -110 l-25 -43 l-769 0 l0 -291 l796 0 l0 602 Z" /><glyph glyph-name="uni5546" unicode="&#x5546;" d="M797 141 l0 -137 l-115 0 l0 549 q91 -31 135 -51 l432 0 l67 76 q117 -80 117 -109 q0 -9 -12 -18 l-43 -29 l0 -334 l-115 0 l0 53 l-466 0 ZM797 192 l466 0 l0 259 l-466 0 l0 -259 ZM753 967 l-385 0 l0 -1114 l-119 0 l0 1226 q76 -29 137 -61 l810 0 q70 134 115 285 q173 -52 173 -90 q0 -21 -83 -27 q-44 -73 -131 -168 l378 0 l80 96 q133 -96 133 -129 q0 -12 -17 -22 l-55 -37 l0 -891 q0 -164 -201 -164 q0 57 -63 84 q-45 19 -200 41 l0 57 q138 -18 241 -18 q61 0 82 10 q22 13 22 55 l0 867 l-472 0 l0 -188 q0 -45 18 -54 q22 -12 121 -12 q94 0 123 35 q30 43 39 166 l51 -19 q3 -157 63 -157 q0 -80 -51 -101 q-47 -20 -211 -20 q-177 0 -225 29 q-39 20 -39 102 l0 219 l-211 0 q-11 -196 -119 -313 q-99 -106 -321 -171 l-25 50 q216 88 291 229 q42 76 51 205 ZM767 1031 q-50 0 -65 63 q-22 107 -131 184 l29 35 q237 -105 237 -217 q0 -65 -70 -65 ZM167 1323 l-20 51 l1520 0 l106 143 q85 -78 150 -155 l-21 -39 l-1735 0 ZM426 1544 l-21 51 l973 0 l92 115 q74 -68 125 -131 l-23 -35 l-1146 0 Z" /><glyph glyph-name="uni554A" unicode="&#x554a;" d="M1810 1444 l0 -1413 q0 -169 -211 -166 q0 53 -39 74 q-43 24 -195 49 l0 49 q160 -19 266 -19 q66 0 66 74 l0 1352 l-524 0 l-23 51 l611 0 l94 135 q69 -68 121 -145 l-25 -41 l-141 0 ZM1338 1108 l102 0 l67 86 q108 -90 108 -117 q0 -13 -14 -22 l-43 -31 l0 -700 l-104 0 l0 145 l-141 0 l0 -170 l-104 0 l0 877 q67 -28 129 -68 ZM1313 1057 l0 -537 l141 0 l0 537 l-141 0 ZM320 1407 l145 0 l71 92 q110 -86 110 -121 q0 -11 -12 -20 l-45 -33 l0 -1096 l-106 0 l0 152 l-194 0 l0 -234 l-109 0 l0 1333 q65 -30 140 -73 ZM289 1356 l0 -924 l194 0 l0 924 l-194 0 ZM953 1029 q176 -220 176 -478 q0 -312 -203 -309 q-3 82 -86 107 l0 -496 l-109 0 l0 1784 q61 -32 129 -76 l144 0 l65 98 q115 -90 115 -118 q0 -12 -14 -21 l-45 -30 q-77 -268 -172 -461 ZM903 1020 q74 236 111 490 l-174 0 l0 -1110 q52 -6 80 -6 q74 0 93 55 q14 49 14 135 q0 221 -124 436 Z" /><glyph glyph-name="uni554F" unicode="&#x554f;" d="M1258 1591 l442 0 l78 92 q118 -94 118 -123 q0 -11 -16 -24 l-43 -31 l0 -1480 q0 -110 -80 -138 q-56 -19 -127 -22 q0 53 -47 78 q-46 24 -237 53 l0 55 q171 -16 303 -16 q65 0 65 61 l0 936 l-481 0 l0 -94 l-115 0 l0 712 q91 -34 140 -59 ZM1233 1540 l0 -197 l481 0 l0 197 l-481 0 ZM1714 1083 l0 209 l-481 0 l0 -209 l481 0 ZM344 1591 l425 0 l69 88 q113 -88 113 -114 q0 -12 -16 -25 l-39 -31 l0 -577 l-115 0 l0 100 l-457 0 l0 -1179 l-123 0 l0 1808 q57 -25 117 -56 l26 -14 ZM324 1540 l0 -197 l457 0 l0 197 l-457 0 ZM324 1083 l457 0 l0 209 l-457 0 l0 -209 ZM781 750 l452 0 l74 88 q122 -86 122 -121 q0 -14 -18 -26 l-45 -29 l0 -502 l-115 0 l0 102 l-501 0 l0 -125 l-115 0 l0 670 q79 -24 146 -57 ZM750 699 l0 -386 l501 0 l0 386 l-501 0 Z" /><glyph glyph-name="uni5584" unicode="&#x5584;" d="M543 370 l935 0 l83 88 q129 -89 129 -119 q0 -12 -21 -26 l-51 -35 l0 -425 l-119 0 l0 108 l-981 0 l0 -108 l-121 0 l0 589 q56 -21 146 -72 ZM518 319 l0 -307 l981 0 l0 307 l-981 0 ZM1278 592 q69 123 119 285 q174 -58 174 -97 q0 -24 -84 -30 q-67 -90 -138 -158 l357 0 l104 129 q80 -73 133 -143 l-22 -37 l-1772 0 l-24 51 l827 0 l0 301 l-784 0 l-25 51 l809 0 l0 174 l-606 0 l-23 51 l629 0 l0 162 l-731 0 l-21 51 l943 0 q72 130 125 317 q186 -61 186 -104 q0 -29 -90 -35 q-59 -83 -142 -166 q-6 -9 -12 -12 l428 0 l96 123 q76 -65 138 -137 l-23 -37 l-776 0 l0 -162 l442 0 l99 109 q82 -69 129 -127 l-23 -33 l-647 0 l0 -174 l608 0 l101 119 q77 -59 139 -133 l-23 -37 l-825 0 l0 -301 l205 0 ZM473 874 q240 -76 240 -198 q0 -74 -70 -74 q-45 0 -63 63 q-28 100 -131 173 l24 36 ZM600 1694 q252 -86 252 -215 q0 -45 -41 -74 q-17 -10 -35 -10 q-53 0 -65 70 q-21 98 -135 194 l24 35 Z" /><glyph glyph-name="uni559C" unicode="&#x559c;" d="M546 321 l950 0 l74 84 q127 -87 127 -115 q0 -14 -21 -28 l-45 -33 l0 -379 l-121 0 l0 111 l-985 0 l0 -111 l-119 0 l0 534 q47 -17 140 -63 ZM525 270 l0 -258 l985 0 l0 258 l-985 0 ZM578 1077 l868 0 l71 82 q117 -86 117 -111 q0 -13 -18 -28 l-39 -31 l0 -287 l-115 0 l0 70 l-900 0 l0 -80 l-115 0 l0 442 q62 -24 131 -57 ZM562 1026 l0 -203 l900 0 l0 203 l-900 0 ZM815 510 l371 0 q42 81 86 242 q164 -65 164 -97 q0 -21 -76 -24 q-49 -65 -108 -121 l426 0 l104 131 q67 -50 148 -145 l-23 -37 l-1776 0 l-18 51 l633 0 q-19 16 -29 51 q-24 81 -102 144 l24 34 q209 -76 209 -174 q0 -31 -33 -55 ZM953 1268 l0 180 l-776 0 l-23 51 l799 0 l0 201 q203 -10 203 -54 q0 -24 -86 -55 l0 -92 l586 0 l102 125 q91 -75 139 -137 l-24 -39 l-803 0 l0 -180 l453 0 l96 110 q80 -60 137 -126 l-25 -35 l-1407 0 l-22 51 l651 0 Z" /><glyph glyph-name="uni55AE" unicode="&#x55ae;" d="M411 1577 l363 0 l65 78 q119 -85 119 -115 q0 -9 -16 -22 l-43 -31 l0 -311 l-113 0 l0 63 l-391 0 l0 -74 l-113 0 l0 465 q57 -19 129 -53 ZM395 1526 l0 -236 l391 0 l0 236 l-391 0 ZM1218 1577 l396 0 l73 88 q119 -88 119 -117 q0 -14 -16 -24 l-43 -29 l0 -319 l-111 0 l0 63 l-432 0 l0 -74 l-111 0 l0 467 q62 -20 125 -55 ZM1204 1526 l0 -236 l432 0 l0 236 l-432 0 ZM541 1061 l945 0 l80 90 q130 -95 130 -123 q0 -12 -19 -24 l-49 -35 l0 -572 l-117 0 l0 76 l-452 0 l0 -201 l622 0 l115 135 q85 -73 143 -149 l-22 -37 l-858 0 l0 -368 l-119 0 l0 368 l-815 0 l-27 51 l842 0 l0 201 l-426 0 l0 -100 l-117 0 l0 754 q33 -14 117 -54 l27 -12 ZM514 1010 l0 -205 l426 0 l0 205 l-426 0 ZM1511 524 l0 230 l-452 0 l0 -230 l452 0 ZM1511 805 l0 205 l-452 0 l0 -205 l452 0 ZM940 754 l-426 0 l0 -230 l426 0 l0 230 Z" /><glyph glyph-name="uni5668" unicode="&#x5668;" d="M795 1088 l-368 0 l0 -99 l-113 0 l0 610 q68 -21 136 -55 l333 0 l68 84 q116 -80 116 -115 q0 -13 -14 -22 l-49 -33 l0 -440 l-109 0 l0 70 ZM795 1139 l0 354 l-368 0 l0 -354 l368 0 ZM1618 1088 l-375 0 l0 -89 l-111 0 l0 604 q71 -24 138 -59 l332 0 l76 84 q119 -82 119 -117 q0 -14 -19 -26 l-47 -31 l0 -461 l-113 0 l0 95 ZM1618 1139 l0 354 l-375 0 l0 -354 l375 0 ZM1745 401 l-39 -22 l0 -524 l-111 0 l0 106 l-364 0 l0 -106 l-113 0 l0 646 q71 -25 138 -59 l341 0 l10 8 q-253 104 -460 306 l-274 0 l-8 -8 q-165 -175 -408 -294 q17 -8 23 -12 l303 0 l65 76 q119 -82 119 -113 q0 -10 -14 -18 l-45 -29 l0 -475 l-109 0 l0 78 l-350 0 l0 -106 l-113 0 l0 546 q-112 -43 -242 -82 l-22 50 q402 147 651 387 l-594 0 l-18 49 l657 0 q94 103 173 244 q153 -58 153 -96 q0 -28 -86 -31 q-50 -70 -90 -117 l567 0 q-10 9 -25 31 q-56 79 -186 143 l16 35 q299 -46 299 -158 q0 -26 -25 -51 l136 0 l104 129 q62 -48 148 -143 l-25 -35 l-696 0 q295 -215 747 -273 q-54 -51 -82 -119 q-92 20 -151 37 ZM799 12 l0 379 l-350 0 l0 -379 l350 0 ZM1595 12 l0 379 l-364 0 l0 -379 l364 0 Z" /><glyph glyph-name="uni566A" unicode="&#x566a;" d="M298 1378 l180 0 l72 90 q110 -89 110 -121 q0 -8 -8 -14 l-49 -35 l0 -1087 l-111 0 l0 151 l-217 0 l0 -231 l-113 0 l0 1311 q55 -22 136 -64 ZM275 1327 l0 -914 l217 0 l0 914 l-217 0 ZM847 1071 l249 0 l68 80 q114 -87 114 -115 q0 -9 -10 -16 l-47 -33 l0 -332 l-106 0 l0 76 l-276 0 l0 -94 l-106 0 l0 491 q25 -9 96 -47 l18 -10 ZM839 1020 l0 -238 l276 0 l0 238 l-276 0 ZM1481 1071 l252 0 l69 78 q113 -85 113 -111 q0 -10 -8 -16 l-49 -39 l0 -326 l-109 0 l0 74 l-276 0 l0 -76 l-106 0 l0 471 q49 -20 114 -55 ZM1473 1020 l0 -238 l276 0 l0 238 l-276 0 ZM1069 1589 l455 0 l76 88 q121 -90 121 -119 q0 -12 -17 -22 l-51 -31 l0 -331 l-111 0 l0 65 l-487 0 l0 -76 l-113 0 l0 487 q52 -19 127 -61 ZM1055 1538 l0 -248 l487 0 l0 248 l-487 0 ZM1354 383 l0 -530 l-117 0 l0 481 l-14 -17 q-253 -273 -629 -411 l-31 43 q381 174 613 485 l-508 0 l-23 51 l592 0 l0 166 q187 -12 187 -47 q0 -23 -70 -47 l0 -72 l375 0 l92 117 q67 -56 125 -129 l-23 -39 l-544 0 q229 -260 610 -358 q-55 -61 -90 -123 q-338 134 -545 430 Z" /><glyph glyph-name="uni56B4" unicode="&#x56b4;" d="M1278 614 q-69 -141 -161 -250 l-39 27 q167 284 213 674 q180 -31 180 -72 q0 -24 -76 -39 q-27 -112 -47 -170 l360 0 l88 115 q63 -51 123 -127 l-20 -39 l-170 0 q-40 -308 -158 -504 q151 -163 387 -252 q-49 -41 -88 -120 q-216 117 -358 284 q-149 -191 -414 -305 l-35 41 q231 123 381 356 q-110 169 -166 381 ZM1313 692 q66 -205 182 -373 q80 152 109 414 l-274 0 q-5 -12 -17 -41 ZM527 697 l-109 0 l-22 51 l323 0 l0 162 l-245 0 l-25 51 l495 0 l78 90 q59 -47 106 -106 l-24 -35 l-276 0 l0 -162 l176 0 l73 92 q54 -45 109 -106 l-23 -37 l-139 0 l0 -844 l-106 0 l0 276 q-240 -70 -442 -108 q-16 -68 -37 -68 q-40 0 -74 166 q107 8 162 12 l0 566 ZM633 697 l0 -136 l285 0 l0 136 l-285 0 ZM918 510 l-285 0 l0 -137 l285 0 l0 137 ZM918 322 l-285 0 l0 -178 q166 19 285 41 l0 137 ZM508 1587 l306 0 l65 76 q115 -87 115 -111 q0 -11 -14 -22 l-37 -33 l0 -254 l-113 0 l0 60 l-338 0 l0 -78 l-111 0 l0 415 q55 -19 127 -53 ZM492 1536 l0 -182 l338 0 l0 182 l-338 0 ZM1253 1587 l320 0 l67 80 q115 -90 115 -115 q0 -11 -12 -20 l-41 -31 l0 -258 l-111 0 l0 60 l-352 0 l0 -72 l-111 0 l0 413 q82 -36 125 -57 ZM1239 1536 l0 -182 l352 0 l0 182 l-352 0 ZM363 1088 l0 -283 q0 -645 -248 -948 l-45 31 q176 306 176 913 l0 395 q78 -26 137 -57 l1321 0 l99 123 q69 -64 133 -139 l-25 -35 l-1548 0 Z" /><glyph glyph-name="uni56C9" unicode="&#x56c9;" d="M1095 625 q179 235 254 548 q164 -46 164 -84 q0 -23 -80 -32 q-36 -98 -92 -197 l203 0 q56 115 94 297 q162 -52 162 -90 q0 -26 -76 -29 q-57 -104 -119 -178 l180 0 l70 98 q43 -40 94 -108 l-22 -41 l-283 0 l0 -225 l111 0 l67 90 q51 -54 86 -100 l-24 -41 l-240 0 l0 -236 l108 0 l70 90 q54 -54 88 -100 l-24 -41 l-242 0 l0 -246 l154 0 l79 113 q15 -15 27 -29 q39 -41 70 -94 l-27 -41 l-602 0 l0 -96 l-102 0 l0 858 q-41 -58 -111 -127 q56 -76 56 -131 q0 -61 -58 -61 q-34 0 -47 59 q-6 32 -18 70 q-24 -4 -76 -12 q-50 -7 -74 -11 l0 -645 l-102 0 l0 631 q-65 -9 -184 -19 q-16 -55 -33 -55 q-32 0 -59 147 l161 0 q202 217 324 438 q147 -58 147 -94 q0 -28 -86 -31 q-150 -168 -317 -313 l20 0 q165 3 256 12 q-30 58 -74 107 l29 31 q65 -45 98 -82 ZM1345 809 l0 -225 l195 0 l0 225 l-195 0 ZM1540 533 l-195 0 l0 -236 l195 0 l0 236 ZM1540 246 l-195 0 l0 -246 l195 0 l0 246 ZM267 1454 l136 0 l67 86 q106 -82 106 -115 q0 -11 -12 -20 l-43 -33 l0 -1098 l-102 0 l0 154 l-168 0 l0 -235 l-104 0 l0 1326 q47 -19 120 -65 ZM251 1403 l0 -924 l168 0 l0 924 l-168 0 ZM1761 1213 l-978 0 l0 -62 l-106 0 l0 483 q64 -21 135 -55 l933 0 l67 76 q112 -82 112 -113 q0 -9 -12 -18 l-45 -31 l0 -340 l-106 0 l0 60 ZM1389 1528 l-251 0 l0 -264 l251 0 l0 264 ZM1495 1528 l0 -264 l266 0 l0 264 l-266 0 ZM783 1528 l0 -264 l249 0 l0 264 l-249 0 ZM729 897 q81 123 131 277 q147 -59 147 -97 q0 -25 -80 -28 q-79 -109 -157 -187 q45 -48 45 -88 q0 -63 -57 -63 q-33 0 -52 47 q-37 100 -137 184 l27 33 q74 -33 133 -78 ZM520 -41 q84 184 125 442 q153 -46 153 -84 q0 -21 -65 -30 q-67 -189 -170 -350 l-43 22 ZM987 410 q182 -177 182 -312 q0 -78 -61 -78 q-40 0 -50 78 q-18 146 -106 283 l35 29 Z" /><glyph glyph-name="uni56CA" unicode="&#x56ca;" d="M864 313 l-744 0 l-26 51 l580 0 l0 105 l-414 0 l-27 51 l441 0 l0 91 l-502 0 l-23 51 l525 0 l0 109 q172 -7 172 -41 q0 -16 -59 -35 l0 -33 l456 0 l0 113 q176 -3 176 -39 q0 -17 -65 -39 l0 -35 l311 0 l94 80 q65 -40 135 -98 l-20 -33 l-520 0 l0 -91 l241 0 l90 72 q74 -44 131 -90 l-24 -33 l-438 0 l0 -105 l352 0 l110 86 q58 -36 138 -102 l-27 -35 l-797 0 q99 -115 238 -188 q163 89 266 186 q139 -59 139 -92 q0 -21 -55 -21 q-23 0 -39 2 q-103 -53 -254 -104 q201 -93 547 -115 q-63 -56 -94 -117 q-586 95 -813 449 l-8 0 q-110 -65 -291 -121 l0 -182 q271 18 467 41 l10 -49 q-336 -66 -815 -113 q-22 -65 -41 -65 q-36 0 -76 165 q195 3 342 13 l0 157 q-267 -67 -551 -92 l-24 45 q470 59 786 201 ZM787 611 l0 -91 l456 0 l0 91 l-456 0 ZM787 469 l0 -105 l456 0 l0 105 l-456 0 ZM1196 1001 l337 0 l57 53 q102 -65 102 -84 q0 -6 -10 -16 l-35 -24 l0 -166 l-100 0 l0 35 l-359 0 l0 -37 l-100 0 l0 274 q66 -18 108 -35 ZM1188 950 l0 -100 l359 0 l0 100 l-359 0 ZM506 1221 l0 -31 l-104 0 l0 283 q99 -34 127 -46 l434 0 l0 85 l-801 0 l-22 51 l823 0 l0 135 q180 -3 180 -37 q0 -26 -76 -53 l0 -45 l606 0 l100 109 q68 -53 137 -125 l-24 -35 l-819 0 l0 -85 l447 0 l65 64 q112 -67 112 -95 q0 -11 -14 -20 l-43 -29 l0 -157 l-106 0 l0 31 l-461 0 l0 -93 l698 0 l70 70 q125 -116 125 -144 q0 -17 -33 -26 l-62 -17 q-51 -58 -123 -108 l-32 24 q26 51 59 150 l-1441 0 q-9 -106 -51 -168 q-47 -72 -104 -72 q-66 0 -66 68 q0 37 45 67 q112 76 127 226 l49 -10 q2 -25 2 -60 l633 0 l0 93 l-457 0 ZM506 1272 l457 0 l0 104 l-457 0 l0 -104 ZM1528 1272 l0 104 l-461 0 l0 -104 l461 0 ZM842 799 l-347 0 l0 -39 l-100 0 l0 279 q42 -9 108 -38 l331 0 l55 48 q104 -65 104 -83 q0 -9 -18 -18 l-33 -18 l0 -166 l-100 0 l0 35 ZM842 850 l0 100 l-347 0 l0 -100 l347 0 Z" /><glyph glyph-name="uni56DB" unicode="&#x56db;" d="M368 1421 l1295 0 l82 102 q129 -107 129 -135 q0 -12 -21 -26 l-53 -35 l0 -1390 l-119 0 l0 135 l-1335 0 l0 -135 l-121 0 l0 1548 q34 -14 143 -64 ZM346 1370 l0 -1247 l1335 0 l0 1247 l-448 0 l0 -756 q0 -68 115 -68 q111 0 126 64 q24 79 39 291 l53 -18 q0 -214 15 -262 q12 -48 59 -48 q-3 -88 -53 -108 q-62 -25 -219 -25 q-158 0 -203 23 q-47 28 -47 112 l0 795 l-278 0 l0 -135 q0 -358 -96 -569 q-89 -194 -316 -353 l-37 41 q227 202 291 482 q37 162 37 397 l0 137 l-373 0 Z" /><glyph glyph-name="uni56DE" unicode="&#x56de;" d="M799 1094 l410 0 l69 88 q121 -93 121 -123 q0 -11 -12 -20 l-47 -33 l0 -627 l-117 0 l0 127 l-442 0 l0 -144 l-115 0 l0 791 q87 -34 133 -59 ZM781 1043 l0 -486 l442 0 l0 486 l-442 0 ZM392 1505 l1247 0 l80 98 q133 -105 133 -131 q0 -14 -19 -26 l-51 -37 l0 -1546 l-125 0 l0 157 l-1286 0 l0 -157 l-125 0 l0 1705 q83 -33 146 -63 ZM371 1454 l0 -1383 l1286 0 l0 1383 l-1286 0 Z" /><glyph glyph-name="uni56E0" unicode="&#x56e0;" d="M1033 846 q-47 -282 -185 -451 q-130 -160 -389 -260 l-31 45 q304 163 418 430 q53 133 78 324 l-457 0 l-27 51 l488 0 q4 82 4 115 l0 303 q195 -10 195 -49 q0 -27 -76 -58 l0 -198 q0 -35 -4 -113 l356 0 l94 119 q53 -44 107 -111 l18 -20 l-24 -39 l-533 0 q132 -436 551 -651 q-63 -48 -102 -111 q-377 242 -481 674 ZM352 1540 l1323 0 l78 94 q129 -101 129 -131 q0 -12 -23 -28 l-47 -29 l0 -1593 l-121 0 l0 139 l-1355 0 l0 -139 l-121 0 l0 1757 q17 -10 59 -31 q37 -18 58 -29 l20 -10 ZM336 1489 l0 -1446 l1355 0 l0 1446 l-1355 0 Z" /><glyph glyph-name="uni570B" unicode="&#x570b;" d="M1235 655 q89 143 154 354 q147 -64 147 -102 q0 -25 -74 -25 q-67 -165 -184 -331 q60 -125 146 -211 q41 -41 55 -41 q38 0 65 254 l50 -29 q-9 -104 -9 -174 q0 -128 60 -137 q-15 -88 -84 -88 q-56 0 -137 65 q-130 105 -211 264 q-5 -4 -21 -24 q-142 -173 -408 -311 l-30 40 q252 158 409 392 q-78 224 -94 567 l-657 0 l-21 51 l676 0 q-2 43 -2 152 l0 127 q166 -3 166 -43 q0 -23 -57 -47 l0 -41 q0 -86 2 -141 l297 0 l65 94 q40 -40 92 -111 l-18 -34 l-436 0 q6 -259 59 -470 ZM647 971 l195 0 l61 72 q108 -87 108 -113 q0 -13 -16 -22 l-37 -23 l0 -310 l-106 0 l0 54 l-224 0 l0 -92 l-104 0 l0 496 l123 -62 ZM628 920 l0 -240 l224 0 l0 240 l-224 0 ZM1268 1409 q194 -46 194 -137 q0 -68 -61 -68 q-36 0 -51 45 q-24 75 -103 125 l21 35 ZM1053 535 l12 -46 q-267 -119 -516 -188 q-9 -72 -35 -72 q-36 0 -88 160 q353 57 627 146 ZM353 1552 l1335 0 l76 92 q122 -101 122 -129 q0 -13 -16 -26 l-47 -35 l0 -1601 l-119 0 l0 129 l-1380 0 l0 -129 l-119 0 l0 1771 q25 -12 62 -29 q38 -19 47 -23 q8 -3 21 -11 q13 -7 18 -9 ZM324 1501 l0 -1468 l1380 0 l0 1468 l-1380 0 Z" /><glyph glyph-name="uni570D" unicode="&#x570d;" d="M1718 2 l-1392 0 l0 -129 l-121 0 l0 1792 q82 -35 152 -72 l1345 0 l75 94 q130 -104 130 -133 q0 -13 -15 -24 l-53 -37 l0 -1620 l-121 0 l0 129 ZM1718 53 l0 1489 l-1392 0 l0 -1489 l1392 0 ZM1039 344 l0 174 l-547 0 l-22 51 l569 0 l0 152 l-352 0 l0 -62 l-111 0 l0 349 q74 -23 121 -43 l612 0 l63 70 q115 -84 115 -107 q0 -12 -14 -20 l-47 -29 l0 -199 l-109 0 l0 41 l-167 0 l0 -152 l212 0 l78 98 q68 -55 111 -110 l-21 -39 l-380 0 l0 -174 l274 0 l90 100 q71 -56 123 -114 l-21 -37 l-466 0 l0 -189 l-111 0 l0 189 l-439 0 q-18 -84 -26 -112 l-105 10 q40 172 57 306 q174 -3 174 -41 q0 -24 -76 -45 q-6 -37 -13 -67 l428 0 ZM1356 1133 l106 0 l76 108 q63 -59 105 -120 l-21 -39 l-1210 0 l-20 51 l368 0 q7 14 62 145 l-256 0 l-21 51 l295 0 q21 59 47 162 q168 -16 168 -52 q0 -22 -77 -47 q-9 -28 -23 -63 l283 0 l57 74 q116 -83 116 -105 q0 -13 -14 -24 l-41 -29 l0 -112 ZM687 772 l630 0 l0 142 l-630 0 l0 -142 ZM1252 1133 l0 145 l-315 0 q-24 -64 -60 -145 l375 0 Z" /><glyph glyph-name="uni5712" unicode="&#x5712;" d="M1316 678 l0 180 l-615 0 l0 -180 l615 0 ZM963 1081 l0 156 l-444 0 l-23 51 l467 0 l0 168 q183 -3 183 -43 q0 -22 -72 -47 l0 -78 l270 0 l86 106 q74 -64 119 -118 l-18 -39 l-457 0 l0 -156 l342 0 l88 105 q64 -52 123 -117 l-20 -39 l-1166 0 l-25 51 l547 0 ZM924 627 l-223 0 l0 -60 l-111 0 l0 404 q65 -31 123 -62 l589 0 l65 70 q116 -77 116 -105 q0 -7 -12 -16 l-49 -33 l0 -231 l-106 0 l0 33 l-183 0 q59 -147 146 -222 q87 67 190 204 q113 -77 113 -114 q0 -18 -35 -18 q-16 0 -47 6 q-56 -44 -180 -112 q137 -104 350 -157 q-60 -54 -91 -104 q-396 136 -507 508 q-92 -77 -177 -121 l0 -234 q164 17 306 39 l10 -49 q-300 -80 -533 -111 q-15 -57 -35 -57 q-36 0 -75 156 q102 3 216 12 l0 193 q-194 -79 -384 -109 l-23 47 q294 63 547 243 ZM320 1503 l0 -1468 l1388 0 l0 1468 l-1388 0 ZM342 1554 l1348 0 l77 90 q130 -95 130 -127 q0 -14 -19 -26 l-49 -33 l0 -1605 l-121 0 l0 131 l-1388 0 l0 -131 l-121 0 l0 1769 q1 -1 49 -21 q23 -9 94 -47 Z" /><glyph glyph-name="uni5716" unicode="&#x5716;" d="M884 633 l226 0 l64 66 q110 -80 110 -105 q0 -10 -14 -18 l-37 -25 l0 -234 l-106 0 l0 45 l-251 0 l0 -55 l-104 0 l0 373 q46 -15 112 -47 ZM876 582 l0 -169 l251 0 l0 169 l-251 0 ZM654 803 l704 0 l71 78 q117 -89 117 -117 q0 -11 -16 -24 l-45 -33 l0 -603 l-111 0 l0 74 l-738 0 l0 -74 l-109 0 l0 752 q69 -26 127 -53 ZM636 752 l0 -523 l738 0 l0 523 l-738 0 ZM1282 1118 l-218 0 l0 -141 l349 0 l95 114 q56 -48 121 -122 l-23 -43 l-1204 0 l-18 51 l571 0 l0 141 l-233 0 l0 -61 l-113 0 l0 387 q76 -27 123 -51 l534 0 l70 73 q114 -83 114 -106 q0 -13 -14 -22 l-43 -31 l0 -240 l-111 0 l0 51 ZM1282 1169 l0 173 l-560 0 l0 -173 l560 0 ZM336 1573 l1356 0 l78 90 q122 -98 122 -127 q0 -14 -18 -26 l-45 -31 l0 -1626 l-119 0 l0 133 l-1392 0 l0 -133 l-119 0 l0 1781 q59 -20 137 -61 ZM318 1522 l0 -1485 l1392 0 l0 1485 l-1392 0 Z" /><glyph glyph-name="uni5718" unicode="&#x5718;" d="M654 1165 l290 0 l0 107 l-523 0 l-20 51 l543 0 l0 139 q182 -6 182 -41 q0 -21 -73 -49 l0 -49 l374 0 l84 102 q58 -52 116 -116 l-24 -37 l-550 0 l0 -107 l309 0 l63 68 q110 -74 110 -101 q0 -9 -16 -22 l-39 -29 l0 -290 l-106 0 l0 30 l-321 0 l0 -133 l41 2 q16 0 94 4 q47 3 125 7 q43 2 53 4 q-36 28 -111 65 l21 35 q292 -65 292 -180 q0 -60 -53 -60 q-29 0 -49 33 q-28 38 -47 57 l-45 -4 q-319 -42 -815 -71 q-19 -66 -39 -66 q-35 0 -66 160 q297 3 420 8 l70 2 l0 137 l-304 0 l0 -55 l-106 0 l0 450 q17 -5 120 -51 ZM640 1114 l0 -90 l304 0 l0 90 l-304 0 ZM1374 872 l0 101 l-321 0 l0 -101 l321 0 ZM1374 1024 l0 90 l-321 0 l0 -90 l321 0 ZM944 973 l-304 0 l0 -101 l304 0 l0 101 ZM1300 428 l0 -219 q0 -137 -159 -137 q-10 0 -17 2 q-3 74 -180 104 l0 49 q77 -12 178 -12 q72 0 72 55 l0 158 l-797 0 l-16 51 l813 0 l0 127 q174 -9 174 -41 q0 -22 -68 -43 l0 -43 l166 0 l74 72 q53 -36 100 -86 l-20 -37 l-320 0 ZM649 416 q252 -71 252 -192 q0 -72 -66 -72 q-34 0 -53 53 q-35 99 -156 180 l23 31 ZM336 1573 l1364 0 l76 90 q127 -102 127 -131 q0 -15 -17 -24 l-51 -33 l0 -1622 l-119 0 l0 131 l-1405 0 l0 -131 l-121 0 l0 1783 q92 -35 146 -63 ZM311 1522 l0 -1487 l1405 0 l0 1487 l-1405 0 Z" /><glyph glyph-name="uni5728" unicode="&#x5728;" d="M1329 627 l0 -623 l360 0 l119 148 l37 -37 q60 -57 109 -117 l-25 -45 l-1239 0 l-21 51 l539 0 l0 623 l-416 0 l-22 51 l438 0 l0 469 q207 -12 207 -57 q0 -27 -86 -58 l0 -354 l252 0 l104 141 q80 -73 142 -149 l-27 -43 l-471 0 ZM813 1262 q-99 -239 -221 -428 l0 -981 l-117 0 l0 817 q-151 -187 -356 -356 l-37 45 q227 212 393 485 l0 166 q9 -3 51 -22 q3 -1 11 -5 q7 -4 12 -6 q69 129 129 285 l-531 0 l-18 51 l569 0 q65 178 115 381 q199 -55 199 -96 q0 -30 -96 -45 q-38 -123 -82 -240 l817 0 l112 158 q77 -66 162 -170 l-22 -39 l-1090 0 Z" /><glyph glyph-name="uni5730" unicode="&#x5730;" d="M975 983 l0 -858 q0 -54 35 -70 q46 -18 352 -18 q376 0 410 51 q44 66 69 320 l54 -21 q-4 -138 -4 -159 q0 -167 75 -164 q-6 -91 -90 -113 q-97 -27 -502 -27 q-402 0 -465 41 q-53 38 -53 158 l0 824 l-215 -68 l-33 49 l248 80 l0 545 q197 -3 197 -45 q0 -25 -78 -60 l0 -403 l278 88 l0 559 q199 -3 199 -49 q0 -25 -84 -59 l0 -414 l274 88 l74 108 q132 -91 132 -120 q0 -14 -15 -23 l-51 -39 l0 -633 q0 -165 -189 -161 q-3 64 -49 86 q-45 18 -129 32 l0 52 q96 -13 176 -13 q74 0 74 64 l0 592 l-297 -95 l0 -829 l-115 0 l0 793 l-278 -89 ZM492 1088 l0 -704 q147 46 295 98 l6 -53 q-289 -145 -584 -252 q-9 -70 -35 -70 q-47 0 -90 178 q202 41 293 66 l0 737 l-268 0 l-15 51 l283 0 l0 528 q201 -9 201 -49 q0 -25 -86 -59 l0 -420 l98 0 l90 133 q73 -79 119 -143 l-23 -41 l-284 0 Z" /><glyph glyph-name="uni5740" unicode="&#x5740;" d="M1426 6 l272 0 l113 158 q55 -59 135 -170 l-23 -39 l-1312 0 l-21 51 l320 0 l0 1171 q197 -9 197 -53 q0 -25 -80 -55 l0 -1063 l280 0 l0 1609 q215 -12 215 -57 q0 -27 -96 -55 l0 -588 l194 0 l99 145 q32 -34 94 -112 q4 -7 31 -41 l-23 -43 l-395 0 l0 -858 ZM517 1096 l0 -696 q132 40 309 108 l8 -53 q-305 -157 -590 -270 q-9 -72 -35 -72 q-50 0 -96 176 q94 23 287 76 l0 731 l-262 0 l-17 51 l279 0 l0 526 q205 -9 205 -53 q0 -28 -88 -55 l0 -418 l96 0 l92 135 q35 -41 115 -147 l-23 -39 l-280 0 Z" /><glyph glyph-name="uni5831" unicode="&#x5831;" d="M498 635 l-371 0 l-22 51 l520 0 q68 159 100 338 q169 -55 169 -100 q0 -22 -70 -25 q-63 -120 -135 -213 l131 0 l92 123 q7 -7 37 -41 q42 -46 77 -92 l-24 -41 l-387 0 l0 -285 l174 0 l86 121 q67 -68 117 -135 l-25 -37 l-352 0 l0 -446 l-117 0 l0 446 l-342 0 l-23 51 l365 0 l0 285 ZM1509 252 q-149 217 -238 526 l-67 0 l0 -925 l-119 0 l0 1757 l22 -13 q30 -14 89 -47 l30 -16 l467 0 l70 92 q121 -93 121 -116 q0 -12 -23 -31 l-37 -29 q3 -63 3 -102 q0 -258 -66 -326 q-55 -56 -162 -56 q-6 57 -70 78 q-52 19 -167 37 l0 51 q180 -16 241 -16 q82 0 94 70 q15 60 15 297 l-508 0 l0 -654 l504 0 l73 84 q123 -104 123 -129 q0 -12 -22 -29 l-49 -30 q-71 -261 -197 -467 q140 -149 360 -270 q-56 -40 -96 -108 q-183 117 -323 282 q-129 -188 -324 -323 l-37 36 q178 164 293 377 ZM1562 346 q103 194 156 432 l-379 0 q88 -261 223 -432 ZM615 1356 l0 -260 l213 0 l92 121 q71 -68 119 -135 l-25 -37 l-916 0 l-18 51 l418 0 l0 260 l-330 0 l-18 51 l348 0 l0 285 q193 -6 193 -52 q0 -23 -76 -51 l0 -182 l160 0 l88 115 q56 -62 106 -127 l-24 -39 l-330 0 ZM266 1014 q189 -117 189 -231 q0 -74 -72 -74 q-44 0 -53 61 q-15 116 -99 211 l35 33 Z" /><glyph glyph-name="uni586B" unicode="&#x586b;" d="M1209 1085 l419 0 l70 80 q118 -85 118 -113 q0 -12 -16 -22 l-47 -29 l0 -598 l-111 0 l0 74 l-458 0 l0 -84 l-111 0 l0 745 q63 -18 136 -53 ZM1184 1034 l0 -127 l458 0 l0 127 l-458 0 ZM1184 528 l458 0 l0 144 l-458 0 l0 -144 ZM1184 723 l458 0 l0 133 l-458 0 l0 -133 ZM360 343 l0 741 l-244 0 l-20 51 l264 0 l0 532 q203 -12 203 -55 q0 -26 -88 -53 l0 -424 l72 0 l86 133 q50 -53 92 -121 l14 -22 l-22 -41 l-242 0 l0 -711 q120 36 250 84 l6 -53 q-271 -140 -520 -225 q-10 -76 -35 -76 q-44 0 -90 176 q76 16 274 64 ZM897 268 l0 -106 l-113 0 l0 974 q185 -9 185 -49 q0 -23 -72 -45 l0 -723 l834 0 l96 111 q67 -56 125 -123 l-21 -39 l-1034 0 ZM1039 1491 q381 71 610 184 q133 -74 133 -111 q0 -18 -37 -18 q-25 0 -61 8 q-284 -76 -461.5 -96 q-177.5 -20 -183.5 -22 l0 -72 q0 -41 27 -50 q37 -10 292 -10 q342 0 369 37 q24 38 39 158 l51 -12 q0 -107 21 -133 q15 -25 65 -25 q-3 -87 -69 -103 q-66 -16 -467 -16 q-347 0 -392 23 q-45 27 -45 117 l0 344 q187 -9 187 -47 q0 -22 -78 -50 l0 -106 ZM635 -96 q293 102 487 305 q138 -82 138 -121 q0 -20 -43 -20 q-18 0 -52 6 q-191 -137 -504 -217 l-26 47 ZM1454 207 q263 -58 396 -141 q98 -65 98 -117 q0 -72 -66 -72 q-29 0 -73 47 q-113 128 -377 242 l22 41 Z" /><glyph glyph-name="uni589E" unicode="&#x589e;" d="M977 1112 q184 -145 184 -260 q0 -66 -61 -66 q-41 0 -47 49 q-22 140 -109 248 l33 29 ZM1403 805 q73 155 109 321 q147 -52 147 -86 q0 -20 -65 -26 q-65 -126 -152 -232 l-39 23 ZM928 1237 l754 0 q-121 137 -197 322 l-269 0 l-23 51 l253 0 l76 96 q125 -88 125 -120 q0 -14 -23 -27 l-57 -31 q128 -227 424 -377 q-42 -37 -78 -110 q-61 43 -106 78 l0 -494 l-111 0 l0 45 l-780 0 l0 -60 l-109 0 l0 492 q-67 -64 -166 -143 l-33 37 q60 56 90 92 l-235 0 l0 -660 q141 51 274 110 l17 -49 q-283 -166 -549 -274 q-9 -82 -35 -82 q-42 0 -94 174 q176 49 272 82 l0 699 l-250 0 l-16 51 l266 0 l0 528 q205 -9 205 -55 q0 -25 -90 -53 l0 -420 l61 0 l93 129 q68 -75 114 -141 q174 211 257 473 q164 -62 164 -98 q0 -26 -80 -29 q-78 -152 -146 -236 l2 0 ZM916 1186 l0 -465 l322 0 l0 465 l-322 0 ZM1342 1186 l0 -465 l354 0 l0 465 l-354 0 ZM1018 510 l571 0 l76 82 q121 -90 121 -121 q0 -12 -15 -20 l-53 -35 l0 -563 l-115 0 l0 104 l-599 0 l0 -104 l-117 0 l0 720 q70 -31 131 -63 ZM1603 459 l-599 0 l0 -191 l420 0 l70 91 q62 -51 105 -103 l-25 -39 l-570 0 l0 -209 l599 0 l0 451 Z" /><glyph glyph-name="uni58A8" unicode="&#x58a8;" d="M643 1489 q198 -89 198 -193 q0 -65 -63 -65 q-46 0 -62 65 q-22 93 -100 160 l27 33 ZM1187 1243 q70 118 117 256 q143 -58 143 -90 q0 -23 -71 -29 q-57 -79 -150 -160 l-39 23 ZM1517 1127 l-438 0 l0 -166 l461 0 l86 88 q76 -50 129 -102 l-21 -37 l-655 0 l0 -173 l600 0 l96 107 q90 -68 138 -121 l-21 -37 l-1729 0 l-22 51 l823 0 l0 173 l-645 0 l-22 51 l667 0 l0 166 l-444 0 l0 -72 l-117 0 l0 591 q48 -16 140 -59 l960 0 l71 82 q130 -89 130 -117 q0 -15 -21 -26 l-51 -31 l0 -430 l-115 0 l0 62 ZM1517 1178 l0 358 l-438 0 l0 -358 l438 0 ZM964 1178 l0 358 l-444 0 l0 -358 l444 0 ZM964 201 l-625 0 l-22 51 l647 0 l0 197 q187 -3 187 -47 q0 -26 -72 -54 l0 -96 l432 0 l94 107 q65 -50 135 -123 l-22 -35 l-639 0 l0 -224 l627 0 l100 121 q88 -68 141 -133 l-24 -39 l-1795 0 l-24 51 l860 0 l0 224 ZM446 641 l45 -20 q-28 -167 -94 -254 q-62 -80 -125 -80 q-64 0 -64 70 q0 34 58 61 q111 51 180 223 ZM727 645 q159 -126 159 -227 q0 -78 -76 -78 q-52 0 -55 78 q-3 97 -65 200 l37 27 ZM1151 657 q223 -107 223 -233 q0 -72 -74 -72 q-54 0 -63 64 q-16 112 -115 209 l29 32 ZM1548 653 q311 -120 311 -255 q0 -74 -72 -74 q-47 0 -65 51 q-50 136 -197 243 l23 35 Z" /><glyph glyph-name="uni58DE" unicode="&#x58de;" d="M1691 983 l-812 0 l0 -68 l-109 0 l0 449 q44 -14 123 -53 l786 0 l67 76 q119 -88 119 -113 q0 -12 -18 -24 l-45 -29 l0 -285 l-111 0 l0 47 ZM1691 1034 l0 226 l-210 0 l0 -226 l210 0 ZM879 1260 l0 -226 l195 0 l0 226 l-195 0 ZM1178 1260 l0 -226 l197 0 l0 226 l-197 0 ZM1273 463 q-92 -74 -197 -131 l0 -283 l39 6 q164 32 295 64 l10 -51 q-269 -96 -598 -164 q-16 -66 -37 -66 q-42 0 -76 166 q166 14 256 27 l0 245 q-206 -95 -424 -147 l-24 47 q454 136 745 424 q138 -49 138 -80 q0 -22 -72 -22 l-14 0 q75 -141 163 -230 q158 125 250 246 q127 -83 127 -121 q0 -20 -37 -20 q-18 0 -51 6 q-97 -71 -254 -148 q189 -170 461 -254 q-66 -47 -102 -104 q-445 181 -598 590 ZM453 1067 l0 -676 q123 44 281 115 l16 -47 q-284 -162 -545 -275 q-9 -78 -33 -78 q-42 0 -94 166 q115 33 258 78 l0 717 l-238 0 l-16 51 l254 0 l0 522 q205 -9 205 -53 q0 -24 -88 -51 l0 -418 l70 0 l92 127 q54 -57 112 -139 l-22 -39 l-252 0 ZM1221 1481 l0 215 q199 -3 199 -43 q0 -22 -82 -49 l0 -123 l381 0 l98 123 q3 -3 17 -14 q13 -11 24 -21 q46 -46 92 -101 l-20 -38 l-1289 0 l-16 51 l596 0 ZM959 621 l77 82 q63 -46 111 -94 l-27 -39 l-421 0 l-21 51 l281 0 ZM1702 621 l78 82 q78 -62 113 -96 l-23 -37 l-426 0 l-18 51 l276 0 ZM1700 811 l82 86 q60 -46 111 -96 l-27 -41 l-418 0 l-20 51 l272 0 ZM959 811 l82 84 q56 -43 106 -96 l-22 -39 l-424 0 l-19 51 l277 0 ZM1227 621 l0 299 q178 -9 178 -47 q0 -21 -72 -43 l0 -209 l-106 0 Z" /><glyph glyph-name="uni58FD" unicode="&#x58fd;" d="M447 393 l281 0 l65 78 q117 -89 117 -117 q0 -9 -12 -18 l-43 -31 l0 -332 l-113 0 l0 84 l-320 0 l0 -112 l-115 0 l0 505 q71 -24 140 -57 ZM422 342 l0 -234 l320 0 l0 234 l-320 0 ZM1051 934 l0 -146 l455 0 l92 93 q70 -46 135 -105 l-27 -39 l-1401 0 l-28 51 l657 0 l0 146 l-494 0 l-24 51 l909 0 l89 84 q58 -35 131 -98 l-27 -37 l-467 0 ZM934 1325 l0 154 l-672 0 l-28 51 l700 0 l0 168 q199 -6 199 -47 q0 -25 -82 -55 l0 -66 l496 0 l104 113 l27 -23 q39 -31 116 -100 l-20 -41 l-723 0 l0 -154 l395 0 l99 94 q66 -37 133 -104 l-25 -41 l-1321 0 l-29 51 l631 0 ZM1563 340 l0 -332 q0 -156 -180 -153 q0 55 -54 77 q-43 16 -141 31 l0 55 q104 -14 193 -14 q65 0 65 66 l0 270 l-498 0 l-26 51 l524 0 l0 164 l-1300 0 l-25 51 l1567 0 l104 108 q84 -63 136 -118 l-27 -41 l-338 0 l0 -164 l102 0 l84 109 q52 -46 117 -121 l-26 -39 l-277 0 ZM1039 330 q219 -84 219 -197 q0 -70 -62 -70 q-50 0 -65 64 q-21 85 -117 168 l25 35 ZM1684 1157 l84 94 q137 -122 137 -157 q0 -20 -29 -23 l-72 -10 q-67 -68 -141 -125 l-41 27 q46 82 66 143 l-1536 0 l-27 51 l1559 0 Z" /><glyph glyph-name="uni5916" unicode="&#x5916;" d="M743 614 q-16 -16 -47 -16 q-43 0 -61 51 q-44 112 -201 256 q-124 -235 -301 -403 l-39 32 q340 432 457 1143 q194 -37 194 -78 q0 -25 -86 -49 q-31 -140 -53 -213 l332 0 l74 96 q126 -108 126 -141 q0 -11 -18 -22 l-47 -27 q-90 -473 -303 -811 q-228 -362 -625 -578 l-35 43 q372 253 566 590 q30 52 67 127 ZM760 649 q125 268 192 637 l-362 0 q-53 -175 -134 -338 q306 -151 306 -278 q0 -15 -2 -21 ZM1387 966 q306 -116 455 -238 q103 -84 103 -151 q0 -72 -68 -72 q-37 0 -65 41 q-143 195 -425 361 l0 -1026 l-123 0 l0 1757 q217 -3 217 -53 q0 -30 -94 -57 l0 -562 Z" /><glyph glyph-name="uni591A" unicode="&#x591a;" d="M931 1460 l414 0 l82 94 q131 -112 131 -145 q0 -15 -20 -20 l-68 -23 q-298 -381 -684 -581 q-253 -128 -614 -219 l-27 47 q490 158 768 360 q-12 -4 -18 -4 q-40 0 -62 59 q-34 97 -160 189 q-206 -160 -491 -277 l-27 39 q512 267 787 704 q170 -59 170 -92 q0 -28 -99 -31 q-23 -31 -82 -100 ZM884 1409 q-72 -79 -170 -160 q250 -92 250 -206 q0 -24 -18 -45 q222 164 401 411 l-463 0 ZM1228 774 l437 0 l77 92 q129 -120 129 -151 q0 -13 -18 -19 l-63 -24 q-338 -445 -785 -633 q-296 -123 -721 -180 l-28 49 q561 106 897 315 l-9 0 q-35 0 -51 37 q-56 136 -192 246 q-222 -144 -486 -238 l-28 45 q555 242 893 709 q161 -52 161 -88 q0 -28 -96 -31 q-34 -41 -106 -119 l-11 -10 ZM1177 723 q-113 -107 -225 -184 q264 -129 264 -244 q0 -22 -14 -39 q267 187 467 467 l-492 0 Z" /><glyph glyph-name="uni5920" unicode="&#x5920;" d="M609 700 l268 0 l70 82 q116 -101 116 -127 q0 -16 -20 -24 l-55 -27 q-168 -333 -407 -516 q-200 -154 -492 -236 l-23 47 q327 130 524 330 q-4 -2 -10 -2 q-39 0 -57 61 q-25 91 -123 166 q-118 -112 -283 -209 l-28 46 q182 133 301 279 q113 140 198 325 q160 -32 160 -66 q0 -24 -80 -39 q-3 -5 -32 -49 q-16 -25 -27 -41 ZM572 649 q-65 -87 -133 -156 q202 -86 202 -194 q0 -13 -2 -17 q123 140 240 367 l-307 0 ZM1215 451 l0 -181 l-104 0 l0 791 q55 -27 125 -66 l185 0 l69 84 q115 -82 115 -117 q0 -14 -21 -28 l-45 -31 l0 -606 l-106 0 l0 154 l-218 0 ZM1215 502 l218 0 l0 442 l-218 0 l0 -442 ZM551 1483 l260 0 l68 76 q121 -102 121 -125 q0 -14 -16 -20 l-58 -27 q-279 -518 -770 -733 l-29 47 q245 136 424 334 q-17 -4 -22 -4 q-42 0 -57 61 q-21 68 -95 129 q-103 -124 -258 -242 l-28 47 q265 250 434 678 q164 -34 164 -71 q0 -24 -80 -39 q-32 -68 -58 -111 ZM523 1432 q-62 -102 -113 -168 q176 -63 176 -164 q0 -9 -4 -31 q141 170 232 363 l-291 0 ZM1203 1290 q-92 -250 -256 -467 l-43 27 q207 389 278 845 q191 -33 191 -75 q0 -30 -86 -45 q-41 -154 -68 -234 l504 0 l75 96 q123 -101 123 -133 q0 -14 -14 -22 l-47 -33 l0 -149 q0 -739 -29 -955 q-19 -144 -95 -206 q-60 -49 -173 -56 q-4 57 -52 83 q-53 28 -208 54 l0 58 q165 -21 278 -21 q116 0 131 123 q31 246 31 954 l0 156 l-540 0 Z" /><glyph glyph-name="uni5927" unicode="&#x5927;" d="M1047 910 q-111 -796 -885 -1033 l-33 50 q726 283 803 1085 l-758 0 l-18 51 l780 0 q4 94 4 139 l0 430 q213 -9 213 -55 q0 -30 -88 -57 l0 -314 q0 -45 -4 -143 l579 0 l109 148 q78 -75 145 -160 l-22 -39 l-793 0 q194 -660 860 -965 q-73 -52 -116 -123 q-610 334 -776 986 Z" /><glyph glyph-name="uni5929" unicode="&#x5929;" d="M1065 780 q-114 -684 -901 -874 l-29 49 q729 231 809 891 l-750 0 l-23 51 l779 0 q4 94 4 115 l0 397 l-702 0 l-22 51 l1309 0 l121 147 q76 -61 162 -155 l-25 -43 l-716 0 l0 -395 q0 -43 -4 -117 l539 0 l115 143 q79 -67 153 -151 l-24 -43 l-761 0 q243 -556 846 -786 q-70 -53 -110 -123 q-570 284 -770 843 Z" /><glyph glyph-name="uni5947" unicode="&#x5947;" d="M597 649 l419 0 l74 86 q123 -92 123 -121 q0 -14 -15 -22 l-51 -33 l0 -424 l-113 0 l0 94 l-462 0 l0 -137 l-117 0 l0 618 q80 -27 142 -61 ZM572 598 l0 -318 l462 0 l0 318 l-462 0 ZM1596 854 l0 -831 q0 -171 -211 -168 q-3 62 -72 90 q-67 24 -215 45 l0 55 q206 -22 305 -22 q74 0 74 65 l0 766 l-1337 0 l-23 51 l1587 0 l103 136 l16 -17 q86 -86 119 -129 l-25 -41 l-321 0 ZM985 1313 q615 -138 615 -283 q0 -59 -59 -59 q-28 0 -78 41 q-169 138 -498 252 l-10 2 q-179 -237 -660 -313 l-22 49 q246 60 368 127 q177 95 252 266 l-557 0 l-20 51 l596 0 q29 101 32 246 q201 -6 201 -49 q0 -27 -82 -52 q-7 -78 -20 -145 l458 0 l99 129 q79 -68 141 -139 l-20 -41 l-695 0 q-15 -41 -41 -82 Z" /><glyph glyph-name="uni594F" unicode="&#x594f;" d="M805 918 q-249 -359 -688 -559 l-27 45 q357 198 573 514 l-514 0 l-16 51 l563 0 q61 101 105 209 l-465 0 l-23 51 l508 0 q32 81 57 180 l-649 0 l-20 51 l682 0 q25 124 39 250 q207 -19 207 -66 q0 -27 -91 -49 q-20 -125 -22 -135 l567 0 l105 127 q76 -70 139 -141 l-21 -37 l-800 0 q-30 -109 -56 -180 l547 0 l98 121 q62 -46 136 -135 l-27 -37 l-512 0 q71 -108 160 -209 l313 0 l105 127 q73 -61 143 -139 l-25 -39 l-487 0 q236 -230 553 -362 q-56 -44 -90 -121 q-353 187 -582 483 l-485 0 ZM835 969 l418 0 q-67 95 -116 209 l-197 0 q-49 -117 -105 -209 ZM1061 629 l0 -105 q0 -70 -12 -125 l428 0 l102 119 q64 -47 139 -129 l-24 -41 l-658 0 q-13 -49 -47 -113 q709 -144 709 -313 q0 -63 -57 -63 q-25 0 -91 47 q-222 168 -592 282 q-186 -257 -725 -340 l-24 52 q588 132 704 448 l-551 0 l-24 51 l590 0 q14 55 14 123 l0 107 l-287 0 l-22 51 l575 0 l86 100 q65 -45 130 -116 l-23 -35 l-340 0 Z" /><glyph glyph-name="uni5951" unicode="&#x5951;" d="M934 434 l-756 0 l-23 51 l789 0 q6 40 6 82 l0 166 q199 -16 199 -49 q0 -24 -80 -52 l0 -67 q0 -27 -4 -80 l586 0 l114 129 q80 -68 142 -139 l-25 -41 l-786 0 q255 -359 866 -420 q-67 -64 -96 -131 q-430 90 -635 283 q-116 108 -183 235 q-34 -148 -133 -254 q-226 -244 -778 -309 l-27 51 q441 80 650 267 q137 125 174 278 ZM1437 1491 q-2 -322 -112 -500 q-88 -142 -285 -250 l-31 41 q235 168 287 459 q18 112 21 250 l-263 0 l-28 51 l671 0 l80 92 q117 -95 117 -121 q0 -11 -14 -20 l-47 -33 q0 -361 -39 -565 q-34 -173 -209 -176 q0 55 -39 76 q-42 22 -186 47 l0 51 q137 -16 204 -16 q95 0 113 74 q44 160 41 540 l-281 0 ZM661 653 l-117 -12 l-20 185 q-213 -56 -404 -87 l-20 48 q186 38 416 112 l-19 180 q-185 -47 -358 -79 l-21 47 q209 48 371 105 l-20 187 q-167 -46 -347 -79 l-20 46 q200 47 359 106 l-26 247 q201 22 206 -21 q3 -24 -79 -66 l12 -116 q193 81 298 166 q111 -80 111 -121 q0 -19 -33 -19 q-19 0 -63 11 q-123 -62 -304 -122 l19 -177 q217 86 328 176 q110 -80 110 -121 q0 -18 -33 -18 q-19 0 -63 10 q-129 -65 -333 -128 l18 -173 q239 87 356 174 q110 -79 110 -121 q0 -18 -33 -18 q-18 0 -63 10 q-124 -62 -361 -129 l23 -203 Z" /><glyph glyph-name="uni5957" unicode="&#x5957;" d="M935 412 q-113 -177 -246 -328 l82 2 q361 9 737 39 q6 2 17 2 q-99 99 -252 193 l26 39 q262 -100 397 -224 q95 -85 95 -151 q0 -76 -72 -76 q-36 0 -69 57 q-33 59 -82 117 l-56 -8 q-571 -79 -1081 -115 q-16 -77 -41 -77 q-48 0 -88 196 q127 0 317 6 q97 172 148 328 l-633 0 l-21 51 l486 0 l0 572 q-201 -149 -475 -252 l-27 43 q418 206 660 520 l-576 0 l-21 51 l631 0 q81 116 162 307 q195 -46 195 -90 q0 -28 -101 -37 q-56 -109 -104 -180 l707 0 l102 131 q67 -55 125 -123 l18 -20 l-20 -39 l-631 0 q252 -249 733 -356 q-60 -48 -94 -119 q-241 78 -389 172 l-770 0 l0 -152 l627 0 l86 90 q44 -33 116 -106 l-20 -35 l-809 0 l0 -158 l622 0 l88 90 q55 -42 119 -106 l-20 -35 l-809 0 l0 -168 l960 0 l107 125 q67 -53 125 -117 l18 -20 l-20 -39 l-979 0 ZM695 1115 l41 -21 l602 0 l39 33 q-112 94 -207 219 l-264 0 q-94 -127 -211 -231 Z" /><glyph glyph-name="uni5973" unicode="&#x5973;" d="M1215 399 q596 -267 596 -413 q0 -68 -61 -68 q-29 0 -119 78 q-173 147 -476 315 q-293 -355 -993 -432 l-26 49 q639 108 911 441 q-249 126 -498 215 q-40 -77 -98 -185 l-113 41 q163 281 322 666 l18 43 l-538 0 l-29 51 l588 0 q107 280 172 498 q190 -34 190 -76 q0 -28 -96 -49 q-66 -207 -135 -373 l842 0 l116 156 q92 -93 150 -166 l-23 -41 l-403 0 q-90 -429 -297 -750 ZM1104 447 q191 306 273 702 l-568 0 q-101 -249 -233 -516 q242 -71 528 -186 Z" /><glyph glyph-name="uni597D" unicode="&#x597d;" d="M332 1180 l-224 0 l-16 51 l250 0 q40 216 72 459 q192 -28 192 -70 q0 -25 -86 -47 q-14 -90 -57 -342 l231 0 l76 100 q119 -103 119 -137 q0 -13 -17 -22 l-47 -29 q-51 -453 -162 -745 q197 -151 197 -242 q0 -66 -53 -66 q-33 0 -82 68 q-52 71 -109 127 q-150 -279 -477 -424 l-33 45 q293 163 424 463 q-101 91 -229 168 l-8 -29 q-3 -10 -20 -71 q-11 -39 -19 -66 l-109 35 q97 335 168 680 l19 94 ZM452 1180 q-53 -296 -131 -573 q-2 -4 -6 -17 q138 -61 252 -129 q86 232 139 719 l-254 0 ZM1413 709 l0 -672 q0 -164 -205 -164 q-3 59 -65 86 q-60 24 -193 45 l0 55 q147 -20 272 -20 q72 0 72 65 l0 605 l-479 0 l-27 51 l500 0 l0 404 q58 -4 92 -7 q141 122 254 279 l-770 0 l-23 51 l793 0 l82 96 q137 -118 137 -153 q0 -16 -22 -23 l-66 -18 q-155 -146 -315 -246 q37 -12 37 -31 q0 -25 -80 -53 l0 -299 l317 0 l103 131 q70 -67 129 -143 l-21 -39 l-522 0 Z" /><glyph glyph-name="uni5982" unicode="&#x5982;" d="M397 1184 l-273 0 l-20 51 l305 0 l4 16 q44 174 88 432 q189 -34 189 -79 q0 -27 -86 -45 q-46 -227 -66 -306 l-4 -18 l272 0 l80 102 q127 -108 127 -139 q0 -15 -18 -24 l-53 -31 q-65 -438 -197 -760 q268 -176 268 -270 q0 -68 -61 -68 q-29 0 -84 68 q-68 82 -166 168 q-174 -288 -535 -426 l-30 45 q299 149 469 459 q-147 104 -273 170 q-20 -62 -49 -146 l-114 39 q132 375 227 762 ZM522 1184 l-6 -27 q-60 -235 -164 -573 q159 -68 295 -143 q1 2 2 6 q1 5 2 8 q118 314 170 729 l-299 0 ZM1274 1407 l409 0 l80 102 q125 -103 125 -137 q0 -12 -17 -22 l-51 -31 l0 -1352 l-121 0 l0 187 l-450 0 l0 -224 l-119 0 l0 1549 q96 -42 144 -72 ZM1249 1356 l0 -1151 l450 0 l0 1151 l-450 0 Z" /><glyph glyph-name="uni59CB" unicode="&#x59cb;" d="M338 1184 l-235 0 l-17 51 l262 0 q40 190 80 455 q193 -25 193 -66 q0 -24 -84 -49 q-37 -203 -64 -340 l217 0 l74 100 q125 -97 125 -129 q0 -12 -23 -28 l-45 -29 q-61 -436 -172 -743 q248 -150 248 -244 q0 -68 -59 -68 q-32 0 -78 62 q-55 67 -154 154 q-173 -301 -495 -453 l-31 45 q293 180 438 479 q-92 65 -225 142 l-8 -25 q-12 -39 -37 -119 l-113 35 q127 404 203 770 ZM461 1184 l-4 -20 q-69 -311 -150 -588 q163 -69 246 -113 q95 285 148 721 l-240 0 ZM1135 629 l536 0 l80 86 q119 -88 119 -117 q0 -14 -19 -26 l-47 -33 l0 -686 l-117 0 l0 153 l-579 0 l0 -153 l-115 0 l0 844 q78 -35 115 -54 l27 -14 ZM1108 578 l0 -521 l579 0 l0 521 l-579 0 ZM1763 944 q-17 -3 -38 -6 q-311 -54 -760 -90 q-19 -78 -41 -78 q-43 0 -74 186 q193 4 199 5 q148 340 235 735 q205 -52 205 -97 q0 -26 -92 -38 q-110 -298 -283 -598 l45 2 q295 11 574 34 q-79 145 -213 291 l33 39 q212 -166 331 -338 q64 -90 64 -155 q0 -76 -68 -76 q-42 0 -74 84 q-17 51 -43 100 Z" /><glyph glyph-name="uni5ACC" unicode="&#x5acc;" d="M1075 563 l0 203 l-328 0 l-20 51 l348 0 l0 191 l-258 0 l-21 51 l279 0 l0 168 l-303 0 q10 -17 10 -23 q0 -12 -18 -24 l-45 -29 q-38 -450 -148 -731 q182 -132 182 -221 q0 -64 -55 -64 q-25 0 -74 66 q-40 53 -98 115 q-142 -299 -399 -465 l-35 43 q219 190 354 499 q-69 67 -166 133 q-24 -98 -39 -145 l-104 33 q99 352 170 770 l-203 0 l-16 51 l227 0 q36 223 62 455 q184 -16 184 -58 q0 -28 -82 -49 q-22 -184 -51 -348 l170 0 l71 90 q6 -5 31 -27 q15 -12 23 -20 l352 0 l0 188 q-142 -42 -295 -71 l-18 45 q305 86 524 229 q125 -61 125 -88 q0 -22 -88 -22 q-48 -21 -133 -54 l0 -227 l184 0 l0 137 q-12 -2 -51 -11 q-28 -6 -45 -9 l-23 45 q308 90 482 221 q133 -78 133 -109 q0 -22 -96 -14 q-122 -50 -287 -94 l0 -166 l258 0 l94 119 q77 -70 123 -131 l-20 -39 l-455 0 l0 -168 l172 0 l72 82 q117 -89 117 -115 q0 -12 -19 -24 l-47 -31 l0 -154 l29 0 l75 103 q57 -57 93 -115 l-19 -39 l-178 0 l0 -342 l-111 0 l0 88 l-168 0 q175 -252 486 -422 q-62 -45 -94 -110 q-248 175 -408 456 l0 -583 l-113 0 l0 659 l-184 0 l0 -659 l-115 0 l0 479 q-158 -228 -426 -395 l-35 43 q283 215 441 532 l-256 0 l-23 51 l299 0 ZM1190 563 l184 0 l0 203 l-184 0 l0 -203 ZM1487 563 l184 0 l0 203 l-184 0 l0 -203 ZM481 479 q76 220 129 705 l-190 0 q-62 -357 -125 -607 q92 -41 186 -98 ZM1487 1008 l0 -191 l184 0 l0 191 l-184 0 ZM1374 1008 l-184 0 l0 -191 l184 0 l0 191 ZM1190 1059 l184 0 l0 168 l-184 0 l0 -168 Z" /><glyph glyph-name="uni5B50" unicode="&#x5b50;" d="M1103 694 l0 -661 q0 -163 -235 -166 q0 59 -70 86 q-60 22 -262 55 l0 55 q261 -22 358 -22 q80 0 80 65 l0 588 l-852 0 l-18 51 l860 0 l0 367 q57 -3 106 -10 q222 159 361 307 l-1051 0 l-20 51 l1071 0 l92 104 q158 -123 158 -159 q0 -15 -29 -25 l-74 -18 q-184 -139 -434 -277 q33 -12 33 -26 q0 -23 -84 -54 l0 -260 l579 0 l119 152 q77 -66 152 -160 l-25 -43 l-815 0 Z" /><glyph glyph-name="uni5B57" unicode="&#x5b57;" d="M959 1401 l0 285 q203 0 203 -47 q0 -26 -86 -60 l0 -178 l639 0 l82 100 q145 -145 145 -178 q0 -18 -30 -24 l-68 -12 q-78 -84 -213 -181 l-39 33 q84 111 129 211 l-1364 0 q0 -12 2 -25 q9 -149 -64 -266 q-42 -69 -94 -69 q-76 0 -76 72 q0 29 43 75 q107 113 125 342 l52 -4 q4 -23 10 -74 l604 0 ZM1098 512 l0 -496 q0 -143 -217 -143 q-3 63 -74 88 q-70 25 -238 45 l0 57 q199 -20 324 -20 q84 0 84 68 l0 401 l-813 0 l-25 51 l832 0 l0 250 q78 -12 113 -21 q140 105 252 236 l-855 0 l-25 51 l888 0 l80 94 q145 -126 145 -155 q0 -16 -31 -25 l-65 -16 q-156 -117 -322 -207 q25 -15 25 -27 q0 -19 -84 -41 l0 -139 l573 0 l111 143 q91 -85 143 -153 l-24 -41 l-797 0 Z" /><glyph glyph-name="uni5B58" unicode="&#x5b58;" d="M783 1309 q-97 -236 -199 -401 l0 -1055 l-121 0 l0 876 q-158 -203 -360 -364 l-37 39 q246 240 397 502 l0 170 q29 -15 47 -25 l25 -12 q66 132 119 270 l-521 0 l-20 51 l561 0 q41 117 103 336 q198 -40 198 -82 q0 -29 -98 -47 q-46 -135 -74 -207 l844 0 l113 150 q94 -88 157 -164 l-22 -37 l-1112 0 ZM1371 494 l0 -451 q0 -171 -216 -168 q-3 63 -68 91 q-38 17 -194 47 l0 53 q180 -23 284 -23 q75 0 75 62 l0 389 l-558 0 l-25 51 l576 0 l0 293 q82 -14 105 -21 q114 92 179 172 l-696 0 l-24 51 l726 0 l82 100 q143 -118 143 -151 q0 -18 -31 -25 l-63 -14 q-103 -83 -246 -157 q29 -16 29 -27 q0 -24 -85 -43 l0 -178 l369 0 l103 137 l33 -33 q36 -34 100 -114 l-25 -41 l-573 0 Z" /><glyph glyph-name="uni5B78" unicode="&#x5b78;" d="M379 940 l0 684 q70 -23 108 -43 q119 53 201 123 q113 -64 113 -97 q0 -20 -47 -20 q-4 0 -39 4 q-99 -39 -223 -61 l0 -144 l127 0 l75 88 q20 -20 99 -104 l-21 -35 l-280 0 l0 -168 l124 0 l74 90 q55 -45 103 -104 l-23 -37 l-278 0 l0 -176 l1075 0 l0 176 l-250 0 l-27 51 l277 0 l0 168 l-252 0 l-23 51 l275 0 l0 154 l-285 0 l-25 51 l295 0 l72 84 q117 -89 117 -117 q0 -14 -18 -26 l-43 -31 l0 -561 l63 0 l74 92 q133 -124 133 -157 q0 -18 -31 -27 l-59 -14 q-60 -70 -156 -140 l-37 29 q44 62 82 166 l-1436 0 q3 -18 3 -41 q0 -113 -39 -176 q-34 -57 -80 -57 q-27 0 -56 22 q-20 21 -20 43 q0 32 39 74 q76 80 85 253 l52 -8 q9 -49 10 -59 l72 0 ZM975 1503 q-76 60 -133 94 l26 37 q95 -39 158 -75 q43 54 82 129 q121 -56 121 -91 q0 -24 -72 -24 q-31 -37 -55 -62 q90 -68 90 -112 q0 -51 -47 -51 q-25 0 -43 24 q-37 50 -68 78 q-77 -68 -196 -125 l-35 35 q91 56 172 143 ZM1008 1164 q-59 51 -129 102 l26 35 q100 -45 158 -84 q63 69 98 131 q117 -58 117 -86 q0 -25 -72 -25 q-22 -26 -73 -71 q76 -64 76 -119 q0 -51 -46 -51 q-31 0 -55 45 q-19 31 -45 63 q-110 -85 -238 -141 l-32 37 q123 66 215 164 ZM1145 514 q23 -13 23 -25 q0 -19 -80 -40 l0 -64 l602 0 l110 133 q83 -77 135 -147 l-24 -37 l-817 0 l0 -324 q0 -143 -213 -143 q-4 58 -66 82 q-49 20 -212 45 l0 55 q161 -20 298 -20 q76 0 76 69 l0 236 l-845 0 l-23 51 l862 0 l0 172 q80 -14 108 -20 q150 68 256 141 l-841 0 l-20 51 l876 0 l79 80 q136 -114 136 -147 q0 -17 -33 -23 l-62 -10 q-18 -6 -32 -14 q-47 -25 -293 -101 Z" /><glyph glyph-name="uni5B83" unicode="&#x5b83;" d="M688 563 q469 157 809 424 q137 -101 137 -146 q0 -20 -35 -20 q-27 0 -73 13 q-367 -209 -820 -324 q-8 -2 -18 -6 l0 -359 q0 -67 45 -79 q46 -12 367 -12 q358 0 452 16 q64 13 86 96 q34 139 43 285 l53 -21 q0 -240 19 -295 q15 -49 80 -49 q-6 -99 -109 -121 q-115 -22 -540 -22 q-510 0 -568 37 q-53 34 -53 149 l0 1026 q213 -6 213 -51 q0 -26 -88 -60 l0 -481 ZM956 1370 l0 317 q205 0 205 -47 q0 -25 -84 -59 l0 -211 l604 0 l86 102 q146 -148 146 -188 q0 -17 -23 -20 l-76 -15 q-98 -105 -213 -194 l-37 31 q85 131 121 233 l-1317 0 q2 -14 2 -33 q0 -138 -49 -233 q-46 -86 -106 -86 q-21 0 -47 16 q-33 21 -33 54 q0 30 35 65 q119 120 129 350 l55 -8 q9 -46 12 -74 l590 0 Z" /><glyph glyph-name="uni5B89" unicode="&#x5b89;" d="M580 414 q-53 -77 -82 -117 l-113 43 q172 232 312 520 l-559 0 l-25 51 l608 0 q86 174 152 354 q186 -39 186 -80 q0 -27 -98 -43 q-57 -135 -86 -198 l-17 -33 l818 0 l112 141 q77 -65 150 -151 l-25 -41 l-428 0 q-91 -318 -280 -586 q581 -218 581 -338 q0 -57 -53 -57 q-25 0 -107 53 q-206 139 -479 260 q-299 -308 -973 -335 l-22 51 q597 59 881 336 q-247 102 -453 170 ZM613 465 q305 -87 479 -150 q166 228 254 545 l-512 0 q-102 -207 -221 -395 ZM957 1401 l0 285 q205 -3 205 -47 q0 -26 -88 -60 l0 -178 l629 0 l82 98 q147 -138 147 -180 q0 -19 -29 -22 l-65 -10 q-94 -98 -217 -203 l-41 33 q83 121 131 233 l-1352 0 q0 -134 -37 -229 q-46 -117 -118 -117 q-74 0 -74 70 q0 28 47 81 q106 116 119 332 l53 -4 q2 -22 5 -49 q0 -4 1 -10 q1 -17 2 -23 l600 0 Z" /><glyph glyph-name="uni5B8C" unicode="&#x5b8c;" d="M959 1401 l0 289 q207 -3 207 -47 q0 -29 -90 -60 l0 -182 l624 0 l78 98 q152 -142 152 -182 q0 -17 -25 -20 l-76 -12 q-66 -69 -182 -162 l-39 32 q60 92 98 195 l-1333 0 q0 -150 -47 -254 q-49 -111 -115 -111 q-75 0 -75 78 q0 31 40 72 q109 115 133 344 l54 -6 q0 -6 4 -36 q3 -21 4 -36 l588 0 ZM1277 637 l0 -549 q0 -52 32 -61 q41 -12 164 -12 q158 0 195 12 q76 27 106 356 l56 -18 q-4 -147 -4 -162 q0 -105 20 -137 q15 -24 63 -27 q-6 -107 -108 -123 q-98 -16 -313 -16 q-221 0 -273 24 q-61 28 -61 133 l0 580 l-295 0 q-40 -624 -727 -787 l-29 50 q596 187 627 737 l-557 0 l-25 51 l1481 0 l117 149 q81 -72 155 -159 l-22 -41 l-602 0 ZM1376 1055 l107 133 q18 -18 33 -31 q51 -45 108 -114 l-24 -39 l-1168 0 l-22 51 l966 0 Z" /><glyph glyph-name="uni5B8F" unicode="&#x5b8f;" d="M836 881 q-109 -296 -218 -475 q-166 -272 -450 -488 l-37 43 q379 339 575 920 l-499 0 l-19 51 l533 0 q46 154 82 344 q190 -34 190 -76 q0 -25 -78 -47 q-47 -168 -63 -221 l749 0 l113 135 q81 -64 150 -145 l-23 -41 l-1005 0 ZM956 1382 l0 311 q209 -3 209 -51 q0 -27 -88 -57 l0 -203 l606 0 l82 102 q156 -143 156 -186 q0 -21 -33 -24 l-68 -11 q-71 -74 -194 -159 l-37 31 q68 107 104 196 l-1317 0 q0 -134 -49 -235 q-46 -92 -104 -92 q-31 0 -60 29 q-20 20 -20 47 q0 30 31 61 q120 123 135 337 l53 -10 q9 -55 12 -86 l582 0 ZM1595 109 q-506 -110 -870 -152 q-18 -76 -41 -76 q-43 0 -92 191 q119 2 225 10 l6 12 q167 335 254 697 q201 -53 201 -97 q0 -28 -88 -43 q-104 -253 -285 -538 l-16 -27 q331 25 678 76 q-85 142 -232 282 l35 37 q422 -277 422 -493 q0 -86 -72 -86 q-49 0 -73 86 q-14 44 -52 121 Z" /><glyph glyph-name="uni5B98" unicode="&#x5b98;" d="M627 440 l866 0 l74 88 q127 -96 127 -123 q0 -12 -17 -22 l-51 -35 l0 -495 l-119 0 l0 127 l-880 0 l0 -127 l-123 0 l0 1319 q57 -22 145 -68 l721 0 l74 86 q125 -94 125 -123 q0 -12 -17 -22 l-51 -33 l0 -422 l-117 0 l0 98 l-757 0 l0 -248 ZM627 389 l0 -358 l880 0 l0 358 l-880 0 ZM627 1053 l0 -314 l757 0 l0 314 l-757 0 ZM956 1411 l0 285 q209 -3 209 -50 q0 -25 -92 -59 l0 -176 l633 0 l78 98 q147 -141 147 -180 q0 -21 -31 -24 l-61 -8 q-76 -83 -199 -168 l-37 30 q70 108 109 201 l-1344 0 q0 -163 -43 -256 q-46 -104 -110 -104 q-31 0 -60 29 q-20 20 -20 45 q0 32 31 63 q123 124 133 352 l57 -8 q9 -61 10 -70 l590 0 Z" /><glyph glyph-name="uni5B9A" unicode="&#x5b9a;" d="M955 145 l0 832 l-625 0 l-20 51 l1182 0 l104 119 q63 -45 139 -131 l-24 -39 l-635 0 l0 -408 l381 0 l100 139 q10 -8 19 -18 q58 -59 114 -131 l-24 -41 l-590 0 l0 -418 q228 -65 534 -65 q120 0 334 16 q-44 -50 -76 -135 l-245 0 q-486 0 -771 170 q-183 113 -315 334 q-108 -346 -387 -563 l-41 39 q320 332 373 913 q199 -37 199 -80 q0 -26 -85 -45 q-15 -106 -36 -186 q153 -248 395 -353 ZM957 1401 l0 295 q205 0 205 -47 q0 -28 -88 -62 l0 -186 l637 0 l78 98 q151 -142 151 -182 q0 -18 -31 -24 l-69 -13 q-68 -67 -160 -131 l-37 29 q43 77 74 172 l-1352 0 l0 -16 q0 -162 -66 -265 q-43 -65 -92 -65 q-28 0 -57 29 q-18 18 -18 43 q0 32 35 67 q120 127 132 344 l54 -8 q2 -15 6 -47 q3 -22 4 -31 l594 0 Z" /><glyph glyph-name="uni5B9C" unicode="&#x5b9c;" d="M674 1079 l683 0 l80 96 q126 -100 126 -129 q0 -11 -19 -26 l-49 -37 l0 -1002 l194 0 l119 147 q87 -90 139 -161 l-20 -37 l-1783 0 l-23 51 l414 0 l0 1162 q95 -41 139 -64 ZM1372 676 l-714 0 l0 -310 l714 0 l0 310 ZM1372 727 l0 301 l-714 0 l0 -301 l714 0 ZM1372 -19 l0 334 l-714 0 l0 -334 l714 0 ZM957 1393 l0 297 q205 0 205 -47 q0 -25 -84 -59 l0 -191 l626 0 l82 100 q156 -152 156 -194 q0 -17 -29 -21 l-71 -8 q-67 -66 -197 -162 l-37 35 q66 100 105 199 l-1350 0 q2 -6 2 -27 q0 -158 -51 -258 q-40 -82 -101 -82 q-30 0 -59 29 q-20 20 -20 47 q0 26 28 61 q122 144 137 357 l54 -6 q1 -16 4 -40 q3 -22 4 -30 l596 0 Z" /><glyph glyph-name="uni5BA4" unicode="&#x5ba4;" d="M741 754 q291 7 731 39 q-83 80 -254 180 l27 43 q263 -96 398 -215 q86 -77 86 -139 q0 -68 -60 -68 q-35 0 -76 59 q-24 38 -69 89 l-48 -6 q-456 -63 -1040 -101 q-21 -76 -43 -76 q-45 0 -76 187 q115 0 348 6 q79 136 148 317 l10 25 l-414 0 l-20 51 l1032 0 l100 119 l25 -21 q65 -56 115 -112 l-23 -37 l-647 0 q-100 -168 -250 -340 ZM959 1432 l0 266 q207 -3 207 -49 q0 -25 -90 -59 l0 -158 l628 0 l78 96 q148 -138 148 -174 q0 -18 -29 -24 l-68 -15 q-75 -79 -161 -143 l-39 31 q52 92 80 178 l-1348 0 q0 -138 -43 -234 q-47 -102 -107 -102 q-24 0 -53 23 q-26 20 -26 49 q0 27 43 67 q105 103 120 328 l53 -8 q9 -45 11 -72 l596 0 ZM1078 313 l0 -334 l596 0 l116 141 q83 -73 150 -155 l-25 -37 l-1771 0 l-25 51 l838 0 l0 334 l-643 0 l-25 51 l668 0 l0 272 q205 -15 205 -59 q0 -23 -84 -51 l0 -162 l438 0 l102 125 q87 -71 140 -139 l-23 -37 l-657 0 Z" /><glyph glyph-name="uni5BB6" unicode="&#x5bb6;" d="M872 938 q322 -346 322 -711 q0 -372 -291 -372 q0 56 -47 82 q-48 25 -217 59 l0 57 q162 -28 280 -28 q100 0 127 67 q29 74 29 187 q0 81 -20 171 q-352 -299 -916 -475 l-30 48 q575 205 907 550 q-32 82 -60 129 q-301 -239 -765 -372 l-29 43 q463 174 733 432 q-8 12 -12 20 q-18 28 -60 80 q-252 -161 -614 -248 l-29 45 q438 135 697 375 l-467 0 l-25 51 l1030 0 l111 127 q79 -68 141 -139 l-27 -39 l-462 0 q62 -254 192 -450 q151 153 289 356 q151 -93 151 -137 q0 -23 -45 -23 q-9 0 -45 4 q-136 -127 -315 -250 q196 -265 537 -444 q-62 -50 -105 -119 q-582 362 -727 1063 l-65 0 q-90 -79 -173 -139 ZM959 1430 l0 268 q205 0 205 -47 q0 -27 -88 -57 l0 -164 l641 0 l76 96 q147 -144 147 -180 q0 -19 -28 -22 l-70 -11 q-68 -71 -154 -139 l-41 31 q45 73 80 174 l-1368 0 l0 -16 q0 -170 -66 -267 q-36 -55 -79 -55 q-33 0 -60 27 q-20 20 -20 45 q0 31 49 84 q101 107 117 309 l47 -6 q5 -25 10 -70 l602 0 Z" /><glyph glyph-name="uni5BB9" unicode="&#x5bb9;" d="M1587 461 q-8 -9 -14 -13 l-37 -26 l0 -569 l-121 0 l0 114 l-809 0 l0 -114 l-121 0 l0 585 q-169 -101 -375 -178 l-28 47 q589 261 903 766 q170 -40 170 -78 q0 -26 -92 -35 q350 -344 887 -514 q-55 -43 -90 -117 q-161 69 -273 132 ZM1460 538 q-225 151 -426 377 q-157 -211 -440 -408 q18 -8 47 -20 l770 0 l49 51 ZM1415 18 l0 418 l-809 0 l0 -418 l809 0 ZM959 1395 l0 295 q205 -9 205 -47 q0 -26 -88 -60 l0 -188 l612 0 l80 100 q148 -144 148 -180 q0 -16 -29 -22 l-68 -12 q-88 -89 -198 -166 l-39 32 q70 104 110 197 l-1331 0 q2 -14 2 -33 q0 -154 -55 -252 q-46 -76 -100 -76 q-76 0 -76 70 q0 31 31 61 q117 121 132 359 l52 -4 q5 -25 10 -74 l602 0 ZM1198 1245 q543 -181 543 -361 q0 -63 -61 -63 q-31 0 -68 49 q-132 179 -443 332 l29 43 ZM232 774 q273 177 450 477 q164 -52 164 -96 q0 -28 -88 -31 q-194 -255 -494 -391 l-32 41 Z" /><glyph glyph-name="uni5BC4" unicode="&#x5bc4;" d="M956 1460 l0 238 q209 -4 209 -50 q0 -28 -92 -59 l0 -129 l639 0 l80 96 q164 -142 164 -178 q0 -17 -37 -26 l-74 -15 q-53 -53 -139 -112 l-37 26 q39 88 55 158 l-1360 0 q-3 -108 -51 -195 q-53 -90 -113 -90 q-78 0 -78 74 q0 31 53 78 q108 92 130 272 l51 -8 q8 -47 8 -80 l592 0 ZM1574 674 l0 -668 q0 -147 -221 -147 q0 54 -58 82 q-72 31 -253 57 l0 55 q199 -22 348 -22 q65 0 65 59 l0 584 l-1324 0 l-25 51 l1593 0 l100 131 q76 -67 135 -143 l-22 -39 l-338 0 ZM559 522 l426 0 l69 82 q119 -88 119 -115 q0 -12 -18 -24 l-43 -27 l0 -319 l-113 0 l0 63 l-471 0 l0 -96 l-115 0 l0 499 q100 -40 146 -63 ZM528 471 l0 -238 l471 0 l0 238 l-471 0 ZM1026 1059 q568 -77 568 -215 q0 -62 -64 -62 q-21 0 -73 37 q-168 123 -462 195 q-163 -206 -627 -240 l-20 49 q499 71 588 324 l-574 0 l-20 51 l606 0 q4 29 4 45 l0 125 q193 -3 193 -43 q0 -20 -74 -47 l0 -47 q0 -21 -2 -33 l381 0 l96 113 q63 -53 133 -129 l-24 -35 l-594 0 q-9 -46 -35 -88 Z" /><glyph glyph-name="uni5BCC" unicode="&#x5bcc;" d="M1404 692 l-777 0 l0 -74 l-115 0 l0 442 l27 -10 q68 -25 119 -49 l732 0 l69 82 q117 -83 117 -107 q0 -15 -20 -32 l-37 -33 l0 -286 l-115 0 l0 67 ZM1404 743 l0 207 l-777 0 l0 -207 l777 0 ZM1585 -35 l-1134 0 l0 -112 l-119 0 l0 739 q77 -32 137 -66 l1100 0 l76 90 q122 -86 122 -119 q0 -16 -20 -30 l-43 -33 l0 -581 l-119 0 l0 112 ZM1585 276 l0 199 l-512 0 l0 -199 l512 0 ZM1585 225 l-512 0 l0 -209 l512 0 l0 209 ZM451 475 l0 -199 l505 0 l0 199 l-505 0 ZM956 16 l0 209 l-505 0 l0 -209 l505 0 ZM956 1442 l0 256 q203 0 203 -47 q0 -26 -86 -59 l0 -150 l625 0 l80 96 q149 -140 149 -172 q0 -15 -31 -24 l-67 -17 q-45 -74 -111 -143 l-45 25 q26 82 33 184 l-1338 0 q-3 -128 -41 -207 q-46 -104 -112 -104 q-76 0 -76 74 q0 33 39 71 q111 117 129 297 l53 -8 q6 -46 6 -72 l590 0 ZM1415 1217 l98 123 q72 -67 135 -137 l-26 -37 l-1194 0 l-19 51 l1006 0 Z" /><glyph glyph-name="uni5BD2" unicode="&#x5bd2;" d="M694 1098 l-350 0 l-15 51 l365 0 l0 187 q191 -6 191 -45 q0 -26 -76 -54 l0 -88 l413 0 l0 193 q195 -13 195 -53 q0 -24 -80 -52 l0 -88 l219 0 l90 113 l33 -27 q34 102 43 150 l-1347 0 q0 -140 -56 -226 q-53 -80 -112 -80 q-70 0 -70 72 q0 35 45 74 q114 98 123 293 l55 -4 q7 -28 10 -78 l586 0 l0 262 q207 -9 207 -51 q0 -24 -90 -55 l0 -156 l641 0 l80 96 q155 -137 155 -178 q0 -18 -30 -24 l-72 -15 q-48 -58 -121 -121 q34 -31 62 -61 l-23 -35 l-428 0 l0 -183 l162 0 l92 111 q80 -64 131 -121 l-27 -41 l-358 0 l0 -202 l326 0 l100 120 q83 -70 139 -134 l-24 -37 l-535 0 q222 -255 600 -377 q-68 -55 -100 -117 q-353 152 -572 494 l-474 0 q-119 -217 -299 -354 q-152 -115 -371 -191 l-31 47 q383 175 561 498 l-477 0 l-18 51 l532 0 l0 202 l-322 0 l-16 51 l338 0 l0 183 ZM809 1098 l0 -183 l413 0 l0 183 l-413 0 ZM809 864 l0 -202 l413 0 l0 202 l-413 0 ZM1217 219 q-30 0 -72 45 q-107 117 -336 205 l18 45 q451 -89 451 -229 q0 -66 -61 -66 ZM594 31 q459 40 888 143 l21 -51 q-415 -140 -764 -203 q-3 -88 -41 -88 q-45 0 -104 199 Z" /></font>
</defs>
</svg>
